<svg width="50" height="50" viewBox="0 0 50 50" fill="none" xmlns="http://www.w3.org/2000/svg">
<path fill-rule="evenodd" clip-rule="evenodd" d="M24.9511 42.4491C34.5886 42.4491 42.449 34.5887 42.449 24.9512C42.449 15.3137 34.5886 7.45312 24.9511 7.45312C15.3135 7.45312 7.45312 15.3137 7.45312 24.9511C7.45312 34.5885 15.3135 42.4491 24.9511 42.4491Z" fill="#FF71A5"/>
<path d="M13.342 39.3198C16.613 41.9663 20.7361 43.4237 24.9517 43.4237C35.1375 43.4237 43.4242 35.137 43.4242 24.9511C43.4242 14.7653 35.1375 6.47852 24.9517 6.47852C20.7361 6.47852 16.6131 7.93592 13.342 10.5823C10.1191 13.1897 7.84343 16.8403 6.93436 20.8615C6.81565 21.3865 7.14508 21.9083 7.67013 22.0271C8.19518 22.1456 8.71702 21.8163 8.83573 21.2913C10.5479 13.7174 17.1751 8.42783 24.9517 8.42783C34.0626 8.42783 41.4749 15.8402 41.4749 24.9511C41.4749 34.062 34.0626 41.4745 24.9517 41.4745C17.1751 41.4745 10.548 36.1849 8.83573 28.6111C8.71702 28.086 8.19489 27.7565 7.67013 27.8753C7.14508 27.994 6.81565 28.5158 6.93436 29.0409C7.84353 33.0619 10.1191 36.7124 13.342 39.3198Z" fill="white"/>
<path d="M47.9141 15.1761C47.7031 14.681 47.1306 14.4508 46.6354 14.6617C46.1402 14.8727 45.9098 15.4452 46.1209 15.9404C47.3368 18.7936 47.9533 21.8252 47.9533 24.9512C47.9533 37.6345 37.6347 47.9531 24.9514 47.9531C12.268 47.9531 1.94932 37.6345 1.94932 24.9512C1.94932 12.2678 12.268 1.94922 24.9514 1.94922C28.0779 1.94922 31.1096 2.56569 33.9621 3.78168C34.4573 3.99259 35.0297 3.76257 35.2408 3.26725C35.4519 2.77212 35.2215 2.19961 34.7264 1.9885C31.6309 0.669006 28.3421 0 24.9514 0C18.2866 0 12.0208 2.59542 7.30809 7.30799C2.59542 12.0208 0 18.2866 0 24.9512C0 31.6158 2.59542 37.8817 7.30809 42.5944C12.0209 47.3071 18.2866 49.9024 24.9514 49.9024C31.6161 49.9024 37.8819 47.307 42.5945 42.5944C47.3072 37.8818 49.9026 31.6159 49.9026 24.9512C49.9026 21.5611 49.2336 18.2723 47.9141 15.1761Z" fill="white"/>
<path d="M36.6817 8.4169H40.9924V12.942C40.9924 13.4803 41.4288 13.9167 41.9671 13.9167C42.5054 13.9167 42.9417 13.4803 42.9417 12.942V8.4169H47.2524C47.7908 8.4169 48.2271 7.98045 48.2271 7.44224C48.2271 6.90403 47.7908 6.46758 47.2524 6.46758H42.9417V1.94243C42.9417 1.40423 42.5054 0.967773 41.9671 0.967773C41.4288 0.967773 40.9924 1.40423 40.9924 1.94243V6.46758H36.6817C36.1434 6.46758 35.707 6.90403 35.707 7.44224C35.707 7.98045 36.1434 8.4169 36.6817 8.4169Z" fill="white"/>
<path d="M23.4453 30.2358C23.4453 33.4827 26.0869 36.1243 29.3338 36.1243C32.5808 36.1243 35.2224 33.4827 35.2224 30.2358C35.2224 28.185 34.168 26.3766 32.5735 25.322C34.168 24.2673 35.2224 22.4589 35.2224 20.4081C35.2224 17.1611 32.5808 14.5195 29.3338 14.5195C26.0869 14.5195 23.4453 17.1611 23.4453 20.4081C23.4453 22.4589 24.4997 24.2673 26.0942 25.322C24.4998 26.3766 23.4453 28.185 23.4453 30.2358ZM25.3946 20.4081C25.3946 18.236 27.1617 16.4688 29.3338 16.4688C31.5059 16.4688 33.2731 18.236 33.2731 20.4081C33.2731 22.5802 31.5059 24.3473 29.3338 24.3473C27.1618 24.3473 25.3946 22.5802 25.3946 20.4081ZM29.3338 26.2966C31.5059 26.2966 33.2731 28.0638 33.2731 30.2358C33.2731 32.4078 31.5059 34.175 29.3338 34.175C27.1617 34.175 25.3946 32.4078 25.3946 30.2358C25.3946 28.0638 27.1618 26.2966 29.3338 26.2966Z" fill="white"/>
<path d="M19.1568 15.7928C19.1562 15.7845 19.1562 15.7761 19.1554 15.7679C19.1523 15.7378 19.1476 15.7077 19.1416 15.6778C19.1402 15.6707 19.1383 15.6636 19.1367 15.6566C19.131 15.6311 19.1249 15.6056 19.1171 15.5805C19.112 15.5641 19.1055 15.5483 19.0995 15.5323C19.0945 15.5184 19.0902 15.5045 19.0844 15.4908C19.0724 15.4625 19.0591 15.4349 19.0446 15.4079C19.044 15.4068 19.0436 15.4058 19.043 15.4048C19.0276 15.3764 19.0108 15.3491 18.9928 15.3225C18.9885 15.3163 18.9834 15.3103 18.979 15.3041C18.9647 15.2841 18.9501 15.2642 18.9344 15.2452C18.9334 15.244 18.9327 15.2429 18.9317 15.2417C18.9249 15.2335 18.9173 15.2265 18.9101 15.2186C18.8968 15.2038 18.8835 15.1888 18.8693 15.1748C18.8583 15.1639 18.8466 15.154 18.8351 15.1438C18.823 15.133 18.8111 15.1219 18.7985 15.1118C18.7856 15.1013 18.7719 15.0916 18.7585 15.0818C18.7464 15.0729 18.7344 15.0638 18.7218 15.0555C18.7082 15.0466 18.6942 15.0385 18.6802 15.0302C18.6667 15.0222 18.6533 15.0141 18.6394 15.0068C18.6262 14.9999 18.6128 14.9938 18.5993 14.9875C18.5837 14.9803 18.5682 14.9729 18.5522 14.9664C18.5399 14.9614 18.5273 14.9571 18.5148 14.9526C18.4973 14.9464 18.4798 14.94 18.4619 14.9348C18.4498 14.9312 18.4374 14.9284 18.4253 14.9253C18.4068 14.9207 18.3886 14.916 18.3699 14.9124C18.3562 14.9097 18.3424 14.9081 18.3287 14.9061C18.3113 14.9036 18.2941 14.9007 18.2763 14.8991C18.2587 14.8975 18.2409 14.8972 18.2233 14.8965C18.2108 14.896 18.1986 14.8945 18.1861 14.8945C18.1843 14.8945 18.1827 14.8948 18.1809 14.8948C18.1591 14.8949 18.1374 14.8966 18.1156 14.898C18.1052 14.8988 18.0946 14.8988 18.0842 14.8999C18.059 14.9025 18.0339 14.9068 18.0089 14.9114C17.9889 14.9151 17.9694 14.9197 17.9499 14.9246C17.9324 14.9289 17.9148 14.9327 17.8975 14.9381C17.8794 14.9438 17.8621 14.9508 17.8445 14.9573C17.8322 14.962 17.8198 14.9657 17.8076 14.9708C17.7812 14.982 17.7557 14.9945 17.7304 15.0079C17.7268 15.0098 17.7231 15.0115 17.7195 15.0134C17.692 15.0284 17.6652 15.0447 17.6395 15.0623C17.6323 15.0672 17.6254 15.073 17.6183 15.0782C17.5992 15.0919 17.5803 15.1056 17.5623 15.1207C17.561 15.1217 17.5598 15.1226 17.5585 15.1236L13.6908 18.3784C13.279 18.725 13.2261 19.3398 13.5727 19.7516C13.7656 19.9808 14.0412 20.0987 14.3189 20.0987C14.5405 20.0987 14.7633 20.0237 14.946 19.8698L17.2114 17.9633V34.7741C17.2114 35.3123 17.6478 35.7487 18.1861 35.7487C18.7244 35.7487 19.1607 35.3123 19.1607 34.7741V15.8693C19.1607 15.8677 19.1605 15.8663 19.1605 15.8647C19.1603 15.8407 19.1587 15.8168 19.1568 15.7928Z" fill="white"/>
<path d="M8.42979 24.9512C8.42979 24.4144 7.99197 23.9766 7.45513 23.9766C6.91829 23.9766 6.48047 24.4144 6.48047 24.9512C6.48047 25.4881 6.91829 25.9259 7.45513 25.9259C7.99187 25.9259 8.42979 25.4881 8.42979 24.9512Z" fill="white"/>
</svg>
