<svg width="25" height="24" viewBox="0 0 25 24" fill="none" xmlns="http://www.w3.org/2000/svg">
<rect width="24" height="24" rx="12" transform="matrix(-1 0 0 1 24.5 0)" fill="white"/>
<path fill-rule="evenodd" clip-rule="evenodd" d="M12.5 2C6.986 2 2.5 6.486 2.5 12C2.5 17.514 6.986 22 12.5 22C18.014 22 22.5 17.514 22.5 12C22.5 6.486 18.014 2 12.5 2ZM12.5 3.5C17.187 3.5 21 7.313 21 12C21 16.687 17.187 20.5 12.5 20.5C7.813 20.5 4 16.687 4 12C4 7.313 7.813 3.5 12.5 3.5ZM13.4124 7.9977L9.9264 11.4687C9.7854 11.6097 9.7064 11.8007 9.7064 11.9997C9.7064 12.1997 9.7854 12.3907 9.9264 12.5317L13.4124 16.0017C13.5584 16.1477 13.7504 16.2207 13.9414 16.2207C14.1334 16.2207 14.3264 16.1477 14.4724 15.9997C14.7644 15.7057 14.7634 15.2317 14.4704 14.9397L11.5184 11.9997L14.4704 9.0607C14.7634 8.7687 14.7644 8.2937 14.4724 7.9997C14.1804 7.7047 13.7064 7.7067 13.4124 7.9977Z" fill="#C0A3FA"/>
</svg>
