<svg width="25" height="24" viewBox="0 0 25 24" fill="none" xmlns="http://www.w3.org/2000/svg">
<rect x="0.5" width="24" height="24" rx="12" fill="white"/>
<path fill-rule="evenodd" clip-rule="evenodd" d="M12.5 2C18.014 2 22.5 6.486 22.5 12C22.5 17.514 18.014 22 12.5 22C6.986 22 2.5 17.514 2.5 12C2.5 6.486 6.986 2 12.5 2ZM12.5 3.5C7.813 3.5 4 7.313 4 12C4 16.687 7.813 20.5 12.5 20.5C17.187 20.5 21 16.687 21 12C21 7.313 17.187 3.5 12.5 3.5ZM11.5876 7.9977L15.0736 11.4687C15.2146 11.6097 15.2936 11.8007 15.2936 11.9997C15.2936 12.1997 15.2146 12.3907 15.0736 12.5317L11.5876 16.0017C11.4416 16.1477 11.2496 16.2207 11.0586 16.2207C10.8666 16.2207 10.6736 16.1477 10.5276 15.9997C10.2356 15.7057 10.2366 15.2317 10.5296 14.9397L13.4816 11.9997L10.5296 9.0607C10.2366 8.7687 10.2356 8.2937 10.5276 7.9997C10.8196 7.7047 11.2936 7.7067 11.5876 7.9977Z" fill="#FD3E6C"/>
</svg>
