<svg width="18" height="15" viewBox="0 0 18 15" fill="none" xmlns="http://www.w3.org/2000/svg">
<path d="M0.230469 7.45187C0.230469 7.04822 0.530421 6.71463 0.919588 6.66184L1.02778 6.65456L15.0434 6.6552L9.97998 1.61245C9.66795 1.30175 9.66686 0.796926 9.97756 0.484886C10.26 0.201215 10.7029 0.174528 11.0155 0.405452L11.1051 0.482458L17.5368 6.88645C17.5779 6.9274 17.6136 6.97173 17.6439 7.01853C17.6525 7.03262 17.6612 7.04704 17.6695 7.06174C17.6771 7.07435 17.6839 7.08743 17.6904 7.10066C17.6994 7.11992 17.7082 7.13981 17.7162 7.1601C17.7227 7.17575 17.7281 7.19097 17.7331 7.20631C17.7389 7.22533 17.7446 7.2456 17.7495 7.26618C17.7532 7.28055 17.7561 7.29438 17.7586 7.30826C17.7622 7.32892 17.7652 7.3503 17.7673 7.37193C17.7692 7.38842 17.7703 7.40477 17.7709 7.42113C17.7711 7.43105 17.7713 7.44144 17.7713 7.45187L17.7709 7.48276C17.7703 7.4984 17.7692 7.51404 17.7677 7.52964L17.7713 7.45187C17.7713 7.50218 17.7666 7.55141 17.7577 7.59914C17.7556 7.61054 17.7532 7.62224 17.7505 7.63389C17.7448 7.6579 17.7382 7.68101 17.7307 7.70367C17.727 7.71493 17.7227 7.72695 17.7181 7.73889C17.7088 7.76288 17.6986 7.78576 17.6875 7.80803C17.6823 7.81851 17.6765 7.82947 17.6705 7.84033C17.6605 7.85804 17.6502 7.87487 17.6394 7.89127C17.6317 7.90288 17.6232 7.91496 17.6144 7.92686L17.6075 7.93605C17.586 7.96411 17.5627 7.9907 17.5378 8.01565L17.5368 8.01639L11.1052 14.4214C10.7932 14.7322 10.2883 14.7311 9.9776 14.4191C9.69513 14.1355 9.67031 13.6925 9.90255 13.3808L9.97994 13.2915L15.0413 8.24982L1.02778 8.24918C0.587436 8.24918 0.230469 7.89221 0.230469 7.45187Z" fill="white"/>
</svg>
