<svg width="30" height="31" viewBox="0 0 30 31" fill="none" xmlns="http://www.w3.org/2000/svg">
<path d="M14.9631 11.984C14.8124 11.737 14.5676 11.5545 14.2778 11.4865C14.1969 11.4676 14.1132 11.4565 14.0266 11.4565H13.4688V13.6515H14.0266C14.6327 13.6515 15.124 13.1601 15.124 12.554C15.124 12.3449 15.0646 12.1503 14.9631 11.984Z" fill="#FF6489"/>
<path d="M20.1094 17.0723V15.9821C20.1094 15.7226 20.3197 15.5122 20.5793 15.5122H23.722H24.7505C24.7505 15.5122 24.622 17.0723 23.123 17.0723H20.1094Z" fill="#F8AF23"/>
<path d="M23.7216 15.5122H23.6861C23.6861 15.5122 23.5577 17.0723 22.0586 17.0723H23.1225C24.6216 17.0723 24.75 15.5122 24.75 15.5122H23.7216Z" fill="#F8D323"/>
<path d="M8.33965 16.5158C7.07484 17.0664 5.52246 17.9473 4.71855 19.9575L2.32031 26.4791H10.6567H11.0304H19.3389L23.1224 17.0725H20.1087L17.9746 22.3555L16.9691 19.9576C16.1671 17.9529 14.6545 16.9862 13.3581 16.5196C13.3581 16.5196 10.6855 15.4948 8.33965 16.5158Z" fill="#8A63D8"/>
<path d="M22.057 17.0723L18.2734 26.4789H19.3374L23.1209 17.0723H22.057Z" fill="#8A63D8"/>
<path d="M9.40359 16.5154C10.0041 16.2541 10.6256 16.1273 11.2186 16.0825C10.3459 16.0205 9.31488 16.091 8.33965 16.5154C7.07484 17.066 5.52234 17.9469 4.71855 19.9571L2.32031 26.4787H3.38426L5.7825 19.9571C6.58629 17.9469 8.13879 17.066 9.40359 16.5154Z" fill="#6377E7"/>
<path d="M10.7109 16.965C10.0836 16.965 9.57031 16.9436 9.57031 16.3163V15.0517C9.57031 14.4244 10.0836 13.9111 10.7109 13.9111C11.3382 13.9111 11.8515 14.4244 11.8515 15.0517V16.3163C11.8515 16.9436 11.3382 16.965 10.7109 16.965Z" fill="#F8AF23"/>
<path d="M10.4688 14.2729C10.4688 14.1577 10.4739 14.0452 10.4813 13.9341C9.96312 14.0411 9.57031 14.5026 9.57031 15.0512V16.3158C9.57031 16.86 9.9568 16.9481 10.4688 16.962V14.2729Z" fill="#F87023"/>
<path d="M10.9791 15.3413C9.28262 15.3413 7.89453 13.9532 7.89453 12.2567V11.0363C7.89453 9.33975 9.28262 7.95166 10.9791 7.95166C12.6757 7.95166 14.0637 9.33975 14.0637 11.0363V12.2567C14.0637 13.9532 12.6757 15.3413 10.9791 15.3413Z" fill="#F8AF23"/>
<path d="M9.12676 12.2567V11.0363C9.12676 9.55057 10.1913 8.30147 11.5953 8.014C11.3961 7.97322 11.1901 7.95166 10.9791 7.95166C9.28262 7.95166 7.89453 9.33975 7.89453 11.0363V12.2567C7.89453 13.9532 9.28262 15.3413 10.9791 15.3413C11.19 15.3413 11.396 15.3197 11.5953 15.2789C10.1913 14.9915 9.12676 13.7424 9.12676 12.2567Z" fill="#F87023"/>
<path d="M10.128 12.362C10.3001 12.362 10.4396 12.2225 10.4396 12.0504C10.4396 11.8783 10.3001 11.7388 10.128 11.7388C9.95592 11.7388 9.81641 11.8783 9.81641 12.0504C9.81641 12.2225 9.95592 12.362 10.128 12.362Z" fill="#3F3679"/>
<path d="M12.5616 12.362C12.7337 12.362 12.8732 12.2225 12.8732 12.0504C12.8732 11.8783 12.7337 11.7388 12.5616 11.7388C12.3895 11.7388 12.25 11.8783 12.25 12.0504C12.25 12.2225 12.3895 12.362 12.5616 12.362Z" fill="#3F3679"/>
<path d="M22.4296 13.6513C25.3313 13.6513 27.6835 11.2991 27.6835 8.39742C27.6835 5.49579 25.3313 3.14355 22.4296 3.14355C19.528 3.14355 17.1758 5.49579 17.1758 8.39742C17.1758 11.2991 19.528 13.6513 22.4296 13.6513Z" fill="#8A63D8"/>
<path d="M22.4287 3.14355C22.2201 3.14355 22.0148 3.15703 21.8125 3.1807C24.4237 3.48586 26.4503 5.70434 26.4503 8.39742C26.4503 11.0905 24.4237 13.309 21.8125 13.6141C22.0148 13.6378 22.2201 13.6513 22.4287 13.6513C25.3304 13.6513 27.6825 11.299 27.6825 8.39742C27.6825 5.49586 25.3304 3.14355 22.4287 3.14355Z" fill="#8A63D8"/>
<path d="M21.3436 7.87129C21.3436 7.65906 21.2517 7.55289 21.068 7.55289C20.9644 7.55289 20.8887 7.58922 20.8409 7.66176C20.803 7.71906 20.7785 7.80145 20.7673 7.90891C20.7619 7.96023 20.7179 7.99937 20.6664 7.99937H20.2235C20.1614 7.99937 20.1152 7.9443 20.1223 7.88266C20.1539 7.60645 20.2518 7.39434 20.4158 7.24633C20.6021 7.07816 20.8376 6.99414 21.1223 6.99414C21.4199 6.99414 21.6443 7.06914 21.7958 7.21926C21.9471 7.36926 22.0229 7.56473 22.0229 7.80543C22.0229 8.07203 21.9206 8.33266 21.7162 8.58754C21.5774 8.76074 21.4199 8.91578 21.2439 9.05254C21.1677 9.11172 21.2105 9.23383 21.307 9.23383H21.9636C22.02 9.23383 22.0656 9.27953 22.0656 9.33578V9.66742C22.0656 9.72379 22.0199 9.76937 21.9636 9.76937H20.2113C20.155 9.76937 20.1094 9.72367 20.1094 9.66742V9.32465C20.1094 9.29195 20.1258 9.26102 20.1523 9.24191C20.9464 8.66887 21.3436 8.21195 21.3436 7.87129Z" fill="#3F3679"/>
<path d="M22.3477 9.19354V8.77377C22.3477 8.75221 22.3546 8.73112 22.3672 8.71366L23.5709 7.06295C23.5901 7.03658 23.6207 7.021 23.6532 7.021H24.2136C24.27 7.021 24.3156 7.0667 24.3156 7.12295V8.6151C24.3156 8.67147 24.3613 8.71705 24.4175 8.71705H24.5435C24.5999 8.71705 24.6455 8.76276 24.6455 8.81901V9.19342C24.6455 9.24979 24.5998 9.29537 24.5435 9.29537H24.4175C24.3612 9.29537 24.3156 9.34108 24.3156 9.39733V9.69791C24.3156 9.75428 24.2699 9.79987 24.2136 9.79987H23.7462C23.6898 9.79987 23.6442 9.75416 23.6442 9.69791V9.39733C23.6442 9.34096 23.5985 9.29537 23.5423 9.29537H22.4497C22.3932 9.29561 22.3477 9.24991 22.3477 9.19354ZM23.514 8.04299L23.1411 8.55522C23.092 8.6226 23.1402 8.71729 23.2236 8.71729H23.5965C23.6529 8.71729 23.6985 8.67158 23.6985 8.61533V8.10311C23.6985 8.0042 23.5721 7.96319 23.514 8.04299Z" fill="#3F3679"/>
<path d="M9.57094 16.1536L10.7115 16.9648L9.81668 18.0098L8.60156 16.4102L9.57094 15.5V16.1536Z" fill="#FF6489"/>
<path d="M11.8515 16.1536L10.7109 16.9648L11.6058 18.0098L12.8209 16.4102L11.8515 15.5V16.1536Z" fill="#FF6489"/>
<path d="M10.71 19.3325C10.9446 19.3325 11.1348 19.1423 11.1348 18.9077C11.1348 18.6731 10.9446 18.4829 10.71 18.4829C10.4753 18.4829 10.2852 18.6731 10.2852 18.9077C10.2852 19.1423 10.4753 19.3325 10.71 19.3325Z" fill="#FF6489"/>
<path d="M10.71 21.4912C10.9446 21.4912 11.1348 21.301 11.1348 21.0664C11.1348 20.8318 10.9446 20.6416 10.71 20.6416C10.4753 20.6416 10.2852 20.8318 10.2852 21.0664C10.2852 21.301 10.4753 21.4912 10.71 21.4912Z" fill="#FF6489"/>
<path d="M10.71 23.6494C10.9446 23.6494 11.1348 23.4592 11.1348 23.2246C11.1348 22.99 10.9446 22.7998 10.71 22.7998C10.4753 22.7998 10.2852 22.99 10.2852 23.2246C10.2852 23.4592 10.4753 23.6494 10.71 23.6494Z" fill="#FF6489"/>
<path d="M10.71 25.8081C10.9446 25.8081 11.1348 25.6179 11.1348 25.3833C11.1348 25.1487 10.9446 24.9585 10.71 24.9585C10.4753 24.9585 10.2852 25.1487 10.2852 25.3833C10.2852 25.6179 10.4753 25.8081 10.71 25.8081Z" fill="#FF6489"/>
<path d="M14.9824 7.93109C14.9845 7.89254 14.9883 7.85445 14.9883 7.81531C14.9883 6.63418 14.0308 5.67676 12.8497 5.67676C12.2798 5.67676 11.7634 5.90105 11.38 6.26445C11.1782 6.16437 10.9517 6.1066 10.7111 6.1066C10.1458 6.1066 9.65399 6.41797 9.39559 6.87816C8.80298 7.12777 7.77137 7.6891 7.2922 8.71144C6.59833 10.1916 7.91305 10.5968 7.89454 12.0615H8.18376L8.31231 11.3369C8.31231 11.3369 10.1237 11.1032 10.2288 9.58402C10.2288 9.58402 11.8766 11.6057 14.5059 9.89949C15.4759 9.27019 15.4931 8.54715 14.9824 7.93109Z" fill="#9E9E9E"/>
<path d="M8.52442 8.71178C9.0036 7.68943 10.0352 7.12811 10.6278 6.8785C10.7852 6.5983 11.0294 6.37389 11.3237 6.24064C11.1362 6.15662 10.9299 6.10693 10.7111 6.10693C10.1458 6.10693 9.65399 6.4183 9.39559 6.8785C8.80298 7.12811 7.77137 7.68943 7.29219 8.71178C6.59833 10.192 7.91305 10.5971 7.89454 12.0618H8.18376L8.31231 11.3372C8.31231 11.3372 8.60106 11.2996 8.9545 11.1584C8.62813 10.34 7.99766 9.83549 8.52442 8.71178Z" fill="#707070"/>
<path d="M14.963 11.984C14.9736 11.9506 14.9808 11.9158 14.9808 11.8789V10.7687C14.9808 8.69105 13.2906 7.00098 11.213 7.00098C9.13539 7.00098 7.44531 8.69117 7.44531 10.7687V11.4564C7.44531 11.6506 7.6027 11.808 7.79687 11.808C7.99105 11.808 8.14844 11.6506 8.14844 11.4564V10.7687C8.14844 9.07883 9.52316 7.7041 11.2131 7.7041C12.903 7.7041 14.2777 9.07883 14.2777 10.7687V11.4864C14.5675 11.5544 14.8124 11.737 14.963 11.984Z" fill="#FF6489"/>
<path d="M8.00293 13.6515H7.79668C7.19059 13.6515 6.69922 13.1601 6.69922 12.554C6.69922 11.9479 7.19059 11.4565 7.79668 11.4565H8.00293C8.19711 11.4565 8.3545 11.6139 8.3545 11.8081V13.2999C8.3545 13.4941 8.19711 13.6515 8.00293 13.6515Z" fill="#FF6489"/>
<path d="M3.03516 27.6807H0.867187C0.770039 27.6807 0.691406 27.7593 0.691406 27.8564C0.691406 27.9536 0.770039 28.0322 0.867187 28.0322H3.03516C3.1323 28.0322 3.21094 27.9536 3.21094 27.8564C3.21094 27.7593 3.13219 27.6807 3.03516 27.6807Z" fill="#3F3679"/>
<path d="M29.1367 27.6807H26.9688C26.8716 27.6807 26.793 27.7593 26.793 27.8564C26.793 27.9536 26.8716 28.0322 26.9688 28.0322H29.1367C29.2339 28.0322 29.3125 27.9536 29.3125 27.8564C29.3125 27.7593 29.2339 27.6807 29.1367 27.6807Z" fill="#3F3679"/>
<path d="M25.2352 27.6807H4.76563C4.66848 27.6807 4.58984 27.7593 4.58984 27.8564C4.58984 27.9536 4.66848 28.0322 4.76563 28.0322H25.2352C25.3324 28.0322 25.411 27.9536 25.411 27.8564C25.411 27.7593 25.3324 27.6807 25.2352 27.6807Z" fill="#3F3679"/>
<path d="M28.2031 26.6548H29.1341C29.2312 26.6548 29.3098 26.5762 29.3098 26.479C29.3098 26.3819 29.2312 26.3032 29.1341 26.3032H28.2031C28.106 26.3032 28.0273 26.3819 28.0273 26.479C28.0273 26.5762 28.106 26.6548 28.2031 26.6548Z" fill="#3F3679"/>
<path d="M0.867187 26.6546H2.31832H4.8218H4.82215H4.8225H16.8253H16.8257H16.826H19.3369H26.9672C27.0643 26.6546 27.143 26.576 27.143 26.4788C27.143 26.3817 27.0643 26.303 26.9672 26.303H19.597L23.2406 17.2441C24.7721 17.1645 24.9245 15.5432 24.9259 15.5265C24.9299 15.4775 24.9132 15.4291 24.88 15.393C24.8467 15.3568 24.7998 15.3363 24.7506 15.3363H20.5794C20.2234 15.3363 19.9337 15.626 19.9337 15.982V17.0305L17.9693 21.8933L17.1301 19.8918C16.2798 17.7665 14.6407 16.7947 13.4188 16.355C13.4108 16.352 13.2204 16.2793 12.898 16.1916L12.8272 16.1727C12.8262 16.1723 12.825 16.1724 12.8239 16.1722L12.0267 15.4236V15.3433C12.8009 15.0796 13.445 14.5332 13.8348 13.8268H14.0269C14.7289 13.8268 15.3001 13.2556 15.3001 12.5536C15.3001 12.3466 15.2463 12.1439 15.1491 11.9604C15.1539 11.9328 15.157 11.9055 15.157 11.8784V10.7682C15.157 10.406 15.107 10.0554 15.015 9.72195C15.5919 9.1666 15.6454 8.49898 15.1615 7.87426C15.1625 7.85469 15.1634 7.83512 15.1634 7.81531C15.1634 6.53914 14.1252 5.50098 12.849 5.50098C12.2957 5.50098 11.7669 5.6975 11.3471 6.05691C11.1441 5.97313 10.9304 5.93082 10.7105 5.93082C10.1231 5.93082 9.57773 6.23902 9.27246 6.73918C8.66133 7.00473 7.62375 7.58844 7.13227 8.63703C6.7282 9.49906 6.94301 10.0282 7.26586 10.6303C7.26785 10.634 7.27102 10.6368 7.27324 10.6404C7.27184 10.683 7.26996 10.7255 7.26996 10.7684V11.3962C6.83074 11.5972 6.52418 12.0398 6.52418 12.5537C6.52418 13.196 7.00266 13.7272 7.62164 13.8133V13.9687C7.62164 14.2541 7.85367 14.4861 8.13902 14.4861H8.60215C8.83383 14.7341 9.10148 14.9416 9.39422 15.105V15.4237L8.50547 16.2581C8.4259 16.2881 8.34645 16.32 8.26758 16.3543C6.97125 16.9184 5.37773 17.8305 4.55168 19.8965L2.19586 26.303H0.867187C0.770039 26.303 0.691406 26.3817 0.691406 26.4788C0.691406 26.576 0.770039 26.6546 0.867187 26.6546ZM20.2854 15.982C20.2854 15.8198 20.4173 15.6878 20.5795 15.6878H24.5439C24.4583 16.0718 24.1546 16.8964 23.1231 16.8964H23.1204H20.2855V15.982H20.2854ZM11.953 16.2965C11.9994 16.2636 12.0268 16.2102 12.0268 16.1533V15.9059L12.5846 16.4296L11.5971 17.7297L10.9691 16.9964L11.953 16.2965ZM8.32465 11.157V10.7684C8.32465 9.17551 9.62062 7.87965 11.2136 7.87965C12.5377 7.87965 13.6557 8.77543 13.9957 9.99266C11.7784 11.146 10.4217 9.54266 10.3644 9.47316C10.3188 9.41727 10.2436 9.39488 10.175 9.41668C10.1062 9.43848 10.0579 9.50012 10.0528 9.57207C10.0139 10.1346 9.71238 10.5714 9.15656 10.8706C8.79469 11.0652 8.43539 11.1379 8.32465 11.157ZM14.027 13.4754H14.0018C14.1541 13.0986 14.2389 12.6876 14.2389 12.257V11.6578C14.4763 11.7137 14.6856 11.8658 14.8134 12.0754C14.9018 12.2204 14.9486 12.3857 14.9486 12.5538C14.9486 13.0618 14.5351 13.4754 14.027 13.4754ZM7.45066 8.78621C7.90711 7.81238 8.90742 7.27438 9.46312 7.04023C9.4991 7.02512 9.52898 6.9984 9.5482 6.9643C9.78445 6.54383 10.2298 6.2825 10.7106 6.2825C10.916 6.2825 11.1148 6.32949 11.3013 6.42207C11.3674 6.45477 11.447 6.44293 11.5004 6.39219C11.8675 6.04426 12.3465 5.85266 12.8493 5.85266C13.9315 5.85266 14.812 6.7332 14.812 7.81543C14.812 7.83828 14.8104 7.86078 14.8089 7.88328L14.8064 7.92184C14.8041 7.9659 14.8185 8.00938 14.8466 8.04348C15.2231 8.49758 15.2368 8.93434 14.89 9.34414C14.3175 7.8718 12.8859 6.82496 11.2137 6.82496C9.30961 6.82496 7.71656 8.18129 7.34977 9.97859C7.22648 9.62973 7.2191 9.28016 7.45066 8.78621ZM7.62152 10.7684C7.62152 8.78785 9.23285 7.17652 11.2134 7.17652C13.194 7.17652 14.8055 8.78785 14.8055 10.7684V11.5501C14.6992 11.4676 14.5808 11.4015 14.4539 11.3559V10.7684C14.4539 8.98168 13.0003 7.52809 11.2136 7.52809C9.4268 7.52809 7.97309 8.98168 7.97309 10.7684V11.2804H7.7973C7.73754 11.2804 7.67906 11.2861 7.62152 11.294V10.7684ZM6.87574 12.5537C6.87574 12.0455 7.28918 11.632 7.79742 11.632H8.00367C8.10059 11.632 8.17945 11.7109 8.17945 11.8078V13.2995C8.17945 13.3964 8.10059 13.4752 8.00367 13.4752H7.79742C7.28918 13.4754 6.87574 13.0618 6.87574 12.5537ZM8.13891 14.1345C8.0475 14.1345 7.97309 14.0601 7.97309 13.9687V13.8269H8.00355C8.04305 13.8269 8.08113 13.8218 8.11816 13.8136C8.17898 13.9249 8.24437 14.0326 8.31621 14.1345H8.13891ZM10.1277 14.1345H8.76141C8.63039 13.9793 8.51426 13.809 8.41535 13.625C8.4866 13.5351 8.5309 13.423 8.5309 13.2996V11.8078C8.5309 11.7089 8.50184 11.6175 8.45437 11.5382L8.46328 11.4877C8.86219 11.4032 10.0627 11.0596 10.3475 9.94754C10.8571 10.3903 12.1 11.1917 13.8289 10.4601C13.8674 10.6493 13.8872 10.8424 13.8872 11.0364V12.2568C13.8872 13.8608 12.5823 15.1657 10.9784 15.1657C10.2813 15.1657 9.62672 14.9182 9.11262 14.486H10.1276C10.2247 14.486 10.3034 14.4073 10.3034 14.3102C10.3034 14.213 10.2248 14.1345 10.1277 14.1345ZM10.9785 15.5172C11.2177 15.5172 11.4506 15.4906 11.6753 15.4415V15.4998V15.7964V16.0625L10.7105 16.7489L9.74566 16.0625V15.7341V15.4998V15.2741C10.13 15.4312 10.5468 15.5172 10.9785 15.5172ZM9.3941 15.9059V16.1533C9.3941 16.2102 9.42164 16.2636 9.46793 16.2965L10.4518 16.9964L9.82383 17.7297L8.83629 16.4296L9.3941 15.9059ZM4.87969 20.0225C5.65652 18.08 7.17316 17.2141 8.40785 16.6767C8.45215 16.6573 8.4968 16.6405 8.54133 16.6227L9.6757 18.1159C9.70781 18.1582 9.75738 18.1837 9.81047 18.1852H9.81562C9.86684 18.1852 9.9157 18.1629 9.9491 18.1238L10.7105 17.2348L11.4718 18.1238C11.5052 18.1629 11.5541 18.1852 11.6053 18.1852H11.6105C11.6636 18.1837 11.7131 18.1582 11.7452 18.1159L12.924 16.5642C13.1558 16.6313 13.2921 16.683 13.2966 16.6845C14.9802 17.2905 16.1603 18.4135 16.805 20.0252L17.8104 22.4231C17.8378 22.4885 17.9017 22.5309 17.9725 22.5309H17.9736C18.0449 22.5304 18.1087 22.487 18.1355 22.421L20.2253 17.2479H22.8602L19.2182 26.303H16.9453L15.3853 22.3414C15.3498 22.2511 15.248 22.2066 15.1574 22.2423C15.067 22.2778 15.0227 22.3798 15.0582 22.4702L16.5675 26.3029H5.08031L6.58957 22.4702C6.6252 22.3798 6.58078 22.2778 6.49043 22.2423C6.40008 22.2065 6.29801 22.2511 6.2625 22.3414L4.7025 26.303H2.57027L4.87969 20.0225Z" fill="#3F3679"/>
<path d="M11.5312 13.5277C11.6284 13.5277 11.707 13.4491 11.707 13.3519V12.6431C11.707 12.5459 11.6284 12.4673 11.5312 12.4673C11.4341 12.4673 11.3555 12.5459 11.3555 12.6431V13.3519C11.3555 13.4491 11.4342 13.5277 11.5312 13.5277Z" fill="#3F3679"/>
<path d="M10.9806 11.3682C10.9806 11.271 10.902 11.1924 10.8048 11.1924H9.44922C9.35207 11.1924 9.27344 11.271 9.27344 11.3682C9.27344 11.4653 9.35207 11.5439 9.44922 11.5439H10.8047C10.9019 11.5439 10.9806 11.4653 10.9806 11.3682Z" fill="#3F3679"/>
<path d="M11.8828 11.5439H13.2384C13.3356 11.5439 13.4142 11.4653 13.4142 11.3682C13.4142 11.271 13.3356 11.1924 13.2384 11.1924H11.8828C11.7857 11.1924 11.707 11.271 11.707 11.3682C11.707 11.4653 11.7857 11.5439 11.8828 11.5439Z" fill="#3F3679"/>
<path d="M10.4774 13.8482C10.4158 13.9232 10.4267 14.0339 10.5017 14.0956C10.6536 14.2203 10.9283 14.3624 11.2339 14.3624C11.4637 14.3624 11.7111 14.282 11.9371 14.0533C12.0053 13.9841 12.0046 13.8728 11.9355 13.8046C11.8664 13.7364 11.7551 13.7371 11.6869 13.8061C11.6422 13.8514 11.2358 14.2359 10.7243 13.8232C10.6493 13.7622 10.5389 13.7732 10.4774 13.8482Z" fill="#3F3679"/>
<path d="M22.4296 13.8271C25.4236 13.8271 27.8593 11.3913 27.8593 8.39742C27.8593 5.40352 25.4236 2.96777 22.4296 2.96777C19.4357 2.96777 17 5.40352 17 8.39742C17 11.3913 19.4357 13.8271 22.4296 13.8271ZM22.4296 3.31922C25.2297 3.31922 27.5077 5.59723 27.5077 8.3973C27.5077 11.1974 25.2297 13.4754 22.4296 13.4754C19.6296 13.4754 17.3516 11.1974 17.3516 8.3973C17.3516 5.59723 19.6296 3.31922 22.4296 3.31922Z" fill="#3F3679"/>
<path d="M22.4297 4.9209C22.5268 4.9209 22.6055 4.84226 22.6055 4.74512V3.89551C22.6055 3.79836 22.5268 3.71973 22.4297 3.71973C22.3325 3.71973 22.2539 3.79836 22.2539 3.89551V4.74512C22.2539 4.84215 22.3325 4.9209 22.4297 4.9209Z" fill="#3F3679"/>
<path d="M22.4297 12.7642C22.5268 12.7642 22.6055 12.6855 22.6055 12.5884V11.7388C22.6055 11.6416 22.5268 11.563 22.4297 11.563C22.3325 11.563 22.2539 11.6416 22.2539 11.7388V12.5884C22.2539 12.6854 22.3325 12.7642 22.4297 12.7642Z" fill="#3F3679"/>
<path d="M25.9258 8.57324H26.7754C26.8725 8.57324 26.9512 8.49461 26.9512 8.39746C26.9512 8.30031 26.8725 8.22168 26.7754 8.22168H25.9258C25.8286 8.22168 25.75 8.30031 25.75 8.39746C25.75 8.49461 25.8287 8.57324 25.9258 8.57324Z" fill="#3F3679"/>
<path d="M19.1113 8.39746C19.1113 8.30031 19.0327 8.22168 18.9355 8.22168H18.0859C17.9888 8.22168 17.9102 8.30031 17.9102 8.39746C17.9102 8.49461 17.9888 8.57324 18.0859 8.57324H18.9355C19.0327 8.57324 19.1113 8.49449 19.1113 8.39746Z" fill="#3F3679"/>
<path d="M10.71 19.5083C11.0411 19.5083 11.3105 19.2389 11.3105 18.9077C11.3105 18.5765 11.0411 18.3071 10.71 18.3071C10.3788 18.3071 10.1094 18.5765 10.1094 18.9077C10.1094 19.2389 10.3788 19.5083 10.71 19.5083ZM10.71 18.6587C10.8473 18.6587 10.959 18.7704 10.959 18.9077C10.959 19.0451 10.8473 19.1567 10.71 19.1567C10.5726 19.1567 10.4609 19.0451 10.4609 18.9077C10.4609 18.7704 10.5726 18.6587 10.71 18.6587Z" fill="#3F3679"/>
<path d="M10.71 21.667C11.0411 21.667 11.3105 21.3976 11.3105 21.0664C11.3105 20.7352 11.0411 20.4658 10.71 20.4658C10.3788 20.4658 10.1094 20.7352 10.1094 21.0664C10.1094 21.3976 10.3788 21.667 10.71 21.667ZM10.71 20.8174C10.8473 20.8174 10.959 20.9291 10.959 21.0664C10.959 21.2038 10.8473 21.3154 10.71 21.3154C10.5726 21.3154 10.4609 21.2038 10.4609 21.0664C10.4609 20.9291 10.5726 20.8174 10.71 20.8174Z" fill="#3F3679"/>
<path d="M10.71 23.8252C11.0411 23.8252 11.3105 23.5558 11.3105 23.2246C11.3105 22.8934 11.0411 22.624 10.71 22.624C10.3788 22.624 10.1094 22.8934 10.1094 23.2246C10.1094 23.5558 10.3788 23.8252 10.71 23.8252ZM10.71 22.9756C10.8473 22.9756 10.959 23.0873 10.959 23.2246C10.959 23.362 10.8473 23.4736 10.71 23.4736C10.5726 23.4736 10.4609 23.362 10.4609 23.2246C10.4609 23.0873 10.5726 22.9756 10.71 22.9756Z" fill="#3F3679"/>
<path d="M10.71 25.9839C11.0411 25.9839 11.3105 25.7145 11.3105 25.3833C11.3105 25.0521 11.0411 24.7827 10.71 24.7827C10.3788 24.7827 10.1094 25.0521 10.1094 25.3833C10.1094 25.7145 10.3788 25.9839 10.71 25.9839ZM10.71 25.1343C10.8473 25.1343 10.959 25.246 10.959 25.3833C10.959 25.5206 10.8473 25.6323 10.71 25.6323C10.5726 25.6323 10.4609 25.5206 10.4609 25.3833C10.4609 25.246 10.5726 25.1343 10.71 25.1343Z" fill="#3F3679"/>
<path d="M12.2383 21.3883H13.1733V21.8185C13.1733 21.9157 13.252 21.9943 13.3491 21.9943C13.4463 21.9943 13.5249 21.9157 13.5249 21.8185V21.3883H14.4599C14.5571 21.3883 14.6357 21.3097 14.6357 21.2125V20.6416C14.6357 20.5445 14.5571 20.4658 14.4599 20.4658H12.2383C12.1411 20.4658 12.0625 20.5445 12.0625 20.6416V21.2125C12.0625 21.3096 12.1411 21.3883 12.2383 21.3883ZM12.4141 20.8174H14.2841V21.0368H12.4141V20.8174Z" fill="#3F3679"/>
</svg>
