<svg width="30" height="31" viewBox="0 0 30 31" fill="none" xmlns="http://www.w3.org/2000/svg">
<path d="M4.01562 13.5078H25.9861V27.9822H4.01562V13.5078Z" fill="#8A63D8"/>
<path d="M4.01562 13.5078H5.24785V27.9822H4.01562V13.5078Z" fill="#6377E7"/>
<path d="M24.7539 13.5083H25.9861V27.9827H24.7539V13.5083Z" fill="#8A63D8"/>
<path d="M16.597 8.28682L18.6336 7.44905C19.9012 6.92756 21.2925 7.85967 21.2925 9.23042V10.1004H15V8.85202L16.597 8.28682Z" fill="#F8AF23"/>
<path d="M20.8984 13.5083H23.152V27.9827H20.8984V13.5083Z" fill="#9E9E9E"/>
<path d="M6.85547 13.5083H9.10899V27.9827H6.85547V13.5083Z" fill="#9E9E9E"/>
<path d="M26.492 13.5079H3.50781C3.18426 13.5079 2.92188 13.2455 2.92188 12.922V10.686C2.92188 10.3625 3.18426 10.1001 3.50781 10.1001H26.492C26.8156 10.1001 27.078 10.3625 27.078 10.686V12.9219C27.078 13.2455 26.8157 13.5079 26.492 13.5079Z" fill="#FF6489"/>
<path d="M4.1541 12.922V10.686C4.1541 10.3625 4.41649 10.1001 4.74004 10.1001H3.50781C3.18426 10.1001 2.92188 10.3625 2.92188 10.686V12.9219C2.92188 13.2454 3.18426 13.5078 3.50781 13.5078H4.74004C4.41637 13.5079 4.1541 13.2455 4.1541 12.922Z" fill="#F43075"/>
<path d="M25.8477 12.9225V10.6865C25.8477 10.363 25.5853 10.1006 25.2617 10.1006H26.4939C26.8175 10.1006 27.0799 10.363 27.0799 10.6865V12.9223C27.0799 13.2459 26.8175 13.5083 26.4939 13.5083H25.2617C25.5854 13.5084 25.8477 13.246 25.8477 12.9225Z" fill="#F48875"/>
<path d="M13.4064 8.28682L11.3698 7.44905C10.1022 6.92756 8.71094 7.85967 8.71094 9.23042V10.1004H15.0034V8.85202L13.4064 8.28682Z" fill="#F8AF23"/>
<path d="M11.2533 7.40526C10.0185 6.98502 8.71094 7.90143 8.71094 9.23033V10.1003H9.94316V9.23033C9.94316 8.35412 10.512 7.65791 11.2533 7.40526Z" fill="#F87023"/>
<path d="M18.75 7.40526C19.9848 6.98502 21.2924 7.90143 21.2924 9.23033V10.1003H20.0602V9.23033C20.0602 8.35412 19.4913 7.65791 18.75 7.40526Z" fill="#F8D323"/>
<path d="M16.0033 7.60352H13.9955C13.6693 7.60352 13.4023 7.87047 13.4023 8.19672V9.50722C13.4023 9.83347 13.6693 10.1004 13.9955 10.1004H16.0033C16.3296 10.1004 16.5965 9.83347 16.5965 9.50722V8.1966C16.5965 7.87035 16.3296 7.60352 16.0033 7.60352Z" fill="#8A63D8"/>
<path d="M18.6055 17.154C18.6055 16.8649 18.3712 16.6306 18.0821 16.6306C17.793 16.6306 17.5586 16.8649 17.5586 17.154C17.5586 17.2167 17.5702 17.2766 17.5905 17.3323L16.2316 18.3815C16.1352 18.4559 15.9944 18.4145 15.9535 18.2999L15.3184 16.5218C15.4429 16.4261 15.5235 16.2761 15.5235 16.107C15.5235 15.8179 15.2891 15.5835 15 15.5835C14.7109 15.5835 14.4766 15.8179 14.4766 16.107C14.4766 16.2762 14.5572 16.4261 14.6816 16.5218L14.0466 18.2999C14.0057 18.4145 13.8648 18.4558 13.7685 18.3815L12.4096 17.3323C12.4299 17.2765 12.4415 17.2167 12.4415 17.154C12.4415 16.8649 12.2071 16.6306 11.918 16.6306C11.6289 16.6306 11.3945 16.8649 11.3945 17.154C11.3945 17.398 11.5616 17.6023 11.7873 17.6604V20.8404C11.7873 20.9393 11.8675 21.0195 11.9664 21.0195H14.9998H18.0336C18.1325 21.0195 18.2126 20.9393 18.2126 20.8404V17.6604C18.4384 17.6024 18.6055 17.398 18.6055 17.154Z" fill="#F8AF23"/>
<path d="M22.8584 24.9317H7.14453C6.37109 24.9317 5.73828 24.2989 5.73828 23.5255V22.4258C5.73828 21.6523 6.37109 21.0195 7.14453 21.0195H22.8583C23.6318 21.0195 24.2646 21.6523 24.2646 22.4258V23.5255C24.2647 24.2989 23.6319 24.9317 22.8584 24.9317Z" fill="#F8AF23"/>
<path d="M12.9566 21.8823V22.1832C12.9566 22.2241 12.9234 22.2574 12.8824 22.2574H12.0727C12.0318 22.2574 11.9986 22.2906 11.9986 22.3316V22.6953C11.9986 22.7362 12.0317 22.7695 12.0727 22.7695H12.6643C12.7052 22.7695 12.7385 22.8027 12.7385 22.8437V23.1248C12.7385 23.1657 12.7053 23.199 12.6643 23.199H12.0727C12.0318 23.199 11.9986 23.2322 11.9986 23.2732V24.0696C11.9986 24.1105 11.9654 24.1438 11.9244 24.1438H11.5078C11.4669 24.1438 11.4336 24.1106 11.4336 24.0696V21.8823C11.4336 21.8414 11.4668 21.8081 11.5078 21.8081H12.8823C12.9234 21.8082 12.9566 21.8414 12.9566 21.8823Z" fill="#3F3679"/>
<path d="M14.4882 24.1434C14.4616 24.1434 14.4371 24.1292 14.4238 24.1062L13.94 23.2616H13.8111V24.0694C13.8111 24.1103 13.7779 24.1435 13.7369 24.1435H13.3203C13.2794 24.1435 13.2461 24.1104 13.2461 24.0694V21.8823C13.2461 21.8414 13.2793 21.8081 13.3203 21.8081H14.2107C14.3956 21.8081 14.5519 21.84 14.6797 21.9038C14.8073 21.9678 14.9031 22.0554 14.967 22.1665C15.0309 22.2777 15.0629 22.4048 15.0629 22.5479C15.0629 22.7175 15.0161 22.8617 14.9225 22.9807C14.8444 23.0798 14.737 23.1528 14.6001 23.1999C14.5567 23.2148 14.5404 23.268 14.5641 23.3072L15.0013 24.0308C15.0312 24.0803 14.9956 24.1433 14.9379 24.1433H14.4882V24.1434ZM13.8111 22.8009C13.8111 22.8418 13.8442 22.8751 13.8852 22.8751H14.1611C14.2735 22.8751 14.3561 22.8504 14.409 22.8008C14.4617 22.7512 14.4882 22.6781 14.4882 22.5812C14.4882 22.4887 14.4611 22.4161 14.4072 22.3632C14.3532 22.3104 14.2711 22.2839 14.1611 22.2839H13.8852C13.8443 22.2839 13.8111 22.3171 13.8111 22.3581V22.8009Z" fill="#3F3679"/>
<path d="M15.9126 22.3315V22.6721C15.9126 22.713 15.9458 22.7463 15.9868 22.7463H16.6278C16.6687 22.7463 16.702 22.7795 16.702 22.8205V23.0982C16.702 23.1391 16.6688 23.1724 16.6278 23.1724H15.9868C15.9459 23.1724 15.9126 23.2056 15.9126 23.2466V23.6169C15.9126 23.6578 15.9458 23.6911 15.9868 23.6911H16.727C16.7679 23.6911 16.8011 23.7242 16.8011 23.7653V24.0695C16.8011 24.1104 16.768 24.1437 16.727 24.1437H15.4218C15.3809 24.1437 15.3477 24.1105 15.3477 24.0695V21.8823C15.3477 21.8414 15.3808 21.8081 15.4218 21.8081H16.727C16.7679 21.8081 16.8011 21.8413 16.8011 21.8823V22.1832C16.8011 22.2241 16.768 22.2574 16.727 22.2574H15.9868C15.9458 22.2574 15.9126 22.2906 15.9126 22.3315Z" fill="#3F3679"/>
<path d="M17.6861 22.3315V22.6721C17.6861 22.713 17.7192 22.7463 17.7602 22.7463H18.4013C18.4422 22.7463 18.4754 22.7795 18.4754 22.8205V23.0982C18.4754 23.1391 18.4423 23.1724 18.4013 23.1724H17.7602C17.7193 23.1724 17.6861 23.2056 17.6861 23.2466V23.6169C17.6861 23.6578 17.7192 23.6911 17.7602 23.6911H18.5004C18.5413 23.6911 18.5746 23.7242 18.5746 23.7653V24.0695C18.5746 24.1104 18.5414 24.1437 18.5004 24.1437H17.1953C17.1544 24.1437 17.1211 24.1105 17.1211 24.0695V21.8823C17.1211 21.8414 17.1543 21.8081 17.1953 21.8081H18.5004C18.5413 21.8081 18.5746 21.8413 18.5746 21.8823V22.1832C18.5746 22.2241 18.5414 22.2574 18.5004 22.2574H17.7602C17.7192 22.2574 17.6861 22.2906 17.6861 22.3315Z" fill="#3F3679"/>
<path d="M6.34614 3.88739L6.46825 4.13478C6.54958 4.29954 6.70672 4.4138 6.8886 4.44017L7.16165 4.47989C7.61962 4.54646 7.80243 5.10919 7.47102 5.43216L7.27344 5.6247C7.14184 5.7529 7.08184 5.93771 7.1129 6.11888L7.15954 6.39075C7.2377 6.84685 6.75911 7.19466 6.34954 6.97927L6.10532 6.85095C5.94266 6.7654 5.74837 6.7654 5.58571 6.85095L5.34149 6.97927C4.93192 7.19454 4.45321 6.84685 4.53149 6.39075L4.57813 6.11888C4.60918 5.93782 4.54919 5.75302 4.41758 5.6247L4.22001 5.43216C3.8886 5.10919 4.07153 4.54646 4.52938 4.47989L4.80243 4.44017C4.9843 4.4138 5.14145 4.29954 5.22278 4.13478L5.34489 3.88739C5.54973 3.47243 6.14141 3.47243 6.34614 3.88739Z" fill="#F8AF23"/>
<path d="M5.76386 6.39075L5.8105 6.11888C5.84156 5.93782 5.78156 5.75302 5.64995 5.6247L5.45238 5.43216C5.12097 5.10919 5.3039 4.54645 5.76175 4.47989L6.0348 4.44017C6.21667 4.4138 6.37382 4.29954 6.45515 4.13478L6.46171 4.12142L6.34617 3.88739C6.14144 3.47243 5.54964 3.47243 5.34492 3.88739L5.22281 4.13478C5.14148 4.29954 4.98433 4.4138 4.80246 4.44017L4.52941 4.47989C4.07144 4.54645 3.88863 5.10919 4.22003 5.43216L4.41761 5.6247C4.54921 5.7529 4.60921 5.9377 4.57816 6.11888L4.53152 6.39075C4.45335 6.84684 4.93195 7.19454 5.34152 6.97927L5.58574 6.85095C5.66671 6.80841 5.75554 6.78708 5.84437 6.78684C5.773 6.67681 5.73831 6.53993 5.76386 6.39075Z" fill="#F87023"/>
<path d="M23.6574 3.88739L23.5353 4.13478C23.454 4.29954 23.2968 4.4138 23.115 4.44017L22.8419 4.47989C22.3839 4.54646 22.2011 5.10919 22.5325 5.43216L22.7301 5.6247C22.8617 5.7529 22.9217 5.93771 22.8907 6.11888L22.844 6.39075C22.7659 6.84685 23.2444 7.19466 23.654 6.97927L23.8982 6.85095C24.0609 6.7654 24.2552 6.7654 24.4178 6.85095L24.6621 6.97927C25.0716 7.19454 25.5504 6.84685 25.4721 6.39075L25.4254 6.11888C25.3944 5.93782 25.4544 5.75302 25.586 5.6247L25.7836 5.43216C26.115 5.10919 25.932 4.54646 25.4742 4.47989L25.2011 4.44017C25.0193 4.4138 24.8621 4.29954 24.7808 4.13478L24.6587 3.88739C24.4538 3.47243 23.8621 3.47243 23.6574 3.88739Z" fill="#F8AF23"/>
<path d="M24.2408 6.39075L24.1942 6.11888C24.1631 5.93782 24.2231 5.75302 24.3547 5.6247L24.5523 5.43216C24.8837 5.10919 24.7008 4.54645 24.2429 4.47989L23.9699 4.44017C23.788 4.4138 23.6309 4.29954 23.5495 4.13478L23.543 4.12142L23.6585 3.88739C23.8632 3.47243 24.455 3.47243 24.6598 3.88739L24.7819 4.13478C24.8632 4.29954 25.0204 4.4138 25.2022 4.44017L25.4753 4.47989C25.9333 4.54645 26.1161 5.10919 25.7847 5.43216L25.5871 5.6247C25.4555 5.7529 25.3955 5.9377 25.4265 6.11888L25.4732 6.39075C25.5513 6.84684 25.0727 7.19454 24.6632 6.97927L24.4189 6.85095C24.338 6.80841 24.2491 6.78708 24.1603 6.78684C24.2317 6.67681 24.2664 6.53993 24.2408 6.39075Z" fill="#F8D323"/>
<path d="M15.5024 1.95136L15.6245 2.19874C15.7058 2.36351 15.863 2.47776 16.0449 2.50413L16.3179 2.54386C16.7759 2.61042 16.9587 3.17315 16.6273 3.49612L16.4297 3.68866C16.2981 3.81686 16.2381 4.00167 16.2692 4.18284L16.3158 4.45472C16.394 4.91081 15.9154 5.25862 15.5058 5.04323L15.2616 4.91491C15.0989 4.82937 14.9046 4.82937 14.742 4.91491L14.4977 5.04323C14.0882 5.25851 13.6095 4.91081 13.6877 4.45472L13.7344 4.18284C13.7654 4.00179 13.7054 3.81698 13.5738 3.68866L13.3763 3.49612C13.0448 3.17315 13.2278 2.61042 13.6856 2.54386L13.9587 2.50413C14.1406 2.47776 14.2977 2.36351 14.379 2.19874L14.5011 1.95136C14.7059 1.5364 15.2977 1.5364 15.5024 1.95136Z" fill="#F8AF23"/>
<path d="M14.9201 4.45472L14.9668 4.18284C14.9978 4.00179 14.9378 3.81698 14.8062 3.68866L14.6086 3.49612C14.2772 3.17315 14.4602 2.61042 14.918 2.54386L15.191 2.50413C15.3729 2.47776 15.5301 2.36351 15.6114 2.19874L15.618 2.18538L15.5024 1.95136C15.2977 1.5364 14.7059 1.5364 14.5012 1.95136L14.3791 2.19874C14.2977 2.36351 14.1406 2.47776 13.9587 2.50413L13.6857 2.54386C13.2277 2.61042 13.0449 3.17315 13.3763 3.49612L13.5739 3.68866C13.7055 3.81686 13.7655 4.00167 13.7344 4.18284L13.6878 4.45472C13.6096 4.91081 14.0882 5.2585 14.4978 5.04323L14.742 4.91491C14.823 4.87237 14.9118 4.85104 15.0006 4.85081C14.9293 4.74077 14.8946 4.60378 14.9201 4.45472Z" fill="#F87023"/>
<path d="M3.03516 29.1841H0.867187C0.770039 29.1841 0.691406 29.2627 0.691406 29.3599C0.691406 29.457 0.770039 29.5356 0.867187 29.5356H3.03516C3.1323 29.5356 3.21094 29.457 3.21094 29.3599C3.21094 29.2627 3.13219 29.1841 3.03516 29.1841Z" fill="#3F3679"/>
<path d="M29.1367 29.1841H26.9688C26.8717 29.1841 26.793 29.2627 26.793 29.3599C26.793 29.457 26.8717 29.5356 26.9688 29.5356H29.1367C29.2338 29.5356 29.3125 29.457 29.3125 29.3599C29.3125 29.2627 29.2338 29.1841 29.1367 29.1841Z" fill="#3F3679"/>
<path d="M25.2352 29.1841H4.76563C4.66848 29.1841 4.58984 29.2627 4.58984 29.3599C4.58984 29.457 4.66848 29.5356 4.76563 29.5356H25.2352C25.3323 29.5356 25.411 29.457 25.411 29.3599C25.411 29.2627 25.3323 29.1841 25.2352 29.1841Z" fill="#3F3679"/>
<path d="M0.867188 28.1582H1.79813C1.89527 28.1582 1.97391 28.0796 1.97391 27.9824C1.97391 27.8853 1.89527 27.8066 1.79813 27.8066H0.867188C0.770039 27.8066 0.691406 27.8853 0.691406 27.9824C0.691406 28.0796 0.770039 28.1582 0.867188 28.1582Z" fill="#3F3679"/>
<path d="M28.2031 28.1582H29.1339C29.231 28.1582 29.3097 28.0796 29.3097 27.9824C29.3097 27.8853 29.231 27.8066 29.1339 27.8066H28.2031C28.1061 27.8066 28.0273 27.8853 28.0273 27.9824C28.0273 28.0796 28.1061 28.1582 28.2031 28.1582Z" fill="#3F3679"/>
<path d="M27.1417 27.9822C27.1417 27.885 27.063 27.8064 26.9659 27.8064H26.1609V13.6834H26.492C26.912 13.6834 27.2537 13.3417 27.2537 12.9217V10.6859C27.2537 10.2659 26.912 9.92417 26.492 9.92417H21.4682V9.22983C21.4682 8.52741 21.1197 7.87456 20.5362 7.48362C19.9527 7.09268 19.2164 7.01862 18.5666 7.28593L16.7545 8.03136C16.6788 7.68636 16.3711 7.42737 16.0037 7.42737H13.996C13.6286 7.42737 13.3211 7.68647 13.2453 8.03136L11.4332 7.28604C10.7834 7.01886 10.0472 7.09268 9.46363 7.48374C8.88004 7.87468 8.53164 8.52753 8.53164 9.22995V9.92429H3.50781C3.08781 9.92429 2.74609 10.266 2.74609 10.686V12.9218C2.74609 13.3418 3.08781 13.6835 3.50781 13.6835H3.83898V27.8064H3.03391C2.93676 27.8064 2.85812 27.885 2.85812 27.9822C2.85812 28.0793 2.93676 28.158 3.03391 28.158H4.01477H6.85141H9.1048H20.895H23.1484H25.9851H26.9659C27.063 28.158 27.1417 28.0792 27.1417 27.9822ZM18.7004 7.61112C19.2412 7.38858 19.8543 7.45011 20.3405 7.77565C20.8265 8.1012 21.1166 8.64483 21.1166 9.22983V9.92417H16.6486C16.7268 9.80382 16.7726 9.66073 16.7726 9.50675V9.26346H19.5546C19.6517 9.26346 19.7304 9.18483 19.7304 9.08768C19.7304 8.99054 19.6517 8.9119 19.5546 8.9119H16.7726V8.40401L18.7004 7.61112ZM13.5787 8.19636C13.5787 7.9662 13.7659 7.77893 13.9961 7.77893H16.0039C16.234 7.77893 16.4213 7.9662 16.4213 8.19636V9.50686C16.4213 9.73702 16.234 9.92429 16.0039 9.92429H14.9999H13.9961C13.7659 9.92429 13.5787 9.73702 13.5787 9.50686V8.19636ZM8.8832 9.22995C8.8832 8.64495 9.17336 8.10132 9.65934 7.77577C10.1453 7.45022 10.7584 7.38858 11.2995 7.61124L13.2271 8.40413V8.91202H10.445C10.3478 8.91202 10.2692 8.99065 10.2692 9.0878C10.2692 9.18495 10.3478 9.26358 10.445 9.26358H13.2271V9.50686C13.2271 9.66073 13.273 9.80393 13.3511 9.92429H8.8832V9.22995ZM3.09766 12.9217V11.9795H20.895C20.9921 11.9795 21.0708 11.9009 21.0708 11.8037C21.0708 11.7066 20.9921 11.628 20.895 11.628H3.09766V10.6858C3.09766 10.4596 3.28164 10.2756 3.50781 10.2756H8.70754H13.9961H14.9999H16.0037H21.2924H26.492C26.7182 10.2756 26.9022 10.4596 26.9022 10.6858V12.9216C26.9022 13.1478 26.7182 13.3317 26.492 13.3317H25.9851H23.1484H20.895H9.1048H6.85129H4.01465H3.5077C3.28164 13.3319 3.09766 13.1479 3.09766 12.9217ZM22.8569 24.7555H7.14309C6.46457 24.7555 5.91262 24.2036 5.91262 23.5251V22.4254C5.91262 21.7469 6.46457 21.1949 7.14309 21.1949H11.9662H18.0338H22.8569C23.5354 21.1949 24.0873 21.7469 24.0873 22.4254V23.5251C24.0873 24.2036 23.5354 24.7555 22.8569 24.7555ZM20.7193 25.1071V27.8063H9.28059V25.1071H20.7193ZM7.97805 18.542C8.0752 18.542 8.15383 18.4634 8.15383 18.3662V13.6834H8.92902V20.8433H8.15383V19.9548C8.15383 19.8577 8.0752 19.7791 7.97805 19.7791C7.8809 19.7791 7.80227 19.8577 7.80227 19.9548V20.8433H7.14309C7.10395 20.8433 7.06562 20.8464 7.02719 20.8492V13.6834H7.80238V18.3662C7.80227 18.4634 7.8809 18.542 7.97805 18.542ZM20.7193 13.6834V20.8433H18.3883C18.3883 20.8422 18.3886 20.8411 18.3886 20.8401V17.7818C18.6254 17.6667 18.7816 17.4249 18.7816 17.1537C18.7816 16.768 18.4679 16.4544 18.0822 16.4544C17.6966 16.4544 17.3829 16.7682 17.3829 17.1537C17.3829 17.1903 17.3859 17.2269 17.3917 17.263L16.1191 18.2405L15.5227 16.5707C15.6361 16.4438 15.6993 16.2803 15.6993 16.1066C15.6993 15.721 15.3856 15.4074 14.9999 15.4074C14.6143 15.4074 14.3007 15.7211 14.3007 16.1066C14.3007 16.2804 14.3637 16.4437 14.477 16.5706L13.8757 18.242L12.6082 17.2634C12.6141 17.2271 12.617 17.1904 12.617 17.1537C12.617 16.768 12.3033 16.4544 11.9178 16.4544C11.5322 16.4544 11.2185 16.7682 11.2185 17.1537C11.2185 17.4249 11.3746 17.6667 11.6114 17.7818V20.8401C11.6114 20.8412 11.6118 20.8423 11.6118 20.8433H9.28059V13.6834H20.7193ZM11.9628 20.8401V17.6601C11.9628 17.5798 11.9085 17.5098 11.8308 17.4898C11.6772 17.4503 11.57 17.312 11.57 17.1536C11.57 16.9619 11.7259 16.8059 11.9177 16.8059C12.1094 16.8059 12.2654 16.9619 12.2654 17.1536C12.2654 17.1932 12.2582 17.233 12.244 17.2719C12.218 17.3438 12.2413 17.4243 12.3019 17.471L13.6609 18.5202C13.7506 18.5894 13.8689 18.6117 13.9776 18.5799C14.0862 18.548 14.1739 18.4653 14.212 18.3586L14.847 16.5805C14.8727 16.5087 14.8491 16.4285 14.7885 16.382C14.7018 16.3155 14.6521 16.215 14.6521 16.1065C14.6521 15.9148 14.8081 15.7588 14.9998 15.7588C15.1916 15.7588 15.3476 15.9148 15.3476 16.1065C15.3476 16.2149 15.2978 16.3153 15.2112 16.382C15.1506 16.4284 15.1271 16.5087 15.1527 16.5804L15.7878 18.3584C15.8257 18.465 15.9133 18.5478 16.0219 18.5796C16.1308 18.6114 16.249 18.5892 16.3389 18.5201L17.6979 17.4709C17.7585 17.4242 17.7818 17.3437 17.7557 17.2717C17.7415 17.2329 17.7344 17.1932 17.7344 17.1535C17.7344 16.9617 17.8904 16.8058 18.0821 16.8058C18.2739 16.8058 18.4299 16.9617 18.4299 17.1535C18.4299 17.3119 18.3227 17.4501 18.1689 17.4897C18.0913 17.5096 18.037 17.5797 18.037 17.66L18.0337 20.8433L11.9628 20.8401ZM22.9727 20.8492C22.9342 20.8464 22.8959 20.8433 22.8569 20.8433H22.1976V19.9548C22.1976 19.8577 22.1188 19.7791 22.0218 19.7791C21.9248 19.7791 21.846 19.8577 21.846 19.9548V20.8433H21.0708V13.6834H21.846V18.3662C21.846 18.4634 21.9248 18.542 22.0218 18.542C22.1188 18.542 22.1976 18.4634 22.1976 18.3662V13.6834H22.9727V20.8492ZM4.19043 13.6834H6.67551V20.9139C6.03074 21.1138 5.56094 21.7157 5.56094 22.4253V23.525C5.56094 24.2346 6.03062 24.8365 6.67551 25.0363V27.8062H4.19043V13.6834ZM7.02707 27.8064V25.1014C7.06551 25.1042 7.10383 25.1072 7.14297 25.1072H8.92891V27.8064H7.02707ZM21.0708 27.8064V25.1072H22.8569C22.896 25.1072 22.9343 25.1042 22.9727 25.1014V27.8064H21.0708ZM23.3242 27.8064V25.0367C23.9691 24.8369 24.4389 24.2349 24.4389 23.5252V22.4255C24.4389 21.7158 23.9691 21.1138 23.3242 20.914V13.6835H25.8093V27.8064H23.3242Z" fill="#3F3679"/>
<path d="M23.1484 11.98H25.0898C25.1868 11.98 25.2655 11.9013 25.2655 11.8042C25.2655 11.7071 25.1868 11.6284 25.0898 11.6284H23.1484C23.0514 11.6284 22.9727 11.7071 22.9727 11.8042C22.9727 11.9013 23.0514 11.98 23.1484 11.98Z" fill="#3F3679"/>
<path d="M4.29531 5.75084C4.38554 5.83873 4.42668 5.96541 4.40535 6.08939L4.35871 6.36139C4.31113 6.63877 4.42304 6.91381 4.65074 7.07928C4.77941 7.17279 4.92988 7.22037 5.08152 7.22025C5.19812 7.22025 5.31543 7.19213 5.42371 7.13518L5.66793 7.00686C5.77937 6.94826 5.9125 6.94826 6.02394 7.00686L6.26804 7.13518C6.51707 7.26619 6.81344 7.24463 7.04113 7.07928C7.26883 6.91381 7.38062 6.63877 7.33316 6.36139L7.28652 6.08951C7.26519 5.96541 7.30633 5.83885 7.39644 5.75096L7.59402 5.55842C7.79559 5.36189 7.86684 5.07361 7.77976 4.80596C7.69269 4.5383 7.4657 4.34682 7.18715 4.30639L6.9141 4.26678C6.78953 4.24861 6.68183 4.17045 6.62605 4.05748L6.50394 3.8101C6.37937 3.55768 6.12719 3.40088 5.84558 3.40088C5.5641 3.40088 5.31191 3.55768 5.18734 3.8101L5.06523 4.05736C5.00945 4.17033 4.90175 4.2485 4.77718 4.26666L4.50414 4.30627C4.22558 4.3467 3.99859 4.53818 3.91152 4.80584C3.82445 5.0735 3.8957 5.36189 4.09726 5.5583L4.29531 5.75084ZM4.24644 4.91447C4.2925 4.77291 4.40781 4.67553 4.55523 4.65408L4.82828 4.61447C5.06746 4.57979 5.27406 4.42955 5.38105 4.21287L5.50316 3.96561C5.56902 3.83201 5.69722 3.75232 5.84617 3.75232C5.99512 3.75232 6.12332 3.83201 6.18918 3.96561L6.31129 4.21287C6.41828 4.42955 6.62476 4.57967 6.86406 4.61447L7.13711 4.65408C7.28441 4.67553 7.39984 4.77279 7.4459 4.91447C7.49195 5.05604 7.45574 5.20264 7.3491 5.30658L7.15141 5.49924C6.97844 5.66787 6.89957 5.9108 6.94035 6.14893L6.98699 6.4208C7.01219 6.56752 6.95523 6.70744 6.83488 6.79486C6.71453 6.8824 6.56383 6.89318 6.43199 6.82404L6.18789 6.69572C5.9739 6.58334 5.71855 6.58322 5.50468 6.69572L5.26058 6.82404C5.12863 6.8933 4.97816 6.8824 4.85769 6.79486C4.73722 6.70732 4.68039 6.56752 4.70558 6.4208L4.75222 6.14881C4.793 5.91068 4.71402 5.66775 4.54105 5.49912L4.34347 5.30658C4.2366 5.20264 4.20039 5.05604 4.24644 4.91447Z" fill="#3F3679"/>
<path d="M22.6072 5.75096C22.6975 5.83885 22.7385 5.96541 22.7171 6.08951L22.6706 6.36139C22.623 6.63877 22.735 6.91393 22.9625 7.07928C23.0913 7.17279 23.2418 7.22037 23.3934 7.22037C23.51 7.22037 23.6273 7.19225 23.7357 7.13518L23.98 7.00686C24.0914 6.94826 24.2244 6.94826 24.3359 7.00686L24.5801 7.13518C24.8291 7.26619 25.1252 7.24498 25.353 7.07928C25.5807 6.91381 25.6927 6.63877 25.6452 6.36127L25.5986 6.08939C25.5772 5.96529 25.6184 5.83861 25.7085 5.75084L25.9061 5.5583C26.1076 5.36189 26.1789 5.0735 26.0919 4.80584C26.005 4.53818 25.7778 4.3467 25.4993 4.30627L25.2262 4.26666C25.1017 4.2485 24.9941 4.17033 24.9382 4.05736L24.8161 3.8101C24.6916 3.55768 24.4394 3.40088 24.1581 3.40088C24.158 3.40088 24.158 3.40088 24.158 3.40088C23.8766 3.40088 23.6242 3.55768 23.4997 3.8101L23.3775 4.05748C23.3218 4.17033 23.2141 4.24861 23.0896 4.26678L22.8166 4.30639C22.5381 4.34682 22.3111 4.5383 22.224 4.80596C22.1369 5.07361 22.2082 5.36201 22.4098 5.55854L22.6072 5.75096ZM22.5584 4.91447C22.6044 4.77291 22.7197 4.67553 22.8671 4.6542L23.1401 4.61459C23.3793 4.57979 23.586 4.42967 23.6927 4.21299L23.8148 3.96561C23.8807 3.83201 24.009 3.75232 24.158 3.75232C24.3069 3.75232 24.435 3.83201 24.501 3.96561L24.6231 4.21299C24.7301 4.42967 24.9367 4.57979 25.1757 4.61459L25.4488 4.6542C25.5962 4.67564 25.7115 4.77291 25.7576 4.91459C25.8036 5.05615 25.7674 5.20275 25.6608 5.3067L25.4632 5.49924C25.2901 5.66787 25.2114 5.9108 25.252 6.14904L25.2987 6.42092C25.3239 6.56764 25.2669 6.70756 25.1464 6.79498C25.0261 6.88252 24.8755 6.89342 24.7437 6.82416L24.4995 6.69584C24.2855 6.58334 24.0302 6.58334 23.8162 6.69584L23.572 6.82416C23.4402 6.89353 23.2895 6.88252 23.1691 6.79498C23.0488 6.70744 22.9918 6.56764 23.017 6.42092L23.0636 6.14904C23.1044 5.91092 23.0256 5.66799 22.8524 5.49924L22.6548 5.3067C22.5485 5.20264 22.5122 5.05603 22.5584 4.91447Z" fill="#3F3679"/>
<path d="M13.4473 3.81455C13.5375 3.90244 13.5785 4.029 13.5572 4.15311L13.5106 4.42498C13.463 4.70236 13.5749 4.9774 13.8026 5.14287C13.9313 5.23627 14.0818 5.28385 14.2334 5.28385C14.3501 5.28385 14.4673 5.25572 14.5757 5.19877L14.8199 5.07033C14.9314 5.01174 15.0644 5.01174 15.1759 5.07033L15.4202 5.19877C15.6693 5.32978 15.9655 5.30822 16.1932 5.14287C16.4208 4.9774 16.5327 4.70236 16.4853 4.42486L16.4386 4.15299C16.4173 4.02889 16.4585 3.90232 16.5485 3.81443L16.7462 3.62189C16.9478 3.42537 17.0189 3.13709 16.932 2.86943C16.845 2.60178 16.6179 2.41029 16.3394 2.36986L16.0663 2.33025C15.9418 2.31209 15.8342 2.23393 15.7784 2.12096L15.6564 1.87357C15.6563 1.87357 15.6563 1.87357 15.6563 1.87357C15.5317 1.62115 15.2794 1.46436 14.9979 1.46436C14.7166 1.46436 14.4643 1.62115 14.3397 1.87357L14.2176 2.12096C14.1618 2.23381 14.0542 2.31209 13.9295 2.33025L13.6565 2.36986C13.3779 2.41029 13.1509 2.60178 13.0639 2.86943C12.9768 3.13709 13.048 3.42549 13.2496 3.62189L13.4473 3.81455ZM13.3983 2.97807C13.4444 2.8365 13.5598 2.73912 13.7071 2.71779L13.9802 2.67818C14.2193 2.64338 14.4259 2.49326 14.5328 2.27658L14.6549 2.0292C14.7208 1.89561 14.849 1.81592 14.9979 1.81592C15.1469 1.81592 15.2751 1.89561 15.341 2.0292L15.463 2.27658C15.57 2.49326 15.7766 2.64338 16.0157 2.67818L16.2887 2.71779C16.436 2.73924 16.5515 2.8365 16.5975 2.97818C16.6436 3.11975 16.6074 3.26635 16.5009 3.37029L16.3032 3.56295C16.1301 3.73158 16.0513 3.97451 16.092 4.21264L16.1386 4.48451C16.1638 4.63123 16.1069 4.77115 15.9864 4.85857C15.866 4.94611 15.7155 4.95701 15.5836 4.88775L15.3394 4.75932C15.1254 4.64682 14.8701 4.64682 14.6562 4.75932L14.412 4.88775C14.2803 4.95701 14.1297 4.94611 14.0092 4.85857C13.8887 4.77103 13.8319 4.63123 13.8571 4.48451L13.9037 4.21264C13.9446 3.97439 13.8657 3.73158 13.6926 3.56295L13.495 3.37041C13.3886 3.26623 13.3524 3.11963 13.3983 2.97807Z" fill="#3F3679"/>
</svg>
