<svg width="30" height="31" viewBox="0 0 30 31" fill="none" xmlns="http://www.w3.org/2000/svg">
<path d="M17.0289 15.144H12.9801C9.79387 15.144 7.21094 17.727 7.21094 20.9132V22.3199H22.798V20.9132C22.798 17.727 20.2151 15.144 17.0289 15.144Z" fill="#FF6489"/>
<path d="M14.2123 15.144H12.9801C9.79387 15.144 7.21094 17.727 7.21094 20.9132V22.3199H8.44317V20.9132C8.44317 17.727 11.0261 15.144 14.2123 15.144Z" fill="#F43075"/>
<path d="M25.609 26.3014H4.39453C4.07098 26.3014 3.80859 26.039 3.80859 25.7155V19.479C3.80859 19.1554 4.07098 18.8931 4.39453 18.8931H25.609C25.9325 18.8931 26.1949 19.1554 26.1949 19.479V25.7155C26.1949 26.0392 25.9325 26.3014 25.609 26.3014Z" fill="#8A63D8"/>
<path d="M5.04082 25.7155V19.479C5.04082 19.1554 5.3032 18.8931 5.62676 18.8931H4.39453C4.07098 18.8931 3.80859 19.1554 3.80859 19.479V25.7155C3.80859 26.039 4.07098 26.3014 4.39453 26.3014H5.62676C5.3032 26.3014 5.04082 26.0392 5.04082 25.7155Z" fill="#6377E7"/>
<path d="M24.9609 25.7155V19.479C24.9609 19.1554 24.6986 18.8931 24.375 18.8931H25.6072C25.9308 18.8931 26.1932 19.1554 26.1932 19.479V25.7155C26.1932 26.039 25.9308 26.3014 25.6072 26.3014H24.375C24.6986 26.3014 24.9609 26.0392 24.9609 25.7155Z" fill="#8A63D8"/>
<path d="M6.11582 25.0556C6.41031 25.0556 6.65113 24.8146 6.65113 24.5203V24.3684V22.56C6.65113 22.2656 6.41031 22.0248 6.11594 22.0248H3.80852V21.1477C3.80852 20.8532 3.60895 20.6123 3.3652 20.6123C3.12145 20.6123 2.92188 20.8534 2.92188 21.1477V22.3255V24.4698C2.92188 24.7933 3.18426 25.0557 3.50781 25.0557H6.03121H6.11582V25.0556Z" fill="#F8AF23"/>
<path d="M4.1541 24.4701V22.3258V22.0253H3.80851V21.1482C3.80851 20.8537 3.60894 20.6128 3.36519 20.6128C3.12144 20.6128 2.92188 20.8538 2.92188 21.1482V22.326V24.4703C2.92188 24.7938 3.18426 25.0562 3.50781 25.0562H4.74004C4.41648 25.0561 4.1541 24.7938 4.1541 24.4701Z" fill="#F87023"/>
<path d="M23.8869 25.0561C23.5924 25.0561 23.3516 24.8151 23.3516 24.5208V24.3689V22.5604C23.3516 22.2661 23.5924 22.0253 23.8868 22.0253H26.1942V21.1482C26.1942 20.8537 26.3938 20.6128 26.6375 20.6128C26.8813 20.6128 27.0808 20.8538 27.0808 21.1482V22.326V24.4703C27.0808 24.7938 26.8184 25.0562 26.4949 25.0562H23.9715H23.8869V25.0561Z" fill="#F8AF23"/>
<path d="M11.7485 11.8105C12.2892 11.8105 12.7275 11.3722 12.7275 10.8315C12.7275 10.2908 12.2892 9.85254 11.7485 9.85254C11.2078 9.85254 10.7695 10.2908 10.7695 10.8315C10.7695 11.3722 11.2078 11.8105 11.7485 11.8105Z" fill="#F87023"/>
<path d="M18.8345 11.8105C19.3751 11.8105 19.8134 11.3722 19.8134 10.8315C19.8134 10.2908 19.3751 9.85254 18.8345 9.85254C18.2938 9.85254 17.8555 10.2908 17.8555 10.8315C17.8555 11.3722 18.2938 11.8105 18.8345 11.8105Z" fill="#F8AF23"/>
<path d="M15.0547 17.0382C14.2684 17.0382 13.625 16.3949 13.625 15.6085V14.0234C13.625 13.2371 14.2684 12.5938 15.0547 12.5938C15.841 12.5938 16.4844 13.2371 16.4844 14.0234V15.6085C16.4844 16.3949 15.841 17.0382 15.0547 17.0382Z" fill="#F8AF23"/>
<path d="M14.8572 15.6085V14.0234C14.8572 13.4577 15.1911 12.9673 15.6709 12.736C15.4838 12.6458 15.2753 12.5938 15.0547 12.5938C14.2684 12.5938 13.625 13.2371 13.625 14.0234V15.6085C13.625 16.3949 14.2684 17.0382 15.0547 17.0382C15.2752 17.0382 15.4837 16.9861 15.6709 16.8959C15.1911 16.6646 14.8572 16.1743 14.8572 15.6085Z" fill="#F87023"/>
<path d="M15.3939 14.3874C13.2673 14.3874 11.5273 12.6474 11.5273 10.5208V8.99111C11.5273 6.86451 13.2673 5.12451 15.3939 5.12451C17.5205 5.12451 19.2605 6.86451 19.2605 8.99111V10.5209C19.2604 12.6475 17.5205 14.3874 15.3939 14.3874Z" fill="#F8AF23"/>
<path d="M12.7597 10.5209V8.99111C12.7597 7.07416 14.1737 5.47197 16.0101 5.17455C15.8093 5.14209 15.6036 5.12451 15.394 5.12451C13.2673 5.12451 11.5273 6.86451 11.5273 8.99111V10.5209C11.5273 12.6475 13.2673 14.3875 15.394 14.3875C15.6036 14.3875 15.8093 14.37 16.0101 14.3374C14.1737 14.04 12.7597 12.4378 12.7597 10.5209Z" fill="#F87023"/>
<path d="M13.9336 11.1723C14.1493 11.1723 14.3241 10.9974 14.3241 10.7817C14.3241 10.566 14.1493 10.3911 13.9336 10.3911C13.7178 10.3911 13.543 10.566 13.543 10.7817C13.543 10.9974 13.7178 11.1723 13.9336 11.1723Z" fill="#3F3679"/>
<path d="M16.9843 11.1723C17.2001 11.1723 17.3749 10.9974 17.3749 10.7817C17.3749 10.566 17.2001 10.3911 16.9843 10.3911C16.7686 10.3911 16.5938 10.566 16.5938 10.7817C16.5938 10.9974 16.7686 11.1723 16.9843 11.1723Z" fill="#3F3679"/>
<path d="M18.7578 8.11734L18.9339 10.1885H19.2586L19.8129 7.56644C19.8129 7.56644 19.109 7.21792 18.7578 8.11734Z" fill="#9E9E9E"/>
<path d="M11.5281 10.2761H11.8907L12.0518 9.36791C12.0518 9.36791 14.3223 9.07494 14.4542 7.17064C14.4542 7.17064 16.5196 9.70482 19.8155 7.56615C23.1114 5.42748 17.6379 2.42455 13.965 3.57685C13.965 3.57685 11.6428 4.22139 10.7732 6.07681C9.90343 7.93236 11.5513 8.44014 11.5281 10.2761Z" fill="#9E9E9E"/>
<path d="M12.0015 6.07705C12.8713 4.22162 15.1933 3.57709 15.1933 3.57709C15.5673 3.45979 15.9601 3.38619 16.3603 3.34975C15.5456 3.27932 14.7155 3.34049 13.9611 3.57709C13.9611 3.57709 11.6389 4.22162 10.7693 6.07705C9.89951 7.93248 11.5475 8.44037 11.5243 10.2762H11.8869L12.048 9.36803C12.048 9.36803 12.2696 9.33943 12.5784 9.24205C12.1833 8.15678 11.3204 7.53006 12.0015 6.07705Z" fill="#707070"/>
<path d="M8.54109 21.7573L8.61317 21.9032C8.6611 22.0004 8.75379 22.0678 8.86113 22.0833L9.02215 22.1068C9.29227 22.146 9.40008 22.4779 9.20461 22.6685L9.08813 22.782C9.01055 22.8577 8.97516 22.9667 8.99344 23.0735L9.02098 23.2339C9.06715 23.5028 8.78473 23.708 8.5432 23.581L8.39918 23.5053C8.3032 23.4549 8.18859 23.4549 8.09273 23.5053L7.94871 23.581C7.70719 23.708 7.42476 23.5028 7.47094 23.2339L7.49848 23.0735C7.51676 22.9667 7.48137 22.8576 7.40379 22.782L7.2873 22.6685C7.09183 22.4779 7.19976 22.146 7.46976 22.1068L7.63078 22.0833C7.73801 22.0678 7.8307 22.0004 7.87875 21.9032L7.95082 21.7573C8.07129 21.5125 8.42027 21.5125 8.54109 21.7573Z" fill="#F8AF23"/>
<path d="M11.92 21.7573L11.9921 21.9032C12.04 22.0004 12.1327 22.0678 12.24 22.0833L12.4011 22.1068C12.6712 22.146 12.779 22.4779 12.5835 22.6685L12.467 22.782C12.3895 22.8577 12.3541 22.9667 12.3723 23.0735L12.3999 23.2339C12.4461 23.5028 12.1636 23.708 11.9221 23.581L11.7781 23.5053C11.6821 23.4549 11.5675 23.4549 11.4716 23.5053L11.3276 23.581C11.0861 23.708 10.8037 23.5028 10.8498 23.2339L10.8774 23.0735C10.8957 22.9667 10.8603 22.8576 10.7827 22.782L10.6662 22.6685C10.4707 22.4779 10.5787 22.146 10.8487 22.1068L11.0097 22.0833C11.1169 22.0678 11.2096 22.0004 11.2577 21.9032L11.3297 21.7573C11.4503 21.5125 11.7993 21.5125 11.92 21.7573Z" fill="#F8AF23"/>
<path d="M15.2989 21.7573L15.371 21.9032C15.4189 22.0004 15.5116 22.0678 15.6189 22.0833L15.78 22.1068C16.0501 22.146 16.1579 22.4779 15.9624 22.6685L15.8459 22.782C15.7684 22.8577 15.733 22.9667 15.7512 23.0735L15.7788 23.2339C15.825 23.5028 15.5425 23.708 15.301 23.581L15.157 23.5053C15.061 23.4549 14.9464 23.4549 14.8505 23.5053L14.7065 23.581C14.465 23.708 14.1826 23.5028 14.2287 23.2339L14.2563 23.0735C14.2746 22.9667 14.2392 22.8576 14.1616 22.782L14.0451 22.6685C13.8496 22.4779 13.9576 22.146 14.2276 22.1068L14.3886 22.0833C14.4958 22.0678 14.5885 22.0004 14.6366 21.9032L14.7086 21.7573C14.8291 21.5125 15.1781 21.5125 15.2989 21.7573Z" fill="#F8AF23"/>
<path d="M18.6778 21.7573L18.7499 21.9032C18.7978 22.0004 18.8905 22.0678 18.9978 22.0833L19.1589 22.1068C19.429 22.146 19.5368 22.4779 19.3413 22.6685L19.2248 22.782C19.1473 22.8577 19.1119 22.9667 19.1302 23.0735L19.1577 23.2339C19.2039 23.5028 18.9214 23.708 18.6799 23.581L18.5359 23.5053C18.4399 23.4549 18.3253 23.4549 18.2294 23.5053L18.0854 23.581C17.8439 23.708 17.5615 23.5028 17.6077 23.2339L17.6352 23.0735C17.6535 22.9667 17.6181 22.8576 17.5405 22.782L17.424 22.6685C17.2286 22.4779 17.3365 22.146 17.6065 22.1068L17.7675 22.0833C17.8747 22.0678 17.9674 22.0004 18.0155 21.9032L18.0875 21.7573C18.208 21.5125 18.557 21.5125 18.6778 21.7573Z" fill="#F8AF23"/>
<path d="M22.0567 21.7573L22.1288 21.9032C22.1767 22.0004 22.2694 22.0678 22.3768 22.0833L22.5378 22.1068C22.8079 22.146 22.9157 22.4779 22.7202 22.6685L22.6038 22.782C22.5262 22.8577 22.4908 22.9667 22.5091 23.0735L22.5366 23.2339C22.5828 23.5028 22.3004 23.708 22.0588 23.581L21.9148 23.5053C21.8188 23.4549 21.7042 23.4549 21.6084 23.5053L21.4643 23.581C21.2228 23.708 20.9404 23.5028 20.9866 23.2339L21.0141 23.0735C21.0324 22.9667 20.997 22.8576 20.9194 22.782L20.8029 22.6685C20.6075 22.4779 20.7154 22.146 20.9854 22.1068L21.1464 22.0833C21.2536 22.0678 21.3463 22.0004 21.3944 21.9032L21.4664 21.7573C21.587 21.5125 21.936 21.5125 22.0567 21.7573Z" fill="#F8AF23"/>
<path d="M3.03516 27.5024H0.867187C0.770039 27.5024 0.691406 27.5811 0.691406 27.6782C0.691406 27.7754 0.770039 27.854 0.867187 27.854H3.03516C3.1323 27.854 3.21094 27.7754 3.21094 27.6782C3.21094 27.5811 3.13219 27.5024 3.03516 27.5024Z" fill="#3F3679"/>
<path d="M29.1367 27.5024H26.9688C26.8717 27.5024 26.793 27.5811 26.793 27.6782C26.793 27.7754 26.8717 27.854 26.9688 27.854H29.1367C29.2338 27.854 29.3125 27.7754 29.3125 27.6782C29.3125 27.5811 29.2338 27.5024 29.1367 27.5024Z" fill="#3F3679"/>
<path d="M25.2352 27.5024H4.76563C4.66848 27.5024 4.58984 27.5811 4.58984 27.6782C4.58984 27.7754 4.66848 27.854 4.76563 27.854H25.2352C25.3323 27.854 25.411 27.7754 25.411 27.6782C25.411 27.5811 25.3323 27.5024 25.2352 27.5024Z" fill="#3F3679"/>
<path d="M0.867188 26.4766H1.79813C1.89527 26.4766 1.97391 26.3979 1.97391 26.3008C1.97391 26.2036 1.89527 26.125 1.79813 26.125H0.867188C0.770039 26.125 0.691406 26.2036 0.691406 26.3008C0.691406 26.3979 0.770039 26.4766 0.867188 26.4766Z" fill="#3F3679"/>
<path d="M28.2031 26.4766H29.1339C29.231 26.4766 29.3097 26.3979 29.3097 26.3008C29.3097 26.2036 29.231 26.125 29.1339 26.125H28.2031C28.1061 26.125 28.0273 26.2036 28.0273 26.3008C28.0273 26.3979 28.1061 26.4766 28.2031 26.4766Z" fill="#3F3679"/>
<path d="M27.1435 26.3009C27.1435 26.2037 27.0647 26.1251 26.9677 26.1251H26.2498C26.326 26.0065 26.3707 25.866 26.3707 25.7149V25.2315H26.4955C26.9155 25.2315 27.2573 24.8898 27.2573 24.4698V21.1478C27.2573 20.7556 26.9795 20.4366 26.6382 20.4366C26.5423 20.4366 26.4518 20.4625 26.3707 20.5074V19.4783C26.3707 19.0583 26.029 18.7166 25.609 18.7166H22.5511C21.6576 16.4717 19.4472 14.968 17.0262 14.968H16.6629V14.3579C17.824 13.9727 18.7532 13.0751 19.1804 11.9336C19.6612 11.7843 19.9898 11.3434 19.9898 10.8315C19.9898 10.4581 19.804 10.107 19.5022 9.89181L19.9714 7.67216C21.2388 6.81775 21.0693 5.91939 20.851 5.45568C20.0948 3.84869 16.5934 2.56771 13.9165 3.40759C13.8186 3.43478 11.5062 4.09572 10.6125 6.00236C10.0739 7.15138 10.453 7.8558 10.8197 8.53689C11.0193 8.90755 11.2239 9.28783 11.3096 9.76431C10.8789 9.94138 10.596 10.3579 10.596 10.8315C10.596 11.425 11.0421 11.9146 11.6239 11.9782C11.9697 12.8697 12.6221 13.6091 13.452 14.0654V14.968H12.9775C10.5551 14.968 8.34649 16.4712 7.45258 18.7166H4.39457C3.97457 18.7166 3.63285 19.0583 3.63285 19.4783V20.5075C3.55164 20.4625 3.46117 20.4366 3.3652 20.4366C3.02383 20.4366 2.74609 20.7557 2.74609 21.1478V24.4698C2.74609 24.8898 3.08781 25.2315 3.50781 25.2315H3.63285V25.7149C3.63285 25.866 3.67762 26.0065 3.75379 26.1251H3.03566C2.93852 26.1251 2.85988 26.2037 2.85988 26.3009C2.85988 26.398 2.93852 26.4767 3.03566 26.4767H4.39469H25.609H26.9678C27.0647 26.4767 27.1435 26.3979 27.1435 26.3009ZM26.6382 20.7881C26.7831 20.7881 26.9057 20.9529 26.9057 21.1478V24.4698C26.9057 24.696 26.7217 24.88 26.4955 24.88H23.8874C23.6973 24.88 23.5429 24.7313 23.5302 24.5443H25.4515C25.5486 24.5443 25.6273 24.4657 25.6273 24.3686C25.6273 24.2714 25.5486 24.1928 25.4515 24.1928H23.5278V23.7631H25.4515C25.5486 23.7631 25.6273 23.6844 25.6273 23.5873C25.6273 23.4901 25.5486 23.4115 25.4515 23.4115H23.5278V22.9818H25.4515C25.5486 22.9818 25.6273 22.9031 25.6273 22.806C25.6273 22.7088 25.5486 22.6302 25.4515 22.6302H23.5278V22.5601C23.5278 22.362 23.689 22.2007 23.8872 22.2007H26.1946C26.2916 22.2007 26.3704 22.1221 26.3704 22.0249V21.6048C26.3704 21.6045 26.3705 21.6041 26.3705 21.6036V21.1464C26.3713 20.952 26.4936 20.7881 26.6382 20.7881ZM19.1173 10.0125H19.0966L18.9449 8.23009C19.1441 8.14607 19.349 8.04423 19.5584 7.92552L19.1173 10.0125ZM19.3224 11.4681C19.3956 11.1641 19.4356 10.8471 19.4356 10.521V10.2995C19.5644 10.444 19.6382 10.6306 19.6382 10.8315C19.6382 11.0899 19.5162 11.3203 19.3224 11.4681ZM10.9309 6.15166C11.7551 4.39326 13.9882 3.75259 14.0163 3.74474C16.5016 2.96498 19.8486 4.15103 20.5328 5.60533C20.9157 6.41884 20.3011 7.04052 19.7184 7.4188C16.6696 9.39705 14.758 7.25978 14.5983 7.07076L13.6309 5.32759C13.5838 5.24275 13.477 5.21205 13.3919 5.25927C13.307 5.30638 13.2764 5.41337 13.3236 5.49834L14.2724 7.20822C14.2084 7.9063 13.8243 8.44994 13.1282 8.82376C12.5787 9.11896 12.0331 9.19302 12.0277 9.19384C11.9516 9.2038 11.8907 9.26193 11.8772 9.3374L11.7419 10.1005H11.6997C11.6675 9.37033 11.3827 8.84134 11.1292 8.37048C10.7594 7.68318 10.4673 7.14048 10.9309 6.15166ZM10.9475 10.8315C10.9475 10.5386 11.1044 10.2788 11.3493 10.1378C11.3509 10.1823 11.3515 10.2277 11.3509 10.274V10.521C11.3509 10.8922 11.4023 11.2517 11.4965 11.5934C11.176 11.4871 10.9475 11.1858 10.9475 10.8315ZM11.7025 10.521V10.452H11.8893C11.9746 10.452 12.0475 10.3908 12.0624 10.3069L12.2018 9.52056C12.4102 9.48001 12.8412 9.37502 13.2848 9.13865C13.9846 8.76576 14.4254 8.21896 14.5762 7.54361C15.1362 8.04904 16.5733 9.04877 18.6032 8.35923L18.76 10.2033C18.7676 10.2942 18.8438 10.3642 18.9351 10.3642H19.084V10.5211C19.084 12.5562 17.4284 14.2119 15.3933 14.2119C13.3582 14.2119 11.7025 12.5561 11.7025 10.521ZM15.3933 14.5633C15.7091 14.5633 16.0162 14.5256 16.3114 14.4569V15.6088C16.3114 16.3002 15.7488 16.8627 15.0573 16.8627C14.3659 16.8627 13.8034 16.3002 13.8034 15.6088V14.237C14.2918 14.4468 14.8291 14.5633 15.3933 14.5633ZM12.9774 15.3196H13.4519V15.6088C13.4519 16.494 14.1721 17.2143 15.0573 17.2143C15.9426 17.2143 16.6629 16.494 16.6629 15.6088V15.3196H17.0262C19.2573 15.3196 21.2988 16.6763 22.1718 18.7166H7.83191C8.70496 16.6759 10.7451 15.3196 12.9774 15.3196ZM3.09766 24.4698V21.1478C3.09766 20.9528 3.22012 20.7881 3.3652 20.7881C3.51027 20.7881 3.63273 20.9529 3.63273 21.1478V22.0248C3.63273 22.122 3.71137 22.2006 3.80852 22.2006H6.11594C6.3141 22.2006 6.47535 22.3618 6.47535 22.56V22.6301H4.55172C4.45457 22.6301 4.37594 22.7087 4.37594 22.8059C4.37594 22.903 4.45457 22.9817 4.55172 22.9817H6.47547V23.4114H4.55172C4.45457 23.4114 4.37594 23.49 4.37594 23.5872C4.37594 23.6843 4.45457 23.7629 4.55172 23.7629H6.47547V24.1927H4.55172C4.45457 24.1927 4.37594 24.2713 4.37594 24.3685C4.37594 24.4656 4.45457 24.5442 4.55172 24.5442H6.47301C6.46047 24.7313 6.3059 24.8799 6.11582 24.8799H3.50781C3.28164 24.88 3.09766 24.6959 3.09766 24.4698ZM4.39457 26.1251C4.1684 26.1251 3.98441 25.9411 3.98441 25.7149V25.2315H6.11582C6.50793 25.2315 6.82691 24.9124 6.82691 24.5203V22.5601C6.82691 22.168 6.50793 21.8492 6.11594 21.8492H3.9843V21.5364C3.9843 21.536 3.98441 21.5357 3.98441 21.5352V19.4783C3.98441 19.2522 4.1684 19.0682 4.39457 19.0682H25.6089C25.8351 19.0682 26.0191 19.2522 26.0191 19.4783V21.1452C26.0191 21.146 26.0189 21.147 26.0189 21.1478V21.849H23.8873C23.4952 21.849 23.1763 22.168 23.1763 22.56V24.5202C23.1763 24.9123 23.4954 25.2314 23.8874 25.2314H26.0191V25.7148C26.0191 25.941 25.8351 26.125 25.6089 26.125H4.39457V26.1251Z" fill="#3F3679"/>
<path d="M15.3945 12.0693C15.4916 12.0693 15.5703 11.9907 15.5703 11.8935V11.0049C15.5703 10.9077 15.4916 10.8291 15.3945 10.8291C15.2975 10.8291 15.2188 10.9077 15.2188 11.0049V11.8935C15.2188 11.9905 15.2975 12.0693 15.3945 12.0693Z" fill="#3F3679"/>
<path d="M14.8906 9.85254C14.8906 9.75539 14.812 9.67676 14.7148 9.67676H13.0156C12.9185 9.67676 12.8398 9.75539 12.8398 9.85254C12.8398 9.94969 12.9185 10.0283 13.0156 10.0283H14.7148C14.8119 10.0283 14.8906 9.94969 14.8906 9.85254Z" fill="#3F3679"/>
<path d="M16.0703 10.0283H17.7695C17.8666 10.0283 17.9453 9.94969 17.9453 9.85254C17.9453 9.75539 17.8666 9.67676 17.7695 9.67676H16.0703C15.9733 9.67676 15.8945 9.75539 15.8945 9.85254C15.8945 9.94969 15.9733 10.0283 16.0703 10.0283Z" fill="#3F3679"/>
<path d="M16.1845 12.4926C16.1156 12.4244 16.0042 12.4251 15.9359 12.4941C15.3667 13.0706 14.6994 12.543 14.6697 12.519C14.5945 12.4577 14.4841 12.4687 14.4227 12.5436C14.3611 12.6187 14.372 12.7294 14.447 12.791C14.6315 12.9424 14.9648 13.1151 15.3356 13.1151C15.6138 13.1151 15.9131 13.0177 16.1862 12.7412C16.2542 12.6721 16.2536 12.5608 16.1845 12.4926Z" fill="#3F3679"/>
<path d="M9.04363 21.9328L8.88262 21.9094C8.83258 21.9021 8.78934 21.8707 8.76707 21.8253L8.695 21.6794C8.60934 21.5059 8.43578 21.3979 8.24207 21.3979C8.04848 21.3979 7.87492 21.5059 7.78914 21.6796L7.71719 21.8255C7.69492 21.8708 7.65156 21.9022 7.60164 21.9095L7.44063 21.9329C7.24903 21.9608 7.0927 22.0925 7.03293 22.2767C6.97305 22.4608 7.02203 22.6592 7.16067 22.7944L7.27727 22.9079C7.31348 22.9432 7.32988 22.9939 7.32133 23.0437L7.29379 23.2042C7.2611 23.3951 7.33809 23.5843 7.49477 23.6981C7.65133 23.8119 7.85535 23.8265 8.02668 23.7365L8.17082 23.6608C8.21559 23.6373 8.26891 23.6373 8.31367 23.6608L8.4577 23.7365C8.53223 23.7757 8.61297 23.7951 8.69324 23.7951C8.79754 23.7951 8.90113 23.7624 8.98961 23.6981C9.14629 23.5842 9.22328 23.3949 9.19047 23.2042L9.16305 23.0436C9.15449 22.9939 9.1709 22.9432 9.20723 22.9078L9.32371 22.7942C9.46246 22.659 9.51133 22.4606 9.45156 22.2765C9.39156 22.0923 9.23535 21.9606 9.04363 21.9328ZM9.07809 22.5424L8.9616 22.656C8.84242 22.772 8.78817 22.9392 8.81629 23.103L8.84371 23.2635C8.85836 23.3483 8.80586 23.3967 8.78266 23.4136C8.75945 23.4305 8.69711 23.4653 8.62106 23.4253L8.47703 23.3496C8.32973 23.2721 8.15406 23.272 8.00699 23.3496L7.86297 23.4253C7.78692 23.4654 7.72457 23.4305 7.70137 23.4136C7.67817 23.3967 7.62567 23.3483 7.64031 23.2635L7.66785 23.103C7.69598 22.9392 7.6416 22.7721 7.52254 22.656L7.40594 22.5424C7.3443 22.4823 7.35824 22.4124 7.36715 22.3851C7.37606 22.3578 7.40582 22.293 7.49113 22.2806L7.65227 22.2572C7.8168 22.2331 7.95895 22.1299 8.03254 21.9808L8.10449 21.8349C8.14258 21.7577 8.21348 21.7494 8.24207 21.7494C8.27078 21.7494 8.34168 21.7577 8.37977 21.8349L8.45184 21.9808C8.52543 22.1298 8.66746 22.2331 8.83211 22.2571L8.99324 22.2805C9.07844 22.2929 9.10832 22.3577 9.11711 22.3849C9.1259 22.4123 9.13984 22.4824 9.07809 22.5424Z" fill="#3F3679"/>
<path d="M12.4227 21.9327L12.2617 21.9092C12.2117 21.902 12.1684 21.8706 12.146 21.8253L12.0741 21.6794C11.9884 21.5059 11.8149 21.3979 11.6212 21.3979C11.4274 21.3979 11.2539 21.5059 11.1682 21.6794L11.0962 21.8253C11.0739 21.8707 11.0305 21.9021 10.9806 21.9094L10.8195 21.9328C10.6279 21.9607 10.4717 22.0923 10.4118 22.2765C10.352 22.4606 10.4009 22.659 10.5395 22.7942L10.6561 22.9078C10.6923 22.9431 10.7089 22.9938 10.7002 23.0437L10.6728 23.204C10.6401 23.3949 10.7169 23.5842 10.8736 23.6981C10.9622 23.7624 11.0657 23.7951 11.17 23.7951C11.2503 23.7951 11.331 23.7757 11.4054 23.7365L11.5494 23.6608C11.5942 23.6373 11.6475 23.6373 11.6923 23.6608L11.8363 23.7365C12.0078 23.8267 12.2115 23.812 12.3682 23.6981C12.5249 23.5843 12.6019 23.3951 12.5692 23.204L12.5417 23.0437C12.5331 22.9939 12.5496 22.9431 12.5857 22.9078L12.7023 22.7942C12.841 22.6591 12.8899 22.4607 12.8301 22.2766C12.7707 22.0922 12.6144 21.9604 12.4227 21.9327ZM12.4573 22.5423L12.3407 22.6558C12.2216 22.772 12.1674 22.9391 12.1954 23.1029L12.2229 23.2632C12.2376 23.3482 12.1851 23.3965 12.1619 23.4133C12.1385 23.4302 12.0764 23.465 12.0001 23.4251L11.8562 23.3494C11.7089 23.272 11.5333 23.2718 11.3861 23.3494L11.2421 23.4251C11.1659 23.4651 11.1037 23.4302 11.0805 23.4133C11.0573 23.3965 11.0048 23.3481 11.0194 23.2632L11.0468 23.1029C11.0749 22.939 11.0207 22.7717 10.9016 22.6557L10.785 22.5422C10.7234 22.4821 10.7373 22.4121 10.7462 22.3848C10.755 22.3576 10.7849 22.2928 10.8701 22.2804L11.0312 22.2569C11.1958 22.2329 11.3378 22.1297 11.4114 21.9807L11.4835 21.8348C11.5216 21.7576 11.5924 21.7493 11.6212 21.7493C11.6499 21.7493 11.7207 21.7576 11.7587 21.8348L11.8307 21.9808C11.9043 22.1298 12.0464 22.2331 12.211 22.2571L12.372 22.2805C12.4573 22.2929 12.4871 22.3577 12.496 22.385C12.5049 22.4123 12.5189 22.4823 12.4573 22.5423Z" fill="#3F3679"/>
<path d="M15.8014 21.9328L15.6404 21.9094C15.5904 21.9021 15.5471 21.8706 15.5248 21.8255L15.4528 21.6796C15.3673 21.5059 15.1936 21.3979 15 21.3979C14.8063 21.3979 14.6327 21.5059 14.5471 21.6794L14.475 21.8253C14.4527 21.8707 14.4094 21.9021 14.3595 21.9094L14.1984 21.9328C14.0068 21.9607 13.8505 22.0924 13.7907 22.2766C13.7309 22.4607 13.7798 22.6591 13.9185 22.7942L14.0351 22.9078C14.0713 22.9431 14.0877 22.9938 14.0791 23.0436L14.0516 23.204C14.0189 23.3949 14.0959 23.5842 14.2526 23.698C14.3411 23.7623 14.4446 23.795 14.5489 23.795C14.6292 23.795 14.71 23.7756 14.7845 23.7364L14.9285 23.6607C14.9733 23.6372 15.0266 23.6372 15.0714 23.6607L15.2154 23.7364C15.387 23.8267 15.5905 23.8119 15.7473 23.698C15.904 23.5842 15.981 23.3949 15.9483 23.204L15.9209 23.0436C15.9123 22.9938 15.9287 22.943 15.9649 22.9078L16.0815 22.7941C16.2203 22.659 16.2691 22.4606 16.2093 22.2765C16.1493 22.0923 15.993 21.9606 15.8014 21.9328ZM15.836 22.5424L15.7194 22.6561C15.6004 22.7721 15.5461 22.9393 15.5742 23.1032L15.6016 23.2636C15.6162 23.3485 15.5638 23.3968 15.5406 23.4137C15.5175 23.4306 15.4554 23.4656 15.379 23.4254L15.235 23.3497C15.1614 23.311 15.0806 23.2916 14.9999 23.2916C14.9191 23.2916 14.8384 23.311 14.7649 23.3497L14.6209 23.4254C14.5448 23.4655 14.4825 23.4306 14.4593 23.4137C14.4361 23.3968 14.3836 23.3484 14.3982 23.2636L14.4258 23.1032C14.4539 22.9393 14.3995 22.7722 14.2806 22.6561L14.164 22.5425C14.1023 22.4824 14.1163 22.4126 14.1251 22.3853C14.1339 22.358 14.1638 22.2931 14.2491 22.2807L14.4102 22.2573C14.5747 22.2333 14.7169 22.13 14.7905 21.9811L14.8625 21.8351C14.9006 21.7578 14.9715 21.7495 15.0001 21.7495C15.0287 21.7495 15.0996 21.7578 15.1378 21.8351L15.2098 21.9812C15.2835 22.1301 15.4256 22.2334 15.59 22.2573L15.7511 22.2807C15.8364 22.2931 15.866 22.358 15.875 22.3853C15.8836 22.4123 15.8975 22.4824 15.836 22.5424Z" fill="#3F3679"/>
<path d="M19.1802 21.9327L19.0192 21.9092C18.9692 21.902 18.926 21.8706 18.9037 21.8253L18.8317 21.6794C18.746 21.5058 18.5724 21.3979 18.3788 21.3979C18.1853 21.3979 18.0116 21.5058 17.926 21.6796L17.854 21.8254C17.8316 21.8708 17.7883 21.9022 17.7384 21.9095L17.5773 21.9329C17.3856 21.9608 17.2294 22.0925 17.1696 22.2766C17.1098 22.4608 17.1587 22.6592 17.2975 22.7944L17.414 22.9079C17.4502 22.9432 17.4666 22.9939 17.458 23.0438L17.4306 23.2043C17.3979 23.3952 17.4749 23.5844 17.6316 23.6982C17.7883 23.812 17.9918 23.8268 18.1635 23.7367L18.3075 23.661C18.3522 23.6374 18.4056 23.6375 18.4505 23.661L18.5945 23.7367C18.6692 23.7758 18.7498 23.7953 18.8301 23.7953C18.9344 23.7953 19.0378 23.7626 19.1264 23.6982C19.2831 23.5844 19.3601 23.3952 19.3274 23.2042L19.2999 23.0438C19.2913 22.994 19.3078 22.9433 19.3441 22.9079L19.4605 22.7944C19.5993 22.6592 19.6483 22.4608 19.5884 22.2767C19.5285 22.0926 19.3719 21.9604 19.1802 21.9327ZM19.2148 22.5423L19.0983 22.6558C18.9791 22.772 18.925 22.9391 18.953 23.103L18.9805 23.2633C18.9951 23.3483 18.9427 23.3966 18.9195 23.4135C18.8964 23.4303 18.8345 23.4654 18.7578 23.4252L18.6137 23.3495C18.4667 23.2721 18.2909 23.272 18.1436 23.3495L17.9996 23.4252C17.9232 23.4655 17.8611 23.4303 17.838 23.4135C17.8148 23.3966 17.7623 23.3482 17.7769 23.2633L17.8043 23.1029C17.8323 22.9391 17.7781 22.7719 17.6591 22.6558L17.5427 22.5423C17.481 22.4822 17.495 22.4122 17.5037 22.3849C17.5127 22.3577 17.5424 22.2929 17.6277 22.2805L17.7887 22.257C17.9533 22.233 18.0955 22.1298 18.169 21.9807L18.241 21.8348C18.2792 21.7576 18.3501 21.7493 18.3787 21.7493C18.4074 21.7493 18.4783 21.7576 18.5165 21.8348L18.5884 21.9807C18.6619 22.1297 18.8041 22.233 18.9686 22.2569L19.1296 22.2804C19.2149 22.2928 19.2447 22.3576 19.2536 22.3849C19.2625 22.4123 19.2764 22.4823 19.2148 22.5423Z" fill="#3F3679"/>
<path d="M22.5591 21.9327L22.3981 21.9092C22.348 21.902 22.3048 21.8706 22.2824 21.8253L22.2105 21.6794C22.1248 21.5058 21.9511 21.3979 21.7576 21.3979C21.564 21.3979 21.3904 21.5058 21.3047 21.6795L21.2328 21.8254C21.2104 21.8708 21.1671 21.9022 21.1172 21.9095L20.9562 21.9329C20.7645 21.9608 20.6083 22.0925 20.5485 22.2767C20.4887 22.461 20.5376 22.6592 20.6764 22.7944L20.7928 22.9079C20.829 22.9432 20.8456 22.994 20.837 23.0437L20.8095 23.2043C20.7768 23.3952 20.8538 23.5844 21.0105 23.6982C21.0991 23.7626 21.2026 23.7952 21.3068 23.7952C21.3871 23.7952 21.4677 23.7758 21.5423 23.7367L21.6864 23.6609C21.7309 23.6374 21.7845 23.6373 21.8292 23.6609L21.9733 23.7367C22.1448 23.8269 22.3484 23.8121 22.5052 23.6982C22.6619 23.5844 22.7389 23.3952 22.7062 23.2043L22.6787 23.0438C22.6702 22.994 22.6866 22.9432 22.7228 22.9079L22.8393 22.7944C22.978 22.6592 23.027 22.4608 22.9671 22.2766C22.907 22.0922 22.7508 21.9604 22.5591 21.9327ZM22.5935 22.5423L22.4771 22.6558C22.358 22.7718 22.3037 22.9391 22.3319 23.1029L22.3593 23.2633C22.3738 23.3483 22.3214 23.3966 22.2982 23.4135C22.2751 23.4303 22.2129 23.4654 22.1366 23.4252L21.9926 23.3495C21.9189 23.3107 21.8383 23.2913 21.7574 23.2913C21.6768 23.2913 21.596 23.3107 21.5226 23.3495L21.3784 23.4252C21.302 23.4655 21.2399 23.4303 21.2168 23.4135C21.1936 23.3966 21.1411 23.3482 21.1558 23.2634L21.1833 23.1029C21.2113 22.9391 21.1571 22.772 21.038 22.6558L20.9215 22.5423C20.8599 22.4822 20.8738 22.4123 20.8827 22.385C20.8915 22.3577 20.9214 22.2929 21.0067 22.2805L21.1677 22.257C21.3323 22.233 21.4744 22.1298 21.5479 21.9807L21.6198 21.8348C21.658 21.7576 21.7289 21.7493 21.7576 21.7493C21.7862 21.7493 21.8571 21.7576 21.8953 21.8348L21.9673 21.9807C22.0408 22.1297 22.183 22.233 22.3476 22.2569L22.5086 22.2804C22.5939 22.2928 22.6235 22.3576 22.6326 22.3848C22.6412 22.4122 22.6552 22.4822 22.5935 22.5423Z" fill="#3F3679"/>
</svg>
