<svg width="30" height="31" viewBox="0 0 30 31" fill="none" xmlns="http://www.w3.org/2000/svg">
<path d="M3.47371 23.8142C2.56855 23.8142 1.83203 23.0776 1.83203 22.1725V7.30232C1.83203 6.39717 2.56855 5.66064 3.47371 5.66064H26.5318C27.4369 5.66064 28.1734 6.39717 28.1734 7.30232V22.1725C28.1734 23.0776 27.4369 23.8142 26.5318 23.8142H3.47371Z" fill="#8A63D8"/>
<path d="M27.1607 20.7308C27.1607 21.078 26.8765 21.3622 26.5293 21.3622H3.47125C3.12402 21.3622 2.83984 21.078 2.83984 20.7308V7.3023C2.83984 6.95508 3.12402 6.6709 3.47125 6.6709H26.5293C26.8765 6.6709 27.1607 6.95508 27.1607 7.3023V20.7308Z" fill="#9E9E9E"/>
<path d="M4.07207 20.7308V7.3023C4.07207 6.95508 4.35625 6.6709 4.70347 6.6709H3.47125C3.12402 6.6709 2.83984 6.95508 2.83984 7.3023V20.7308C2.83984 21.078 3.12402 21.3622 3.47125 21.3622H4.70347C4.35625 21.3622 4.07207 21.0782 4.07207 20.7308Z" fill="#707070"/>
<path d="M25.9283 20.7308V7.3023C25.9283 6.95508 25.6441 6.6709 25.2969 6.6709H26.5291C26.8763 6.6709 27.1605 6.95508 27.1605 7.3023V20.7308C27.1605 21.078 26.8763 21.3622 26.5291 21.3622H25.2969C25.6441 21.3622 25.9283 21.0782 25.9283 20.7308Z" fill="#CECECE"/>
<path d="M10.4141 26.4761H19.5904V27.581H10.4141V26.4761Z" fill="#FF6489"/>
<path d="M10.4141 26.4761H11.6463V27.581H10.4141V26.4761Z" fill="#F43075"/>
<path d="M11.7148 23.814H18.2814V26.476H11.7148V23.814Z" fill="#F8AF23"/>
<path d="M11.7148 23.814H12.9471V26.476H11.7148V23.814Z" fill="#F87023"/>
<path d="M15.0015 23.1285C15.3001 23.1285 15.5421 22.8865 15.5421 22.5879C15.5421 22.2894 15.3001 22.0474 15.0015 22.0474C14.703 22.0474 14.4609 22.2894 14.4609 22.5879C14.4609 22.8865 14.703 23.1285 15.0015 23.1285Z" fill="#F8AF23"/>
<path d="M11.9955 15.1104C12.027 15.1982 12.0627 15.2827 12.1016 15.3664L11.3145 16.1534L12.8621 17.701L13.6491 16.9139C13.7328 16.9529 13.8181 16.9885 13.9051 17.02V18.1334H16.093V17.02C16.1799 16.9885 16.2652 16.9529 16.3489 16.9139L17.1359 17.701L18.6835 16.1534L17.8965 15.3664C17.9354 15.2827 17.971 15.1982 18.0025 15.1104H19.1159V12.9225H18.0025C17.971 12.8356 17.9354 12.7503 17.8965 12.6666L18.6835 11.8796L17.1359 10.332L16.3489 11.1198C16.2652 11.0809 16.1799 11.0445 16.093 11.013V9.90039H13.9051V11.013C13.8181 11.0445 13.7328 11.0809 13.6491 11.1198L12.8621 10.332L11.3144 11.8795L12.1014 12.6665C12.0625 12.7502 12.0269 12.8355 11.9954 12.9224H10.8828V15.1103H11.9955V15.1104Z" fill="#FF6489"/>
<path d="M14.9987 15.4095C15.7682 15.4095 16.392 14.7858 16.392 14.0163C16.392 13.2468 15.7682 12.623 14.9987 12.623C14.2292 12.623 13.6055 13.2468 13.6055 14.0163C13.6055 14.7858 14.2292 15.4095 14.9987 15.4095Z" fill="#67BEEB"/>
<path d="M24.0086 4.78993V7.69677C24.0086 7.76216 23.9556 7.81513 23.8902 7.81513H20.7191C20.6537 7.81513 20.6008 7.76216 20.6008 7.69677V4.78993C20.6008 4.72454 20.5478 4.67157 20.4824 4.67157H19.9116C19.8061 4.67157 19.7533 4.54407 19.8279 4.46942L22.2211 2.07622C22.2674 2.02993 22.3423 2.02993 22.3886 2.07622L24.7818 4.46942C24.8563 4.54396 24.8036 4.67157 24.6981 4.67157H24.1273C24.0616 4.67157 24.0086 4.72454 24.0086 4.78993Z" fill="#FF6489"/>
<path d="M24.7805 4.46942L22.3873 2.07622C22.3411 2.02993 22.2662 2.02993 22.2199 2.07622L21.6875 2.6086L23.5483 4.46942C23.6228 4.54396 23.5701 4.67157 23.4646 4.67157H22.8938C22.8284 4.67157 22.7755 4.72454 22.7755 4.78993V7.69677C22.7755 7.76216 22.7225 7.81513 22.6571 7.81513H23.8893C23.9547 7.81513 24.0077 7.76216 24.0077 7.69677V4.78993C24.0077 4.72454 24.0607 4.67157 24.1261 4.67157H24.6969C24.8023 4.67157 24.8551 4.54396 24.7805 4.46942Z" fill="#F48875"/>
<path d="M5.99146 4.78993V7.69677C5.99146 7.76216 6.04443 7.81513 6.10982 7.81513H9.28092C9.34631 7.81513 9.39928 7.76216 9.39928 7.69677V4.78993C9.39928 4.72454 9.45225 4.67157 9.51764 4.67157H10.0885C10.1939 4.67157 10.2468 4.54407 10.1721 4.46942L7.77916 2.07622C7.73287 2.02993 7.65799 2.02993 7.6117 2.07622L5.21849 4.46942C5.14396 4.54396 5.1967 4.67157 5.30217 4.67157H5.87299C5.93849 4.67157 5.99146 4.72454 5.99146 4.78993Z" fill="#FF6489"/>
<path d="M7.22369 7.69677V4.78993C7.22369 4.72454 7.17072 4.67157 7.10533 4.67157H6.53451C6.42904 4.67157 6.37619 4.54407 6.45084 4.46942L8.31166 2.6086L7.77928 2.07622C7.73299 2.02993 7.65811 2.02993 7.61182 2.07622L5.21849 4.46942C5.14396 4.54396 5.1967 4.67157 5.30217 4.67157H5.87299C5.93838 4.67157 5.99135 4.72454 5.99135 4.78993V7.69677C5.99135 7.76216 6.04431 7.81513 6.10971 7.81513H7.34193C7.27666 7.81513 7.22369 7.76216 7.22369 7.69677Z" fill="#F43075"/>
<path d="M3.47359 23.9898H11.5436V26.3002H10.4145C10.3173 26.3002 10.2387 26.379 10.2387 26.476V27.4052H3.0366C2.93945 27.4052 2.86082 27.4839 2.86082 27.581C2.86082 27.678 2.93945 27.7567 3.0366 27.7567H10.4145H19.591H26.9689C27.066 27.7567 27.1446 27.678 27.1446 27.581C27.1446 27.4839 27.066 27.4052 26.9689 27.4052H19.7668V26.476C19.7668 26.379 19.6881 26.3002 19.591 26.3002H18.4619V23.9898H26.5319C27.5339 23.9898 28.3492 23.1745 28.3492 22.1723V7.30214C28.3492 6.29995 27.5339 5.48468 26.5319 5.48468H24.1867V4.84741H24.7001C24.8195 4.84741 24.9263 4.77616 24.9719 4.66577C25.0176 4.5555 24.9925 4.42964 24.9081 4.34526L22.5149 1.95206C22.4038 1.84085 22.21 1.84085 22.0989 1.95206L19.7057 4.34526C19.6212 4.42976 19.5961 4.5555 19.642 4.66577C19.6877 4.77604 19.7943 4.84741 19.9137 4.84741H20.4271V5.48468H9.57824V4.84741H10.0916C10.2111 4.84741 10.3178 4.77616 10.3634 4.66577C10.4091 4.5555 10.384 4.42964 10.2996 4.34526L7.90645 1.95206C7.79535 1.84085 7.60152 1.84085 7.49043 1.95206L5.09734 4.34515C5.01285 4.42964 4.98777 4.55538 5.03359 4.66565C5.0793 4.77593 5.18594 4.84729 5.30535 4.84729H5.81875V5.48456H3.47359C2.47152 5.48456 1.65625 6.29983 1.65625 7.30202V22.1723C1.65613 23.1745 2.47141 23.9898 3.47359 23.9898ZM19.4151 27.4052H10.5902V26.6518H11.7193H18.2859H19.415V27.4052H19.4151ZM18.1102 26.3002H11.8952V23.9898H18.1102V26.3002ZM6.11301 7.99108H9.2841C9.44629 7.99108 9.57836 7.85913 9.57836 7.69683V6.84651H20.4271V7.69683C20.4271 7.85913 20.5591 7.99108 20.7214 7.99108H23.8925C24.0546 7.99108 24.1867 7.85913 24.1867 7.69683V6.84651H26.5319C26.7831 6.84651 26.9875 7.05089 26.9875 7.30214V20.7307C26.9875 20.982 26.7831 21.1864 26.5319 21.1864H3.47359C3.22234 21.1864 3.01797 20.982 3.01797 20.7307V7.30214C3.01797 7.05089 3.22234 6.84651 3.47359 6.84651H5.81875V7.69683C5.81875 7.85913 5.9507 7.99108 6.11301 7.99108ZM20.0521 4.49585L22.3068 2.24128L24.5615 4.49585H24.1292C23.967 4.49585 23.835 4.6278 23.835 4.79011V7.63952H20.7787V4.78999C20.7787 4.62769 20.6467 4.49573 20.4845 4.49573H20.0521V4.49585ZM20.427 5.83624V6.49495H9.57824V5.83624H20.427ZM5.44387 4.49585L7.69855 2.24128L9.95324 4.49585H9.52094C9.35875 4.49585 9.2268 4.6278 9.2268 4.79011V7.63952H6.17031V4.78999C6.17031 4.62769 6.03836 4.49573 5.87617 4.49573H5.44387V4.49585ZM2.0077 7.30214C2.0077 6.4939 2.66523 5.83624 3.47348 5.83624H5.81863V6.49495H3.47359C3.02852 6.49495 2.66641 6.85706 2.66641 7.30214V20.7307C2.66641 21.1758 3.02852 21.538 3.47359 21.538H26.5316C26.9767 21.538 27.3388 21.1758 27.3388 20.7307V7.30214C27.3388 6.85706 26.9767 6.49495 26.5316 6.49495H24.1865V5.83624H26.5316C27.3399 5.83624 27.9974 6.49378 27.9974 7.30214V22.1724C27.9974 22.9807 27.3399 23.6383 26.5316 23.6383H18.2859H11.7193H3.47359C2.66535 23.6383 2.00781 22.9808 2.00781 22.1724V7.30214H2.0077Z" fill="#3F3679"/>
<path d="M15.0015 23.3043C15.3966 23.3043 15.7179 22.983 15.7179 22.5879C15.7179 22.1929 15.3966 21.8716 15.0015 21.8716C14.6065 21.8716 14.2852 22.1929 14.2852 22.5879C14.2852 22.983 14.6065 23.3043 15.0015 23.3043ZM15.0015 22.223C15.2027 22.223 15.3663 22.3866 15.3663 22.5878C15.3663 22.789 15.2027 22.9526 15.0015 22.9526C14.8003 22.9526 14.6367 22.789 14.6367 22.5878C14.6367 22.3866 14.8003 22.223 15.0015 22.223Z" fill="#3F3679"/>
<path d="M10.8828 15.2862H11.8746C11.8801 15.2999 11.8858 15.3136 11.8917 15.3276L11.1901 16.0292C11.1214 16.0979 11.1214 16.2091 11.1901 16.2777L12.7377 17.8253C12.8035 17.8912 12.9204 17.8912 12.9862 17.8253L13.6879 17.1236C13.7016 17.1295 13.7154 17.1352 13.7292 17.1407V18.1334C13.7292 18.2304 13.8078 18.3092 13.905 18.3092H16.0929C16.19 18.3092 16.2686 18.2304 16.2686 18.1334V17.1407C16.2823 17.1351 16.2961 17.1293 16.3099 17.1236L17.0116 17.8253C17.0775 17.8912 17.1943 17.8912 17.2602 17.8253L18.8077 16.2777C18.8764 16.2091 18.8764 16.0979 18.8077 16.0292L18.1061 15.3276C18.112 15.3138 18.1177 15.3 18.1232 15.2862H19.1158C19.213 15.2862 19.2916 15.2075 19.2916 15.1104V12.9225C19.2916 12.8255 19.213 12.7468 19.1158 12.7468H18.1231C18.1175 12.733 18.1119 12.7193 18.106 12.7055L18.8077 12.0038C18.8764 11.9351 18.8764 11.8239 18.8077 11.7552L17.2602 10.2077C17.2272 10.1747 17.1825 10.1562 17.1358 10.1562C17.0892 10.1562 17.0445 10.1747 17.0115 10.2078L16.31 10.91C16.2961 10.904 16.2822 10.8981 16.2685 10.8926V9.90039C16.2685 9.80336 16.1899 9.72461 16.0927 9.72461H13.9048C13.8077 9.72461 13.7291 9.80336 13.7291 9.90039V10.8926C13.7155 10.8982 13.7016 10.9041 13.6876 10.91L12.9862 10.2078C12.9532 10.1747 12.9085 10.1562 12.8619 10.1562C12.8152 10.1562 12.7706 10.1747 12.7375 10.2077L11.1901 11.7552C11.1214 11.8239 11.1214 11.9351 11.1901 12.0038L11.8918 12.7055C11.8859 12.7192 11.8802 12.7329 11.8747 12.7468H10.8828C10.7857 12.7468 10.707 12.8255 10.707 12.9225V15.1104C10.707 15.2075 10.7857 15.2862 10.8828 15.2862ZM11.0586 13.0983H11.9954C12.0695 13.0983 12.1355 13.0519 12.1607 12.9824C12.1895 12.9029 12.2232 12.8216 12.2608 12.7408C12.292 12.6738 12.2779 12.5944 12.2258 12.5423L11.5631 11.8796L12.862 10.5807L13.5247 11.2441C13.5768 11.2963 13.6562 11.3104 13.7232 11.2793C13.8114 11.2382 13.8905 11.2052 13.9648 11.1783C14.0345 11.1531 14.0809 11.0871 14.0809 11.0131V10.0763H15.9172V11.0131C15.9172 11.0871 15.9636 11.1531 16.0332 11.1783C16.1076 11.2053 16.1867 11.2383 16.2748 11.2793C16.3419 11.3105 16.4212 11.2964 16.4734 11.2441L17.1361 10.5807L18.435 11.8796L17.7723 12.5423C17.72 12.5944 17.7061 12.6738 17.7372 12.7407C17.7751 12.822 17.8087 12.9034 17.8373 12.9823C17.8625 13.0519 17.9286 13.0982 18.0027 13.0982H18.9403V14.9345H18.0027C17.9285 14.9345 17.8621 14.9811 17.8372 15.051C17.8096 15.1279 17.777 15.2068 17.7372 15.2922C17.7061 15.3591 17.7201 15.4384 17.7723 15.4906L18.435 16.1533L17.1361 17.4523L16.4734 16.7896C16.4212 16.7373 16.342 16.7235 16.275 16.7545C16.194 16.7922 16.1127 16.8258 16.0333 16.8545C15.9637 16.8797 15.9173 16.9457 15.9173 17.0198V17.9574H14.081V17.0198C14.081 16.9457 14.0346 16.8797 13.965 16.8545C13.8859 16.8259 13.8045 16.7922 13.7233 16.7545C13.6564 16.7234 13.5771 16.7373 13.5249 16.7896L12.8622 17.4523L11.5633 16.1533L12.226 15.4906C12.2783 15.4384 12.2922 15.3591 12.2611 15.2921C12.2216 15.2073 12.1889 15.1285 12.1611 15.051C12.1361 14.9811 12.0698 14.9345 11.9956 14.9345H11.0588V13.0983H11.0586Z" fill="#3F3679"/>
<path d="M15.0026 15.5854C15.8678 15.5854 16.5716 14.8815 16.5716 14.0163C16.5716 13.1511 15.8678 12.4473 15.0026 12.4473C14.1374 12.4473 13.4336 13.1511 13.4336 14.0163C13.4336 14.8815 14.1374 15.5854 15.0026 15.5854ZM15.0026 12.7989C15.674 12.7989 16.2201 13.345 16.2201 14.0164C16.2201 14.6878 15.6739 15.234 15.0026 15.234C14.3314 15.234 13.7852 14.6878 13.7852 14.0164C13.7852 13.345 14.3313 12.7989 15.0026 12.7989Z" fill="#3F3679"/>
<path d="M3.03516 28.7827H0.867187C0.770039 28.7827 0.691406 28.8615 0.691406 28.9585C0.691406 29.0555 0.770039 29.1343 0.867187 29.1343H3.03516C3.1323 29.1343 3.21094 29.0555 3.21094 28.9585C3.21094 28.8615 3.13219 28.7827 3.03516 28.7827Z" fill="#3F3679"/>
<path d="M29.1367 28.7827H26.9688C26.8716 28.7827 26.793 28.8615 26.793 28.9585C26.793 29.0555 26.8716 29.1343 26.9688 29.1343H29.1367C29.2339 29.1343 29.3125 29.0555 29.3125 28.9585C29.3125 28.8615 29.2339 28.7827 29.1367 28.7827Z" fill="#3F3679"/>
<path d="M25.2352 28.7827H4.76563C4.66848 28.7827 4.58984 28.8615 4.58984 28.9585C4.58984 29.0555 4.66848 29.1343 4.76563 29.1343H25.2352C25.3324 29.1343 25.411 29.0555 25.411 28.9585C25.411 28.8615 25.3324 28.7827 25.2352 28.7827Z" fill="#3F3679"/>
<path d="M0.867188 27.7568H1.79813C1.89527 27.7568 1.97391 27.6781 1.97391 27.5811C1.97391 27.484 1.89527 27.4053 1.79813 27.4053H0.867188C0.770039 27.4053 0.691406 27.484 0.691406 27.5811C0.691406 27.6781 0.770039 27.7568 0.867188 27.7568Z" fill="#3F3679"/>
<path d="M28.0273 27.5806C28.0273 27.6776 28.106 27.7563 28.2031 27.7563H29.1341C29.2312 27.7563 29.3098 27.6776 29.3098 27.5806C29.3098 27.4835 29.2312 27.4048 29.1341 27.4048H28.2031C28.106 27.4048 28.0273 27.4835 28.0273 27.5806Z" fill="#3F3679"/>
</svg>
