<svg width="30" height="31" viewBox="0 0 30 31" fill="none" xmlns="http://www.w3.org/2000/svg">
<path d="M4.86789 21.9824C4.07277 21.9824 3.42578 21.3246 3.42578 20.5161V7.23432C3.42578 6.42584 4.07277 5.76807 4.86789 5.76807H25.1239C25.919 5.76807 26.566 6.42584 26.566 7.23432V20.5161C26.566 21.3246 25.919 21.9824 25.1239 21.9824H4.86789Z" fill="#8A63D8"/>
<path d="M25.6816 7.23652V20.513C25.6816 20.8259 25.4321 21.0796 25.1243 21.0796H4.87363C4.5659 21.0796 4.31641 20.8259 4.31641 20.513V7.23652C4.31641 6.92363 4.5659 6.66992 4.87363 6.66992H25.1245C25.4321 6.67004 25.6816 6.92363 25.6816 7.23652Z" fill="#9E9E9E"/>
<path d="M5.54863 20.5132V7.23652C5.54863 6.92363 5.79813 6.66992 6.10586 6.66992H4.87363C4.5659 6.66992 4.31641 6.92363 4.31641 7.23652V20.513C4.31641 20.8259 4.5659 21.0796 4.87363 21.0796H6.10586C5.79813 21.0796 5.54863 20.8261 5.54863 20.5132Z" fill="#707070"/>
<path d="M24.4479 20.5132V7.23652C24.4479 6.92363 24.1984 6.66992 23.8906 6.66992H25.1229C25.4306 6.66992 25.6801 6.92363 25.6801 7.23652V20.513C25.6801 20.8259 25.4306 21.0796 25.1229 21.0796H23.8906C24.1984 21.0796 24.4479 20.8261 24.4479 20.5132Z" fill="#CECECE"/>
<path d="M15.0004 21.9824H2.40625L2.7284 22.7361C3.01867 23.4152 3.67773 23.8545 4.40605 23.8545H15.0004H25.5947C26.323 23.8545 26.982 23.4152 27.2724 22.7361L27.5945 21.9824H15.0004Z" fill="#F8AF23"/>
<path d="M3.96062 22.7361L3.63848 21.9824H2.40625L2.7284 22.7361C3.01879 23.4152 3.67773 23.8545 4.40605 23.8545H5.63828C4.90996 23.8546 4.25101 23.4153 3.96062 22.7361Z" fill="#F87023"/>
<path d="M26.037 22.7361L26.3592 21.9824H27.5914L27.2693 22.7361C26.9789 23.4152 26.3199 23.8545 25.5916 23.8545H24.3594C25.0877 23.8546 25.7466 23.4153 26.037 22.7361Z" fill="#F8D323"/>
<path d="M10.1914 21.9824L10.6368 22.5606C10.8109 22.7866 11.0775 22.9185 11.3598 22.9185H18.6392C18.9215 22.9185 19.1881 22.7866 19.3621 22.5606L19.8076 21.9824H10.1914Z" fill="#FF6489"/>
<path d="M26.6929 17.0587H3.30762C2.6523 17.0587 2.12109 16.5275 2.12109 15.8721V11.8779C2.12109 11.2226 2.6523 10.6914 3.30762 10.6914H26.6929C27.3482 10.6914 27.8794 11.2226 27.8794 11.8779V15.8721C27.8794 16.5275 27.3482 17.0587 26.6929 17.0587Z" fill="#8A63D8"/>
<path d="M3.35332 15.8721V11.8779C3.35332 11.2226 3.88453 10.6914 4.53984 10.6914H3.30762C2.6523 10.6914 2.12109 11.2226 2.12109 11.8779V15.8721C2.12109 16.5275 2.6523 17.0587 3.30762 17.0587H4.53984C3.88453 17.0587 3.35332 16.5275 3.35332 15.8721Z" fill="#6377E7"/>
<path d="M26.6436 15.8721V11.8779C26.6436 11.2226 26.1123 10.6914 25.457 10.6914H26.6893C27.3446 10.6914 27.8758 11.2226 27.8758 11.8779V15.8721C27.8758 16.5275 27.3446 17.0587 26.6893 17.0587H25.457C26.1123 17.0587 26.6436 16.5275 26.6436 15.8721Z" fill="#8A63D8"/>
<path d="M9.17842 12.6609L9.45991 13.2314C9.48686 13.2861 9.53901 13.3239 9.59936 13.3327L10.2289 13.4242C10.3809 13.4463 10.4415 13.6331 10.3315 13.7402L9.87604 14.1842C9.83233 14.2267 9.81241 14.288 9.82272 14.3482L9.9303 14.9751C9.9562 15.1264 9.79741 15.2418 9.66147 15.1703L9.09839 14.8743C9.04436 14.846 8.97991 14.846 8.926 14.8743L8.36292 15.1703C8.22698 15.2418 8.06819 15.1264 8.09409 14.9751L8.20167 14.3482C8.21198 14.288 8.19206 14.2267 8.14835 14.1842L7.69284 13.7402C7.58292 13.633 7.64362 13.4463 7.7955 13.4242L8.42503 13.3327C8.48538 13.3239 8.53753 13.2861 8.56448 13.2314L8.84608 12.6609C8.91417 12.5232 9.11046 12.5232 9.17842 12.6609Z" fill="#F8AF23"/>
<path d="M13.1705 12.6609L13.4521 13.2314C13.4791 13.2861 13.5312 13.3239 13.5916 13.3327L14.2211 13.4242C14.3731 13.4463 14.4337 13.6331 14.3237 13.7402L13.8682 14.1842C13.8245 14.2267 13.8046 14.288 13.8149 14.3482L13.9225 14.9751C13.9484 15.1264 13.7896 15.2418 13.6537 15.1703L13.0906 14.8743C13.0366 14.846 12.9721 14.846 12.9182 14.8743L12.3551 15.1703C12.2192 15.2418 12.0604 15.1264 12.0863 14.9751L12.1939 14.3482C12.2042 14.288 12.1842 14.2267 12.1405 14.1842L11.685 13.7402C11.5751 13.633 11.6358 13.4463 11.7877 13.4242L12.4172 13.3327C12.4776 13.3239 12.5297 13.2861 12.5567 13.2314L12.8383 12.6609C12.9062 12.5232 13.1025 12.5232 13.1705 12.6609Z" fill="#F8AF23"/>
<path d="M17.1628 12.6609L17.4443 13.2314C17.4712 13.2861 17.5234 13.3239 17.5837 13.3327L18.2133 13.4242C18.3653 13.4463 18.4258 13.6331 18.3159 13.7402L17.8604 14.1842C17.8167 14.2267 17.7968 14.288 17.8071 14.3482L17.9147 14.9751C17.9406 15.1264 17.7818 15.2418 17.6458 15.1703L17.0828 14.8743C17.0287 14.846 16.9643 14.846 16.9104 14.8743L16.3473 15.1703C16.2114 15.2418 16.0526 15.1264 16.0785 14.9751L16.186 14.3482C16.1964 14.288 16.1764 14.2267 16.1327 14.1842L15.6772 13.7402C15.5673 13.633 15.628 13.4463 15.7799 13.4242L16.4094 13.3327C16.4698 13.3239 16.5219 13.2861 16.5489 13.2314L16.8303 12.6609C16.8985 12.5232 17.0948 12.5232 17.1628 12.6609Z" fill="#F8AF23"/>
<path d="M21.151 12.6609L21.4326 13.2314C21.4595 13.2861 21.5117 13.3239 21.572 13.3327L22.2015 13.4242C22.3535 13.4463 22.4141 13.6331 22.3042 13.7402L21.8487 14.1842C21.805 14.2267 21.7851 14.288 21.7954 14.3482L21.903 14.9751C21.9289 15.1264 21.7701 15.2418 21.6341 15.1703L21.071 14.8743C21.0171 14.846 20.9526 14.846 20.8987 14.8743L20.3356 15.1703C20.1996 15.2418 20.0408 15.1264 20.0667 14.9751L20.1743 14.3482C20.1846 14.288 20.1647 14.2267 20.121 14.1842L19.6655 13.7402C19.5556 13.633 19.6163 13.4463 19.7682 13.4242L20.3977 13.3327C20.458 13.3239 20.5102 13.2861 20.5371 13.2314L20.8187 12.6609C20.8867 12.5232 21.083 12.5232 21.151 12.6609Z" fill="#F8AF23"/>
<path d="M8.37235 22.7427H7.27734C7.1802 22.7427 7.10156 22.8214 7.10156 22.9185C7.10156 23.0155 7.1802 23.0942 7.27734 23.0942H8.37235C8.4695 23.0942 8.54813 23.0155 8.54813 22.9185C8.54813 22.8214 8.4695 22.7427 8.37235 22.7427Z" fill="#3F3679"/>
<path d="M22.72 22.7427H21.625C21.5279 22.7427 21.4492 22.8214 21.4492 22.9185C21.4492 23.0155 21.5279 23.0942 21.625 23.0942H22.72C22.8171 23.0942 22.8958 23.0155 22.8958 22.9185C22.8958 22.8214 22.817 22.7427 22.72 22.7427Z" fill="#3F3679"/>
<path d="M3.23 25.0562H1.09766C1.00051 25.0562 0.921875 25.1349 0.921875 25.2319C0.921875 25.329 1.00051 25.4077 1.09766 25.4077H3.22988C3.32703 25.4077 3.40566 25.329 3.40566 25.2319C3.40566 25.1349 3.32703 25.0562 3.23 25.0562Z" fill="#3F3679"/>
<path d="M28.9018 25.0562H26.7695C26.6724 25.0562 26.5938 25.1349 26.5938 25.2319C26.5938 25.329 26.6724 25.4077 26.7695 25.4077H28.9018C28.9989 25.4077 29.0775 25.329 29.0775 25.2319C29.0775 25.1349 28.9988 25.0562 28.9018 25.0562Z" fill="#3F3679"/>
<path d="M25.0662 25.0562H4.93359C4.83645 25.0562 4.75781 25.1349 4.75781 25.2319C4.75781 25.329 4.83645 25.4077 4.93359 25.4077H25.0662C25.1633 25.4077 25.242 25.329 25.242 25.2319C25.242 25.1349 25.1633 25.0562 25.0662 25.0562Z" fill="#3F3679"/>
<path d="M29.0762 23.8546C29.0762 23.7575 28.9975 23.6788 28.9004 23.6788H26.7186C27.027 23.4664 27.2779 23.1674 27.4327 22.8053L27.755 22.0515C27.7782 21.9971 27.7726 21.9349 27.7401 21.8856C27.7075 21.8362 27.6525 21.8066 27.5934 21.8066H26.1243C26.5016 21.5056 26.7452 21.0397 26.7452 20.516V17.2318C27.4716 17.2036 28.0542 16.6054 28.0542 15.8722V11.8781C28.0542 11.145 27.4715 10.5469 26.7452 10.5186V7.23432C26.7452 6.32881 26.0195 5.59229 25.1273 5.59229H4.87109C3.97895 5.59229 3.2532 6.32881 3.2532 7.23432V10.5186C2.52676 10.5469 1.94422 11.145 1.94422 11.8781V15.8723C1.94422 16.6056 2.52688 17.2037 3.2532 17.2319V20.5161C3.2532 21.0397 3.49684 21.5058 3.87406 21.8067H2.40488C2.34582 21.8067 2.29074 21.8363 2.25816 21.8857C2.2257 21.935 2.22008 21.9972 2.24328 22.0516L2.56555 22.8054C2.72035 23.1675 2.97125 23.4665 3.27969 23.6789H1.09766C1.00051 23.6789 0.921875 23.7576 0.921875 23.8547C0.921875 23.9517 1.00051 24.0304 1.09766 24.0304H4.40457H25.5934H28.9003C28.9974 24.0303 29.0762 23.9516 29.0762 23.8546ZM4.87109 5.94385H25.1271C25.8253 5.94385 26.3934 6.52264 26.3934 7.23432V10.5159H25.8575V7.23701C25.8575 6.82768 25.5287 6.49463 25.1245 6.49463H4.87367C4.46949 6.49463 4.14066 6.82768 4.14066 7.23701V10.5159H3.60477V7.23432C3.60477 6.52275 4.17277 5.94385 4.87109 5.94385ZM25.5058 10.5159H4.49223V7.23701C4.49223 7.0215 4.66332 6.84619 4.87367 6.84619H25.1245C25.3348 6.84619 25.5059 7.0215 25.5059 7.23701V10.5159H25.5058ZM2.29566 15.8723V11.8781C2.29566 11.3209 2.74906 10.8675 3.30641 10.8675H26.6916C27.249 10.8675 27.7024 11.3209 27.7024 11.8781V15.8723C27.7024 16.4297 27.249 16.8831 26.6916 16.8831H3.30641C2.74906 16.8831 2.29566 16.4297 2.29566 15.8723ZM4.49223 17.2346H25.5058V20.5134C25.5058 20.7289 25.3347 20.9042 25.1244 20.9042H4.87367C4.66332 20.9042 4.49223 20.7289 4.49223 20.5134V17.2346ZM3.60477 20.5161V17.2346H4.14066V20.5134C4.14066 20.9228 4.46949 21.2558 4.87367 21.2558H25.1245C25.5287 21.2558 25.8575 20.9228 25.8575 20.5134V17.2346H26.3934V20.5161C26.3934 21.2277 25.8253 21.8067 25.1271 21.8067H19.8072H10.1909H4.87109C4.17277 21.8066 3.60477 21.2277 3.60477 20.5161ZM19.4497 22.1581L19.2225 22.4533C19.0808 22.6371 18.868 22.7427 18.6388 22.7427H11.3593C11.1301 22.7427 10.9174 22.6372 10.7757 22.4533L10.5484 22.1581H19.4497ZM4.40469 23.6788C3.91555 23.6788 3.46156 23.4592 3.15266 23.0942H6.19461C6.29176 23.0942 6.37039 23.0155 6.37039 22.9185C6.37039 22.8214 6.29176 22.7427 6.19461 22.7427H2.92438C2.91219 22.7177 2.89977 22.6929 2.88875 22.667L2.67125 22.1581H4.87109H10.1046L10.4973 22.6679C10.706 22.9388 11.0203 23.0942 11.3594 23.0942H18.6389C18.978 23.0942 19.2923 22.9388 19.501 22.6678L19.8936 22.1581H25.1271H27.3269L27.1094 22.667C27.0984 22.6928 27.086 22.7176 27.0738 22.7427H23.8036C23.7064 22.7427 23.6278 22.8214 23.6278 22.9185C23.6278 23.0155 23.7064 23.0942 23.8036 23.0942H26.8455C26.5366 23.4592 26.0826 23.6788 25.5935 23.6788H4.40469Z" fill="#3F3679"/>
<path d="M8.02815 14.319L7.92057 14.9462C7.89725 15.0826 7.95221 15.2178 8.06424 15.2991C8.17615 15.3805 8.3217 15.3909 8.44451 15.3267L9.01639 15.0306L9.57959 15.3267C9.63291 15.3546 9.69057 15.3684 9.74787 15.3684C9.8224 15.3684 9.89647 15.3451 9.95975 15.299C10.0718 15.2178 10.1267 15.0824 10.1034 14.9459L9.99854 14.3105L10.4542 13.8664C10.5533 13.7698 10.5882 13.628 10.5454 13.4963C10.5027 13.3647 10.391 13.2706 10.2541 13.2507L9.61744 13.154L9.33596 12.5835C9.27467 12.4593 9.15057 12.3823 9.01217 12.3823C8.87377 12.3823 8.74967 12.4594 8.6885 12.5835L8.39987 13.1593L7.77034 13.2507C7.63334 13.2706 7.52166 13.3647 7.47889 13.4963C7.43612 13.628 7.47104 13.7698 7.57018 13.8665L8.02815 14.319ZM7.82049 13.5986L8.45014 13.5072C8.5678 13.4901 8.6694 13.4162 8.72178 13.3096L9.01182 12.7339C9.01768 12.7339 9.01897 12.7363 9.02026 12.7392L9.30174 13.3095C9.35424 13.416 9.45584 13.49 9.57362 13.5072L10.2033 13.5986L10.2286 13.4247L10.2085 13.6148L9.75291 14.0588C9.66783 14.1418 9.62893 14.2613 9.64908 14.3785L9.75666 15.0056L9.92998 14.9758L9.74307 15.0154L9.17998 14.7195C9.07487 14.6641 8.94912 14.6642 8.84389 14.7194L8.2808 15.0154L8.3626 15.171L8.26709 15.0056L8.37467 14.3785C8.39471 14.2613 8.35592 14.1418 8.27084 14.0588L7.81522 13.6148L7.69252 13.7406L7.82049 13.5986Z" fill="#3F3679"/>
<path d="M12.0205 14.319L11.9129 14.9462C11.8896 15.0826 11.9445 15.2178 12.0565 15.2991C12.1686 15.3805 12.314 15.3909 12.4368 15.3267L13.0087 15.0306L13.5719 15.3267C13.6252 15.3546 13.6829 15.3684 13.7402 15.3684C13.8147 15.3684 13.8888 15.3451 13.9521 15.299C14.0641 15.2178 14.1191 15.0824 14.0957 14.9459L13.9908 14.3105L14.4465 13.8664C14.5456 13.7698 14.5805 13.628 14.5378 13.4963C14.495 13.3647 14.3833 13.2706 14.2464 13.2507L13.6098 13.154L13.3283 12.5835C13.267 12.4593 13.1429 12.3823 13.0045 12.3823C12.866 12.3823 12.742 12.4593 12.6807 12.5835L12.3921 13.1593L11.7624 13.2507C11.6255 13.2706 11.5137 13.3647 11.4711 13.4963C11.4283 13.628 11.4632 13.7698 11.5624 13.8665L12.0205 14.319ZM11.8128 13.5986L12.4426 13.5072C12.5602 13.4901 12.6618 13.4162 12.7142 13.3096L13.0042 12.7339C13.0101 12.7339 13.0114 12.7363 13.0127 12.7392L13.2942 13.3095C13.3467 13.416 13.4483 13.49 13.566 13.5072L14.1957 13.5986L14.221 13.4247L14.201 13.6148L13.7453 14.0588C13.6603 14.1418 13.6215 14.2613 13.6415 14.3785L13.7491 15.0056L13.9224 14.9758L13.7355 15.0154L13.1724 14.7195C13.0673 14.6641 12.9415 14.6642 12.8363 14.7194L12.2732 15.0154L12.355 15.171L12.2595 15.0056L12.3671 14.3785C12.3871 14.2613 12.3483 14.1418 12.2633 14.0588L11.8076 13.6148L11.6849 13.7406L11.8128 13.5986Z" fill="#3F3679"/>
<path d="M16.0126 14.319L15.9051 14.9462C15.8817 15.0826 15.9367 15.2178 16.0487 15.2991C16.1606 15.3805 16.3063 15.3909 16.429 15.3267L17.0009 15.0306L17.5641 15.3267C17.6174 15.3546 17.6751 15.3684 17.7324 15.3684C17.8069 15.3684 17.881 15.3451 17.9442 15.299C18.0563 15.2178 18.1112 15.0824 18.0879 14.9459L17.983 14.3105L18.4386 13.8664C18.5378 13.7698 18.5727 13.628 18.5299 13.4963C18.4872 13.3647 18.3755 13.2706 18.2386 13.2507L17.6019 13.154L17.3204 12.5835C17.2592 12.4593 17.1351 12.3823 16.9967 12.3823C16.8583 12.3823 16.7342 12.4593 16.6729 12.5835L16.3842 13.1593L15.7546 13.2507C15.6177 13.2706 15.5059 13.3647 15.4633 13.4963C15.4205 13.628 15.4554 13.7698 15.5546 13.8665L16.0126 14.319ZM15.805 13.5986L16.4347 13.5072C16.5524 13.4901 16.654 13.4162 16.7064 13.3096L16.9964 12.7339C17.0024 12.7339 17.0036 12.7363 17.005 12.7392L17.2865 13.3095C17.339 13.416 17.4406 13.49 17.5583 13.5072L18.188 13.5986L18.2133 13.4247L18.1933 13.6148L17.7376 14.0588C17.6526 14.1418 17.6138 14.2613 17.6338 14.3785L17.7414 15.0056L17.9147 14.9758L17.7278 15.0154L17.1647 14.7195C17.0596 14.6641 16.9338 14.6642 16.8286 14.7194L16.2655 15.0154L16.3473 15.171L16.2518 15.0056L16.3594 14.3785C16.3794 14.2613 16.3406 14.1418 16.2556 14.0588L15.7999 13.6148L15.6772 13.7406L15.805 13.5986Z" fill="#3F3679"/>
<path d="M20.001 14.319L19.8935 14.9462C19.8701 15.0826 19.9251 15.2178 20.0371 15.2991C20.1492 15.3805 20.2947 15.3909 20.4174 15.3267L20.9893 15.0306L21.5525 15.3267C21.6058 15.3546 21.6635 15.3684 21.7208 15.3684C21.7953 15.3684 21.8694 15.3451 21.9326 15.299C22.0447 15.2178 22.0996 15.0824 22.0763 14.9459L21.9714 14.3105L22.4271 13.8664C22.5262 13.7698 22.5611 13.628 22.5183 13.4963C22.4756 13.3647 22.3639 13.2706 22.2269 13.2507L21.5902 13.154L21.3086 12.5835C21.2473 12.4594 21.1233 12.3823 20.9849 12.3823C20.8465 12.3823 20.7224 12.4593 20.6612 12.5835L20.3725 13.1593L19.7429 13.2507C19.606 13.2706 19.4942 13.3647 19.4515 13.4963C19.4088 13.628 19.4437 13.7698 19.5428 13.8665L20.001 14.319ZM19.7934 13.5986L20.4231 13.5072C20.5408 13.4901 20.6424 13.4162 20.6948 13.3096L20.9848 12.7339C20.9907 12.7339 20.992 12.7363 20.9933 12.7392L21.2747 13.3095C21.3272 13.416 21.4288 13.49 21.5466 13.5072L22.1762 13.5986L22.2015 13.4247L22.1815 13.6148L21.7259 14.0588C21.6408 14.1418 21.6021 14.2613 21.6221 14.3785L21.7297 15.0056L21.903 14.9758L21.7161 15.0154L21.153 14.7195C21.0479 14.6641 20.9221 14.6642 20.8169 14.7194L20.2538 15.0154L20.3356 15.171L20.2401 15.0056L20.3477 14.3785C20.3677 14.2613 20.3289 14.1418 20.2437 14.0588L19.7882 13.6148L19.6655 13.7406L19.7934 13.5986Z" fill="#3F3679"/>
</svg>
