<svg width="50" height="50" viewBox="0 0 50 50" fill="none" xmlns="http://www.w3.org/2000/svg">
<path d="M24.9398 19.1398C24.6887 18.7281 24.2807 18.424 23.7977 18.3107C23.6629 18.2791 23.5232 18.2607 23.3789 18.2607H22.4492V21.9189H23.3789C24.3891 21.9189 25.208 21.1 25.208 20.0898C25.208 19.7414 25.109 19.417 24.9398 19.1398Z" fill="#FF6489"/>
<path d="M33.5156 27.6207V25.8037C33.5156 25.3711 33.8662 25.0205 34.2988 25.0205H39.5367H41.2508C41.2508 25.0205 41.0367 27.6207 38.5383 27.6207H33.5156Z" fill="#F8AF23"/>
<path d="M39.5373 25.0205H39.4781C39.4781 25.0205 39.2641 27.6207 36.7656 27.6207H38.5389C41.0373 27.6207 41.2514 25.0205 41.2514 25.0205H39.5373Z" fill="#F8D323"/>
<path d="M13.8994 26.6927C11.7914 27.6103 9.2041 29.0784 7.86426 32.4288L3.86719 43.2982H17.7611H18.384H32.2314L38.5373 27.6204H33.5145L29.9576 36.4255L28.2818 32.429C26.9451 29.0878 24.4242 27.4767 22.2635 26.699C22.2635 26.699 17.8092 24.991 13.8994 26.6927Z" fill="#C0A3FA"/>
<path d="M36.7629 27.6201L30.457 43.2979H32.2303L38.5361 27.6201H36.7629Z" fill="#C0A3FA"/>
<path d="M15.6727 26.692C16.6734 26.2565 17.7094 26.0452 18.6977 25.9705C17.2432 25.8672 15.5248 25.9846 13.8994 26.692C11.7914 27.6096 9.20391 29.0778 7.86426 32.4282L3.86719 43.2975H5.64043L9.6375 32.4282C10.9771 29.0778 13.5646 27.6096 15.6727 26.692Z" fill="#6377E7"/>
<path d="M17.8502 27.4414C16.8047 27.4414 15.9492 27.4057 15.9492 26.3602V24.2525C15.9492 23.207 16.8047 22.3516 17.8502 22.3516C18.8957 22.3516 19.7512 23.207 19.7512 24.2525V26.3602C19.7512 27.4057 18.8957 27.4414 17.8502 27.4414Z" fill="#F8AF23"/>
<path d="M17.4467 22.9548C17.4467 22.7628 17.4553 22.5753 17.4676 22.3901C16.6039 22.5685 15.9492 23.3376 15.9492 24.252V26.3597C15.9492 27.2667 16.5934 27.4136 17.4467 27.4366V22.9548Z" fill="#F87023"/>
<path d="M18.2973 24.7355C15.4697 24.7355 13.1562 22.422 13.1562 19.5944V17.5605C13.1562 14.7329 15.4697 12.4194 18.2973 12.4194C21.1248 12.4194 23.4383 14.7329 23.4383 17.5605V19.5944C23.4383 22.422 21.1248 24.7355 18.2973 24.7355Z" fill="#F8AF23"/>
<path d="M15.21 19.5944V17.5605C15.21 15.0843 16.9842 13.0024 19.3242 12.5233C18.9922 12.4554 18.6488 12.4194 18.2973 12.4194C15.4697 12.4194 13.1562 14.7329 13.1562 17.5605V19.5944C13.1562 22.422 15.4697 24.7355 18.2973 24.7355C18.6486 24.7355 18.992 24.6995 19.3242 24.6315C16.9842 24.1524 15.21 22.0706 15.21 19.5944Z" fill="#F87023"/>
<path d="M16.8787 19.7696C17.1655 19.7696 17.398 19.5371 17.398 19.2503C17.398 18.9635 17.1655 18.731 16.8787 18.731C16.5919 18.731 16.3594 18.9635 16.3594 19.2503C16.3594 19.5371 16.5919 19.7696 16.8787 19.7696Z" fill="#3F3679"/>
<path d="M20.9334 19.7696C21.2202 19.7696 21.4527 19.5371 21.4527 19.2503C21.4527 18.9635 21.2202 18.731 20.9334 18.731C20.6466 18.731 20.4141 18.9635 20.4141 19.2503C20.4141 19.5371 20.6466 19.7696 20.9334 19.7696Z" fill="#3F3679"/>
<path d="M37.3814 21.9187C42.2175 21.9187 46.1379 17.9983 46.1379 13.1622C46.1379 8.32616 42.2175 4.40576 37.3814 4.40576C32.5454 4.40576 28.625 8.32616 28.625 13.1622C28.625 17.9983 32.5454 21.9187 37.3814 21.9187Z" fill="#C0A3FA"/>
<path d="M37.3824 4.40576C37.0348 4.40576 36.6926 4.42822 36.3555 4.46768C40.7074 4.97627 44.0852 8.67373 44.0852 13.1622C44.0852 17.6507 40.7074 21.3481 36.3555 21.8567C36.6926 21.8962 37.0348 21.9187 37.3824 21.9187C42.2186 21.9187 46.1389 17.9981 46.1389 13.1622C46.1389 8.32627 42.2186 4.40576 37.3824 4.40576Z" fill="#C0A3FA"/>
<path d="M35.5727 12.2856C35.5727 11.9319 35.4195 11.755 35.1133 11.755C34.9406 11.755 34.8145 11.8155 34.7348 11.9364C34.6717 12.0319 34.6309 12.1692 34.6121 12.3483C34.6031 12.4339 34.5299 12.4991 34.4439 12.4991H33.7059C33.6023 12.4991 33.5254 12.4073 33.5371 12.3046C33.5898 11.8442 33.7529 11.4907 34.0264 11.244C34.3369 10.9638 34.7293 10.8237 35.2039 10.8237C35.6998 10.8237 36.0738 10.9487 36.3264 11.1989C36.5785 11.4489 36.7049 11.7747 36.7049 12.1759C36.7049 12.6202 36.5344 13.0546 36.1938 13.4794C35.9623 13.7681 35.6998 14.0265 35.4064 14.2544C35.2795 14.353 35.3508 14.5565 35.5117 14.5565H36.6061C36.7 14.5565 36.776 14.6327 36.776 14.7265V15.2792C36.776 15.3731 36.6998 15.4491 36.6061 15.4491H33.6855C33.5916 15.4491 33.5156 15.3729 33.5156 15.2792V14.7079C33.5156 14.6534 33.543 14.6019 33.5871 14.57C34.9107 13.6149 35.5727 12.8534 35.5727 12.2856Z" fill="#3F3679"/>
<path d="M37.2461 14.4896V13.7899C37.2461 13.754 37.2576 13.7189 37.2787 13.6898L39.2848 10.9386C39.3168 10.8946 39.3678 10.8687 39.4221 10.8687H40.3561C40.45 10.8687 40.526 10.9448 40.526 11.0386V13.5255C40.526 13.6194 40.6021 13.6954 40.6959 13.6954H40.9059C40.9998 13.6954 41.0758 13.7716 41.0758 13.8653V14.4894C41.0758 14.5833 40.9996 14.6593 40.9059 14.6593H40.6959C40.602 14.6593 40.526 14.7355 40.526 14.8292V15.3302C40.526 15.4241 40.4498 15.5001 40.3561 15.5001H39.577C39.483 15.5001 39.407 15.4239 39.407 15.3302V14.8292C39.407 14.7353 39.3309 14.6593 39.2371 14.6593H37.4162C37.3221 14.6597 37.2461 14.5835 37.2461 14.4896ZM39.19 12.572L38.5686 13.4257C38.4867 13.538 38.567 13.6958 38.7061 13.6958H39.3275C39.4215 13.6958 39.4975 13.6196 39.4975 13.5259V12.6722C39.4975 12.5073 39.2869 12.439 39.19 12.572Z" fill="#3F3679"/>
<path d="M15.9516 26.0893L17.8525 27.4414L16.3611 29.183L14.3359 26.517L15.9516 25V26.0893Z" fill="#FF6489"/>
<path d="M19.7525 26.0893L17.8516 27.4414L19.343 29.183L21.3682 26.517L19.7525 25V26.0893Z" fill="#FF6489"/>
<path d="M17.8486 31.3877C18.2397 31.3877 18.5566 31.0707 18.5566 30.6797C18.5566 30.2887 18.2397 29.9717 17.8486 29.9717C17.4576 29.9717 17.1406 30.2887 17.1406 30.6797C17.1406 31.0707 17.4576 31.3877 17.8486 31.3877Z" fill="#FF6489"/>
<path d="M17.8486 34.9854C18.2397 34.9854 18.5566 34.6684 18.5566 34.2773C18.5566 33.8863 18.2397 33.5693 17.8486 33.5693C17.4576 33.5693 17.1406 33.8863 17.1406 34.2773C17.1406 34.6684 17.4576 34.9854 17.8486 34.9854Z" fill="#FF6489"/>
<path d="M17.8486 38.5825C18.2397 38.5825 18.5566 38.2655 18.5566 37.8745C18.5566 37.4835 18.2397 37.1665 17.8486 37.1665C17.4576 37.1665 17.1406 37.4835 17.1406 37.8745C17.1406 38.2655 17.4576 38.5825 17.8486 38.5825Z" fill="#FF6489"/>
<path d="M17.8486 42.1802C18.2397 42.1802 18.5566 41.8632 18.5566 41.4722C18.5566 41.0811 18.2397 40.7642 17.8486 40.7642C17.4576 40.7642 17.1406 41.0811 17.1406 41.4722C17.1406 41.8632 17.4576 42.1802 17.8486 42.1802Z" fill="#FF6489"/>
<path d="M24.9707 12.3852C24.9742 12.3209 24.9804 12.2574 24.9804 12.1922C24.9804 10.2236 23.3847 8.62793 21.4162 8.62793C20.4664 8.62793 19.6056 9.00176 18.9667 9.60742C18.6304 9.44062 18.2529 9.34434 17.8519 9.34434C16.9097 9.34434 16.09 9.86328 15.6593 10.6303C14.6716 11.0463 12.9523 11.9818 12.1537 13.6857C10.9972 16.1527 13.1884 16.8279 13.1576 19.2691H13.6396L13.8539 18.0615C13.8539 18.0615 16.8728 17.6721 17.048 15.14C17.048 15.14 19.7943 18.5096 24.1765 15.6658C25.7931 14.617 25.8218 13.4119 24.9707 12.3852Z" fill="#9E9E9E"/>
<path d="M14.2074 13.6861C15.006 11.9822 16.7253 11.0467 17.713 10.6307C17.9753 10.1637 18.3824 9.78965 18.8728 9.56758C18.5603 9.42754 18.2165 9.34473 17.8519 9.34473C16.9097 9.34473 16.09 9.86367 15.6593 10.6307C14.6716 11.0467 12.9523 11.9822 12.1537 13.6861C10.9972 16.1531 13.1884 16.8283 13.1576 19.2695H13.6396L13.8539 18.0619C13.8539 18.0619 14.3351 17.9992 14.9242 17.7639C14.3802 16.3998 13.3294 15.559 14.2074 13.6861Z" fill="#707070"/>
<path d="M24.9396 19.14C24.9572 19.0844 24.9693 19.0264 24.9693 18.9648V17.1145C24.9693 13.6518 22.1523 10.835 18.6896 10.835C15.227 10.835 12.4102 13.652 12.4102 17.1145V18.2607C12.4102 18.5844 12.6725 18.8467 12.9961 18.8467C13.3197 18.8467 13.582 18.5844 13.582 18.2607V17.1145C13.582 14.298 15.8732 12.0068 18.6898 12.0068C21.5062 12.0068 23.7975 14.298 23.7975 17.1145V18.3107C24.2805 18.424 24.6887 18.7283 24.9396 19.14Z" fill="#FF6489"/>
<path d="M13.3369 21.9189H12.9932C11.983 21.9189 11.1641 21.1 11.1641 20.0898C11.1641 19.0797 11.983 18.2607 12.9932 18.2607H13.3369C13.6606 18.2607 13.9229 18.523 13.9229 18.8467V21.333C13.9229 21.6566 13.6606 21.9189 13.3369 21.9189Z" fill="#FF6489"/>
<path d="M5.05859 45.3008H1.44531C1.2834 45.3008 1.15234 45.4318 1.15234 45.5938C1.15234 45.7557 1.2834 45.8867 1.44531 45.8867H5.05859C5.22051 45.8867 5.35156 45.7557 5.35156 45.5938C5.35156 45.4318 5.22031 45.3008 5.05859 45.3008Z" fill="#3F3679"/>
<path d="M48.5625 45.3008H44.9492C44.7873 45.3008 44.6562 45.4318 44.6562 45.5938C44.6562 45.7557 44.7873 45.8867 44.9492 45.8867H48.5625C48.7244 45.8867 48.8555 45.7557 48.8555 45.5938C48.8555 45.4318 48.7244 45.3008 48.5625 45.3008Z" fill="#3F3679"/>
<path d="M42.0574 45.3013H7.94141C7.77949 45.3013 7.64844 45.4323 7.64844 45.5942C7.64844 45.7562 7.77949 45.8872 7.94141 45.8872H42.0574C42.2193 45.8872 42.3504 45.7562 42.3504 45.5942C42.3504 45.4323 42.2193 45.3013 42.0574 45.3013Z" fill="#3F3679"/>
<path d="M47.0039 43.5913H48.5555C48.7174 43.5913 48.8484 43.4603 48.8484 43.2983C48.8484 43.1364 48.7174 43.0054 48.5555 43.0054H47.0039C46.842 43.0054 46.7109 43.1364 46.7109 43.2983C46.7109 43.4603 46.842 43.5913 47.0039 43.5913Z" fill="#3F3679"/>
<path d="M1.44531 43.591H3.86387H8.03633H8.03691H8.0375H28.0422H28.0428H28.0434H32.2281H44.9453C45.1072 43.591 45.2383 43.46 45.2383 43.298C45.2383 43.1361 45.1072 43.0051 44.9453 43.0051H32.6617L38.7344 27.9068C41.2869 27.7742 41.5408 25.0721 41.5432 25.0441C41.5498 24.9625 41.5221 24.8818 41.4666 24.8217C41.4111 24.7613 41.333 24.7272 41.251 24.7272H34.299C33.7057 24.7272 33.2229 25.21 33.2229 25.8033V27.5508L29.9488 35.6555L28.5502 32.3197C27.133 28.7775 24.4012 27.1578 22.3646 26.425C22.3514 26.4199 22.034 26.2988 21.4967 26.1527L21.3787 26.1211C21.377 26.1205 21.375 26.1207 21.3732 26.1203L20.0445 24.8727V24.7389C21.3348 24.2994 22.4084 23.3887 23.058 22.2113H23.3781C24.5482 22.2113 25.5002 21.2594 25.5002 20.0893C25.5002 19.7443 25.4105 19.4064 25.2484 19.1006C25.2564 19.0547 25.2617 19.0092 25.2617 18.9641V17.1137C25.2617 16.51 25.1783 15.9256 25.025 15.3699C25.9865 14.4443 26.0756 13.3316 25.2691 12.2904C25.2709 12.2578 25.2723 12.2252 25.2723 12.1922C25.2723 10.0652 23.542 8.33496 21.415 8.33496C20.4928 8.33496 19.6115 8.6625 18.9119 9.26152C18.5734 9.12188 18.2174 9.05137 17.8508 9.05137C16.8719 9.05137 15.9629 9.56504 15.4541 10.3986C14.4355 10.8412 12.7062 11.8141 11.8871 13.5617C11.2137 14.9984 11.5717 15.8803 12.1098 16.8838C12.1131 16.89 12.1184 16.8947 12.1221 16.9006C12.1197 16.9717 12.1166 17.0426 12.1166 17.1141V18.1604C11.3846 18.4953 10.8736 19.233 10.8736 20.0895C10.8736 21.16 11.6711 22.0453 12.7027 22.1889V22.4479C12.7027 22.9234 13.0895 23.3102 13.565 23.3102H14.3369C14.723 23.7234 15.1691 24.0693 15.657 24.3416V24.8729L14.1758 26.2635C14.0432 26.3135 13.9107 26.3666 13.7793 26.4238C11.6187 27.3641 8.96289 28.8842 7.58613 32.3275L3.65977 43.0051H1.44531C1.2834 43.0051 1.15234 43.1361 1.15234 43.298C1.15234 43.46 1.2834 43.591 1.44531 43.591ZM33.809 25.8033C33.809 25.533 34.0289 25.3131 34.2992 25.3131H40.9064C40.7639 25.9529 40.2576 27.3273 38.5385 27.3273H38.534H33.8092V25.8033H33.809ZM19.9217 26.3275C19.999 26.2727 20.0447 26.1836 20.0447 26.0889V25.6766L20.9744 26.5494L19.3285 28.7162L18.2818 27.4939L19.9217 26.3275ZM13.8744 17.7617V17.1141C13.8744 14.4592 16.0344 12.2994 18.6893 12.2994C20.8961 12.2994 22.7596 13.7924 23.3262 15.8211C19.6307 17.7434 17.3695 15.0711 17.274 14.9553C17.198 14.8621 17.0727 14.8248 16.9584 14.8611C16.8437 14.8975 16.7631 15.0002 16.7547 15.1201C16.6898 16.0576 16.1873 16.7857 15.2609 17.2844C14.6578 17.6086 14.059 17.7299 13.8744 17.7617ZM23.3783 21.6256H23.3363C23.5902 20.9977 23.7314 20.3127 23.7314 19.5949V18.5963C24.1271 18.6895 24.476 18.943 24.6891 19.2924C24.8363 19.534 24.9143 19.8096 24.9143 20.0897C24.9143 20.9363 24.2252 21.6256 23.3783 21.6256ZM12.4178 13.8104C13.1785 12.1873 14.8457 11.2906 15.7719 10.9004C15.8318 10.8752 15.8816 10.8307 15.9137 10.7738C16.3074 10.073 17.0496 9.6375 17.851 9.6375C18.1934 9.6375 18.5246 9.71582 18.8355 9.87012C18.9457 9.92461 19.0783 9.90488 19.1674 9.82031C19.7791 9.24043 20.5775 8.92109 21.4154 8.92109C23.2191 8.92109 24.6867 10.3887 24.6867 12.1924C24.6867 12.2305 24.684 12.268 24.6814 12.3055L24.6773 12.3697C24.6734 12.4432 24.6975 12.5156 24.7443 12.5725C25.3719 13.3293 25.3947 14.0572 24.8166 14.7402C23.8625 12.2863 21.4766 10.5416 18.6895 10.5416C15.516 10.5416 12.8609 12.8021 12.2496 15.7977C12.0441 15.2162 12.0318 14.6336 12.4178 13.8104ZM12.7025 17.1141C12.7025 13.8131 15.3881 11.1275 18.6891 11.1275C21.99 11.1275 24.6758 13.8131 24.6758 17.1141V18.4168C24.4986 18.2793 24.3014 18.1691 24.0898 18.0932V17.1141C24.0898 14.1361 21.6672 11.7135 18.6893 11.7135C15.7113 11.7135 13.2885 14.1361 13.2885 17.1141V17.9674H12.9955C12.8959 17.9674 12.7984 17.9768 12.7025 17.99V17.1141ZM11.4596 20.0895C11.4596 19.2426 12.1486 18.5533 12.9957 18.5533H13.3395C13.501 18.5533 13.6324 18.6848 13.6324 18.8463V21.3324C13.6324 21.4939 13.501 21.6254 13.3395 21.6254H12.9957C12.1486 21.6256 11.4596 20.9363 11.4596 20.0895ZM13.5648 22.7242C13.4125 22.7242 13.2885 22.6002 13.2885 22.4479V22.2115H13.3393C13.4051 22.2115 13.4686 22.2029 13.5303 22.1893C13.6316 22.3748 13.7406 22.5543 13.8604 22.7242H13.5648ZM16.8795 22.7242H14.6023C14.384 22.4654 14.1904 22.1816 14.0256 21.875C14.1443 21.7252 14.2182 21.5383 14.2182 21.3326V18.8463C14.2182 18.6814 14.1697 18.5291 14.0906 18.3971L14.1055 18.3129C14.7703 18.1721 16.7711 17.5994 17.2459 15.7459C18.0951 16.4838 20.1666 17.8195 23.0482 16.6002C23.1123 16.9154 23.1453 17.2373 23.1453 17.5607V19.5947C23.1453 22.268 20.9705 24.4428 18.2973 24.4428C17.1355 24.4428 16.0445 24.0303 15.1877 23.31H16.8793C17.0412 23.31 17.1723 23.1789 17.1723 23.017C17.1723 22.8551 17.0414 22.7242 16.8795 22.7242ZM18.2975 25.0287C18.6961 25.0287 19.0844 24.9844 19.4588 24.9025V24.9996V25.4939V25.9375L17.8508 27.0814L16.2428 25.9375V25.3902V24.9996V24.6234C16.8834 24.8854 17.5779 25.0287 18.2975 25.0287ZM15.6568 25.6766V26.0889C15.6568 26.1836 15.7027 26.2727 15.7799 26.3275L17.4197 27.4939L16.373 28.7162L14.7271 26.5494L15.6568 25.6766ZM8.13281 32.5375C9.42754 29.3 11.9553 27.8568 14.0131 26.9611C14.0869 26.9289 14.1613 26.9008 14.2355 26.8711L16.1262 29.3598C16.1797 29.4303 16.2623 29.4729 16.3508 29.4754H16.3594C16.4447 29.4754 16.5262 29.4381 16.5818 29.373L17.8508 27.8914L19.1197 29.373C19.1754 29.4381 19.2568 29.4754 19.3422 29.4754H19.3508C19.4393 29.4729 19.5219 29.4303 19.5754 29.3598L21.54 26.7736C21.9264 26.8855 22.1535 26.9717 22.1609 26.9742C24.967 27.9842 26.9338 29.8559 28.0084 32.542L29.684 36.5385C29.7297 36.6475 29.8361 36.7182 29.9541 36.7182H29.9561C30.0748 36.7174 30.1812 36.6449 30.2258 36.535L33.7088 27.9131H38.1004L32.0303 43.0051H28.2422L25.6422 36.4023C25.583 36.2518 25.4133 36.1777 25.2623 36.2371C25.1117 36.2963 25.0379 36.4664 25.0971 36.617L27.6125 43.0049H8.46719L10.9826 36.617C11.042 36.4664 10.968 36.2963 10.8174 36.2371C10.6668 36.1775 10.4967 36.2518 10.4375 36.4023L7.8375 43.0051H4.28379L8.13281 32.5375Z" fill="#3F3679"/>
<path d="M19.2188 21.7127C19.3807 21.7127 19.5117 21.5816 19.5117 21.4197V20.2383C19.5117 20.0764 19.3807 19.9453 19.2188 19.9453C19.0568 19.9453 18.9258 20.0764 18.9258 20.2383V21.4197C18.9258 21.5816 19.057 21.7127 19.2188 21.7127Z" fill="#3F3679"/>
<path d="M18.3023 18.1138C18.3023 17.9519 18.1713 17.8208 18.0094 17.8208H15.75C15.5881 17.8208 15.457 17.9519 15.457 18.1138C15.457 18.2757 15.5881 18.4067 15.75 18.4067H18.0092C18.1711 18.4067 18.3023 18.2757 18.3023 18.1138Z" fill="#3F3679"/>
<path d="M19.8047 18.4067H22.0641C22.226 18.4067 22.357 18.2757 22.357 18.1138C22.357 17.9519 22.226 17.8208 22.0641 17.8208H19.8047C19.6428 17.8208 19.5117 17.9519 19.5117 18.1138C19.5117 18.2757 19.6428 18.4067 19.8047 18.4067Z" fill="#3F3679"/>
<path d="M17.461 22.247C17.3584 22.372 17.3766 22.5566 17.5016 22.6593C17.7547 22.8671 18.2125 23.104 18.7219 23.104C19.1049 23.104 19.5172 22.97 19.8938 22.5888C20.0075 22.4736 20.0063 22.288 19.8912 22.1743C19.776 22.0607 19.5905 22.0618 19.4768 22.1769C19.4024 22.2523 18.725 22.8931 17.8725 22.2054C17.7475 22.1036 17.5635 22.122 17.461 22.247Z" fill="#3F3679"/>
<path d="M37.3814 22.2116C42.3713 22.2116 46.4309 18.1521 46.4309 13.1622C46.4309 8.17236 42.3713 4.11279 37.3814 4.11279C32.3916 4.11279 28.332 8.17236 28.332 13.1622C28.332 18.1521 32.3916 22.2116 37.3814 22.2116ZM37.3814 4.69854C42.0482 4.69854 45.8449 8.49521 45.8449 13.162C45.8449 17.8288 42.0482 21.6255 37.3814 21.6255C32.7146 21.6255 28.918 17.8288 28.918 13.162C28.918 8.49521 32.7146 4.69854 37.3814 4.69854Z" fill="#3F3679"/>
<path d="M37.3828 7.36816C37.5447 7.36816 37.6758 7.23711 37.6758 7.07519V5.65918C37.6758 5.49727 37.5447 5.36621 37.3828 5.36621C37.2209 5.36621 37.0898 5.49727 37.0898 5.65918V7.07519C37.0898 7.23691 37.2209 7.36816 37.3828 7.36816Z" fill="#3F3679"/>
<path d="M37.3828 20.4399C37.5447 20.4399 37.6758 20.3089 37.6758 20.147V18.731C37.6758 18.569 37.5447 18.438 37.3828 18.438C37.2209 18.438 37.0898 18.569 37.0898 18.731V20.147C37.0898 20.3087 37.2209 20.4399 37.3828 20.4399Z" fill="#3F3679"/>
<path d="M43.2109 13.4551H44.627C44.7889 13.4551 44.9199 13.324 44.9199 13.1621C44.9199 13.0002 44.7889 12.8691 44.627 12.8691H43.2109C43.049 12.8691 42.918 13.0002 42.918 13.1621C42.918 13.324 43.0492 13.4551 43.2109 13.4551Z" fill="#3F3679"/>
<path d="M31.8535 13.1621C31.8535 13.0002 31.7225 12.8691 31.5605 12.8691H30.1445C29.9826 12.8691 29.8516 13.0002 29.8516 13.1621C29.8516 13.324 29.9826 13.4551 30.1445 13.4551H31.5605C31.7225 13.4551 31.8535 13.3238 31.8535 13.1621Z" fill="#3F3679"/>
<path d="M17.8486 31.6802C18.4006 31.6802 18.8496 31.2312 18.8496 30.6792C18.8496 30.1272 18.4006 29.6782 17.8486 29.6782C17.2967 29.6782 16.8477 30.1272 16.8477 30.6792C16.8477 31.2312 17.2967 31.6802 17.8486 31.6802ZM17.8486 30.2642C18.0775 30.2642 18.2637 30.4503 18.2637 30.6792C18.2637 30.9081 18.0775 31.0942 17.8486 31.0942C17.6197 31.0942 17.4336 30.9081 17.4336 30.6792C17.4336 30.4503 17.6197 30.2642 17.8486 30.2642Z" fill="#3F3679"/>
<path d="M17.8486 35.2783C18.4006 35.2783 18.8496 34.8293 18.8496 34.2773C18.8496 33.7254 18.4006 33.2764 17.8486 33.2764C17.2967 33.2764 16.8477 33.7254 16.8477 34.2773C16.8477 34.8293 17.2967 35.2783 17.8486 35.2783ZM17.8486 33.8623C18.0775 33.8623 18.2637 34.0484 18.2637 34.2773C18.2637 34.5063 18.0775 34.6924 17.8486 34.6924C17.6197 34.6924 17.4336 34.5063 17.4336 34.2773C17.4336 34.0484 17.6197 33.8623 17.8486 33.8623Z" fill="#3F3679"/>
<path d="M17.8486 38.875C18.4006 38.875 18.8496 38.426 18.8496 37.874C18.8496 37.3221 18.4006 36.873 17.8486 36.873C17.2967 36.873 16.8477 37.3221 16.8477 37.874C16.8477 38.426 17.2967 38.875 17.8486 38.875ZM17.8486 37.459C18.0775 37.459 18.2637 37.6451 18.2637 37.874C18.2637 38.1029 18.0775 38.2891 17.8486 38.2891C17.6197 38.2891 17.4336 38.1029 17.4336 37.874C17.4336 37.6451 17.6197 37.459 17.8486 37.459Z" fill="#3F3679"/>
<path d="M17.8486 42.4731C18.4006 42.4731 18.8496 42.0241 18.8496 41.4722C18.8496 40.9202 18.4006 40.4712 17.8486 40.4712C17.2967 40.4712 16.8477 40.9202 16.8477 41.4722C16.8477 42.0241 17.2967 42.4731 17.8486 42.4731ZM17.8486 41.0571C18.0775 41.0571 18.2637 41.2433 18.2637 41.4722C18.2637 41.7011 18.0775 41.8872 17.8486 41.8872C17.6197 41.8872 17.4336 41.7011 17.4336 41.4722C17.4336 41.2433 17.6197 41.0571 17.8486 41.0571Z" fill="#3F3679"/>
<path d="M20.3984 34.8139H21.9568V35.5309C21.9568 35.6928 22.0879 35.8238 22.2498 35.8238C22.4117 35.8238 22.5428 35.6928 22.5428 35.5309V34.8139H24.1012C24.2631 34.8139 24.3941 34.6828 24.3941 34.5209V33.5693C24.3941 33.4074 24.2631 33.2764 24.1012 33.2764H20.3984C20.2365 33.2764 20.1055 33.4074 20.1055 33.5693V34.5209C20.1055 34.6826 20.2365 34.8139 20.3984 34.8139ZM20.6914 33.8623H23.8082V34.2279H20.6914V33.8623Z" fill="#3F3679"/>
</svg>
