<svg width="50" height="50" viewBox="0 0 50 50" fill="none" xmlns="http://www.w3.org/2000/svg">
<path d="M8.11055 35.8041C6.78535 35.8041 5.70703 34.7078 5.70703 33.3604V11.224C5.70703 9.87656 6.78535 8.78027 8.11055 8.78027H41.8705C43.1957 8.78027 44.274 9.87656 44.274 11.224V33.3604C44.274 34.7078 43.1957 35.8041 41.8705 35.8041H8.11055Z" fill="#C0A3FA"/>
<path d="M42.8 11.228V33.3556C42.8 33.8771 42.3842 34.2999 41.8713 34.2999H8.12012C7.60723 34.2999 7.19141 33.8771 7.19141 33.3556V11.228C7.19141 10.7065 7.60723 10.2837 8.12012 10.2837H41.8715C42.3842 10.2839 42.8 10.7065 42.8 11.228Z" fill="#9E9E9E"/>
<path d="M9.24512 33.3558V11.228C9.24512 10.7065 9.66094 10.2837 10.1738 10.2837H8.12012C7.60723 10.2837 7.19141 10.7065 7.19141 11.228V33.3556C7.19141 33.8771 7.60723 34.2999 8.12012 34.2999H10.1738C9.66094 34.2999 9.24512 33.8772 9.24512 33.3558Z" fill="#707070"/>
<path d="M40.7451 33.3558V11.228C40.7451 10.7065 40.3293 10.2837 39.8164 10.2837H41.8701C42.383 10.2837 42.7988 10.7065 42.7988 11.228V33.3556C42.7988 33.8771 42.383 34.2999 41.8701 34.2999H39.8164C40.3293 34.2999 40.7451 33.8772 40.7451 33.3558Z" fill="#CECECE"/>
<path d="M24.998 35.8042H4.00781L4.54473 37.0603C5.02852 38.1921 6.12695 38.9243 7.34082 38.9243H24.998H42.6553C43.8691 38.9243 44.9674 38.1921 45.4514 37.0603L45.9883 35.8042H24.998Z" fill="#F8AF23"/>
<path d="M6.59843 37.0603L6.06152 35.8042H4.00781L4.54473 37.0603C5.02871 38.1921 6.12695 38.9243 7.34082 38.9243H9.39453C8.18066 38.9245 7.08242 38.1923 6.59843 37.0603Z" fill="#F87023"/>
<path d="M43.3938 37.0603L43.9307 35.8042H45.9844L45.4475 37.0603C44.9635 38.1921 43.8652 38.9243 42.6514 38.9243H40.5977C41.8115 38.9245 42.9098 38.1923 43.3938 37.0603Z" fill="#F8D323"/>
<path d="M16.9844 35.8042L17.7268 36.7679C18.0168 37.1444 18.4611 37.3644 18.9316 37.3644H31.064C31.5346 37.3644 31.9789 37.1444 32.2689 36.7679L33.0113 35.8042H16.9844Z" fill="#FF6489"/>
<path d="M44.4881 27.5979H5.5127C4.42051 27.5979 3.53516 26.7126 3.53516 25.6204V18.9634C3.53516 17.8712 4.42051 16.9858 5.5127 16.9858H44.4881C45.5803 16.9858 46.4656 17.8712 46.4656 18.9634V25.6204C46.4656 26.7126 45.5803 27.5979 44.4881 27.5979Z" fill="#C0A3FA"/>
<path d="M5.58887 25.6204V18.9634C5.58887 17.8712 6.47422 16.9858 7.56641 16.9858H5.5127C4.42051 16.9858 3.53516 17.8712 3.53516 18.9634V25.6204C3.53516 26.7126 4.42051 27.5979 5.5127 27.5979H7.56641C6.47422 27.5979 5.58887 26.7126 5.58887 25.6204Z" fill="#6377E7"/>
<path d="M44.4033 25.6204V18.9634C44.4033 17.8712 43.518 16.9858 42.4258 16.9858H44.4795C45.5717 16.9858 46.457 17.8712 46.457 18.9634V25.6204C46.457 26.7126 45.5717 27.5979 44.4795 27.5979H42.4258C43.518 27.5979 44.4033 26.7126 44.4033 25.6204Z" fill="#C0A3FA"/>
<path d="M15.2961 20.2683L15.7652 21.2191C15.8101 21.3103 15.897 21.3734 15.9976 21.388L17.0469 21.5406C17.3002 21.5773 17.4011 21.8886 17.2179 22.0671L16.4588 22.8072C16.3859 22.8781 16.3527 22.9802 16.3699 23.0804L16.5492 24.1253C16.5924 24.3775 16.3277 24.5699 16.1011 24.4507L15.1627 23.9574C15.0726 23.9101 14.9652 23.9101 14.8754 23.9574L13.9369 24.4507C13.7103 24.5699 13.4457 24.3775 13.4888 24.1253L13.6681 23.0804C13.6853 22.9802 13.6521 22.8781 13.5793 22.8072L12.8201 22.0671C12.6369 21.8884 12.7381 21.5773 12.9912 21.5406L14.0404 21.388C14.141 21.3734 14.2279 21.3103 14.2728 21.2191L14.7422 20.2683C14.8556 20.0388 15.1828 20.0388 15.2961 20.2683Z" fill="#F8AF23"/>
<path d="M21.9482 20.2683L22.4176 21.2191C22.4625 21.3103 22.5494 21.3734 22.65 21.388L23.6992 21.5406C23.9525 21.5773 24.0535 21.8886 23.8703 22.0671L23.1111 22.8072C23.0383 22.8781 23.0051 22.9802 23.0222 23.0804L23.2015 24.1253C23.2447 24.3775 22.9801 24.5699 22.7535 24.4507L21.815 23.9574C21.725 23.9101 21.6176 23.9101 21.5277 23.9574L20.5892 24.4507C20.3627 24.5699 20.098 24.3775 20.1412 24.1253L20.3205 23.0804C20.3377 22.9802 20.3045 22.8781 20.2316 22.8072L19.4724 22.0671C19.2892 21.8884 19.3904 21.5773 19.6435 21.5406L20.6928 21.388C20.7933 21.3734 20.8803 21.3103 20.9252 21.2191L21.3945 20.2683C21.5078 20.0388 21.8349 20.0388 21.9482 20.2683Z" fill="#F8AF23"/>
<path d="M28.6047 20.2683L29.0738 21.2191C29.1187 21.3103 29.2056 21.3734 29.3062 21.388L30.3555 21.5406C30.6088 21.5773 30.7097 21.8886 30.5265 22.0671L29.7674 22.8072C29.6945 22.8781 29.6613 22.9802 29.6785 23.0804L29.8578 24.1253C29.901 24.3775 29.6363 24.5699 29.4097 24.4507L28.4713 23.9574C28.3812 23.9101 28.2738 23.9101 28.184 23.9574L27.2455 24.4507C27.0189 24.5699 26.7543 24.3775 26.7974 24.1253L26.9767 23.0804C26.9939 22.9802 26.9607 22.8781 26.8879 22.8072L26.1287 22.0671C25.9455 21.8884 26.0467 21.5773 26.2998 21.5406L27.349 21.388C27.4496 21.3734 27.5365 21.3103 27.5814 21.2191L28.0506 20.2683C28.1642 20.0388 28.4914 20.0388 28.6047 20.2683Z" fill="#F8AF23"/>
<path d="M35.249 20.2683L35.7183 21.2191C35.7633 21.3103 35.8502 21.3734 35.9508 21.388L37 21.5406C37.2533 21.5773 37.3543 21.8886 37.1711 22.0671L36.4119 22.8072C36.339 22.8781 36.3058 22.9802 36.323 23.0804L36.5023 24.1253C36.5455 24.3775 36.2808 24.5699 36.0543 24.4507L35.1158 23.9574C35.026 23.9101 34.9183 23.9101 34.8285 23.9574L33.89 24.4507C33.6635 24.5699 33.3988 24.3775 33.442 24.1253L33.6213 23.0804C33.6385 22.9802 33.6053 22.8781 33.5324 22.8072L32.7732 22.0671C32.59 21.8884 32.6912 21.5773 32.9443 21.5406L33.9935 21.388C34.0941 21.3734 34.181 21.3103 34.226 21.2191L34.6953 20.2683C34.8086 20.0388 35.1357 20.0388 35.249 20.2683Z" fill="#F8AF23"/>
<path d="M13.9539 37.0713H12.1289C11.967 37.0713 11.8359 37.2025 11.8359 37.3643C11.8359 37.526 11.967 37.6572 12.1289 37.6572H13.9539C14.1158 37.6572 14.2469 37.526 14.2469 37.3643C14.2469 37.2025 14.1158 37.0713 13.9539 37.0713Z" fill="#3F3679"/>
<path d="M37.8641 37.0713H36.0391C35.8771 37.0713 35.7461 37.2025 35.7461 37.3643C35.7461 37.526 35.8771 37.6572 36.0391 37.6572H37.8641C38.026 37.6572 38.157 37.526 38.157 37.3643C38.157 37.2025 38.0258 37.0713 37.8641 37.0713Z" fill="#3F3679"/>
<path d="M5.38203 40.9272H1.82812C1.66621 40.9272 1.53516 41.0585 1.53516 41.2202C1.53516 41.3819 1.66621 41.5132 1.82812 41.5132H5.38184C5.54375 41.5132 5.6748 41.3819 5.6748 41.2202C5.6748 41.0585 5.54375 40.9272 5.38203 40.9272Z" fill="#3F3679"/>
<path d="M48.167 40.9272H44.6133C44.4514 40.9272 44.3203 41.0585 44.3203 41.2202C44.3203 41.3819 44.4514 41.5132 44.6133 41.5132H48.167C48.3289 41.5132 48.46 41.3819 48.46 41.2202C48.46 41.0585 48.3287 40.9272 48.167 40.9272Z" fill="#3F3679"/>
<path d="M41.777 40.9272H8.22266C8.06074 40.9272 7.92969 41.0585 7.92969 41.2202C7.92969 41.3819 8.06074 41.5132 8.22266 41.5132H41.777C41.9389 41.5132 42.0699 41.3819 42.0699 41.2202C42.0699 41.0585 41.9389 40.9272 41.777 40.9272Z" fill="#3F3679"/>
<path d="M48.459 38.9244C48.459 38.7627 48.3279 38.6315 48.166 38.6315H44.5297C45.0438 38.2775 45.4619 37.7791 45.7199 37.1756L46.257 35.9193C46.2957 35.8287 46.2863 35.725 46.2322 35.6428C46.1779 35.5606 46.0861 35.5111 45.9877 35.5111H43.5393C44.168 35.0096 44.574 34.233 44.574 33.3602V27.8865C45.7848 27.8395 46.7557 26.8426 46.7557 25.6205V18.9637C46.7557 17.7418 45.7846 16.7449 44.574 16.6979V11.224C44.574 9.71484 43.3645 8.4873 41.8775 8.4873H8.11719C6.63027 8.4873 5.4207 9.71484 5.4207 11.224V16.6979C4.20996 16.7449 3.23906 17.7418 3.23906 18.9637V25.6207C3.23906 26.8428 4.21016 27.8397 5.4207 27.8867V33.3604C5.4207 34.233 5.82676 35.0098 6.45547 35.5113H4.00684C3.9084 35.5113 3.8166 35.5607 3.76231 35.643C3.7082 35.7252 3.69883 35.8289 3.7375 35.9195L4.27461 37.1758C4.53262 37.7793 4.95078 38.2777 5.46484 38.6316H1.82813C1.66621 38.6316 1.53516 38.7629 1.53516 38.9246C1.53516 39.0863 1.66621 39.2176 1.82813 39.2176H7.33965H42.6543H48.1658C48.3277 39.2174 48.459 39.0861 48.459 38.9244ZM8.11719 9.07324H41.8772C43.0408 9.07324 43.9877 10.0379 43.9877 11.224V16.6934H43.0945V11.2285C43.0945 10.5463 42.5465 9.99121 41.8729 9.99121H8.12149C7.44785 9.99121 6.89981 10.5463 6.89981 11.2285V16.6934H6.00664V11.224C6.00664 10.0381 6.95332 9.07324 8.11719 9.07324ZM42.5084 16.6934H7.48574V11.2285C7.48574 10.8693 7.7709 10.5771 8.12149 10.5771H41.8729C42.2234 10.5771 42.5086 10.8693 42.5086 11.2285V16.6934H42.5084ZM3.82481 25.6207V18.9637C3.82481 18.035 4.58047 17.2793 5.50938 17.2793H44.4848C45.4137 17.2793 46.1693 18.035 46.1693 18.9637V25.6207C46.1693 26.5496 45.4137 27.3053 44.4848 27.3053H5.50938C4.58047 27.3053 3.82481 26.5496 3.82481 25.6207ZM7.48574 27.8912H42.5084V33.3559C42.5084 33.715 42.2232 34.0072 41.8727 34.0072H8.12149C7.7709 34.0072 7.48574 33.715 7.48574 33.3559V27.8912ZM6.00664 33.3604V27.8912H6.89981V33.3559C6.89981 34.0381 7.44785 34.5932 8.12149 34.5932H41.8729C42.5465 34.5932 43.0945 34.0381 43.0945 33.3559V27.8912H43.9877V33.3604C43.9877 34.5463 43.0408 35.5113 41.8772 35.5113H33.0107H16.9836H8.11719C6.95332 35.5111 6.00664 34.5463 6.00664 33.3604ZM32.4148 36.0971L32.0361 36.5891C31.8 36.8953 31.4453 37.0713 31.0633 37.0713H18.9309C18.5488 37.0713 18.1943 36.8955 17.9582 36.5891L17.5793 36.0971H32.4148ZM7.33984 38.6315C6.52461 38.6315 5.76797 38.2654 5.25313 37.6572H10.323C10.485 37.6572 10.616 37.526 10.616 37.3643C10.616 37.2025 10.485 37.0713 10.323 37.0713H4.87266C4.85234 37.0297 4.83164 36.9883 4.81328 36.9451L4.45078 36.0971H8.11719H16.8397L17.4941 36.9467C17.842 37.3982 18.3658 37.6572 18.9311 37.6572H31.0635C31.6287 37.6572 32.1525 37.3982 32.5004 36.9465L33.1547 36.0971H41.8772H45.5436L45.1811 36.9451C45.1627 36.9881 45.142 37.0295 45.1217 37.0713H39.6713C39.5094 37.0713 39.3783 37.2025 39.3783 37.3643C39.3783 37.526 39.5094 37.6572 39.6713 37.6572H44.7412C44.2264 38.2654 43.4697 38.6315 42.6545 38.6315H7.33984Z" fill="#3F3679"/>
<path d="M13.3789 23.0319L13.1996 24.0772C13.1608 24.3046 13.2524 24.53 13.4391 24.6655C13.6256 24.8011 13.8682 24.8185 14.0729 24.7114L15.026 24.2181L15.9647 24.7114C16.0535 24.7579 16.1496 24.781 16.2452 24.781C16.3694 24.781 16.4928 24.7421 16.5983 24.6653C16.785 24.53 16.8766 24.3044 16.8377 24.0769L16.6629 23.0179L17.4223 22.2776C17.5875 22.1167 17.6457 21.8804 17.5744 21.6608C17.5032 21.4415 17.317 21.2847 17.0889 21.2515L16.0278 21.0903L15.5586 20.1396C15.4565 19.9325 15.2496 19.8042 15.019 19.8042C14.7883 19.8042 14.5815 19.9327 14.4795 20.1396L13.9985 21.0991L12.9493 21.2515C12.7209 21.2847 12.5348 21.4415 12.4635 21.6608C12.3922 21.8804 12.4504 22.1167 12.6157 22.2778L13.3789 23.0319ZM13.0328 21.8313L14.0823 21.679C14.2784 21.6505 14.4477 21.5272 14.535 21.3497L15.0184 20.3901C15.0282 20.3901 15.0303 20.3942 15.0325 20.3989L15.5016 21.3495C15.5891 21.5271 15.7584 21.6503 15.9547 21.679L17.0041 21.8313L17.0463 21.5415L17.0129 21.8583L16.2536 22.5983C16.1118 22.7366 16.0469 22.9358 16.0805 23.1312L16.2598 24.1763L16.5487 24.1267L16.2371 24.1927L15.2987 23.6995C15.1235 23.6071 14.9139 23.6073 14.7385 23.6993L13.8 24.1927L13.9364 24.4521L13.7772 24.1763L13.9565 23.1312C13.9899 22.9358 13.9252 22.7366 13.7834 22.5983L13.0241 21.8583L12.8196 22.0681L13.0328 21.8313Z" fill="#3F3679"/>
<path d="M20.0315 23.0314L19.8522 24.0768C19.8133 24.3041 19.9049 24.5295 20.0916 24.665C20.2784 24.8006 20.5207 24.818 20.7254 24.7109L21.6786 24.2176L22.6172 24.7109C22.7061 24.7574 22.8022 24.7805 22.8977 24.7805C23.0219 24.7805 23.1454 24.7416 23.2508 24.6648C23.4375 24.5295 23.5291 24.3039 23.4903 24.0764L23.3155 23.0174L24.0748 22.2771C24.2401 22.1162 24.2983 21.8799 24.227 21.6604C24.1557 21.441 23.9696 21.2842 23.7414 21.251L22.6803 21.0898L22.2112 20.1391C22.109 19.932 21.9022 19.8037 21.6715 19.8037C21.4407 19.8037 21.234 19.932 21.1319 20.1391L20.6508 21.0986L19.6014 21.251C19.3733 21.2842 19.187 21.441 19.1159 21.6604C19.0446 21.8799 19.1028 22.1162 19.268 22.2773L20.0315 23.0314ZM19.6854 21.8309L20.735 21.6785C20.9311 21.65 21.1004 21.5268 21.1877 21.3492L21.6711 20.3896C21.6809 20.3896 21.683 20.3938 21.6852 20.3984L22.1543 21.349C22.2418 21.5266 22.4112 21.6498 22.6075 21.6785L23.6569 21.8309L23.6991 21.541L23.6657 21.8578L22.9063 22.5979C22.7645 22.7361 22.6998 22.9354 22.7332 23.1307L22.9125 24.1758L23.2014 24.1262L22.8899 24.1922L21.9514 23.699C21.7762 23.6066 21.5666 23.6068 21.3913 23.6988L20.4528 24.1922L20.5891 24.4516L20.4299 24.1758L20.6092 23.1307C20.6426 22.9354 20.578 22.7361 20.4362 22.5979L19.6768 21.8578L19.4723 22.0676L19.6854 21.8309Z" fill="#3F3679"/>
<path d="M26.6877 23.0319L26.5084 24.0772C26.4696 24.3046 26.5612 24.53 26.7479 24.6655C26.9344 24.8011 27.1772 24.8185 27.3817 24.7114L28.3348 24.2181L29.2735 24.7114C29.3623 24.7579 29.4584 24.781 29.5539 24.781C29.6782 24.781 29.8016 24.7421 29.9071 24.6653C30.0938 24.53 30.1854 24.3044 30.1465 24.0769L29.9717 23.0179L30.7311 22.2776C30.8963 22.1167 30.9545 21.8804 30.8832 21.6608C30.8119 21.4415 30.6258 21.2847 30.3977 21.2515L29.3366 21.0903L28.8674 20.1396C28.7653 19.9325 28.5584 19.8042 28.3278 19.8042C28.0971 19.8042 27.8903 19.9325 27.7881 20.1396L27.3071 21.0991L26.2577 21.2515C26.0295 21.2847 25.8432 21.4415 25.7721 21.6608C25.7008 21.8804 25.759 22.1167 25.9243 22.2778L26.6877 23.0319ZM26.3416 21.8313L27.3912 21.679C27.5873 21.6505 27.7567 21.5272 27.844 21.3497L28.3274 20.3901C28.3373 20.3901 28.3393 20.3942 28.3416 20.3989L28.8108 21.3495C28.8983 21.5271 29.0676 21.6503 29.2639 21.679L30.3133 21.8313L30.3555 21.5415L30.3221 21.8583L29.5627 22.5983C29.4209 22.7366 29.3563 22.9358 29.3897 23.1312L29.569 24.1763L29.8578 24.1267L29.5463 24.1927L28.6078 23.6995C28.4326 23.6071 28.2231 23.6073 28.0477 23.6993L27.1092 24.1927L27.2455 24.4521L27.0864 24.1763L27.2657 23.1312C27.2991 22.9358 27.2344 22.7366 27.0926 22.5983L26.3332 21.8583L26.1287 22.0681L26.3416 21.8313Z" fill="#3F3679"/>
<path d="M33.3325 23.0319L33.1532 24.0772C33.1143 24.3046 33.2059 24.53 33.3926 24.6655C33.5793 24.8011 33.8219 24.8185 34.0264 24.7114L34.9795 24.2181L35.9182 24.7114C36.0071 24.7579 36.1032 24.781 36.1987 24.781C36.3229 24.781 36.4463 24.7421 36.5518 24.6653C36.7385 24.53 36.8301 24.3044 36.7912 24.0769L36.6164 23.0179L37.3758 22.2776C37.541 22.1167 37.5992 21.8804 37.528 21.6608C37.4567 21.4415 37.2705 21.2847 37.0422 21.2515L35.9811 21.0903L35.5118 20.1396C35.4096 19.9327 35.203 19.8042 34.9723 19.8042C34.7416 19.8042 34.5348 19.9325 34.4327 20.1396L33.9516 21.0991L32.9022 21.2515C32.6741 21.2847 32.4877 21.4415 32.4166 21.6608C32.3454 21.8804 32.4036 22.1167 32.5688 22.2778L33.3325 23.0319ZM32.9864 21.8313L34.036 21.679C34.2321 21.6505 34.4014 21.5272 34.4887 21.3497L34.9721 20.3901C34.9819 20.3901 34.984 20.3942 34.9862 20.3989L35.4553 21.3495C35.5428 21.5271 35.7121 21.6503 35.9084 21.679L36.9576 21.8313L36.9998 21.5415L36.9666 21.8583L36.2073 22.5983C36.0655 22.7366 36.0008 22.9358 36.0342 23.1312L36.2135 24.1763L36.5024 24.1267L36.1909 24.1927L35.2524 23.6995C35.0772 23.6071 34.8676 23.6073 34.6922 23.6993L33.7537 24.1927L33.8901 24.4521L33.7309 24.1763L33.9102 23.1312C33.9436 22.9358 33.8789 22.7366 33.737 22.5983L32.9778 21.8583L32.7733 22.0681L32.9864 21.8313Z" fill="#3F3679"/>
</svg>
