<svg width="50" height="50" viewBox="0 0 50 50" fill="none" xmlns="http://www.w3.org/2000/svg">
<path d="M36.74 41.1492H37.766V33.5879L36.9502 34.2178C36.3115 34.7109 35.9375 35.4723 35.9375 36.2793V40.3469C35.9373 40.79 36.2967 41.1492 36.74 41.1492Z" fill="#FF6489"/>
<path d="M46.4244 41.1492H45.3984V33.5879L46.2143 34.2178C46.8529 34.7109 47.227 35.4723 47.227 36.2793V40.3469C47.2271 40.79 46.8678 41.1492 46.4244 41.1492Z" fill="#F48875"/>
<path d="M43.1029 31.1945L41.5807 32.5035L40.0584 31.1943C38.2072 31.7932 36.9531 33.517 36.9531 35.4627V40.8326C36.9531 42.2609 37.6162 43.6082 38.748 44.4795C40.4178 45.7646 42.7434 45.7646 44.4129 44.4795C45.5447 43.6082 46.2078 42.2609 46.2078 40.8326V35.4627C46.2082 33.5174 44.9541 31.7936 43.1029 31.1945Z" fill="#C0A3FA"/>
<path d="M43.1057 31.1943L42.3371 31.8553C43.4594 32.685 44.1572 34.0119 44.1572 35.4627V40.8326C44.1572 42.2609 43.4941 43.6082 42.3623 44.4795C41.8156 44.9004 41.1961 45.183 40.5547 45.3283C41.8719 45.6265 43.2932 45.3439 44.416 44.4795C45.5479 43.6082 46.2109 42.2609 46.2109 40.8326V35.4627C46.2109 33.5172 44.9568 31.7934 43.1057 31.1943Z" fill="#67DCEB"/>
<path d="M41.5816 36.6133C41.0855 36.6133 40.6797 36.2074 40.6797 35.7113V31.4645C40.6797 30.9684 41.0855 30.5625 41.5816 30.5625C42.0777 30.5625 42.4836 30.9684 42.4836 31.4645V35.7113C42.4834 36.2074 42.0775 36.6133 41.5816 36.6133Z" fill="#FFD467"/>
<path d="M25.9859 32.3835L25.308 32.9722H20.9908H14.3332H10.016L9.33809 32.3835C9.03848 32.1233 8.65488 31.98 8.25801 31.98H3.16016C2.94434 31.98 2.76953 32.1548 2.76953 32.3706V45.0532C2.76953 45.269 2.94434 45.4438 3.16016 45.4438H4.94434C5.17578 45.4438 5.40449 45.395 5.61582 45.3009L7.15957 44.6118H14.3332H20.991H28.1646L29.7084 45.3009C29.9197 45.3952 30.1484 45.4438 30.3799 45.4438H32.1641C32.3799 45.4438 32.5547 45.269 32.5547 45.0532V32.3706C32.5547 32.1548 32.3799 31.98 32.1641 31.98H27.0662C26.6693 31.98 26.2857 32.1233 25.9859 32.3835Z" fill="#C0A3FA"/>
<path d="M4.82344 45.0532V32.3706C4.82344 32.1548 4.99824 31.98 5.21406 31.98H3.16016C2.94453 31.98 2.76953 32.1548 2.76953 32.3706V45.0532C2.76953 45.2688 2.94453 45.4438 3.16016 45.4438H4.94434C5.00527 45.4438 5.06621 45.4399 5.12656 45.4333C4.95313 45.3935 4.82344 45.2388 4.82344 45.0532Z" fill="#6377E7"/>
<path d="M10.4604 25.1478C9.31914 25.1478 8.39062 24.2192 8.39062 23.078V4.33096C8.39062 3.18975 9.31914 2.26123 10.4604 2.26123H39.5301C40.6713 2.26123 41.5998 3.18975 41.5998 4.33096V23.078C41.5998 24.2192 40.6713 25.1478 39.5301 25.1478H10.4604Z" fill="#C0A3FA"/>
<path d="M40.3297 21.2604C40.3297 21.6983 39.9715 22.0565 39.5336 22.0565H10.4641C10.0262 22.0565 9.66797 21.6983 9.66797 21.2604V4.33076C9.66797 3.89287 10.0262 3.53467 10.4641 3.53467H39.5338C39.9717 3.53467 40.3299 3.89287 40.3299 4.33076V21.2604H40.3297Z" fill="#9E9E9E"/>
<path d="M11.7217 21.2603V4.33076C11.7217 3.89287 12.0799 3.53467 12.5178 3.53467H10.4641C10.0262 3.53467 9.66797 3.89287 9.66797 4.33076V21.2603C9.66797 21.6981 10.0262 22.0563 10.4641 22.0563H12.5178C12.0799 22.0563 11.7217 21.6981 11.7217 21.2603Z" fill="#707070"/>
<path d="M38.2727 21.2607V4.33125C38.2727 3.89336 37.9145 3.53516 37.4766 3.53516H39.5303C39.9682 3.53516 40.3264 3.89336 40.3264 4.33125V21.2607C40.3264 21.6986 39.9682 22.0568 39.5303 22.0568H37.4766C37.9145 22.0568 38.2727 21.6986 38.2727 21.2607Z" fill="#CECECE"/>
<path d="M19.2148 28.5039H30.7836V29.8969H19.2148V28.5039Z" fill="#FF6489"/>
<path d="M20.8555 25.1479H29.1342V28.504H20.8555V25.1479Z" fill="#FFD467"/>
<path d="M24.998 24.2842C25.3745 24.2842 25.6797 23.979 25.6797 23.6025C25.6797 23.2261 25.3745 22.9209 24.998 22.9209C24.6216 22.9209 24.3164 23.2261 24.3164 23.6025C24.3164 23.979 24.6216 24.2842 24.998 24.2842Z" fill="#FFD467"/>
<path d="M4.66406 35.7383H6.54941V37.6236H4.66406V35.7383Z" fill="#FF6489"/>
<path d="M7.91797 35.7383H9.80332V37.6236H7.91797V35.7383Z" fill="#FF6489"/>
<path d="M11.168 35.7383H13.0533V37.6236H11.168V35.7383Z" fill="#FF6489"/>
<path d="M14.4219 35.7383H16.3072V37.6236H14.4219V35.7383Z" fill="#FF6489"/>
<path d="M17.6758 35.7383H19.5611V37.6236H17.6758V35.7383Z" fill="#FF6489"/>
<path d="M20.9258 35.7383H22.8111V37.6236H20.9258V35.7383Z" fill="#FF6489"/>
<path d="M4.66406 39.1899H6.54941V41.0753H4.66406V39.1899Z" fill="#FF6489"/>
<path d="M7.91797 39.1899H9.80332V41.0753H7.91797V39.1899Z" fill="#FF6489"/>
<path d="M11.168 39.1899H13.0533V41.0753H11.168V39.1899Z" fill="#FF6489"/>
<path d="M14.4219 39.1899H16.3072V41.0753H14.4219V39.1899Z" fill="#FF6489"/>
<path d="M17.6758 39.1899H19.5611V41.0753H17.6758V39.1899Z" fill="#FF6489"/>
<path d="M20.9258 39.1899H22.8111V41.0753H20.9258V39.1899Z" fill="#FF6489"/>
<path d="M4.66406 42.2461H22.8119V43.4891H4.66406V42.2461Z" fill="#FF6489"/>
<path d="M25.3359 35.7383H27.2213V37.6236H25.3359V35.7383Z" fill="#FF6489"/>
<path d="M28.7695 35.7383H30.6549V37.6236H28.7695V35.7383Z" fill="#FF6489"/>
<path d="M25.3359 38.7124H27.2213V40.5978H25.3359V38.7124Z" fill="#FF6489"/>
<path d="M28.7695 38.7124H30.6549V40.5978H28.7695V38.7124Z" fill="#FF6489"/>
<path d="M25.3359 41.6865H27.2213V43.5719H25.3359V41.6865Z" fill="#FF6489"/>
<path d="M28.7695 41.6865H30.6549V43.5719H28.7695V41.6865Z" fill="#FF6489"/>
<path d="M10.4641 22.3496H39.5336C40.1342 22.3496 40.6227 21.8611 40.6227 21.2607V4.33105C40.6227 3.73066 40.1342 3.24219 39.5336 3.24219H10.4641C9.86348 3.24219 9.375 3.73066 9.375 4.33105V21.2607C9.375 21.8611 9.86348 22.3496 10.4641 22.3496ZM9.96094 4.33105C9.96094 4.05371 10.1865 3.82812 10.4641 3.82812H39.5336C39.8111 3.82812 40.0367 4.05371 40.0367 4.33105V21.2607C40.0367 21.5381 39.8111 21.7637 39.5336 21.7637H10.4641C10.1865 21.7637 9.96094 21.5381 9.96094 21.2607V4.33105Z" fill="#3F3679"/>
<path d="M24.9979 22.6274C24.4605 22.6274 24.0234 23.0646 24.0234 23.6021C24.0234 24.1394 24.4605 24.5765 24.9979 24.5765C25.5352 24.5765 25.9723 24.1394 25.9723 23.6021C25.9723 23.0646 25.5352 22.6274 24.9979 22.6274ZM24.9979 23.9905C24.7836 23.9905 24.6094 23.8161 24.6094 23.6021C24.6094 23.3876 24.7838 23.2134 24.9979 23.2134C25.2119 23.2134 25.3863 23.3878 25.3863 23.6021C25.3863 23.8161 25.2121 23.9905 24.9979 23.9905Z" fill="#3F3679"/>
<path d="M4.66406 37.9166H6.54922C6.71093 37.9166 6.84218 37.7854 6.84218 37.6236V35.7383C6.84218 35.5766 6.71093 35.4453 6.54922 35.4453H4.66406C4.50234 35.4453 4.37109 35.5766 4.37109 35.7383V37.6236C4.37109 37.7854 4.50234 37.9166 4.66406 37.9166ZM4.95703 36.0313H6.25625V37.3307H4.95703V36.0313Z" fill="#3F3679"/>
<path d="M7.91797 37.9166H9.80332C9.96504 37.9166 10.0963 37.7854 10.0963 37.6236V35.7383C10.0963 35.5766 9.96504 35.4453 9.80332 35.4453H7.91797C7.75625 35.4453 7.625 35.5766 7.625 35.7383V37.6236C7.625 37.7854 7.75625 37.9166 7.91797 37.9166ZM8.21094 36.0313H9.51035V37.3307H8.21094V36.0313Z" fill="#3F3679"/>
<path d="M11.168 37.9166H13.0531C13.2148 37.9166 13.3461 37.7854 13.3461 37.6236V35.7383C13.3461 35.5766 13.2148 35.4453 13.0531 35.4453H11.168C11.0062 35.4453 10.875 35.5766 10.875 35.7383V37.6236C10.875 37.7854 11.0062 37.9166 11.168 37.9166ZM11.4609 36.0313H12.7602V37.3307H11.4609V36.0313Z" fill="#3F3679"/>
<path d="M14.4219 37.9161H16.3072C16.4689 37.9161 16.6002 37.7849 16.6002 37.6231V35.7378C16.6002 35.5761 16.4689 35.4448 16.3072 35.4448H14.4219C14.2602 35.4448 14.1289 35.5761 14.1289 35.7378V37.6231C14.1289 37.7849 14.2602 37.9161 14.4219 37.9161ZM14.7148 36.0308H16.0143V37.3302H14.7148V36.0308Z" fill="#3F3679"/>
<path d="M17.6758 37.9166H19.5611C19.7229 37.9166 19.8541 37.7854 19.8541 37.6236V35.7383C19.8541 35.5766 19.7229 35.4453 19.5611 35.4453H17.6758C17.5141 35.4453 17.3828 35.5766 17.3828 35.7383V37.6236C17.3828 37.7854 17.5141 37.9166 17.6758 37.9166ZM17.9688 36.0313H19.2682V37.3307H17.9688V36.0313Z" fill="#3F3679"/>
<path d="M20.9258 37.9166H22.8109C22.9727 37.9166 23.1039 37.7854 23.1039 37.6236V35.7383C23.1039 35.5766 22.9727 35.4453 22.8109 35.4453H20.9258C20.7641 35.4453 20.6328 35.5766 20.6328 35.7383V37.6236C20.6328 37.7854 20.7641 37.9166 20.9258 37.9166ZM21.2188 36.0313H22.518V37.3307H21.2188V36.0313Z" fill="#3F3679"/>
<path d="M4.66406 41.3676H6.54922C6.71093 41.3676 6.84218 41.2363 6.84218 41.0746V39.1895C6.84218 39.0277 6.71093 38.8965 6.54922 38.8965H4.66406C4.50234 38.8965 4.37109 39.0277 4.37109 39.1895V41.0746C4.37109 41.2363 4.50234 41.3676 4.66406 41.3676ZM4.95703 39.4822H6.25625V40.7814H4.95703V39.4822Z" fill="#3F3679"/>
<path d="M7.91797 41.3676H9.80332C9.96504 41.3676 10.0963 41.2363 10.0963 41.0746V39.1895C10.0963 39.0277 9.96504 38.8965 9.80332 38.8965H7.91797C7.75625 38.8965 7.625 39.0277 7.625 39.1895V41.0746C7.625 41.2363 7.75625 41.3676 7.91797 41.3676ZM8.21094 39.4822H9.51035V40.7814H8.21094V39.4822Z" fill="#3F3679"/>
<path d="M11.168 41.3676H13.0531C13.2148 41.3676 13.3461 41.2363 13.3461 41.0746V39.1895C13.3461 39.0277 13.2148 38.8965 13.0531 38.8965H11.168C11.0062 38.8965 10.875 39.0277 10.875 39.1895V41.0746C10.875 41.2363 11.0062 41.3676 11.168 41.3676ZM11.4609 39.4822H12.7602V40.7814H11.4609V39.4822Z" fill="#3F3679"/>
<path d="M14.4219 41.3681H16.3072C16.4689 41.3681 16.6002 41.2368 16.6002 41.0751V39.1899C16.6002 39.0282 16.4689 38.897 16.3072 38.897H14.4219C14.2602 38.897 14.1289 39.0282 14.1289 39.1899V41.0751C14.1289 41.2368 14.2602 41.3681 14.4219 41.3681ZM14.7148 39.4827H16.0143V40.7819H14.7148V39.4827Z" fill="#3F3679"/>
<path d="M17.6758 41.3676H19.5611C19.7229 41.3676 19.8541 41.2363 19.8541 41.0746V39.1895C19.8541 39.0277 19.7229 38.8965 19.5611 38.8965H17.6758C17.5141 38.8965 17.3828 39.0277 17.3828 39.1895V41.0746C17.3828 41.2363 17.5141 41.3676 17.6758 41.3676ZM17.9688 39.4822H19.2682V40.7814H17.9688V39.4822Z" fill="#3F3679"/>
<path d="M20.9258 41.3676H22.8109C22.9727 41.3676 23.1039 41.2363 23.1039 41.0746V39.1895C23.1039 39.0277 22.9727 38.8965 22.8109 38.8965H20.9258C20.7641 38.8965 20.6328 39.0277 20.6328 39.1895V41.0746C20.6328 41.2363 20.7641 41.3676 20.9258 41.3676ZM21.2188 39.4822H22.518V40.7814H21.2188V39.4822Z" fill="#3F3679"/>
<path d="M22.8119 43.782C22.9736 43.782 23.1049 43.6508 23.1049 43.4891V42.2461C23.1049 42.0844 22.9736 41.9531 22.8119 41.9531H4.66406C4.50234 41.9531 4.37109 42.0844 4.37109 42.2461V43.4891C4.37109 43.6508 4.50234 43.782 4.66406 43.782H22.8119ZM4.95703 42.5391H22.5189V43.1961H4.95703V42.5391Z" fill="#3F3679"/>
<path d="M25.3359 37.9166H27.2213C27.383 37.9166 27.5143 37.7854 27.5143 37.6236V35.7383C27.5143 35.5766 27.383 35.4453 27.2213 35.4453H25.3359C25.1742 35.4453 25.043 35.5766 25.043 35.7383V37.6236C25.043 37.7854 25.1742 37.9166 25.3359 37.9166ZM25.6289 36.0313H26.9283V37.3307H25.6289V36.0313Z" fill="#3F3679"/>
<path d="M28.7734 37.9161H30.6588C30.8205 37.9161 30.9518 37.7849 30.9518 37.6231V35.7378C30.9518 35.5761 30.8205 35.4448 30.6588 35.4448H28.7734C28.6117 35.4448 28.4805 35.5761 28.4805 35.7378V37.6231C28.4805 37.7849 28.6117 37.9161 28.7734 37.9161ZM29.0664 36.0308H30.3658V37.3302H29.0664V36.0308Z" fill="#3F3679"/>
<path d="M25.3359 40.8902H27.2213C27.383 40.8902 27.5143 40.759 27.5143 40.5973V38.7119C27.5143 38.5502 27.383 38.4189 27.2213 38.4189H25.3359C25.1742 38.4189 25.043 38.5502 25.043 38.7119V40.5973C25.043 40.7592 25.1742 40.8902 25.3359 40.8902ZM25.6289 39.0049H26.9283V40.3043H25.6289V39.0049Z" fill="#3F3679"/>
<path d="M28.7734 40.8897H30.6588C30.8205 40.8897 30.9518 40.7585 30.9518 40.5968V38.7114C30.9518 38.5497 30.8205 38.4185 30.6588 38.4185H28.7734C28.6117 38.4185 28.4805 38.5497 28.4805 38.7114V40.5968C28.4805 40.7587 28.6117 40.8897 28.7734 40.8897ZM29.0664 39.0044H30.3658V40.3038H29.0664V39.0044Z" fill="#3F3679"/>
<path d="M25.3359 43.8637H27.2213C27.383 43.8637 27.5143 43.7324 27.5143 43.5707V41.6855C27.5143 41.5238 27.383 41.3926 27.2213 41.3926H25.3359C25.1742 41.3926 25.043 41.5238 25.043 41.6855V43.5707C25.043 43.7324 25.1742 43.8637 25.3359 43.8637ZM25.6289 41.9785H26.9283V43.2777H25.6289V41.9785Z" fill="#3F3679"/>
<path d="M28.7734 43.8642H30.6588C30.8205 43.8642 30.9518 43.7329 30.9518 43.5712V41.686C30.9518 41.5243 30.8205 41.3931 30.6588 41.3931H28.7734C28.6117 41.3931 28.4805 41.5243 28.4805 41.686V43.5712C28.4805 43.7329 28.6117 43.8642 28.7734 43.8642ZM29.0664 41.979H30.3658V43.2782H29.0664V41.979Z" fill="#3F3679"/>
<path d="M44.4805 41.3463C44.6422 41.3463 44.7734 41.215 44.7734 41.0533V40.1582C44.7734 39.9965 44.6422 39.8652 44.4805 39.8652C44.3187 39.8652 44.1875 39.9965 44.1875 40.1582V41.0533C44.1875 41.2152 44.3187 41.3463 44.4805 41.3463Z" fill="#3F3679"/>
<path d="M38.7227 39.8652C38.5609 39.8652 38.4297 39.9965 38.4297 40.1582V41.0533C38.4297 41.215 38.5609 41.3463 38.7227 41.3463C38.8844 41.3463 39.0156 41.215 39.0156 41.0533V40.1582C39.0156 39.9965 38.8844 39.8652 38.7227 39.8652Z" fill="#3F3679"/>
<path d="M5.05469 47.4468H1.44141C1.27969 47.4468 1.14844 47.578 1.14844 47.7397C1.14844 47.9015 1.27969 48.0327 1.44141 48.0327H5.05469C5.21641 48.0327 5.34766 47.9015 5.34766 47.7397C5.34766 47.578 5.21641 47.4468 5.05469 47.4468Z" fill="#3F3679"/>
<path d="M48.5547 47.4463H44.9414C44.7797 47.4463 44.6484 47.5775 44.6484 47.7393C44.6484 47.901 44.7797 48.0322 44.9414 48.0322H48.5547C48.7164 48.0322 48.8477 47.901 48.8477 47.7393C48.8477 47.5775 48.7164 47.4463 48.5547 47.4463Z" fill="#3F3679"/>
<path d="M42.0535 47.4463H7.9375C7.77578 47.4463 7.64453 47.5775 7.64453 47.7393C7.64453 47.901 7.77578 48.0322 7.9375 48.0322H42.0535C42.2152 48.0322 42.3465 47.901 42.3465 47.7393C42.3465 47.5775 42.2152 47.4463 42.0535 47.4463Z" fill="#3F3679"/>
<path d="M46.7109 45.4434C46.7109 45.6051 46.8422 45.7363 47.0039 45.7363H48.5553C48.717 45.7363 48.8482 45.6051 48.8482 45.4434C48.8482 45.2816 48.717 45.1504 48.5553 45.1504H47.0039C46.8422 45.1504 46.7109 45.2816 46.7109 45.4434Z" fill="#3F3679"/>
<path d="M1.44141 45.7364C1.44141 45.7364 3.15937 45.7366 3.15996 45.7366C3.15996 45.7366 4.94648 45.7364 4.94785 45.7364C4.94785 45.7364 30.3783 45.7366 30.3797 45.7366C30.3797 45.7366 32.165 45.7364 32.1656 45.7364H44.9416C45.1033 45.7364 45.2346 45.6052 45.2346 45.4435C45.2346 45.2817 45.1033 45.1505 44.9416 45.1505H43.9139C44.149 45.0243 44.3766 44.8786 44.5934 44.7118C45.6271 43.9161 46.2996 42.7239 46.4629 41.4407C47.049 41.4202 47.5199 40.9382 47.5199 40.3472V36.2796C47.5199 35.3884 47.0988 34.531 46.393 33.9862L46.2227 33.8548C45.735 32.4853 44.6393 31.3833 43.1943 30.9159C43.0971 30.8841 42.9906 30.9058 42.9131 30.9726L42.7285 31.1311C42.6117 30.7302 42.29 30.4167 41.8848 30.3102C41.9852 29.0067 43.0756 27.9763 44.4043 27.9763C46.1223 27.9763 47.5197 26.5788 47.5197 24.8608V16.5269C47.5197 14.8091 46.1223 13.4116 44.4043 13.4116H41.8953V4.33096C41.8953 3.02822 40.8354 1.96826 39.5326 1.96826H10.4633C9.16055 1.96826 8.10059 3.02822 8.10059 4.33096V13.4116H5.32383C3.75371 13.4116 2.47637 14.689 2.47637 16.2591V27.8628C2.47637 29.4329 3.75371 30.7104 5.32383 30.7104H15.1072C16.2547 30.7104 17.2031 31.5702 17.3477 32.679H10.1252L9.52988 32.1622C9.17715 31.8556 8.72539 31.6866 8.25762 31.6866H3.15977C2.78281 31.6866 2.47617 31.9933 2.47617 32.3702V45.0528C2.47617 45.0862 2.48145 45.1181 2.48613 45.1503H1.44141C1.27969 45.1503 1.14844 45.2815 1.14844 45.4433C1.14844 45.605 1.27969 45.7364 1.44141 45.7364ZM6.67051 45.1505L7.22168 44.9044H28.102L28.6531 45.1505H6.67051ZM46.934 36.2794V40.347C46.934 40.6013 46.7461 40.811 46.5021 40.8487C46.5021 40.8435 46.5025 40.8382 46.5025 40.8327V35.4628C46.5025 35.2694 46.4873 35.0792 46.4648 34.8909C46.7629 35.2882 46.934 35.7761 46.934 36.2794ZM43.1676 31.5261C43.5383 31.6618 43.8791 31.8481 44.1879 32.0718V38.9657C44.1879 39.1274 44.3191 39.2587 44.4809 39.2587C44.6426 39.2587 44.7738 39.1274 44.7738 38.9657V32.5829C45.4916 33.3425 45.9166 34.3622 45.9166 35.4626V40.8325C45.9166 42.1606 45.2883 43.437 44.2359 44.2472C43.542 44.7812 42.7256 45.0769 41.8957 45.1364V38.0026C41.8957 37.8409 41.7645 37.7097 41.6027 37.7097C41.441 37.7097 41.3098 37.8409 41.3098 38.0026V45.138C40.4656 45.0853 39.6338 44.7899 38.9285 44.247C37.876 43.4368 37.2479 42.1602 37.2479 40.8323V35.4624C37.2479 34.3413 37.6893 33.3048 38.4316 32.5409V38.9653C38.4316 39.127 38.5629 39.2583 38.7246 39.2583C38.8863 39.2583 39.0176 39.127 39.0176 38.9653V32.0421C39.3156 31.8315 39.6426 31.6554 39.9969 31.5255L40.3752 31.8511C40.3791 31.8546 40.3836 31.8567 40.3877 31.8599V35.711C40.3877 36.37 40.9236 36.906 41.5824 36.906C42.2414 36.906 42.7773 36.37 42.7773 35.711V31.8577C42.7873 31.8511 42.7975 31.8452 42.8066 31.8372L43.1676 31.5261ZM36.6619 40.8489C36.418 40.8112 36.2301 40.6015 36.2301 40.3472V36.2796C36.2301 35.7761 36.4012 35.2882 36.6992 34.8909C36.6768 35.0794 36.6615 35.2696 36.6615 35.463V40.8329C36.6615 40.8382 36.6619 40.8435 36.6619 40.8489ZM42.1908 31.4647V35.7116C42.1908 36.0476 41.9178 36.3206 41.5818 36.3206C41.2461 36.3206 40.973 36.0476 40.973 35.7116V31.4647C40.973 31.1288 41.2461 30.8558 41.5818 30.8558C41.9178 30.8556 42.1908 31.1288 42.1908 31.4647ZM8.68652 4.33096C8.68652 3.35127 9.48359 2.5542 10.4633 2.5542H39.5328C40.5125 2.5542 41.3096 3.35127 41.3096 4.33096V23.078C41.3096 24.0577 40.5125 24.8548 39.5328 24.8548H29.1373H20.8586H10.4633C9.48359 24.8548 8.68652 24.0577 8.68652 23.078V4.33096ZM20.8588 28.7968H29.1375H30.4896V29.604H19.5066V28.7968H20.8588ZM28.8443 28.2108H21.1516V25.4407H28.8443V28.2108ZM15.107 30.1245H5.32383C4.07676 30.1245 3.0623 29.1101 3.0623 27.8628V16.2591C3.0623 15.012 4.07676 13.9976 5.32383 13.9976H8.10078V23.078C8.10078 24.3808 9.16074 25.4407 10.4635 25.4407H20.566V28.2108H19.2139C19.0521 28.2108 18.9209 28.3421 18.9209 28.5038V29.897C18.9209 30.0587 19.0521 30.1899 19.2139 30.1899H30.7826C30.9443 30.1899 31.0756 30.0587 31.0756 29.897V28.5038C31.0756 28.3421 30.9443 28.2108 30.7826 28.2108H29.4305V25.4407H39.533C40.8357 25.4407 41.8957 24.3808 41.8957 23.078V13.9976H44.4047C45.7996 13.9976 46.9342 15.1323 46.9342 16.5269V24.8606C46.9342 26.2556 45.7994 27.3901 44.4047 27.3901C42.7545 27.3901 41.4037 28.6806 41.2994 30.305C40.8848 30.4062 40.5547 30.7233 40.4357 31.131L40.2512 30.9724C40.1738 30.906 40.0674 30.8841 39.9699 30.9159C38.525 31.3833 37.4291 32.4851 36.9416 33.8548L36.7709 33.9862C36.0656 34.5311 35.6443 35.3886 35.6443 36.2796V40.3472C35.6443 40.9384 36.1152 41.4204 36.7014 41.4407C36.8647 42.7239 37.5371 43.9161 38.5709 44.7118C38.7877 44.8786 39.0152 45.0245 39.2504 45.1505H32.8375C32.8422 45.1183 32.8475 45.0864 32.8475 45.053V32.3704C32.8475 31.9935 32.5408 31.6868 32.1639 31.6868H27.066C26.5984 31.6868 26.1467 31.8556 25.7938 32.1622L25.1984 32.679H17.9395C17.7924 31.2462 16.5783 30.1245 15.107 30.1245ZM9.1457 32.6048L9.82363 33.1935C9.87676 33.2395 9.94512 33.2651 10.0156 33.2651H25.3078C25.3783 33.2651 25.4467 33.2395 25.4998 33.1935L26.1777 32.6048C26.1777 32.6048 26.1777 32.6048 26.1777 32.6046C26.424 32.3907 26.7395 32.2729 27.0658 32.2729H27.9928C27.8479 33.4272 26.8623 34.3239 25.6693 34.3239H9.65391C8.46094 34.3239 7.4752 33.4272 7.33027 32.2729H8.25742C8.58398 32.2727 8.89941 32.3907 9.1457 32.6048ZM3.06211 45.053V32.3704C3.06211 32.3167 3.10605 32.2728 3.15977 32.2728H6.73887C6.88633 33.7513 8.1373 34.9097 9.65391 34.9097H25.6693C27.1859 34.9097 28.4367 33.7513 28.5842 32.2728H32.1635C32.2172 32.2728 32.2611 32.3167 32.2611 32.3704V45.053C32.2611 45.1065 32.2178 45.1499 32.1645 45.1505H30.3758C30.1857 45.1499 30.0012 45.1104 29.8273 45.0329L28.2838 44.3438C28.2463 44.327 28.2057 44.3185 28.1645 44.3185H7.15918C7.11797 44.3185 7.07734 44.327 7.03984 44.3438L5.49609 45.0329C5.32227 45.1106 5.13789 45.1499 4.94785 45.1505H3.15918C3.10566 45.1499 3.06211 45.1065 3.06211 45.053Z" fill="#3F3679"/>
</svg>
