<svg width="50" height="50" viewBox="0 0 50 50" fill="none" xmlns="http://www.w3.org/2000/svg">
<path d="M5.79082 38.8569C4.28223 38.8569 3.05469 37.6294 3.05469 36.1208V11.3372C3.05469 9.82861 4.28223 8.60107 5.79082 8.60107H44.2209C45.7295 8.60107 46.957 9.82861 46.957 11.3372V36.1208C46.957 37.6294 45.7295 38.8569 44.2209 38.8569H5.79082Z" fill="#C0A3FA"/>
<path d="M45.2691 33.7179C45.2691 34.2966 44.7955 34.7702 44.2168 34.7702H5.78672C5.20801 34.7702 4.73438 34.2966 4.73438 33.7179V11.337C4.73438 10.7583 5.20801 10.2847 5.78672 10.2847H44.2168C44.7955 10.2847 45.2691 10.7583 45.2691 11.337V33.7179Z" fill="#9E9E9E"/>
<path d="M6.78808 33.7179V11.337C6.78808 10.7583 7.26172 10.2847 7.84043 10.2847H5.78672C5.20801 10.2847 4.73438 10.7583 4.73438 11.337V33.7179C4.73438 34.2966 5.20801 34.7702 5.78672 34.7702H7.84043C7.26172 34.7702 6.78808 34.2968 6.78808 33.7179Z" fill="#707070"/>
<path d="M43.2125 33.7184V11.3375C43.2125 10.7588 42.7389 10.2852 42.1602 10.2852H44.2139C44.7926 10.2852 45.2662 10.7588 45.2662 11.3375V33.7184C45.2662 34.2971 44.7926 34.7707 44.2139 34.7707H42.1602C42.7389 34.7707 43.2125 34.2973 43.2125 33.7184Z" fill="#CECECE"/>
<path d="M17.3555 43.2935H32.6494V45.1351H17.3555V43.2935Z" fill="#FF6489"/>
<path d="M17.3555 43.2935H19.4092V45.1351H17.3555V43.2935Z" fill="#F43075"/>
<path d="M19.5234 38.8569H30.4678V43.2936H19.5234V38.8569Z" fill="#F8AF23"/>
<path d="M19.5234 38.8569H21.5772V43.2936H19.5234V38.8569Z" fill="#F87023"/>
<path d="M25.0025 37.7146C25.5001 37.7146 25.9035 37.3112 25.9035 36.8136C25.9035 36.316 25.5001 35.9126 25.0025 35.9126C24.5049 35.9126 24.1016 36.316 24.1016 36.8136C24.1016 37.3112 24.5049 37.7146 25.0025 37.7146Z" fill="#F8AF23"/>
<path d="M19.9912 24.3509C20.0437 24.4972 20.1031 24.638 20.168 24.7774L18.8562 26.0892L21.4355 28.6685L22.7473 27.3567C22.8867 27.4216 23.0289 27.481 23.1738 27.5335V29.3892H26.8203V27.5335C26.9652 27.481 27.1074 27.4216 27.2469 27.3567L28.5586 28.6685L31.1379 26.0892L29.8262 24.7774C29.891 24.638 29.9504 24.4972 30.0029 24.3509H31.8586V20.7044H30.0029C29.9504 20.5595 29.891 20.4173 29.8262 20.2778L31.1379 18.9661L28.5586 16.3868L27.2469 17.6999C27.1074 17.6351 26.9652 17.5743 26.8203 17.5218V15.6675H23.1738V17.5218C23.0289 17.5743 22.8867 17.6351 22.7473 17.6999L21.4355 16.3868L18.8561 18.9659L20.1678 20.2776C20.1029 20.4171 20.0436 20.5593 19.991 20.7042H18.1367V24.3507H19.9912V24.3509Z" fill="#FF6489"/>
<path d="M24.9979 24.8497C26.2803 24.8497 27.3199 23.8101 27.3199 22.5276C27.3199 21.2452 26.2803 20.2056 24.9979 20.2056C23.7154 20.2056 22.6758 21.2452 22.6758 22.5276C22.6758 23.8101 23.7154 24.8497 24.9979 24.8497Z" fill="#67BEEB"/>
<path d="M40.0143 7.15005V11.9948C40.0143 12.1038 39.926 12.192 39.817 12.192H34.5319C34.4229 12.192 34.3346 12.1038 34.3346 11.9948V7.15005C34.3346 7.04106 34.2463 6.95278 34.1374 6.95278H33.186C33.0102 6.95278 32.9221 6.74028 33.0465 6.61587L37.0352 2.6272C37.1124 2.55005 37.2372 2.55005 37.3143 2.6272L41.303 6.61587C41.4272 6.74009 41.3393 6.95278 41.1635 6.95278H40.2122C40.1026 6.95278 40.0143 7.04106 40.0143 7.15005Z" fill="#FF6489"/>
<path d="M41.3035 6.61587L37.3148 2.6272C37.2377 2.55005 37.1129 2.55005 37.0357 2.6272L36.1484 3.5145L39.2498 6.61587C39.374 6.74009 39.2861 6.95278 39.1103 6.95278H38.159C38.05 6.95278 37.9617 7.04106 37.9617 7.15005V11.9948C37.9617 12.1038 37.8734 12.192 37.7645 12.192H39.8182C39.9271 12.192 40.0154 12.1038 40.0154 11.9948V7.15005C40.0154 7.04106 40.1037 6.95278 40.2127 6.95278H41.1641C41.3398 6.95278 41.4277 6.74009 41.3035 6.61587Z" fill="#F48875"/>
<path d="M9.98707 7.15005V11.9948C9.98707 12.1038 10.0754 12.192 10.1843 12.192H15.4695C15.5785 12.192 15.6668 12.1038 15.6668 11.9948V7.15005C15.6668 7.04106 15.755 6.95278 15.864 6.95278H16.8154C16.9912 6.95278 17.0793 6.74028 16.9549 6.61587L12.9666 2.6272C12.8894 2.55005 12.7646 2.55005 12.6875 2.6272L8.69879 6.61587C8.57457 6.74009 8.66246 6.95278 8.83824 6.95278H9.78961C9.89879 6.95278 9.98707 7.04106 9.98707 7.15005Z" fill="#FF6489"/>
<path d="M12.0408 11.9948V7.15005C12.0408 7.04106 11.9525 6.95278 11.8435 6.95278H10.8922C10.7164 6.95278 10.6283 6.74028 10.7527 6.61587L13.8541 3.5145L12.9668 2.6272C12.8896 2.55005 12.7648 2.55005 12.6877 2.6272L8.69879 6.61587C8.57457 6.74009 8.66246 6.95278 8.83825 6.95278H9.78961C9.8986 6.95278 9.98688 7.04106 9.98688 7.15005V11.9948C9.98688 12.1038 10.0752 12.192 10.1841 12.192H12.2379C12.1291 12.192 12.0408 12.1038 12.0408 11.9948Z" fill="#F43075"/>
<path d="M5.79062 39.1498H19.2406V43.0005H17.3588C17.1969 43.0005 17.0658 43.1318 17.0658 43.2935V44.8421H5.0623C4.90039 44.8421 4.76934 44.9734 4.76934 45.1351C4.76934 45.2968 4.90039 45.4281 5.0623 45.4281H17.3588H32.6529H44.9494C45.1113 45.4281 45.2424 45.2968 45.2424 45.1351C45.2424 44.9734 45.1113 44.8421 44.9494 44.8421H32.9459V43.2935C32.9459 43.1318 32.8148 43.0005 32.6529 43.0005H30.7711V39.1498H44.2211C45.8912 39.1498 47.25 37.791 47.25 36.1207V11.3371C47.25 9.66675 45.8912 8.30796 44.2211 8.30796H40.3125V7.24585H41.1682C41.3672 7.24585 41.5451 7.1271 41.6211 6.94312C41.6973 6.75933 41.6555 6.54956 41.5148 6.40894L37.5262 2.42026C37.341 2.23491 37.018 2.23491 36.8328 2.42026L32.8441 6.40894C32.7033 6.54976 32.6615 6.75933 32.7379 6.94312C32.8141 7.1269 32.9918 7.24585 33.1908 7.24585H34.0465V8.30796H15.965V7.24585H16.8207C17.0197 7.24585 17.1977 7.1271 17.2736 6.94312C17.3498 6.75933 17.308 6.54956 17.1674 6.40894L13.1787 2.42026C12.9936 2.23491 12.6705 2.23491 12.4854 2.42026L8.49687 6.40874C8.35605 6.54956 8.31426 6.75913 8.39062 6.94292C8.4668 7.12671 8.64453 7.24565 8.84355 7.24565H9.69922V8.30776H5.79062C4.12051 8.30776 2.76172 9.66655 2.76172 11.3369V36.1207C2.76152 37.791 4.12031 39.1498 5.79062 39.1498ZM32.3598 44.8421H17.6516V43.5865H19.5334H30.4777H32.3596V44.8421H32.3598ZM30.185 43.0005H19.8266V39.1498H30.185V43.0005ZM10.1896 12.4853H15.4748C15.7451 12.4853 15.9652 12.2654 15.9652 11.9949V10.5777H34.0465V11.9949C34.0465 12.2654 34.2664 12.4853 34.5369 12.4853H39.8221C40.0924 12.4853 40.3125 12.2654 40.3125 11.9949V10.5777H44.2211C44.6398 10.5777 44.9805 10.9183 44.9805 11.3371V33.7179C44.9805 34.1369 44.6398 34.4775 44.2211 34.4775H5.79062C5.37187 34.4775 5.03125 34.1369 5.03125 33.7179V11.3371C5.03125 10.9183 5.37187 10.5777 5.79062 10.5777H9.69922V11.9949C9.69922 12.2654 9.91914 12.4853 10.1896 12.4853ZM33.4215 6.65991L37.1793 2.9023L40.9371 6.65991H40.2166C39.9463 6.65991 39.7264 6.87983 39.7264 7.15034V11.8994H34.6324V7.15015C34.6324 6.87964 34.4125 6.65972 34.1422 6.65972H33.4215V6.65991ZM34.0463 8.8939V9.99175H15.965V8.8939H34.0463ZM9.07441 6.65991L12.8322 2.9023L16.59 6.65991H15.8695C15.5992 6.65991 15.3793 6.87983 15.3793 7.15034V11.8994H10.2852V7.15015C10.2852 6.87964 10.0652 6.65972 9.79492 6.65972H9.07441V6.65991ZM3.34746 11.3371C3.34746 9.98999 4.44336 8.8939 5.79043 8.8939H9.69902V9.99175H5.79062C5.04883 9.99175 4.44531 10.5953 4.44531 11.3371V33.7179C4.44531 34.4599 5.04883 35.0634 5.79062 35.0634H44.2207C44.9625 35.0634 45.566 34.4599 45.566 33.7179V11.3371C45.566 10.5953 44.9625 9.99175 44.2207 9.99175H40.3121V8.8939H44.2207C45.5678 8.8939 46.6637 9.9898 46.6637 11.3371V36.1209C46.6637 37.4679 45.5678 38.564 44.2207 38.564H30.4777H19.5334H5.79062C4.44355 38.564 3.34766 37.4681 3.34766 36.1209V11.3371H3.34746Z" fill="#3F3679"/>
<path d="M25.0025 38.0075C25.6609 38.0075 26.1965 37.472 26.1965 36.8136C26.1965 36.1552 25.6609 35.6196 25.0025 35.6196C24.3441 35.6196 23.8086 36.1552 23.8086 36.8136C23.8086 37.472 24.3441 38.0075 25.0025 38.0075ZM25.0025 36.2054C25.3379 36.2054 25.6105 36.478 25.6105 36.8134C25.6105 37.1487 25.3379 37.4214 25.0025 37.4214C24.6672 37.4214 24.3945 37.1487 24.3945 36.8134C24.3945 36.478 24.6672 36.2054 25.0025 36.2054Z" fill="#3F3679"/>
<path d="M18.1367 24.6438H19.7896C19.7988 24.6667 19.8084 24.6896 19.8182 24.7128L18.6488 25.8821C18.5344 25.9966 18.5344 26.1819 18.6488 26.2964L21.2281 28.8757C21.3379 28.9855 21.5326 28.9855 21.6424 28.8757L22.8119 27.7062C22.8348 27.7159 22.8576 27.7255 22.8807 27.7347V29.3892C22.8807 29.5509 23.0117 29.6821 23.1736 29.6821H26.8201C26.982 29.6821 27.1131 29.5509 27.1131 29.3892V27.7347C27.1359 27.7253 27.1588 27.7157 27.1818 27.7062L28.3514 28.8757C28.4611 28.9855 28.6559 28.9855 28.7656 28.8757L31.3449 26.2964C31.4594 26.1819 31.4594 25.9966 31.3449 25.8821L30.1756 24.7128C30.1853 24.6897 30.1949 24.6669 30.2041 24.6438H31.8584C32.0203 24.6438 32.1514 24.5126 32.1514 24.3509V20.7044C32.1514 20.5427 32.0203 20.4114 31.8584 20.4114H30.2039C30.1945 20.3886 30.1852 20.3657 30.1754 20.3427L31.3449 19.1731C31.4594 19.0587 31.4594 18.8733 31.3449 18.7589L28.7656 16.1796C28.7107 16.1247 28.6361 16.0938 28.5584 16.0938C28.4807 16.0938 28.4062 16.1247 28.3512 16.1798L27.182 17.3501C27.1588 17.3401 27.1357 17.3304 27.1129 17.3212V15.6675C27.1129 15.5058 26.9818 15.3745 26.8199 15.3745H23.1734C23.0115 15.3745 22.8805 15.5058 22.8805 15.6675V17.3212C22.8578 17.3306 22.8348 17.3403 22.8113 17.3501L21.6424 16.1798C21.5873 16.1247 21.5129 16.0938 21.4352 16.0938C21.3574 16.0938 21.283 16.1247 21.2279 16.1796L18.6488 18.7589C18.5344 18.8733 18.5344 19.0587 18.6488 19.1731L19.8184 20.3427C19.8086 20.3655 19.799 20.3884 19.7898 20.4114H18.1367C17.9748 20.4114 17.8438 20.5427 17.8438 20.7044V24.3509C17.8438 24.5126 17.9748 24.6438 18.1367 24.6438ZM18.4297 20.9974H19.991C20.1145 20.9974 20.2246 20.92 20.2666 20.8042C20.3145 20.6716 20.3707 20.5362 20.4334 20.4015C20.4854 20.2897 20.4619 20.1575 20.375 20.0706L19.2705 18.9661L21.4354 16.8013L22.5398 17.9069C22.6268 17.994 22.759 18.0175 22.8707 17.9657C23.0178 17.8972 23.1496 17.8421 23.2734 17.7974C23.3895 17.7554 23.4668 17.6454 23.4668 17.522V15.9606H26.5273V17.522C26.5273 17.6454 26.6047 17.7554 26.7207 17.7974C26.8447 17.8423 26.9766 17.8974 27.1234 17.9657C27.2352 18.0177 27.3674 17.9942 27.4543 17.9069L28.5588 16.8013L30.7236 18.9661L29.6191 20.0706C29.532 20.1575 29.5088 20.2897 29.5607 20.4013C29.6238 20.5368 29.6799 20.6726 29.7275 20.804C29.7695 20.92 29.8797 20.9972 30.0031 20.9972H31.5658V24.0577H30.0031C29.8795 24.0577 29.7689 24.1353 29.7273 24.2519C29.6814 24.38 29.627 24.5114 29.5607 24.6538C29.5088 24.7653 29.5322 24.8976 29.6191 24.9845L30.7236 26.089L28.5588 28.254L27.4543 27.1495C27.3674 27.0624 27.2354 27.0394 27.1236 27.0909C26.9887 27.1538 26.8531 27.2099 26.7209 27.2577C26.6049 27.2997 26.5275 27.4097 26.5275 27.5331V29.0958H23.467V27.5331C23.467 27.4097 23.3896 27.2997 23.2736 27.2577C23.1418 27.2101 23.0062 27.1538 22.8709 27.0909C22.7594 27.0392 22.6271 27.0624 22.5402 27.1495L21.4357 28.254L19.2709 26.089L20.3754 24.9845C20.4625 24.8976 20.4857 24.7653 20.4338 24.6536C20.368 24.5124 20.3135 24.381 20.2672 24.2519C20.2256 24.1353 20.115 24.0577 19.9914 24.0577H18.4301V20.9974H18.4297Z" fill="#3F3679"/>
<path d="M25.0057 25.1424C26.4477 25.1424 27.6207 23.9691 27.6207 22.5271C27.6207 21.0852 26.4477 19.9121 25.0057 19.9121C23.5637 19.9121 22.3906 21.0852 22.3906 22.5271C22.3906 23.9691 23.5637 25.1424 25.0057 25.1424ZM25.0057 20.4982C26.1246 20.4982 27.0348 21.4084 27.0348 22.5273C27.0348 23.6463 26.1244 24.5566 25.0057 24.5566C23.8869 24.5566 22.9766 23.6463 22.9766 22.5273C22.9766 21.4084 23.8867 20.4982 25.0057 20.4982Z" fill="#3F3679"/>
<path d="M5.05859 47.1382H1.44531C1.2834 47.1382 1.15234 47.2694 1.15234 47.4312C1.15234 47.5929 1.2834 47.7241 1.44531 47.7241H5.05859C5.22051 47.7241 5.35156 47.5929 5.35156 47.4312C5.35156 47.2694 5.22031 47.1382 5.05859 47.1382Z" fill="#3F3679"/>
<path d="M48.5625 47.1382H44.9492C44.7873 47.1382 44.6562 47.2694 44.6562 47.4312C44.6562 47.5929 44.7873 47.7241 44.9492 47.7241H48.5625C48.7244 47.7241 48.8555 47.5929 48.8555 47.4312C48.8555 47.2694 48.7244 47.1382 48.5625 47.1382Z" fill="#3F3679"/>
<path d="M42.0574 47.1377H7.94141C7.77949 47.1377 7.64844 47.2689 7.64844 47.4307C7.64844 47.5924 7.77949 47.7236 7.94141 47.7236H42.0574C42.2193 47.7236 42.3504 47.5924 42.3504 47.4307C42.3504 47.2689 42.2193 47.1377 42.0574 47.1377Z" fill="#3F3679"/>
<path d="M1.44531 45.4282H2.99688C3.15879 45.4282 3.28984 45.297 3.28984 45.1353C3.28984 44.9735 3.15879 44.8423 2.99688 44.8423H1.44531C1.2834 44.8423 1.15234 44.9735 1.15234 45.1353C1.15234 45.297 1.2834 45.4282 1.44531 45.4282Z" fill="#3F3679"/>
<path d="M46.7109 45.1343C46.7109 45.296 46.842 45.4272 47.0039 45.4272H48.5555C48.7174 45.4272 48.8484 45.296 48.8484 45.1343C48.8484 44.9726 48.7174 44.8413 48.5555 44.8413H47.0039C46.842 44.8413 46.7109 44.9726 46.7109 45.1343Z" fill="#3F3679"/>
</svg>
