<svg width="50" height="50" viewBox="0 0 50 50" fill="none" xmlns="http://www.w3.org/2000/svg">
<path d="M6.69141 21.6802H43.3088V45.8042H6.69141V21.6802Z" fill="#C0A3FA"/>
<path d="M6.69141 21.6802H8.74512V45.8042H6.69141V21.6802Z" fill="#6377E7"/>
<path d="M41.2578 21.6807H43.3115V45.8047H41.2578V21.6807Z" fill="#C0A3FA"/>
<path d="M27.6617 12.9784L31.0561 11.5821C33.1687 10.7129 35.4875 12.2664 35.4875 14.551V16.001H25V13.9204L27.6617 12.9784Z" fill="#F8AF23"/>
<path d="M34.832 21.6807H38.5879V45.8047H34.832V21.6807Z" fill="#9E9E9E"/>
<path d="M11.4258 21.6807H15.1816V45.8047H11.4258V21.6807Z" fill="#9E9E9E"/>
<path d="M44.1547 21.6802H5.84766C5.3084 21.6802 4.87109 21.2429 4.87109 20.7036V16.9771C4.87109 16.4378 5.3084 16.0005 5.84766 16.0005H44.1547C44.6939 16.0005 45.1313 16.4378 45.1313 16.9771V20.7034C45.1313 21.2429 44.6941 21.6802 44.1547 21.6802Z" fill="#FF6489"/>
<path d="M6.92481 20.7036V16.9771C6.92481 16.4378 7.36211 16.0005 7.90137 16.0005H5.84766C5.3084 16.0005 4.87109 16.4378 4.87109 16.9771V20.7034C4.87109 21.2427 5.3084 21.68 5.84766 21.68H7.90137C7.36192 21.6802 6.92481 21.2429 6.92481 20.7036Z" fill="#F43075"/>
<path d="M43.0781 20.7041V16.9775C43.0781 16.4383 42.6408 16.001 42.1016 16.001H44.1553C44.6945 16.001 45.1318 16.4383 45.1318 16.9775V20.7039C45.1318 21.2432 44.6945 21.6805 44.1553 21.6805H42.1016C42.641 21.6807 43.0781 21.2434 43.0781 20.7041Z" fill="#F48875"/>
<path d="M22.3453 12.9784L18.951 11.5821C16.8383 10.7129 14.5195 12.2664 14.5195 14.551V16.001H25.007V13.9204L22.3453 12.9784Z" fill="#F8AF23"/>
<path d="M18.7568 11.5091C16.6988 10.8087 14.5195 12.336 14.5195 14.5509V16.0009H16.5732V14.5509C16.5732 13.0905 17.5213 11.9302 18.7568 11.5091Z" fill="#F87023"/>
<path d="M31.25 11.5091C33.308 10.8087 35.4873 12.336 35.4873 14.5509V16.0009H33.4336V14.5509C33.4336 13.0905 32.4855 11.9302 31.25 11.5091Z" fill="#F8D323"/>
<path d="M26.6709 11.8394H23.3246C22.7809 11.8394 22.3359 12.2843 22.3359 12.828V15.0122C22.3359 15.556 22.7809 16.0009 23.3246 16.0009H26.6709C27.2147 16.0009 27.6596 15.556 27.6596 15.0122V12.8278C27.6596 12.2841 27.2147 11.8394 26.6709 11.8394Z" fill="#C0A3FA"/>
<path d="M31.0066 27.7567C31.0066 27.2749 30.616 26.8843 30.1342 26.8843C29.6523 26.8843 29.2617 27.2749 29.2617 27.7567C29.2617 27.8612 29.2811 27.961 29.3148 28.0538L27.05 29.8024C26.8895 29.9265 26.6547 29.8575 26.5865 29.6665L25.5281 26.703C25.7355 26.5435 25.8699 26.2935 25.8699 26.0116C25.8699 25.5298 25.4793 25.1392 24.9975 25.1392C24.5156 25.1392 24.125 25.5298 24.125 26.0116C24.125 26.2937 24.2594 26.5435 24.4668 26.703L23.4084 29.6665C23.3402 29.8575 23.1055 29.9263 22.9449 29.8024L20.6801 28.0538C20.7139 27.9608 20.7332 27.8612 20.7332 27.7567C20.7332 27.2749 20.3426 26.8843 19.8607 26.8843C19.3789 26.8843 18.9883 27.2749 18.9883 27.7567C18.9883 28.1634 19.2668 28.5038 19.643 28.6007V33.9007C19.643 34.0655 19.7766 34.1991 19.9414 34.1991H24.9971H30.0533C30.2182 34.1991 30.3518 34.0655 30.3518 33.9007V28.6007C30.7281 28.504 31.0066 28.1634 31.0066 27.7567Z" fill="#F8AF23"/>
<path d="M38.0961 40.7195H11.9062C10.6172 40.7195 9.5625 39.6648 9.5625 38.3758V36.543C9.5625 35.2539 10.6172 34.1992 11.9062 34.1992H38.0959C39.385 34.1992 40.4396 35.2539 40.4396 36.543V38.3758C40.4398 39.6648 39.3852 40.7195 38.0961 40.7195Z" fill="#F8AF23"/>
<path d="M21.593 35.6373V36.1389C21.593 36.207 21.5377 36.2625 21.4693 36.2625H20.1199C20.0518 36.2625 19.9963 36.3178 19.9963 36.3861V36.9924C19.9963 37.0605 20.0516 37.116 20.1199 37.116H21.1059C21.174 37.116 21.2295 37.1713 21.2295 37.2397V37.7082C21.2295 37.7764 21.1742 37.8318 21.1059 37.8318H20.1199C20.0518 37.8318 19.9963 37.8871 19.9963 37.9555V39.2828C19.9963 39.351 19.941 39.4064 19.8727 39.4064H19.1783C19.1102 39.4064 19.0547 39.3512 19.0547 39.2828V35.6373C19.0547 35.5691 19.11 35.5137 19.1783 35.5137H21.4691C21.5377 35.5139 21.593 35.5691 21.593 35.6373Z" fill="#3F3679"/>
<path d="M24.1443 39.4059C24.1 39.4059 24.0592 39.3822 24.0371 39.3438L23.2307 37.9361H23.0158V39.2824C23.0158 39.3506 22.9606 39.4061 22.8922 39.4061H22.1979C22.1297 39.4061 22.0742 39.3508 22.0742 39.2824V35.6373C22.0742 35.5691 22.1295 35.5137 22.1979 35.5137H23.6818C23.99 35.5137 24.2506 35.5668 24.4635 35.6732C24.6762 35.7799 24.836 35.9258 24.9424 36.1109C25.0488 36.2963 25.1022 36.5082 25.1022 36.7467C25.1022 37.0293 25.0242 37.2697 24.8682 37.468C24.7381 37.6332 24.559 37.7549 24.3309 37.8334C24.2586 37.8582 24.2315 37.9469 24.2709 38.0121L24.9996 39.2182C25.0494 39.3006 24.9901 39.4057 24.894 39.4057H24.1443V39.4059ZM23.0158 37.1684C23.0158 37.2365 23.0711 37.292 23.1395 37.292H23.5992C23.7865 37.292 23.9242 37.2508 24.0123 37.1682C24.1002 37.0855 24.1443 36.9637 24.1443 36.8021C24.1443 36.648 24.0992 36.527 24.0094 36.4389C23.9193 36.3508 23.7826 36.3066 23.5992 36.3066H23.1395C23.0713 36.3066 23.0158 36.3619 23.0158 36.4303V37.1684Z" fill="#3F3679"/>
<path d="M26.5197 36.3859V36.9537C26.5197 37.0219 26.575 37.0773 26.6434 37.0773H27.7117C27.7799 37.0773 27.8354 37.1326 27.8354 37.201V37.6639C27.8354 37.732 27.7801 37.7875 27.7117 37.7875H26.6434C26.5752 37.7875 26.5197 37.8428 26.5197 37.9111V38.5283C26.5197 38.5965 26.575 38.652 26.6434 38.652H27.877C27.9451 38.652 28.0006 38.7072 28.0006 38.7756V39.2826C28.0006 39.3508 27.9453 39.4063 27.877 39.4063H25.7018C25.6336 39.4063 25.5781 39.351 25.5781 39.2826V35.6373C25.5781 35.5691 25.6334 35.5137 25.7018 35.5137H27.877C27.9451 35.5137 28.0006 35.5689 28.0006 35.6373V36.1389C28.0006 36.207 27.9453 36.2625 27.877 36.2625H26.6434C26.575 36.2625 26.5197 36.3178 26.5197 36.3859Z" fill="#3F3679"/>
<path d="M29.4768 36.3859V36.9537C29.4768 37.0219 29.532 37.0773 29.6004 37.0773H30.6688C30.7369 37.0773 30.7924 37.1326 30.7924 37.201V37.6639C30.7924 37.732 30.7371 37.7875 30.6688 37.7875H29.6004C29.5322 37.7875 29.4768 37.8428 29.4768 37.9111V38.5283C29.4768 38.5965 29.532 38.652 29.6004 38.652H30.834C30.9022 38.652 30.9576 38.7072 30.9576 38.7756V39.2826C30.9576 39.3508 30.9023 39.4063 30.834 39.4063H28.6588C28.5906 39.4063 28.5352 39.351 28.5352 39.2826V35.6373C28.5352 35.5691 28.5904 35.5137 28.6588 35.5137H30.834C30.9022 35.5137 30.9576 35.5689 30.9576 35.6373V36.1389C30.9576 36.207 30.9023 36.2625 30.834 36.2625H29.6004C29.532 36.2625 29.4768 36.3178 29.4768 36.3859Z" fill="#3F3679"/>
<path d="M10.5756 5.64565L10.7791 6.05796C10.9147 6.33257 11.1766 6.523 11.4797 6.56694L11.9348 6.63315C12.6981 6.74409 13.0027 7.68198 12.4504 8.22026L12.1211 8.54116C11.9018 8.75483 11.8018 9.06284 11.8535 9.3648L11.9313 9.81792C12.0615 10.5781 11.2639 11.1578 10.5813 10.7988L10.1742 10.5849C9.90314 10.4423 9.57931 10.4423 9.30821 10.5849L8.90118 10.7988C8.21856 11.1576 7.42071 10.5781 7.55118 9.81792L7.62892 9.3648C7.68067 9.06304 7.58067 8.75503 7.36134 8.54116L7.03204 8.22026C6.4797 7.68198 6.78458 6.74409 7.54767 6.63315L8.00274 6.56694C8.30587 6.523 8.56778 6.33257 8.70333 6.05796L8.90685 5.64565C9.24825 4.95405 10.2344 4.95405 10.5756 5.64565Z" fill="#F8AF23"/>
<path d="M9.60513 9.81792L9.68287 9.36479C9.73463 9.06304 9.63463 8.75503 9.41529 8.54116L9.08599 8.22026C8.53365 7.68198 8.83853 6.74409 9.60162 6.63315L10.0567 6.56694C10.3598 6.523 10.6217 6.33257 10.7573 6.05796L10.7682 6.03569L10.5756 5.64565C10.2344 4.95405 9.2481 4.95405 8.90689 5.64565L8.70338 6.05796C8.56783 6.33257 8.30592 6.523 8.00279 6.56694L7.54771 6.63315C6.78443 6.74409 6.47974 7.68198 7.03209 8.22026L7.36138 8.54116C7.58072 8.75483 7.68072 9.06284 7.62896 9.36479L7.55123 9.81792C7.42095 10.5781 8.21861 11.1576 8.90123 10.7988L9.30826 10.5849C9.44322 10.514 9.59127 10.4785 9.73931 10.4781C9.62037 10.2947 9.56256 10.0666 9.60513 9.81792Z" fill="#F87023"/>
<path d="M39.4264 5.64565L39.2229 6.05796C39.0874 6.33257 38.8254 6.523 38.5223 6.56694L38.0672 6.63315C37.304 6.74409 36.9993 7.68198 37.5516 8.22026L37.8809 8.54116C38.1003 8.75483 38.2003 9.06284 38.1485 9.3648L38.0708 9.81792C37.9405 10.5781 38.7381 11.1578 39.4208 10.7988L39.8278 10.5849C40.0989 10.4423 40.4227 10.4423 40.6938 10.5849L41.1008 10.7988C41.7835 11.1576 42.5813 10.5781 42.4508 9.81792L42.3731 9.3648C42.3214 9.06304 42.4214 8.75503 42.6407 8.54116L42.97 8.22026C43.5223 7.68198 43.2174 6.74409 42.4544 6.63315L41.9993 6.56694C41.6962 6.523 41.4342 6.33257 41.2987 6.05796L41.0952 5.64565C40.7538 4.95405 39.7676 4.95405 39.4264 5.64565Z" fill="#F8AF23"/>
<path d="M40.4014 9.81792L40.3236 9.36479C40.2719 9.06304 40.3719 8.75503 40.5912 8.54116L40.9205 8.22026C41.4729 7.68198 41.168 6.74409 40.4049 6.63315L39.9498 6.56694C39.6467 6.523 39.3848 6.33257 39.2492 6.05796L39.2383 6.03569L39.4309 5.64565C39.7721 4.95405 40.7584 4.95405 41.0996 5.64565L41.3031 6.05796C41.4387 6.33257 41.7006 6.523 42.0037 6.56694L42.4588 6.63315C43.2221 6.74409 43.5268 7.68198 42.9744 8.22026L42.6451 8.54116C42.4258 8.75483 42.3258 9.06284 42.3776 9.36479L42.4553 9.81792C42.5856 10.5781 41.7879 11.1576 41.1053 10.7988L40.6982 10.5849C40.5633 10.514 40.4152 10.4785 40.2672 10.4781C40.3861 10.2947 40.444 10.0666 40.4014 9.81792Z" fill="#F8D323"/>
<path d="M25.8373 2.41909L26.0408 2.8314C26.1764 3.10601 26.4383 3.29644 26.7414 3.34038L27.1965 3.40659C27.9598 3.51753 28.2645 4.45542 27.7121 4.9937L27.3828 5.3146C27.1635 5.52827 27.0635 5.83628 27.1153 6.13823L27.193 6.59136C27.3233 7.35151 26.5256 7.9312 25.843 7.57222L25.436 7.35835C25.1649 7.21577 24.841 7.21577 24.5699 7.35835L24.1629 7.57222C23.4803 7.93101 22.6824 7.35151 22.8129 6.59136L22.8906 6.13823C22.9424 5.83647 22.8424 5.52847 22.6231 5.3146L22.2938 4.9937C21.7414 4.45542 22.0463 3.51753 22.8094 3.40659L23.2645 3.34038C23.5676 3.29644 23.8295 3.10601 23.9651 2.8314L24.1686 2.41909C24.5098 1.72749 25.4961 1.72749 25.8373 2.41909Z" fill="#F8AF23"/>
<path d="M24.8669 6.59135L24.9446 6.13823C24.9963 5.83647 24.8963 5.52846 24.677 5.3146L24.3477 4.9937C23.7954 4.45542 24.1003 3.51753 24.8633 3.40659L25.3184 3.34038C25.6215 3.29643 25.8835 3.10601 26.019 2.8314L26.0299 2.80913L25.8374 2.41909C25.4962 1.72749 24.5098 1.72749 24.1686 2.41909L23.9651 2.8314C23.8295 3.10601 23.5676 3.29643 23.2645 3.34038L22.8094 3.40659C22.0461 3.51753 21.7415 4.45542 22.2938 4.9937L22.6231 5.3146C22.8424 5.52827 22.9424 5.83628 22.8907 6.13823L22.8129 6.59135C22.6827 7.35151 23.4803 7.931 24.1629 7.57221L24.57 7.35835C24.7049 7.28745 24.853 7.2519 25.001 7.25151C24.8821 7.06811 24.8243 6.83979 24.8669 6.59135Z" fill="#F87023"/>
<path d="M5.05859 47.8071H1.44531C1.2834 47.8071 1.15234 47.9382 1.15234 48.1001C1.15234 48.262 1.2834 48.3931 1.44531 48.3931H5.05859C5.22051 48.3931 5.35156 48.262 5.35156 48.1001C5.35156 47.9382 5.22031 47.8071 5.05859 47.8071Z" fill="#3F3679"/>
<path d="M48.5625 47.8071H44.9492C44.7875 47.8071 44.6562 47.9382 44.6562 48.1001C44.6562 48.262 44.7875 48.3931 44.9492 48.3931H48.5625C48.7242 48.3931 48.8555 48.262 48.8555 48.1001C48.8555 47.9382 48.7242 47.8071 48.5625 47.8071Z" fill="#3F3679"/>
<path d="M42.0574 47.8071H7.94141C7.77949 47.8071 7.64844 47.9382 7.64844 48.1001C7.64844 48.262 7.77949 48.3931 7.94141 48.3931H42.0574C42.2191 48.3931 42.3504 48.262 42.3504 48.1001C42.3504 47.9382 42.2191 47.8071 42.0574 47.8071Z" fill="#3F3679"/>
<path d="M1.44531 46.0972H2.99688C3.15879 46.0972 3.28984 45.9661 3.28984 45.8042C3.28984 45.6423 3.15879 45.5112 2.99688 45.5112H1.44531C1.2834 45.5112 1.15234 45.6423 1.15234 45.8042C1.15234 45.9661 1.2834 46.0972 1.44531 46.0972Z" fill="#3F3679"/>
<path d="M47.0039 46.0972H48.5553C48.717 46.0972 48.8482 45.9661 48.8482 45.8042C48.8482 45.6423 48.717 45.5112 48.5553 45.5112H47.0039C46.8422 45.5112 46.7109 45.6423 46.7109 45.8042C46.7109 45.9661 46.8422 46.0972 47.0039 46.0972Z" fill="#3F3679"/>
<path d="M45.2375 45.8038C45.2375 45.6419 45.1063 45.5108 44.9445 45.5108H43.6027V21.9725H44.1547C44.8547 21.9725 45.4242 21.403 45.4242 20.703V16.9766C45.4242 16.2766 44.8547 15.7071 44.1547 15.7071H35.7816V14.5499C35.7816 13.3792 35.2008 12.2911 34.2283 11.6395C33.2559 10.988 32.0287 10.8645 30.9457 11.31L27.9254 12.5524C27.7992 11.9774 27.2865 11.5458 26.6742 11.5458H23.3279C22.7156 11.5458 22.2031 11.9776 22.0768 12.5524L19.0566 11.3102C17.9736 10.8649 16.7467 10.988 15.774 11.6397C14.8014 12.2913 14.2207 13.3794 14.2207 14.5501V15.7073H5.84766C5.14766 15.7073 4.57812 16.2768 4.57812 16.9768V20.7032C4.57812 21.4032 5.14766 21.9727 5.84766 21.9727H6.39961V45.5108H5.05781C4.8959 45.5108 4.76484 45.6419 4.76484 45.8038C4.76484 45.9657 4.8959 46.0968 5.05781 46.0968H6.69258H11.4203H15.176H34.8264H38.582H43.3098H44.9445C45.1063 46.0968 45.2375 45.9655 45.2375 45.8038ZM31.1686 11.852C32.0699 11.4811 33.0918 11.5837 33.9021 12.1263C34.7121 12.6688 35.1957 13.5749 35.1957 14.5499V15.7071H27.749C27.8793 15.5065 27.9557 15.268 27.9557 15.0114V14.6059H32.5924C32.7541 14.6059 32.8854 14.4749 32.8854 14.313C32.8854 14.1511 32.7541 14.02 32.5924 14.02H27.9557V13.1735L31.1686 11.852ZM22.6324 12.8274C22.6324 12.4438 22.9445 12.1317 23.3281 12.1317H26.6744C27.058 12.1317 27.3701 12.4438 27.3701 12.8274V15.0116C27.3701 15.3952 27.058 15.7073 26.6744 15.7073H25.0012H23.3281C22.9445 15.7073 22.6324 15.3952 22.6324 15.0116V12.8274ZM14.8066 14.5501C14.8066 13.5751 15.2902 12.669 16.1002 12.1264C16.9102 11.5839 17.932 11.4811 18.8338 11.8522L22.0465 13.1737V14.0202H17.4096C17.2477 14.0202 17.1166 14.1513 17.1166 14.3132C17.1166 14.4751 17.2477 14.6061 17.4096 14.6061H22.0465V15.0116C22.0465 15.268 22.123 15.5067 22.2531 15.7073H14.8066V14.5501ZM5.16406 20.703V19.1327H34.8264C34.9881 19.1327 35.1193 19.0016 35.1193 18.8397C35.1193 18.6778 34.9881 18.5468 34.8264 18.5468H5.16406V16.9764C5.16406 16.5995 5.4707 16.2929 5.84766 16.2929H14.5139H23.3281H25.0012H26.6742H35.4887H44.1547C44.5316 16.2929 44.8383 16.5995 44.8383 16.9764V20.7028C44.8383 21.0798 44.5316 21.3864 44.1547 21.3864H43.3098H38.582H34.8264H15.176H11.4201H6.69238H5.84746C5.4707 21.3866 5.16406 21.08 5.16406 20.703ZM38.0961 40.4261H11.9064C10.7756 40.4261 9.85566 39.5061 9.85566 38.3753V36.5425C9.85566 35.4116 10.7756 34.4917 11.9064 34.4917H19.9449H30.0576H38.0961C39.227 34.4917 40.1469 35.4116 40.1469 36.5425V38.3753C40.1469 39.5061 39.227 40.4261 38.0961 40.4261ZM34.5334 41.012V45.5106H15.4689V41.012H34.5334ZM13.298 30.0702C13.46 30.0702 13.591 29.9391 13.591 29.7772V21.9725H14.883V33.9057H13.591V32.4249C13.591 32.263 13.46 32.1319 13.298 32.1319C13.1361 32.1319 13.0051 32.263 13.0051 32.4249V33.9057H11.9064C11.8412 33.9057 11.7773 33.9108 11.7133 33.9155V21.9725H13.0053V29.7772C13.0051 29.9391 13.1361 30.0702 13.298 30.0702ZM34.5334 21.9725V33.9057H30.6484C30.6484 33.9038 30.649 33.902 30.649 33.9003V28.8032C31.0436 28.6114 31.3039 28.2083 31.3039 27.7563C31.3039 27.1136 30.7811 26.5909 30.1383 26.5909C29.4957 26.5909 28.9729 27.1138 28.9729 27.7563C28.9729 27.8173 28.9777 27.8784 28.9875 27.9386L26.8664 29.5677L25.8725 26.7847C26.0615 26.5731 26.1668 26.3007 26.1668 26.0112C26.1668 25.3684 25.6439 24.8458 25.0012 24.8458C24.3584 24.8458 23.8357 25.3686 23.8357 26.0112C23.8357 26.3009 23.9408 26.5729 24.1297 26.7845L23.1275 29.5702L21.015 27.9391C21.0248 27.8786 21.0297 27.8175 21.0297 27.7563C21.0297 27.1136 20.5068 26.5909 19.8643 26.5909C19.2217 26.5909 18.6988 27.1138 18.6988 27.7563C18.6988 28.2083 18.959 28.6114 19.3537 28.8032V33.9003C19.3537 33.9022 19.3543 33.904 19.3543 33.9057H15.4689V21.9725H34.5334ZM19.9393 33.9003V28.6003C19.9393 28.4665 19.8488 28.3499 19.7193 28.3165C19.4633 28.2507 19.2846 28.0202 19.2846 27.7561C19.2846 27.4366 19.5445 27.1766 19.8641 27.1766C20.1836 27.1766 20.4436 27.4366 20.4436 27.7561C20.4436 27.8222 20.4316 27.8886 20.408 27.9534C20.3647 28.0731 20.4035 28.2073 20.5045 28.2852L22.7695 30.0339C22.9189 30.1491 23.1162 30.1864 23.2973 30.1333C23.4783 30.0802 23.6244 29.9423 23.6879 29.7645L24.7463 26.8011C24.7891 26.6813 24.7498 26.5477 24.6488 26.4702C24.5043 26.3593 24.4215 26.1919 24.4215 26.011C24.4215 25.6915 24.6814 25.4315 25.001 25.4315C25.3207 25.4315 25.5807 25.6915 25.5807 26.011C25.5807 26.1917 25.4977 26.3591 25.3533 26.4702C25.2523 26.5475 25.2131 26.6813 25.2559 26.8009L26.3143 29.7641C26.3775 29.9419 26.5234 30.0798 26.7045 30.1329C26.8859 30.1858 27.083 30.1489 27.2328 30.0337L29.4979 28.285C29.5988 28.2071 29.6377 28.0729 29.5941 27.953C29.5705 27.8884 29.5586 27.8222 29.5586 27.7559C29.5586 27.4364 29.8186 27.1764 30.1381 27.1764C30.4578 27.1764 30.7178 27.4364 30.7178 27.7559C30.7178 28.02 30.5391 28.2503 30.2828 28.3163C30.1535 28.3495 30.0629 28.4663 30.0629 28.6001L30.0574 33.9057L19.9393 33.9003ZM38.2891 33.9155C38.225 33.9108 38.1611 33.9057 38.0961 33.9057H36.9973V32.4249C36.9973 32.263 36.866 32.1319 36.7043 32.1319C36.5426 32.1319 36.4113 32.263 36.4113 32.4249V33.9057H35.1193V21.9725H36.4113V29.7772C36.4113 29.9391 36.5426 30.0702 36.7043 30.0702C36.866 30.0702 36.9973 29.9391 36.9973 29.7772V21.9725H38.2891V33.9155ZM6.98535 21.9725H11.1271V34.0233C10.0525 34.3565 9.26953 35.3597 9.26953 36.5423V38.3751C9.26953 39.5579 10.0523 40.561 11.1271 40.894V45.5104H6.98535V21.9725ZM11.7131 45.5108V41.0024C11.7771 41.0071 11.841 41.0122 11.9062 41.0122H14.8828V45.5108H11.7131ZM35.1193 45.5108V41.0122H38.0961C38.1613 41.0122 38.2252 41.0071 38.2891 41.0024V45.5108H35.1193ZM38.875 45.5108V40.8946C39.9498 40.5616 40.7328 39.5583 40.7328 38.3755V36.5427C40.7328 35.3598 39.9498 34.3565 38.875 34.0235V21.9727H43.0168V45.5108H38.875Z" fill="#3F3679"/>
<path d="M38.582 19.1333H41.8176C41.9793 19.1333 42.1105 19.0022 42.1105 18.8403C42.1105 18.6784 41.9793 18.5474 41.8176 18.5474H38.582C38.4203 18.5474 38.2891 18.6784 38.2891 18.8403C38.2891 19.0022 38.4203 19.1333 38.582 19.1333Z" fill="#3F3679"/>
<path d="M7.15755 8.75156C7.30794 8.89805 7.37649 9.10918 7.34094 9.31582L7.26321 9.76914C7.18391 10.2314 7.37044 10.6898 7.74993 10.9656C7.96438 11.1215 8.21516 11.2008 8.4679 11.2006C8.66223 11.2006 8.85774 11.1537 9.03821 11.0588L9.44524 10.8449C9.63099 10.7473 9.85286 10.7473 10.0386 10.8449L10.4454 11.0588C10.8605 11.2771 11.3544 11.2412 11.7339 10.9656C12.1134 10.6898 12.2997 10.2314 12.2206 9.76914L12.1429 9.31602C12.1074 9.10918 12.1759 8.89824 12.3261 8.75176L12.6554 8.43086C12.9913 8.10332 13.1101 7.62285 12.965 7.17676C12.8199 6.73066 12.4415 6.41152 11.9773 6.34414L11.5222 6.27812C11.3146 6.24785 11.1351 6.11758 11.0421 5.9293L10.8386 5.51699C10.631 5.09629 10.2107 4.83496 9.74134 4.83496C9.2722 4.83496 8.85188 5.09629 8.64427 5.51699L8.44075 5.9291C8.34778 6.11738 8.16829 6.24766 7.96067 6.27793L7.50559 6.34395C7.04133 6.41133 6.66301 6.73047 6.5179 7.17656C6.37278 7.62266 6.49153 8.10332 6.82747 8.43066L7.15755 8.75156ZM7.0761 7.35762C7.15286 7.12168 7.34505 6.95937 7.59075 6.92363L8.04583 6.85762C8.44446 6.7998 8.7888 6.54941 8.96712 6.18828L9.17063 5.77617C9.2804 5.55352 9.49407 5.4207 9.74231 5.4207C9.99056 5.4207 10.2042 5.55352 10.314 5.77617L10.5175 6.18828C10.6958 6.54941 11.04 6.79961 11.4388 6.85762L11.8939 6.92363C12.1394 6.95937 12.3318 7.12148 12.4085 7.35762C12.4853 7.59355 12.4249 7.83789 12.2472 8.01113L11.9177 8.33223C11.6294 8.61328 11.498 9.01816 11.5659 9.41504L11.6437 9.86816C11.6857 10.1127 11.5908 10.3459 11.3902 10.4916C11.1896 10.6375 10.9384 10.6555 10.7187 10.5402L10.3118 10.3264C9.95521 10.1391 9.52962 10.1389 9.17317 10.3264L8.76634 10.5402C8.54641 10.6557 8.29563 10.6375 8.09485 10.4916C7.89407 10.3457 7.79934 10.1127 7.84134 9.86816L7.91907 9.41484C7.98704 9.01797 7.8554 8.61309 7.56712 8.33203L7.23782 8.01113C7.05969 7.83789 6.99934 7.59355 7.0761 7.35762Z" fill="#3F3679"/>
<path d="M37.68 8.75176C37.8304 8.89824 37.8988 9.10918 37.8632 9.31602L37.7857 9.76914C37.7064 10.2314 37.8929 10.69 38.2722 10.9656C38.4868 11.1215 38.7376 11.2008 38.9904 11.2008C39.1847 11.2008 39.3802 11.1539 39.5609 11.0588L39.9679 10.8449C40.1536 10.7473 40.3753 10.7473 40.5611 10.8449L40.9681 11.0588C41.3831 11.2771 41.8767 11.2418 42.2564 10.9656C42.6359 10.6898 42.8224 10.2314 42.7433 9.76895L42.6656 9.31582C42.63 9.10898 42.6986 8.89785 42.8488 8.75156L43.1781 8.43066C43.514 8.10332 43.6327 7.62266 43.4878 7.17656C43.3429 6.73047 42.9644 6.41133 42.5001 6.34395L42.045 6.27793C41.8374 6.24766 41.6581 6.11738 41.565 5.9291L41.3615 5.51699C41.154 5.09629 40.7337 4.83496 40.2648 4.83496C40.2646 4.83496 40.2646 4.83496 40.2646 4.83496C39.7956 4.83496 39.3749 5.09629 39.1675 5.51699L38.9638 5.9293C38.871 6.11738 38.6915 6.24785 38.4839 6.27812L38.029 6.34414C37.5648 6.41152 37.1865 6.73066 37.0413 7.17676C36.8962 7.62285 37.015 8.10352 37.3509 8.43106L37.68 8.75176ZM37.5986 7.35762C37.6753 7.12168 37.8675 6.95937 38.1132 6.92383L38.5681 6.85781C38.9667 6.7998 39.3113 6.54961 39.4892 6.18848L39.6927 5.77617C39.8025 5.55352 40.0163 5.4207 40.2646 5.4207C40.5128 5.4207 40.7263 5.55352 40.8363 5.77617L41.0398 6.18848C41.2181 6.54961 41.5624 6.7998 41.9609 6.85781L42.4159 6.92383C42.6616 6.95957 42.8538 7.12168 42.9306 7.35781C43.0073 7.59375 42.947 7.83809 42.7693 8.01133L42.44 8.33223C42.1515 8.61328 42.0202 9.01816 42.088 9.41523L42.1657 9.86836C42.2077 10.1129 42.1128 10.3461 41.912 10.4918C41.7115 10.6377 41.4605 10.6559 41.2407 10.5404L40.8337 10.3266C40.4771 10.1391 40.0517 10.1391 39.695 10.3266L39.288 10.5404C39.0683 10.6561 38.8171 10.6377 38.6165 10.4918C38.4159 10.3459 38.321 10.1129 38.363 9.86836L38.4406 9.41523C38.5087 9.01836 38.3773 8.61348 38.0886 8.33223L37.7593 8.01133C37.5822 7.83789 37.5216 7.59355 37.5986 7.35762Z" fill="#3F3679"/>
<path d="M22.4109 5.52441C22.5613 5.6709 22.6296 5.88184 22.5941 6.08867L22.5163 6.5418C22.437 7.0041 22.6236 7.4625 23.0031 7.73828C23.2175 7.89395 23.4683 7.97324 23.721 7.97324C23.9156 7.97324 24.1109 7.92637 24.2915 7.83145L24.6986 7.61738C24.8843 7.51973 25.106 7.51973 25.2919 7.61738L25.6989 7.83145C26.1142 8.04981 26.6079 8.01387 26.9874 7.73828C27.3667 7.4625 27.5532 7.0041 27.4741 6.5416L27.3964 6.08848C27.3609 5.88164 27.4296 5.6707 27.5796 5.52422L27.9091 5.20332C28.245 4.87578 28.3636 4.39531 28.2187 3.94922C28.0738 3.50313 27.6952 3.18398 27.231 3.1166L26.7759 3.05059C26.5683 3.02031 26.389 2.89004 26.296 2.70176L26.0927 2.28945C26.0925 2.28945 26.0925 2.28945 26.0925 2.28945C25.8849 1.86875 25.4644 1.60742 24.9952 1.60742C24.5263 1.60742 24.1058 1.86875 23.8982 2.28945L23.6947 2.70176C23.6017 2.88984 23.4224 3.02031 23.2146 3.05059L22.7595 3.1166C22.2952 3.18398 21.9169 3.50313 21.7718 3.94922C21.6267 4.39531 21.7454 4.87598 22.0814 5.20332L22.4109 5.52441ZM22.3292 4.13027C22.406 3.89434 22.5984 3.73203 22.8439 3.69648L23.299 3.63047C23.6976 3.57246 24.0419 3.32227 24.22 2.96113L24.4236 2.54883C24.5333 2.32617 24.747 2.19336 24.9952 2.19336C25.2435 2.19336 25.4572 2.32617 25.5671 2.54883L25.7704 2.96113C25.9488 3.32227 26.2931 3.57246 26.6915 3.63047L27.1466 3.69648C27.3921 3.73223 27.5845 3.89434 27.6613 4.13047C27.738 4.36641 27.6777 4.61074 27.5001 4.78398L27.1706 5.10508C26.8822 5.38613 26.7509 5.79102 26.8187 6.18789L26.8964 6.64102C26.9384 6.88555 26.8435 7.11875 26.6427 7.26445C26.4421 7.41035 26.1911 7.42852 25.9714 7.31309L25.5644 7.09902C25.2077 6.91152 24.7822 6.91152 24.4257 7.09902L24.0187 7.31309C23.7991 7.42852 23.5482 7.41035 23.3474 7.26445C23.1466 7.11856 23.0519 6.88555 23.0939 6.64102L23.1716 6.18789C23.2398 5.79082 23.1081 5.38613 22.8197 5.10508L22.4904 4.78418C22.313 4.61055 22.2527 4.36621 22.3292 4.13027Z" fill="#3F3679"/>
</svg>
