<svg width="50" height="50" viewBox="0 0 50 50" fill="none" xmlns="http://www.w3.org/2000/svg">
<path d="M28.3828 24.4067H21.6348C16.3244 24.4067 12.0195 28.7116 12.0195 34.022V36.3665H37.998V34.022C37.998 28.7116 33.6932 24.4067 28.3828 24.4067Z" fill="#FF6489"/>
<path d="M23.6885 24.4067H21.6348C16.3244 24.4067 12.0195 28.7116 12.0195 34.022V36.3665H14.0732V34.022C14.0732 28.7116 18.3781 24.4067 23.6885 24.4067Z" fill="#F43075"/>
<path d="M42.6816 43.0025H7.32422C6.78496 43.0025 6.34766 42.5652 6.34766 42.026V31.6318C6.34766 31.0926 6.78496 30.6553 7.32422 30.6553H42.6816C43.2209 30.6553 43.6582 31.0926 43.6582 31.6318V42.026C43.6582 42.5654 43.2209 43.0025 42.6816 43.0025Z" fill="#C0A3FA"/>
<path d="M8.40137 42.026V31.6318C8.40137 31.0926 8.83867 30.6553 9.37793 30.6553H7.32422C6.78496 30.6553 6.34766 31.0926 6.34766 31.6318V42.026C6.34766 42.5652 6.78496 43.0025 7.32422 43.0025H9.37793C8.83867 43.0025 8.40137 42.5654 8.40137 42.026Z" fill="#6377E7"/>
<path d="M41.6016 42.026V31.6318C41.6016 31.0926 41.1643 30.6553 40.625 30.6553H42.6787C43.218 30.6553 43.6553 31.0926 43.6553 31.6318V42.026C43.6553 42.5652 43.218 43.0025 42.6787 43.0025H40.625C41.1643 43.0025 41.6016 42.5654 41.6016 42.026Z" fill="#C0A3FA"/>
<path d="M10.1943 40.926C10.6852 40.926 11.0865 40.5244 11.0865 40.0338V39.7807V36.7666C11.0865 36.276 10.6852 35.8746 10.1945 35.8746H6.34883V34.4129C6.34883 33.9221 6.01621 33.5205 5.60996 33.5205C5.20371 33.5205 4.87109 33.9223 4.87109 34.4129V36.3758V39.9496C4.87109 40.4889 5.3084 40.9262 5.84766 40.9262H10.0533H10.1943V40.926Z" fill="#F8AF23"/>
<path d="M6.9248 39.9499V36.3761V35.8751H6.34883V34.4134C6.34883 33.9226 6.01621 33.521 5.60996 33.521C5.20371 33.521 4.87109 33.9228 4.87109 34.4134V36.3763V39.9501C4.87109 40.4894 5.3084 40.9267 5.84766 40.9267H7.90136C7.36211 40.9265 6.9248 40.4894 6.9248 39.9499Z" fill="#F87023"/>
<path d="M39.8141 40.9265C39.3232 40.9265 38.9219 40.5249 38.9219 40.0343V39.7812V36.7671C38.9219 36.2765 39.3232 35.8751 39.8139 35.8751H43.6596V34.4134C43.6596 33.9226 43.9922 33.521 44.3984 33.521C44.8047 33.521 45.1373 33.9228 45.1373 34.4134V36.3763V39.9501C45.1373 40.4894 44.7 40.9267 44.1607 40.9267H39.9551H39.8141V40.9265Z" fill="#F8AF23"/>
<path d="M19.5809 18.8507C20.482 18.8507 21.2125 18.1202 21.2125 17.219C21.2125 16.3179 20.482 15.5874 19.5809 15.5874C18.6797 15.5874 17.9492 16.3179 17.9492 17.219C17.9492 18.1202 18.6797 18.8507 19.5809 18.8507Z" fill="#F87023"/>
<path d="M31.3895 18.8507C32.2906 18.8507 33.0211 18.1202 33.0211 17.219C33.0211 16.3179 32.2906 15.5874 31.3895 15.5874C30.4883 15.5874 29.7578 16.3179 29.7578 17.219C29.7578 18.1202 30.4883 18.8507 31.3895 18.8507Z" fill="#F8AF23"/>
<path d="M25.0899 27.5637C23.7793 27.5637 22.707 26.4914 22.707 25.1809V22.5391C22.707 21.2285 23.7793 20.1562 25.0899 20.1562C26.4004 20.1562 27.4727 21.2285 27.4727 22.5391V25.1809C27.4727 26.4914 26.4004 27.5637 25.0899 27.5637Z" fill="#F8AF23"/>
<path d="M24.7607 25.1809V22.5391C24.7607 21.5961 25.3172 20.7789 26.1168 20.3934C25.8051 20.243 25.4576 20.1562 25.0898 20.1562C23.7793 20.1562 22.707 21.2285 22.707 22.5391V25.1809C22.707 26.4914 23.7793 27.5637 25.0898 27.5637C25.4574 27.5637 25.8049 27.4768 26.1168 27.3266C25.3172 26.941 24.7607 26.1238 24.7607 25.1809Z" fill="#F87023"/>
<path d="M25.6553 23.1456C22.1109 23.1456 19.2109 20.2456 19.2109 16.7013V14.1519C19.2109 10.6075 22.1109 7.70752 25.6553 7.70752C29.1996 7.70752 32.0996 10.6075 32.0996 14.1519V16.7015C32.0994 20.2458 29.1996 23.1456 25.6553 23.1456Z" fill="#F8AF23"/>
<path d="M21.2648 16.7015V14.1519C21.2648 10.9569 23.6215 8.28662 26.6822 7.79092C26.3475 7.73682 26.0047 7.70752 25.6553 7.70752C22.1109 7.70752 19.2109 10.6075 19.2109 14.1519V16.7015C19.2109 20.2458 22.1109 23.1458 25.6553 23.1458C26.0047 23.1458 26.3475 23.1167 26.6822 23.0624C23.6215 22.5667 21.2648 19.8964 21.2648 16.7015Z" fill="#F87023"/>
<path d="M23.2213 17.7868C23.5808 17.7868 23.8723 17.4954 23.8723 17.1358C23.8723 16.7763 23.5808 16.4849 23.2213 16.4849C22.8618 16.4849 22.5703 16.7763 22.5703 17.1358C22.5703 17.4954 22.8618 17.7868 23.2213 17.7868Z" fill="#3F3679"/>
<path d="M28.3072 17.7868C28.6668 17.7868 28.9582 17.4954 28.9582 17.1358C28.9582 16.7763 28.6668 16.4849 28.3072 16.4849C27.9477 16.4849 27.6562 16.7763 27.6562 17.1358C27.6562 17.4954 27.9477 17.7868 28.3072 17.7868Z" fill="#3F3679"/>
<path d="M31.2617 12.6954L31.5553 16.1473H32.0963L33.0201 11.7772C33.0201 11.7772 31.8471 11.1964 31.2617 12.6954Z" fill="#9E9E9E"/>
<path d="M19.2122 16.2932H19.8165L20.0851 14.7795C20.0851 14.7795 23.8693 14.2912 24.089 11.1174C24.089 11.1174 27.5314 15.341 33.0245 11.7766C38.5177 8.21214 29.3952 3.20726 23.2737 5.12776C23.2737 5.12776 19.4034 6.20198 17.954 9.29437C16.5044 12.3869 19.2509 13.2332 19.2122 16.2932Z" fill="#9E9E9E"/>
<path d="M20.0038 9.29492C21.4534 6.20254 25.3235 5.12832 25.3235 5.12832C25.9468 4.93281 26.6015 4.81016 27.2685 4.74941C25.9107 4.63203 24.5271 4.73399 23.2698 5.12832C23.2698 5.12832 19.3995 6.20254 17.9501 9.29492C16.5005 12.3873 19.2472 13.2338 19.2085 16.2936H19.8128L20.0813 14.7799C20.0813 14.7799 20.4507 14.7322 20.9653 14.5699C20.3067 12.7611 18.8686 11.7166 20.0038 9.29492Z" fill="#707070"/>
<path d="M14.2365 35.4286L14.3566 35.6717C14.4365 35.8336 14.591 35.9459 14.7699 35.9719L15.0382 36.011C15.4884 36.0764 15.6681 36.6295 15.3423 36.9471L15.1482 37.1364C15.0189 37.2625 14.9599 37.4442 14.9904 37.6221L15.0363 37.8895C15.1132 38.3377 14.6425 38.6797 14.24 38.468L13.9999 38.3418C13.84 38.2579 13.649 38.2579 13.4892 38.3418L13.2492 38.468C12.8466 38.6797 12.3759 38.3377 12.4529 37.8895L12.4988 37.6221C12.5292 37.4442 12.4702 37.2624 12.3409 37.1364L12.1468 36.9471C11.821 36.6295 12.0009 36.0764 12.4509 36.011L12.7193 35.9719C12.898 35.9459 13.0525 35.8336 13.1326 35.6717L13.2527 35.4286C13.4535 35.0206 14.0351 35.0206 14.2365 35.4286Z" fill="#F8AF23"/>
<path d="M19.8693 35.4286L19.9894 35.6717C20.0693 35.8336 20.2238 35.9459 20.4027 35.9719L20.671 36.011C21.1212 36.0764 21.3009 36.6295 20.9751 36.9471L20.781 37.1364C20.6517 37.2625 20.5927 37.4442 20.6232 37.6221L20.6691 37.8895C20.746 38.3377 20.2753 38.6797 19.8728 38.468L19.6327 38.3418C19.4728 38.2579 19.2818 38.2579 19.122 38.3418L18.882 38.468C18.4794 38.6797 18.0087 38.3377 18.0857 37.8895L18.1316 37.6221C18.162 37.4442 18.1031 37.2624 17.9738 37.1364L17.7796 36.9471C17.4538 36.6295 17.6337 36.0764 18.0837 36.011L18.3521 35.9719C18.5308 35.9459 18.6853 35.8336 18.7654 35.6717L18.8855 35.4286C19.0865 35.0206 19.6681 35.0206 19.8693 35.4286Z" fill="#F8AF23"/>
<path d="M25.4982 35.4286L25.6183 35.6717C25.6982 35.8336 25.8527 35.9459 26.0316 35.9719L26.2999 36.011C26.7501 36.0764 26.9298 36.6295 26.604 36.9471L26.4099 37.1364C26.2806 37.2625 26.2216 37.4442 26.2521 37.6221L26.298 37.8895C26.3749 38.3377 25.9042 38.6797 25.5017 38.468L25.2616 38.3418C25.1017 38.2579 24.9107 38.2579 24.7509 38.3418L24.5109 38.468C24.1083 38.6797 23.6376 38.3377 23.7146 37.8895L23.7605 37.6221C23.7909 37.4442 23.732 37.2624 23.6027 37.1364L23.4085 36.9471C23.0827 36.6295 23.2626 36.0764 23.7126 36.011L23.981 35.9719C24.1597 35.9459 24.3142 35.8336 24.3943 35.6717L24.5144 35.4286C24.7152 35.0206 25.2968 35.0206 25.4982 35.4286Z" fill="#F8AF23"/>
<path d="M31.131 35.4286L31.2511 35.6717C31.331 35.8336 31.4855 35.9459 31.6644 35.9719L31.9327 36.011C32.3829 36.0764 32.5626 36.6295 32.2368 36.9471L32.0427 37.1364C31.9134 37.2625 31.8544 37.4442 31.8849 37.6221L31.9308 37.8895C32.0077 38.3377 31.537 38.6797 31.1345 38.468L30.8945 38.3418C30.7345 38.2579 30.5435 38.2579 30.3837 38.3418L30.1437 38.468C29.7411 38.6797 29.2704 38.3377 29.3474 37.8895L29.3933 37.6221C29.4238 37.4442 29.3648 37.2624 29.2355 37.1364L29.0413 36.9471C28.7156 36.6295 28.8954 36.0764 29.3454 36.011L29.6138 35.9719C29.7925 35.9459 29.947 35.8336 30.0271 35.6717L30.1472 35.4286C30.348 35.0206 30.9296 35.0206 31.131 35.4286Z" fill="#F8AF23"/>
<path d="M36.7638 35.4286L36.8839 35.6717C36.9638 35.8336 37.1183 35.9459 37.2972 35.9719L37.5656 36.011C38.0158 36.0764 38.1955 36.6295 37.8697 36.9471L37.6755 37.1364C37.5462 37.2625 37.4872 37.4442 37.5177 37.6221L37.5636 37.8895C37.6406 38.3377 37.1699 38.6797 36.7673 38.468L36.5273 38.3418C36.3673 38.2579 36.1763 38.2579 36.0165 38.3418L35.7765 38.468C35.374 38.6797 34.9033 38.3377 34.9802 37.8895L35.0261 37.6221C35.0566 37.4442 34.9976 37.2624 34.8683 37.1364L34.6742 36.9471C34.3484 36.6295 34.5283 36.0764 34.9783 36.011L35.2466 35.9719C35.4253 35.9459 35.5798 35.8336 35.6599 35.6717L35.78 35.4286C35.981 35.0206 36.5626 35.0206 36.7638 35.4286Z" fill="#F8AF23"/>
<path d="M5.05859 45.0039H1.44531C1.2834 45.0039 1.15234 45.135 1.15234 45.2969C1.15234 45.4588 1.2834 45.5898 1.44531 45.5898H5.05859C5.22051 45.5898 5.35156 45.4588 5.35156 45.2969C5.35156 45.135 5.22031 45.0039 5.05859 45.0039Z" fill="#3F3679"/>
<path d="M48.5625 45.0039H44.9492C44.7875 45.0039 44.6562 45.135 44.6562 45.2969C44.6562 45.4588 44.7875 45.5898 44.9492 45.5898H48.5625C48.7242 45.5898 48.8555 45.4588 48.8555 45.2969C48.8555 45.135 48.7242 45.0039 48.5625 45.0039Z" fill="#3F3679"/>
<path d="M42.0574 45.0039H7.94141C7.77949 45.0039 7.64844 45.135 7.64844 45.2969C7.64844 45.4588 7.77949 45.5898 7.94141 45.5898H42.0574C42.2191 45.5898 42.3504 45.4588 42.3504 45.2969C42.3504 45.135 42.2191 45.0039 42.0574 45.0039Z" fill="#3F3679"/>
<path d="M1.44531 43.2939H2.99688C3.15879 43.2939 3.28984 43.1629 3.28984 43.001C3.28984 42.8391 3.15879 42.708 2.99688 42.708H1.44531C1.2834 42.708 1.15234 42.8391 1.15234 43.001C1.15234 43.1629 1.2834 43.2939 1.44531 43.2939Z" fill="#3F3679"/>
<path d="M47.0039 43.2939H48.5553C48.717 43.2939 48.8482 43.1629 48.8482 43.001C48.8482 42.8391 48.717 42.708 48.5553 42.708H47.0039C46.8422 42.708 46.7109 42.8391 46.7109 43.001C46.7109 43.1629 46.8422 43.2939 47.0039 43.2939Z" fill="#3F3679"/>
<path d="M45.2404 43.0013C45.2404 42.8394 45.1092 42.7083 44.9475 42.7083H43.751C43.8779 42.5107 43.9525 42.2765 43.9525 42.0247V41.2191H44.1606C44.8606 41.2191 45.4301 40.6495 45.4301 39.9495V34.4128C45.4301 33.7591 44.9672 33.2275 44.3983 33.2275C44.2385 33.2275 44.0877 33.2706 43.9525 33.3454V31.6304C43.9525 30.9304 43.383 30.3609 42.683 30.3609H37.5865C36.0973 26.6193 32.4133 24.1132 28.3783 24.1132H27.7729V23.0964C29.708 22.4544 31.2566 20.9583 31.9686 19.0558C32.7699 18.807 33.3176 18.0722 33.3176 17.2191C33.3176 16.5966 33.008 16.0115 32.5049 15.6529L33.2869 11.9534C35.3992 10.5294 35.1168 9.03215 34.7529 8.2593C33.4926 5.58098 27.657 3.44602 23.1955 4.84583C23.0322 4.89114 19.1783 5.9927 17.6889 9.17044C16.7912 11.0855 17.4231 12.2595 18.0342 13.3947C18.3668 14.0124 18.7078 14.6462 18.8506 15.4404C18.1328 15.7355 17.6613 16.4296 17.6613 17.2191C17.6613 18.2081 18.4049 19.0241 19.3744 19.1302C19.9508 20.6159 21.0381 21.8484 22.4213 22.6089V24.1132H21.6305C17.5932 24.1132 13.9121 26.6185 12.4223 30.3609H7.32559C6.62559 30.3609 6.05605 30.9304 6.05605 31.6304V33.3456C5.9207 33.2706 5.76992 33.2275 5.60996 33.2275C5.04102 33.2275 4.57812 33.7593 4.57812 34.4128V39.9495C4.57812 40.6495 5.14766 41.2191 5.84766 41.2191H6.05605V42.0247C6.05605 42.2765 6.13066 42.5107 6.25762 42.7083H5.06074C4.89883 42.7083 4.76777 42.8394 4.76777 43.0013C4.76777 43.1632 4.89883 43.2943 5.06074 43.2943H7.32578H42.683H44.9477C45.1092 43.2943 45.2404 43.163 45.2404 43.0013ZM44.3983 33.8134C44.6399 33.8134 44.8441 34.088 44.8441 34.4128V39.9495C44.8441 40.3265 44.5375 40.6331 44.1606 40.6331H39.8137C39.4969 40.6331 39.2395 40.3853 39.2184 40.0738H42.4205C42.5822 40.0738 42.7135 39.9427 42.7135 39.7808C42.7135 39.6189 42.5822 39.4878 42.4205 39.4878H39.2143V38.7716H42.4205C42.5822 38.7716 42.7135 38.6406 42.7135 38.4786C42.7135 38.3167 42.5822 38.1857 42.4205 38.1857H39.2143V37.4695H42.4205C42.5822 37.4695 42.7135 37.3384 42.7135 37.1765C42.7135 37.0146 42.5822 36.8835 42.4205 36.8835H39.2143V36.7667C39.2143 36.4365 39.483 36.1677 39.8133 36.1677H43.659C43.8207 36.1677 43.952 36.0366 43.952 35.8747V35.1745C43.952 35.174 43.9522 35.1734 43.9522 35.1726V34.4105C43.9535 34.0865 44.1572 33.8134 44.3983 33.8134ZM31.8635 15.854H31.8289L31.5762 12.8833C31.9082 12.7433 32.2496 12.5736 32.5986 12.3757L31.8635 15.854ZM32.2053 18.28C32.3273 17.7734 32.3939 17.245 32.3939 16.7015V16.3324C32.6086 16.5732 32.7316 16.8841 32.7316 17.2191C32.7316 17.6497 32.5283 18.0337 32.2053 18.28ZM18.2195 9.41926C19.5932 6.4886 23.315 5.42083 23.3617 5.40774C27.5039 4.10813 33.0822 6.08489 34.2227 8.50872C34.8607 9.86458 33.8365 10.9007 32.8652 11.5312C27.784 14.8282 24.5981 11.2661 24.3318 10.9511L22.7195 8.04583C22.641 7.90442 22.4629 7.85325 22.3211 7.93196C22.1797 8.01047 22.1287 8.18879 22.2072 8.3304L23.7887 11.1802C23.682 12.3437 23.0418 13.2497 21.8816 13.8728C20.9658 14.3648 20.0564 14.4882 20.0475 14.4896C19.9207 14.5062 19.8191 14.6031 19.7967 14.7288L19.5711 16.0007H19.5008C19.4471 14.7837 18.9725 13.9021 18.55 13.1173C17.9336 11.9718 17.4469 11.0673 18.2195 9.41926ZM18.2471 17.2191C18.2471 16.7308 18.5086 16.2978 18.9168 16.0628C18.9195 16.137 18.9205 16.2126 18.9195 16.2898V16.7015C18.9195 17.3202 19.0051 17.9193 19.1621 18.4888C18.6279 18.3116 18.2471 17.8095 18.2471 17.2191ZM19.5055 16.7015V16.5865H19.8168C19.959 16.5865 20.0805 16.4845 20.1053 16.3447L20.3377 15.0341C20.685 14.9665 21.4033 14.7915 22.1426 14.3976C23.309 13.7761 24.0436 12.8648 24.2949 11.7392C25.2283 12.5816 27.6234 14.2478 31.0066 13.0986L31.268 16.172C31.2807 16.3236 31.4076 16.4402 31.5598 16.4402H31.808V16.7017C31.808 20.0935 29.0486 22.8531 25.6568 22.8531C22.265 22.8531 19.5055 20.0933 19.5055 16.7015ZM25.6568 23.4386C26.1832 23.4386 26.6949 23.3759 27.1869 23.2613V25.1812C27.1869 26.3335 26.2492 27.271 25.0969 27.271C23.9445 27.271 23.007 26.3335 23.007 25.1812V22.8948C23.8209 23.2445 24.7164 23.4386 25.6568 23.4386ZM21.6303 24.6991H22.4211V25.1812C22.4211 26.6566 23.6215 27.857 25.0969 27.857C26.5723 27.857 27.7729 26.6566 27.7729 25.1812V24.6991H28.3783C32.0969 24.6991 35.4992 26.9603 36.9543 30.3609H13.0545C14.5096 26.9597 17.9098 24.6991 21.6303 24.6991ZM5.16406 39.9495V34.4128C5.16406 34.0878 5.36816 33.8134 5.60996 33.8134C5.85176 33.8134 6.05586 34.088 6.05586 34.4128V35.8745C6.05586 36.0365 6.18691 36.1675 6.34883 36.1675H10.1945C10.5248 36.1675 10.7936 36.4363 10.7936 36.7665V36.8833H7.5875C7.42559 36.8833 7.29453 37.0144 7.29453 37.1763C7.29453 37.3382 7.42559 37.4693 7.5875 37.4693H10.7938V38.1855H7.5875C7.42559 38.1855 7.29453 38.3165 7.29453 38.4784C7.29453 38.6404 7.42559 38.7714 7.5875 38.7714H10.7938V39.4876H7.5875C7.42559 39.4876 7.29453 39.6187 7.29453 39.7806C7.29453 39.9425 7.42559 40.0736 7.5875 40.0736H10.7896C10.7688 40.3853 10.5111 40.6329 10.1943 40.6329H5.84766C5.4707 40.6331 5.16406 40.3263 5.16406 39.9495ZM7.32559 42.7083C6.94863 42.7083 6.64199 42.4017 6.64199 42.0247V41.2191H10.1943C10.8479 41.2191 11.3795 40.6872 11.3795 40.0337V36.7667C11.3795 36.1132 10.8479 35.5818 10.1945 35.5818H6.6418V35.0605C6.6418 35.0599 6.64199 35.0593 6.64199 35.0585V31.6304C6.64199 31.2534 6.94863 30.9468 7.32559 30.9468H42.6828C43.0598 30.9468 43.3664 31.2534 43.3664 31.6304V34.4085C43.3664 34.4099 43.3662 34.4115 43.3662 34.4128V35.5816H39.8135C39.16 35.5816 38.6285 36.1132 38.6285 36.7665V40.0335C38.6285 40.687 39.1604 41.2189 39.8137 41.2189H43.3664V42.0245C43.3664 42.4015 43.0598 42.7081 42.6828 42.7081H7.32559V42.7083Z" fill="#3F3679"/>
<path d="M25.6562 19.2818C25.818 19.2818 25.9492 19.1508 25.9492 18.9889V17.5078C25.9492 17.3459 25.818 17.2148 25.6562 17.2148C25.4945 17.2148 25.3633 17.3459 25.3633 17.5078V18.9889C25.3633 19.1506 25.4945 19.2818 25.6562 19.2818Z" fill="#3F3679"/>
<path d="M24.8164 15.5874C24.8164 15.4255 24.6854 15.2944 24.5234 15.2944H21.6914C21.5295 15.2944 21.3984 15.4255 21.3984 15.5874C21.3984 15.7493 21.5295 15.8804 21.6914 15.8804H24.5234C24.6852 15.8804 24.8164 15.7493 24.8164 15.5874Z" fill="#3F3679"/>
<path d="M26.7852 15.8804H29.6172C29.7789 15.8804 29.9102 15.7493 29.9102 15.5874C29.9102 15.4255 29.7789 15.2944 29.6172 15.2944H26.7852C26.6234 15.2944 26.4922 15.4255 26.4922 15.5874C26.4922 15.7493 26.6234 15.8804 26.7852 15.8804Z" fill="#3F3679"/>
<path d="M26.9754 19.9873C26.8606 19.8737 26.675 19.8748 26.5612 19.9899C25.6125 20.9506 24.5002 20.0713 24.4508 20.0313C24.3254 19.9291 24.1414 19.9475 24.0391 20.0723C23.9366 20.1975 23.9547 20.3821 24.0797 20.4846C24.3871 20.7369 24.9426 21.0248 25.5606 21.0248C26.0243 21.0248 26.5231 20.8625 26.9784 20.4016C27.0916 20.2866 27.0907 20.101 26.9754 19.9873Z" fill="#3F3679"/>
<path d="M15.0727 35.721L14.8044 35.6819C14.721 35.6698 14.6489 35.6175 14.6118 35.5419L14.4917 35.2987C14.3489 35.0095 14.0596 34.8296 13.7368 34.8296C13.4141 34.8296 13.1249 35.0095 12.9819 35.2989L12.862 35.5421C12.8249 35.6177 12.7526 35.67 12.6694 35.6821L12.401 35.7212C12.0817 35.7677 11.8212 35.9872 11.7216 36.2942C11.6217 36.6011 11.7034 36.9317 11.9344 37.1569L12.1288 37.3462C12.1891 37.405 12.2165 37.4896 12.2022 37.5726L12.1563 37.8399C12.1018 38.1581 12.2301 38.4735 12.4913 38.6632C12.7522 38.8528 13.0923 38.8772 13.3778 38.7272L13.618 38.6011C13.6926 38.5618 13.7815 38.5618 13.8561 38.6011L14.0962 38.7272C14.2204 38.7925 14.3549 38.8249 14.4887 38.8249C14.6626 38.8249 14.8352 38.7704 14.9827 38.6632C15.2438 38.4733 15.3721 38.1579 15.3174 37.8399L15.2717 37.5724C15.2575 37.4896 15.2848 37.405 15.3454 37.346L15.5395 37.1567C15.7708 36.9313 15.8522 36.6007 15.7526 36.2938C15.6526 35.9868 15.3923 35.7673 15.0727 35.721ZM15.1301 36.737L14.936 36.9263C14.7374 37.1196 14.6469 37.3983 14.6938 37.6714L14.7395 37.9388C14.7639 38.0802 14.6764 38.1608 14.6378 38.189C14.5991 38.2171 14.4952 38.2751 14.3684 38.2085L14.1284 38.0823C13.8829 37.9532 13.5901 37.953 13.345 38.0823L13.105 38.2085C12.9782 38.2753 12.8743 38.2171 12.8356 38.189C12.7969 38.1608 12.7094 38.0802 12.7339 37.9388L12.7798 37.6714C12.8266 37.3983 12.736 37.1198 12.5376 36.9263L12.3432 36.737C12.2405 36.6368 12.2637 36.5204 12.2786 36.4749C12.2934 36.4294 12.343 36.3214 12.4852 36.3007L12.7538 36.2616C13.028 36.2216 13.2649 36.0495 13.3876 35.8011L13.5075 35.5579C13.571 35.4292 13.6891 35.4153 13.7368 35.4153C13.7846 35.4153 13.9028 35.4292 13.9663 35.5579L14.0864 35.8011C14.2091 36.0493 14.4458 36.2216 14.7202 36.2614L14.9887 36.3005C15.1307 36.3212 15.1805 36.4292 15.1952 36.4745C15.2098 36.5202 15.2331 36.637 15.1301 36.737Z" fill="#3F3679"/>
<path d="M20.7058 35.7208L20.4375 35.6817C20.3541 35.6696 20.282 35.6173 20.2447 35.5419L20.1248 35.2987C19.982 35.0095 19.6928 34.8296 19.3699 34.8296C19.0471 34.8296 18.7578 35.0095 18.615 35.2987L18.4949 35.5419C18.4578 35.6175 18.3855 35.6698 18.3023 35.6819L18.0338 35.721C17.7144 35.7675 17.4541 35.9868 17.3543 36.2938C17.2547 36.6007 17.3361 36.9313 17.5672 37.1567L17.7615 37.346C17.8219 37.4048 17.8494 37.4894 17.8349 37.5726L17.7892 37.8397C17.7347 38.1579 17.8629 38.4733 18.124 38.6632C18.2717 38.7704 18.4441 38.8249 18.618 38.8249C18.7517 38.8249 18.8863 38.7925 19.0103 38.7272L19.2504 38.6011C19.325 38.5618 19.4138 38.5618 19.4885 38.6011L19.7285 38.7272C20.0142 38.8774 20.3539 38.853 20.615 38.6632C20.8762 38.4735 21.0045 38.1581 20.95 37.8397L20.9041 37.5726C20.8898 37.4896 20.9174 37.4048 20.9775 37.346L21.1719 37.1567C21.4029 36.9315 21.4845 36.6009 21.3847 36.294C21.2857 35.9866 21.0254 35.7671 20.7058 35.7208ZM20.7635 36.7368L20.5691 36.9261C20.3707 37.1196 20.2803 37.3981 20.3269 37.6712L20.3728 37.9384C20.3972 38.08 20.3097 38.1605 20.2711 38.1886C20.2322 38.2167 20.1287 38.2747 20.0015 38.2081L19.7617 38.0819C19.5162 37.953 19.2234 37.9526 18.9781 38.0819L18.7381 38.2081C18.6111 38.2749 18.5074 38.2167 18.4687 38.1886C18.4301 38.1605 18.3426 38.0798 18.367 37.9384L18.4127 37.6712C18.4596 37.398 18.3691 37.1192 18.1707 36.9259L17.9763 36.7366C17.8736 36.6364 17.8969 36.5198 17.9117 36.4743C17.9263 36.429 17.9762 36.321 18.1181 36.3003L18.3867 36.2612C18.6609 36.2212 18.8976 36.0491 19.0203 35.8009L19.1404 35.5577C19.2039 35.429 19.3221 35.4151 19.3699 35.4151C19.4178 35.4151 19.5357 35.429 19.5992 35.5577L19.7191 35.8011C19.8418 36.0493 20.0787 36.2216 20.3529 36.2614L20.6213 36.3005C20.7635 36.3212 20.8131 36.4292 20.8279 36.4747C20.8428 36.5202 20.8662 36.6368 20.7635 36.7368Z" fill="#3F3679"/>
<path d="M26.3344 35.721L26.0661 35.6819C25.9827 35.6698 25.9106 35.6173 25.8733 35.5421L25.7534 35.2989C25.6108 35.0095 25.3214 34.8296 24.9987 34.8296C24.6758 34.8296 24.3866 35.0095 24.2438 35.2987L24.1237 35.5419C24.0866 35.6175 24.0143 35.6698 23.9311 35.6819L23.6628 35.721C23.3434 35.7675 23.0829 35.987 22.9833 36.294C22.8835 36.6009 22.9651 36.9316 23.1962 37.1567L23.3905 37.346C23.4508 37.4048 23.4782 37.4894 23.4639 37.5724L23.418 37.8398C23.3635 38.1579 23.4919 38.4734 23.753 38.663C23.9005 38.7702 24.0731 38.8247 24.2469 38.8247C24.3807 38.8247 24.5153 38.7923 24.6395 38.7271L24.8796 38.6009C24.9542 38.5616 25.043 38.5616 25.1176 38.6009L25.3577 38.7271C25.6436 38.8775 25.9829 38.8528 26.2442 38.663C26.5053 38.4734 26.6337 38.1579 26.5792 37.8398L26.5335 37.5724C26.5192 37.4894 26.5465 37.4046 26.6069 37.346L26.8012 37.1566C27.0325 36.9314 27.1139 36.6007 27.0141 36.2939C26.9141 35.9868 26.6538 35.7673 26.3344 35.721ZM26.3921 36.737L26.1977 36.9265C25.9993 37.1198 25.9089 37.3985 25.9557 37.6716L26.0014 37.939C26.0256 38.0806 25.9383 38.161 25.8997 38.1892C25.8612 38.2173 25.7577 38.2757 25.6303 38.2087L25.3903 38.0825C25.2676 38.0181 25.1331 37.9857 24.9985 37.9857C24.8639 37.9857 24.7294 38.0181 24.6069 38.0825L24.3669 38.2087C24.2401 38.2755 24.1362 38.2173 24.0975 38.1892C24.0589 38.161 23.9714 38.0804 23.9958 37.939L24.0417 37.6716C24.0885 37.3985 23.9979 37.12 23.7997 36.9265L23.6053 36.7372C23.5026 36.637 23.5258 36.5206 23.5405 36.4751C23.5551 36.4296 23.605 36.3216 23.7471 36.3009L24.0157 36.2618C24.2899 36.2218 24.5268 36.0497 24.6495 35.8015L24.7696 35.5581C24.8331 35.4294 24.9512 35.4155 24.9989 35.4155C25.0465 35.4155 25.1647 35.4294 25.2284 35.5581L25.3483 35.8017C25.4712 36.0499 25.7081 36.222 25.9821 36.2618L26.2505 36.3009C26.3926 36.3216 26.4421 36.4296 26.4571 36.4751C26.4713 36.5202 26.4946 36.637 26.3921 36.737Z" fill="#3F3679"/>
<path d="M31.967 35.7213L31.6987 35.6822C31.6153 35.6701 31.5434 35.6178 31.5061 35.5424L31.3862 35.2992C31.2434 35.0098 30.954 34.8301 30.6313 34.8301C30.3088 34.8301 30.0194 35.0098 29.8766 35.2994L29.7567 35.5426C29.7194 35.6182 29.6471 35.6705 29.5639 35.6826L29.2956 35.7217C28.976 35.7682 28.7157 35.9877 28.6161 36.2945C28.5163 36.6016 28.5979 36.9322 28.8292 37.1574L29.0233 37.3467C29.0837 37.4055 29.111 37.49 29.0967 37.5732L29.051 37.8406C28.9965 38.1588 29.1249 38.4742 29.386 38.6639C29.6471 38.8535 29.9864 38.8781 30.2725 38.7279L30.5126 38.6018C30.587 38.5625 30.676 38.5627 30.7508 38.6018L30.9909 38.7279C31.1153 38.7932 31.2497 38.8256 31.3835 38.8256C31.5573 38.8256 31.7297 38.7711 31.8774 38.6639C32.1385 38.4742 32.2668 38.1588 32.2124 37.8404L32.1665 37.5732C32.1522 37.4902 32.1797 37.4057 32.2401 37.3467L32.4342 37.1574C32.6655 36.9322 32.7471 36.6016 32.6473 36.2947C32.5475 35.9879 32.2866 35.7676 31.967 35.7213ZM32.0247 36.7373L31.8305 36.9266C31.6319 37.1201 31.5417 37.3986 31.5883 37.6719L31.6342 37.9391C31.6585 38.0807 31.5711 38.1611 31.5325 38.1893C31.494 38.2174 31.3909 38.2758 31.2629 38.2088L31.0229 38.0826C30.7778 37.9537 30.4848 37.9535 30.2393 38.0826L29.9993 38.2088C29.8719 38.276 29.7684 38.2174 29.7299 38.1893C29.6913 38.1611 29.6038 38.0805 29.6282 37.9391L29.6739 37.6717C29.7206 37.3986 29.6301 37.1199 29.4319 36.9266L29.2378 36.7373C29.135 36.6371 29.1583 36.5205 29.1729 36.475C29.1878 36.4297 29.2374 36.3217 29.3796 36.301L29.6479 36.2619C29.9221 36.2219 30.1592 36.0498 30.2817 35.8014L30.4016 35.5582C30.4653 35.4295 30.5835 35.4156 30.6311 35.4156C30.679 35.4156 30.7971 35.4295 30.8608 35.5582L30.9807 35.8014C31.1032 36.0496 31.3401 36.2219 31.6143 36.2617L31.8827 36.3008C32.0249 36.3215 32.0745 36.4295 32.0893 36.475C32.1042 36.5207 32.1274 36.6373 32.0247 36.7373Z" fill="#3F3679"/>
<path d="M37.5998 35.7213L37.3314 35.6822C37.248 35.6701 37.176 35.6178 37.1386 35.5424L37.0187 35.2992C36.876 35.0098 36.5865 34.8301 36.264 34.8301C35.9414 34.8301 35.6519 35.0098 35.5092 35.2994L35.3892 35.5426C35.3519 35.6182 35.2799 35.6705 35.1967 35.6826L34.9283 35.7217C34.6088 35.7682 34.3484 35.9877 34.2488 36.2947C34.1492 36.6018 34.2306 36.9322 34.4619 37.1574L34.656 37.3467C34.7164 37.4055 34.7439 37.4902 34.7297 37.573L34.6838 37.8406C34.6293 38.1588 34.7576 38.4742 35.0187 38.6639C35.1664 38.7711 35.339 38.8256 35.5127 38.8256C35.6465 38.8256 35.7808 38.7932 35.9051 38.7279L36.1453 38.6017C36.2195 38.5625 36.3088 38.5623 36.3834 38.6017L36.6234 38.7279C36.9094 38.8783 37.2486 38.8537 37.5099 38.6639C37.7711 38.4742 37.8994 38.1588 37.8449 37.8406L37.7992 37.5732C37.7849 37.4902 37.8123 37.4055 37.8726 37.3467L38.0668 37.1574C38.298 36.9322 38.3797 36.6016 38.2799 36.2945C38.1797 35.9871 37.9193 35.7676 37.5998 35.7213ZM37.6572 36.7373L37.4631 36.9266C37.2646 37.1199 37.1742 37.3986 37.2211 37.6717L37.2668 37.9391C37.291 38.0807 37.2037 38.1611 37.165 38.1892C37.1265 38.2174 37.0228 38.2758 36.8957 38.2088L36.6556 38.0826C36.5328 38.018 36.3984 37.9857 36.2636 37.9857C36.1293 37.9857 35.9947 38.018 35.8722 38.0826L35.632 38.2088C35.5047 38.276 35.4011 38.2174 35.3627 38.1892C35.324 38.1611 35.2365 38.0805 35.2609 37.9392L35.3068 37.6717C35.3535 37.3986 35.2631 37.1201 35.0646 36.9266L34.8705 36.7373C34.7678 36.6371 34.791 36.5207 34.8058 36.4752C34.8205 36.4297 34.8703 36.3217 35.0125 36.301L35.2808 36.2619C35.5551 36.2219 35.792 36.0498 35.9144 35.8014L36.0344 35.5582C36.098 35.4295 36.2162 35.4156 36.264 35.4156C36.3117 35.4156 36.4299 35.4295 36.4935 35.5582L36.6135 35.8014C36.7359 36.0496 36.973 36.2219 37.2472 36.2617L37.5156 36.3008C37.6578 36.3215 37.7072 36.4295 37.7222 36.4748C37.7367 36.5205 37.7599 36.6371 37.6572 36.7373Z" fill="#3F3679"/>
</svg>
