<svg width="16" height="16" viewBox="0 0 16 16" fill="none" xmlns="http://www.w3.org/2000/svg">
<path fill-rule="evenodd" clip-rule="evenodd" d="M7.83359 0.666748C9.74893 0.666748 11.5489 1.41141 12.9009 2.76408C15.6956 5.55875 15.6956 10.1054 12.9009 12.9001C11.5309 14.2707 9.68626 14.9961 7.81759 14.9961C6.79893 14.9961 5.77359 14.7807 4.81426 14.3367C4.53159 14.2234 4.26693 14.1167 4.07693 14.1167C3.85826 14.1181 3.56426 14.2194 3.28026 14.3174C2.69759 14.5174 1.97226 14.7667 1.43559 14.2321C0.900927 13.6967 1.14759 12.9734 1.34626 12.3914C1.44426 12.1047 1.54493 11.8087 1.54493 11.5847C1.54493 11.4007 1.45626 11.1661 1.32026 10.8281C0.0715935 8.13141 0.648927 4.88141 2.76693 2.76475C4.11893 1.41208 5.91826 0.666748 7.83359 0.666748ZM7.83426 1.66675C6.18559 1.66675 4.63693 2.30808 3.47359 3.47208C1.65093 5.29342 1.15493 8.09008 2.23826 10.4321C2.39426 10.8181 2.54493 11.1941 2.54493 11.5847C2.54493 11.9747 2.41093 12.3674 2.29293 12.7141C2.19559 12.9994 2.04826 13.4301 2.14293 13.5247C2.23559 13.6207 2.66893 13.4694 2.95493 13.3714C3.29826 13.2541 3.68759 13.1194 4.07359 13.1167C4.46026 13.1167 4.82493 13.2634 5.21093 13.4187C7.57559 14.5121 10.3723 14.0147 12.1943 12.1934C14.5983 9.78808 14.5983 5.87541 12.1943 3.47142C11.0303 2.30741 9.48226 1.66675 7.83426 1.66675ZM10.4655 7.44188C10.8335 7.44188 11.1322 7.73988 11.1322 8.10855C11.1322 8.47721 10.8335 8.77522 10.4655 8.77522C10.0975 8.77522 9.79619 8.47721 9.79619 8.10855C9.79619 7.73988 10.0915 7.44188 10.4595 7.44188H10.4655ZM7.79299 7.44188C8.16099 7.44188 8.45966 7.73988 8.45966 8.10855C8.45966 8.47721 8.16099 8.77522 7.79299 8.77522C7.42499 8.77522 7.12366 8.47721 7.12366 8.10855C7.12366 7.73988 7.41833 7.44188 7.78699 7.44188H7.79299ZM5.12019 7.44188C5.48819 7.44188 5.78686 7.73988 5.78686 8.10855C5.78686 8.47721 5.48819 8.77522 5.12019 8.77522C4.75219 8.77522 4.45086 8.47721 4.45086 8.10855C4.45086 7.73988 4.74619 7.44188 5.11419 7.44188H5.12019Z" fill="#8A63D8"/>
</svg>
