<svg width="19" height="17" viewBox="0 0 19 17" fill="none" xmlns="http://www.w3.org/2000/svg">
<path d="M13.4553 1.00027H15.8112C16.3105 0.992719 16.7958 1.14226 17.1748 1.42051C17.5537 1.69876 17.8001 2.08635 17.867 2.50971V7.79273C17.8001 8.21608 17.5537 8.60367 17.1748 8.88192C16.7958 9.16017 16.3105 9.30971 15.8112 9.30216H13.4553M7.27881 10.8116V13.8305C7.27881 14.431 7.55769 15.0068 8.05411 15.4315C8.55053 15.8561 9.22382 16.0946 9.92587 16.0946L13.4553 9.30216V1.00027H3.50234C3.07675 0.996158 2.66377 1.12374 2.33948 1.35951C2.01519 1.59529 1.80144 1.92336 1.73763 2.28329L0.519983 9.07574C0.481594 9.29208 0.498653 9.51297 0.569978 9.7231C0.641302 9.93324 0.765187 10.1276 0.933049 10.2927C1.10091 10.4578 1.30874 10.5898 1.54213 10.6794C1.77552 10.7689 2.02889 10.8141 2.28469 10.8116H7.27881Z" stroke="#B8B5BF" stroke-linecap="round" stroke-linejoin="round"/>
</svg>
