<svg width="19" height="17" viewBox="0 0 19 17" fill="none" xmlns="http://www.w3.org/2000/svg">
<path d="M4.91176 7.79245L8.44118 1C9.14322 1 9.81651 1.23854 10.3129 1.66315C10.8093 2.08777 11.0882 2.66366 11.0882 3.26415V6.28302H16.0824C16.3382 6.28054 16.5915 6.32566 16.8249 6.41526C17.0583 6.50485 17.2661 6.63678 17.434 6.8019C17.6019 6.96701 17.7257 7.16137 17.7971 7.37151C17.8684 7.58165 17.8854 7.80253 17.8471 8.01887L16.6294 14.8113C16.5656 15.1712 16.3519 15.4993 16.0276 15.7351C15.7033 15.9709 15.2903 16.0985 14.8647 16.0943H4.91176M4.91176 7.79245V16.0943M4.91176 7.79245H2.26471C1.79668 7.79245 1.34782 7.95148 1.01687 8.23456C0.685924 8.51763 0.5 8.90156 0.5 9.30189V14.5849C0.5 14.9852 0.685924 15.3692 1.01687 15.6522C1.34782 15.9353 1.79668 16.0943 2.26471 16.0943H4.91176" stroke="#726B85" stroke-linecap="round" stroke-linejoin="round"/>
</svg>
