<svg width="31" height="30" viewBox="0 0 31 30" fill="none" xmlns="http://www.w3.org/2000/svg">
<path d="M26.8584 20.4609C26.7295 20.332 26.5303 20.332 26.4131 20.4609L20.6006 26.2734C20.4717 26.4023 20.4717 26.6016 20.6006 26.7188L21.6318 27.75L27.8897 21.4922L26.8584 20.4609Z" fill="#E9E9EA"/>
<path d="M29.7764 22.3008L28.8389 21.3633C28.6162 21.1406 28.2412 21.1406 28.0186 21.3633L21.5967 27.7734C21.374 27.9961 21.374 28.3711 21.5967 28.5938L22.5342 29.5313C22.7568 29.7539 23.1318 29.7539 23.3545 29.5313L29.7764 23.1094C30.0107 22.8867 30.0107 22.5234 29.7764 22.3008Z" fill="url(#paint0_linear)"/>
<path d="M24.293 19.1602C23.5781 18.4453 23.3672 17.7891 23.0859 17.2969C22.8867 16.9102 22.6289 16.5469 22.3125 16.2422L18.7734 12.7031C18.3867 12.3164 17.7656 12.3164 17.3906 12.7031C17.0156 13.0898 17.0039 13.7109 17.3906 14.0859C17.0039 13.6992 16.3828 13.6992 16.0078 14.0859C15.6328 14.4727 15.6211 15.0937 16.0078 15.4687C15.6211 15.082 15 15.082 14.625 15.4687C14.25 15.8555 14.2383 16.4766 14.625 16.8516L11.7773 14.0039C11.3906 13.6289 10.7812 13.6289 10.3945 14.0039C10.0195 14.3906 10.0195 15 10.3945 15.3867L14.9062 19.9102C14.4844 19.4883 13.793 19.4883 13.3594 19.9102C12.9258 20.332 12.9375 21.0234 13.3594 21.457L14.3203 22.418C15.0469 23.1445 15.9727 23.625 16.9687 23.8125C17.7891 24.0352 18.7734 23.8711 20.0508 25.0547L20.9414 25.9219L25.9922 20.8711L24.293 19.1602Z" fill="#F9D0B4"/>
<path d="M19.3018 8.4962C19.3955 8.40245 19.3955 8.2501 19.3018 8.14464C19.2666 8.10948 19.2197 8.08604 19.1611 8.07432L13.1846 7.20714C13.1026 7.19542 13.0322 7.14854 12.9971 7.07823L10.3252 1.66417C10.2666 1.54698 10.1143 1.48839 9.99708 1.5587C9.95021 1.58214 9.91505 1.61729 9.89161 1.66417L7.21974 7.07823C7.18458 7.14854 7.11427 7.19542 7.03224 7.20714L1.05568 8.07432C0.92677 8.09776 0.83302 8.21495 0.844739 8.35557C0.856458 8.41417 0.879895 8.46104 0.915051 8.4962L5.23927 12.7149C5.29786 12.7735 5.3213 12.8556 5.30958 12.9259L4.29005 18.879C4.26661 19.0079 4.36036 19.1368 4.48927 19.1603C4.54786 19.172 4.59474 19.1603 4.64161 19.1368L9.98536 16.3243C10.0557 16.2892 10.1377 16.2892 10.208 16.3243L12.5283 17.5431L10.3721 15.3868C9.99708 15.0001 9.99708 14.379 10.3838 14.004C10.7588 13.629 11.3682 13.629 11.7549 14.004L14.6026 16.8517C14.2158 16.4649 14.2158 15.8556 14.6026 15.4689C14.7783 15.2931 15.0127 15.1876 15.2705 15.1759L14.8838 12.9142C14.8721 12.8321 14.8955 12.7501 14.9541 12.7032L19.3018 8.4962Z" fill="#FFCD29"/>
<path d="M9.66797 19.6055H9.45703V19.3945C9.45703 19.2305 9.32813 19.1016 9.16406 19.1016C9 19.1016 8.87109 19.2305 8.87109 19.3945V19.6055H8.66016C8.49609 19.6055 8.36719 19.7344 8.36719 19.8984C8.36719 20.0625 8.49609 20.1914 8.66016 20.1914H8.87109V20.4023C8.87109 20.5664 9 20.6953 9.16406 20.6953C9.32813 20.6953 9.45703 20.5664 9.45703 20.4023V20.1914H9.66797C9.83203 20.1914 9.96094 20.0625 9.96094 19.8984C9.96094 19.7344 9.83203 19.6055 9.66797 19.6055Z" fill="#FFCD29"/>
<path d="M16.3008 0.234375C16.3008 0.210938 16.2891 0.199219 16.2891 0.175781C16.2773 0.152344 16.2773 0.140625 16.2656 0.128906C16.2539 0.117188 16.2422 0.09375 16.2305 0.0820312C16.1133 -0.0234375 15.9375 -0.0234375 15.8203 0.0820312C15.8086 0.09375 15.7969 0.105469 15.7852 0.128906C15.7734 0.140625 15.7617 0.164062 15.7617 0.175781C15.75 0.199219 15.75 0.210938 15.75 0.234375C15.75 0.257812 15.75 0.269531 15.7383 0.292969C15.7383 0.316406 15.7383 0.328125 15.75 0.351562C15.75 0.375 15.7617 0.386719 15.7617 0.410156C15.7734 0.421875 15.7734 0.445312 15.7852 0.457031C15.7969 0.46875 15.8086 0.492188 15.8203 0.503906C15.9375 0.621094 16.1133 0.621094 16.2305 0.503906C16.2422 0.492188 16.2539 0.480469 16.2656 0.457031C16.2773 0.445312 16.2891 0.421875 16.2891 0.410156C16.3008 0.398438 16.3008 0.375 16.3008 0.351562C16.3008 0.328125 16.3125 0.316406 16.3125 0.292969C16.3125 0.269531 16.3008 0.246094 16.3008 0.234375Z" fill="#6DCC6D"/>
<path d="M10.2549 24.7969C10.2432 24.7617 10.2314 24.7266 10.208 24.6914C10.1963 24.6797 10.1846 24.6562 10.1729 24.6445C10.0557 24.5391 9.87988 24.5391 9.7627 24.6445C9.75098 24.6562 9.73926 24.668 9.72754 24.6914C9.71582 24.7031 9.7041 24.7266 9.7041 24.7383C9.69238 24.7617 9.69238 24.7734 9.69238 24.7969C9.68066 24.832 9.68066 24.8789 9.69238 24.9141C9.69238 24.9375 9.7041 24.9492 9.7041 24.9727C9.71582 24.9844 9.71582 25.0078 9.72754 25.0195C9.73926 25.0312 9.75098 25.0547 9.7627 25.0664C9.87988 25.1836 10.0557 25.1836 10.1729 25.0664C10.1846 25.0547 10.1963 25.043 10.208 25.0195C10.2197 25.0078 10.2314 24.9844 10.2314 24.9727C10.2432 24.9609 10.2432 24.9375 10.2432 24.9141C10.2666 24.8672 10.2666 24.832 10.2549 24.7969Z" fill="#FF6489"/>
<path d="M14.8681 1.93359C14.3877 1.83984 14.0244 1.46484 13.9306 0.996094C13.9306 0.984375 13.9189 0.972656 13.9072 0.972656C13.8955 0.972656 13.8955 0.984375 13.8838 0.996094C13.79 1.47656 13.415 1.83984 12.9463 1.93359C12.9345 1.93359 12.9228 1.94531 12.9345 1.95703C12.9345 1.96875 12.9463 1.96875 12.9463 1.96875C13.4267 2.0625 13.79 2.4375 13.8838 2.90625C13.8838 2.91797 13.8955 2.92969 13.9072 2.92969C13.9189 2.92969 13.9189 2.91797 13.9306 2.90625C14.0244 2.42578 14.3994 2.0625 14.8681 1.96875C14.8798 1.96875 14.8916 1.95703 14.8798 1.94531C14.8798 1.94531 14.8798 1.93359 14.8681 1.93359Z" fill="#FF6489"/>
<path d="M6.96094 21.8555C6.48047 21.7617 6.11719 21.3867 6.02344 20.918C6.02344 20.9062 6.01172 20.8945 6 20.8945C5.98828 20.8945 5.98828 20.9062 5.97656 20.918C5.88281 21.3984 5.50781 21.7617 5.03906 21.8555C5.02734 21.8555 5.01562 21.8672 5.01562 21.8789C5.01562 21.8906 5.02734 21.8906 5.03906 21.9023C5.51953 21.9961 5.88281 22.3711 5.97656 22.8398C5.97656 22.8516 5.98828 22.8633 6 22.8633C6.01172 22.8633 6.01172 22.8516 6.02344 22.8398C6.11719 22.3594 6.49219 21.9961 6.96094 21.9023C6.97266 21.9023 6.98438 21.8906 6.98438 21.8789C6.98438 21.8672 6.97266 21.8555 6.96094 21.8555Z" fill="url(#paint1_linear)"/>
<path d="M28.0898 21.2813L27.0586 20.25C26.8242 20.0156 26.4375 20.0156 26.2031 20.25L20.3906 26.0625C20.1562 26.2969 20.1562 26.6836 20.3906 26.918L21.4219 27.9492C21.5391 28.0664 21.7266 28.0664 21.832 27.9492L28.0898 21.6914C28.207 21.5859 28.207 21.3984 28.0898 21.2813C28.1016 21.2813 28.1016 21.2813 28.0898 21.2813ZM21.6211 27.3398L20.8008 26.5195C20.7891 26.5078 20.7891 26.4961 20.8008 26.4844L26.6133 20.6719C26.625 20.6602 26.6367 20.6602 26.6484 20.6719L27.4687 21.4922L21.6211 27.3398Z" fill="#231F20"/>
<path d="M15.8418 20.4375L15.0918 19.6875C14.9746 19.5703 14.7871 19.5703 14.6816 19.6875C14.5645 19.8047 14.5645 19.9805 14.6816 20.0977L15.4316 20.8477C15.5488 20.9648 15.7363 20.9648 15.8418 20.8477C15.959 20.7422 15.959 20.5547 15.8418 20.4375C15.8418 20.4375 15.8535 20.4375 15.8418 20.4375Z" fill="#231F20"/>
<path d="M15.6699 17.4844L14.8379 16.6523C14.7207 16.5352 14.5332 16.5352 14.4277 16.6523C14.3105 16.7695 14.3105 16.9453 14.4277 17.0625L15.2598 17.8945C15.3769 18.0117 15.5644 18 15.6699 17.8828C15.7754 17.7773 15.7754 17.6016 15.6699 17.4844Z" fill="#231F20"/>
<path d="M17.0488 16.1016L16.2168 15.2695C16.0996 15.1523 15.9121 15.1523 15.8066 15.2695C15.6895 15.3867 15.6895 15.5625 15.8066 15.6797L16.6387 16.5117C16.7559 16.6289 16.9434 16.6289 17.0488 16.5117C17.166 16.4062 17.166 16.2187 17.0488 16.1016Z" fill="#231F20"/>
<path d="M18.4346 14.719L17.6025 13.8869C17.4854 13.7698 17.2979 13.7815 17.1924 13.8987C17.0869 14.0158 17.0869 14.1916 17.1924 14.3088L18.0244 15.1408C18.1416 15.258 18.3291 15.2463 18.4346 15.1291C18.5518 15.0119 18.5518 14.8244 18.4346 14.719Z" fill="#231F20"/>
<path d="M29.9854 22.0898L29.0479 21.1523C28.708 20.8125 28.1572 20.8125 27.8174 21.1523L21.3955 27.5742C21.0557 27.9141 21.0557 28.4649 21.3955 28.8047L22.333 29.7422C22.6729 30.082 23.2236 30.082 23.5635 29.7422L29.9854 23.3203C30.3252 22.9805 30.3252 22.4297 29.9854 22.0898ZM29.5752 22.9102L23.1533 29.332C23.0361 29.4492 22.8604 29.4492 22.7432 29.332L21.8057 28.3945C21.6885 28.2774 21.6885 28.1016 21.8057 27.9844L28.2276 21.5625C28.3447 21.4453 28.5205 21.4453 28.6377 21.5625L29.5752 22.5C29.6807 22.6172 29.6807 22.793 29.5752 22.9102Z" fill="#231F20"/>
<path d="M26.2158 20.6602L24.5049 18.9492C24.1064 18.5391 23.79 18.0703 23.5557 17.543C23.4854 17.4023 23.4268 17.2734 23.3564 17.1563C23.1455 16.7461 22.8643 16.3594 22.5361 16.0313L18.9971 12.4922C18.5049 12 17.6963 12 17.1924 12.4922C16.958 12.7266 16.8174 13.0547 16.8174 13.3945C16.8174 13.4297 16.8174 13.4766 16.8174 13.5117C16.1143 13.4414 15.4932 13.957 15.4346 14.6602C15.4346 14.6953 15.4346 14.7422 15.4346 14.7773C15.4346 14.8125 15.4346 14.8594 15.4346 14.8945C14.79 14.8359 14.2041 15.2578 14.0752 15.8906L11.9775 13.793C11.4736 13.3008 10.6768 13.3125 10.1846 13.8047C9.7041 14.2969 9.7041 15.0938 10.1846 15.5859L13.8994 19.3125C13.1494 19.4414 12.6338 20.1563 12.7627 20.9063C12.8096 21.1875 12.9502 21.4453 13.1494 21.6563L14.1104 22.6172C14.8721 23.3789 15.8447 23.8945 16.9111 24.082C17.1221 24.1289 17.333 24.1758 17.5439 24.1992C18.2002 24.3047 18.9502 24.4102 19.8525 25.2422L20.7432 26.1094C20.8604 26.2266 21.0361 26.2149 21.1533 26.1094L26.2041 21.0586C26.3213 20.9649 26.3213 20.7774 26.2158 20.6602ZM20.9541 25.5L20.2627 24.832C19.2197 23.8711 18.3408 23.7422 17.6377 23.6367C17.4385 23.6133 17.251 23.5781 17.0518 23.5313C17.04 23.5313 17.04 23.5313 17.0283 23.5313C16.0791 23.3672 15.2119 22.9102 14.5322 22.2188L13.5713 21.2578C13.2549 20.9414 13.2549 20.4375 13.5713 20.1328C13.8877 19.8164 14.3916 19.8164 14.6963 20.1328C14.8135 20.25 15.001 20.25 15.1064 20.1328C15.2236 20.0156 15.2236 19.8399 15.1064 19.7227L10.5947 15.1992C10.3252 14.9297 10.3252 14.4961 10.5947 14.2266C10.8643 13.957 11.2979 13.957 11.5674 14.2266L14.415 17.0742C14.5322 17.1914 14.7197 17.1914 14.8252 17.0742C14.9424 16.957 14.9424 16.7695 14.8252 16.6641C14.5557 16.3945 14.5557 15.9609 14.8252 15.6914C15.0947 15.4219 15.5283 15.4219 15.7979 15.6914C15.915 15.8086 16.1025 15.8086 16.208 15.6914C16.3252 15.5742 16.3252 15.3984 16.208 15.2813C15.9385 15.0117 15.9385 14.5781 16.208 14.3086C16.4775 14.0391 16.9111 14.0391 17.1807 14.3086C17.2979 14.4258 17.4736 14.4258 17.5908 14.3203C17.708 14.2031 17.708 14.0273 17.6025 13.9102C17.6025 13.9102 17.6025 13.9102 17.5908 13.8984C17.3213 13.6289 17.3213 13.1953 17.5908 12.9258C17.8604 12.6563 18.2939 12.6563 18.5635 12.9258L22.1025 16.4648C22.3955 16.7578 22.6299 17.0859 22.8174 17.4492C22.8174 17.4492 22.8174 17.4609 22.8291 17.4609C22.8877 17.5664 22.9463 17.6953 23.0166 17.8242C23.2744 18.3984 23.6377 18.9258 24.083 19.3828L25.583 20.8828L20.9541 25.5Z" fill="#231F20"/>
<path d="M19.6407 8.1563C19.5821 7.95708 19.4064 7.81645 19.2071 7.79302L13.254 6.92583L10.5939 1.5352C10.465 1.26567 10.1368 1.1602 9.87902 1.28911C9.77355 1.33598 9.69152 1.42973 9.63292 1.5352L6.96105 6.92583L1.01964 7.79302C0.726673 7.83989 0.527454 8.10942 0.56261 8.40239C0.574329 8.51958 0.632923 8.62505 0.714954 8.70708L5.01574 12.9024L3.9962 18.8321C3.94933 19.125 4.13683 19.4063 4.4298 19.4532C4.54699 19.4766 4.66417 19.4532 4.76964 19.3946L10.09 16.5938L12.3868 17.8008C12.5275 17.8711 12.7032 17.8243 12.7853 17.6836C12.8439 17.5665 12.8204 17.4258 12.7384 17.3438L11.5079 16.1016L10.5939 15.1875C10.3243 14.918 10.3243 14.4844 10.5939 14.2149C10.8634 13.9454 11.297 13.9454 11.5665 14.2149L14.4142 17.0625C14.5314 17.1797 14.7189 17.1797 14.8243 17.0625C14.9415 16.9454 14.9415 16.7696 14.8243 16.6524C14.5548 16.3829 14.5548 15.9493 14.8243 15.6797C14.9532 15.5508 15.1173 15.4805 15.2931 15.4805C15.4571 15.4805 15.586 15.3399 15.5743 15.1758C15.5743 15.1641 15.5743 15.1524 15.5743 15.1407L15.1876 12.9024L19.5001 8.70708C19.6525 8.56645 19.6993 8.3438 19.6407 8.1563ZM14.7657 12.504C14.6368 12.6329 14.5782 12.8086 14.6134 12.9844L14.9532 14.9532C14.5079 15.0821 14.1798 15.4454 14.0743 15.9024L11.9767 13.8047C11.4845 13.3125 10.6759 13.3008 10.1837 13.8047C9.69152 14.3086 9.6798 15.1055 10.1837 15.5977L10.9806 16.3946L10.3595 16.0665C10.2071 15.9844 10.0196 15.9844 9.85558 16.0665L4.59386 18.8321L5.60167 12.9727C5.63683 12.7969 5.57824 12.6211 5.44933 12.4922L1.19542 8.35552L7.07824 7.50005C7.25402 7.47661 7.40636 7.35942 7.48839 7.20708L10.1134 1.87505L12.7384 7.20708C12.8204 7.37114 12.9728 7.47661 13.1485 7.50005L19.0314 8.35552L14.7657 12.504Z" fill="#231F20"/>
<defs>
<linearGradient id="paint0_linear" x1="21.4297" y1="20.1761" x2="32.9459" y2="21.9738" gradientUnits="userSpaceOnUse">
<stop stop-color="#B1CDFF"/>
<stop offset="0.473958" stop-color="#D0C3F8"/>
<stop offset="1" stop-color="#E09EFF"/>
</linearGradient>
<linearGradient id="paint1_linear" x1="5.01562" y1="20.6583" x2="7.67625" y2="21.0726" gradientUnits="userSpaceOnUse">
<stop stop-color="#B1CDFF"/>
<stop offset="0.473958" stop-color="#D0C3F8"/>
<stop offset="1" stop-color="#E09EFF"/>
</linearGradient>
</defs>
</svg>
