<svg width="31" height="30" viewBox="0 0 31 30" fill="none" xmlns="http://www.w3.org/2000/svg">
<path d="M26.5052 7.23021C23.7162 4.44114 19.4857 3.69114 15.8997 5.35521C11.1888 3.1638 5.59897 5.20286 3.41928 9.9138C1.75522 13.488 2.50522 17.7302 5.29428 20.5193L11.9271 27.1521L11.9505 27.1755C14.1302 29.3435 17.6576 29.3435 19.849 27.1872L19.8724 27.1638L26.5052 20.531C30.1732 16.8513 30.1732 10.8982 26.5052 7.23021Z" fill="#FCACB6"/>
<path d="M25.0519 8.67173C22.6144 6.23423 18.8058 5.82407 15.8995 7.67564C12.4777 5.48423 7.93079 6.49204 5.7511 9.91392C3.89954 12.8202 4.3097 16.6288 6.7472 19.0663L13.38 25.6991L13.4034 25.7225C14.7863 27.0936 17.0245 27.1053 18.4191 25.7225L18.4425 25.6991L25.0753 19.0663C27.923 16.1952 27.923 11.5428 25.0519 8.67173Z" fill="#FC7783"/>
<path d="M23.6143 10.125C21.54 8.05078 18.1885 8.05078 16.1143 10.125C15.9971 10.2422 15.8096 10.2422 15.7041 10.125C13.6299 8.05078 10.2783 8.05078 8.2041 10.125C6.12988 12.1992 6.12988 15.5508 8.2041 17.625L14.8369 24.2578L14.8486 24.2695C15.4463 24.8555 16.4072 24.8555 16.9932 24.2578L23.626 17.625C25.6885 15.5508 25.6885 12.1875 23.6143 10.125Z" fill="#FF6489"/>
<path d="M4.77734 4.76953H4.56641V4.55859C4.56641 4.39453 4.4375 4.26562 4.27344 4.26562C4.10938 4.26562 3.98047 4.39453 3.98047 4.55859V4.76953H3.76953C3.60547 4.76953 3.47656 4.89844 3.47656 5.0625C3.47656 5.22656 3.60547 5.35547 3.76953 5.35547H3.98047V5.56641C3.98047 5.73047 4.10938 5.85938 4.27344 5.85938C4.4375 5.85938 4.56641 5.73047 4.56641 5.56641V5.35547H4.77734C4.94141 5.35547 5.07031 5.22656 5.07031 5.0625C5.07031 4.89844 4.92969 4.76953 4.77734 4.76953Z" fill="#FF6489"/>
<path d="M6.44141 0.234375C6.44141 0.210937 6.42969 0.199219 6.42969 0.175781C6.41797 0.152344 6.41797 0.140625 6.40625 0.128906C6.39453 0.117188 6.38281 0.09375 6.37109 0.0820312C6.25391 -0.0234375 6.07813 -0.0234375 5.96094 0.0820312C5.94922 0.09375 5.9375 0.105469 5.92578 0.128906C5.91406 0.140625 5.90234 0.164062 5.90234 0.175781C5.89063 0.199219 5.89062 0.210937 5.89062 0.234375C5.89062 0.257812 5.89063 0.269531 5.87891 0.292969C5.87891 0.316406 5.87891 0.328125 5.89062 0.351562C5.89062 0.375 5.90234 0.386719 5.90234 0.410156C5.91406 0.421875 5.91406 0.445312 5.92578 0.457031C5.91406 0.46875 5.92578 0.480469 5.9375 0.492187C6.05469 0.609375 6.23047 0.609375 6.34766 0.492187C6.35938 0.480469 6.37109 0.46875 6.38281 0.445312C6.39453 0.433594 6.40625 0.410156 6.40625 0.398437C6.41797 0.386719 6.41797 0.363281 6.41797 0.339844C6.41797 0.316406 6.42969 0.304687 6.41797 0.28125C6.44141 0.269531 6.44141 0.246094 6.44141 0.234375Z" fill="url(#paint0_linear)"/>
<path d="M24.7275 26.4023C24.7158 26.3672 24.7041 26.332 24.6807 26.2969C24.6689 26.2852 24.6572 26.2617 24.6455 26.25C24.5283 26.1445 24.3525 26.1445 24.2354 26.25C24.2236 26.2617 24.2119 26.2734 24.2002 26.2969C24.1885 26.3086 24.1768 26.332 24.1768 26.3437C24.165 26.3672 24.165 26.3789 24.165 26.4023C24.1533 26.4375 24.1533 26.4844 24.165 26.5195C24.165 26.543 24.1768 26.5547 24.1768 26.5781C24.1885 26.5898 24.1885 26.6133 24.2002 26.625C24.2119 26.6367 24.2236 26.6602 24.2354 26.6719C24.3525 26.7891 24.5283 26.7891 24.6455 26.6719C24.6572 26.6602 24.6689 26.6484 24.6807 26.625C24.6924 26.6133 24.7041 26.5898 24.7041 26.5781C24.7158 26.5664 24.7158 26.543 24.7158 26.5195C24.7393 26.4727 24.7393 26.4375 24.7275 26.4023Z" fill="url(#paint1_linear)"/>
<path d="M10.3242 2.10938C9.84374 2.01563 9.48046 1.64062 9.38672 1.17187C9.38672 1.16016 9.375 1.14844 9.36328 1.14844C9.35156 1.14844 9.35156 1.16016 9.33984 1.17187C9.24609 1.65234 8.87109 2.01563 8.40234 2.10938C8.39063 2.10938 8.37891 2.12109 8.37891 2.13281C8.37891 2.14453 8.39063 2.14453 8.40234 2.15625C8.88281 2.25 9.24609 2.625 9.33984 3.09375C9.33984 3.10547 9.35156 3.11719 9.36328 3.11719C9.375 3.11719 9.375 3.10547 9.38672 3.09375C9.48046 2.61328 9.85546 2.25 10.3242 2.15625C10.3359 2.15625 10.3476 2.14453 10.3476 2.13281C10.3476 2.10938 10.3359 2.10938 10.3242 2.10938Z" fill="#FFCD29"/>
<path d="M23.5283 29.0039C23.0478 28.9101 22.6845 28.5351 22.5908 28.0664C22.5908 28.0547 22.5791 28.043 22.5674 28.043C22.5556 28.043 22.5556 28.0547 22.5439 28.0664C22.4502 28.5469 22.0752 28.9101 21.6064 29.0039C21.5947 29.0039 21.583 29.0156 21.5947 29.0273C21.5947 29.039 21.6064 29.039 21.6064 29.039C22.0869 29.1328 22.4502 29.5078 22.5439 29.9765C22.5439 29.9883 22.5556 30 22.5674 30C22.5791 30 22.5791 29.9883 22.5908 29.9765C22.6845 29.4961 23.0595 29.1328 23.5283 29.039C23.54 29.039 23.5517 29.0273 23.54 29.0156C23.54 29.0039 23.5283 29.0039 23.5283 29.0039Z" fill="#6DCC6D"/>
<path d="M26.7061 7.01951C23.8584 4.18357 19.5693 3.39842 15.9014 5.02732C12.2334 3.39842 7.93262 4.19529 5.09668 7.01951C1.31152 10.8047 1.31152 16.9336 5.09668 20.7187L11.7295 27.3515L11.7412 27.3633C14.0381 29.6484 17.7412 29.6484 20.0498 27.375L26.7178 20.707C30.4912 16.9336 30.4912 10.8047 26.7061 7.01951ZM26.2959 20.3086L19.6631 26.9414L19.6396 26.9648C17.5654 29.0156 14.2256 29.0039 12.1631 26.9531L5.51855 20.3086C1.95605 16.7461 1.96777 10.9804 5.53027 7.42967C8.22559 4.73436 12.3154 4.01951 15.7842 5.61326C15.8662 5.64842 15.9482 5.64842 16.0303 5.61326C20.5889 3.49217 26.0029 5.47264 28.124 10.0312C29.7295 13.5 29.0029 17.6015 26.2959 20.3086Z" fill="#231F20"/>
<path d="M26.1781 1.83992C26.0375 1.76961 25.8617 1.81648 25.7797 1.95711L24.9125 3.58601C24.8305 3.72664 24.8891 3.90242 25.0297 3.98445C25.1703 4.06648 25.3461 4.00789 25.4281 3.86726L26.2953 2.23836C26.3773 2.08601 26.3187 1.91023 26.1781 1.83992Z" fill="#231F20"/>
<path d="M29.0883 4.47646C29.0062 4.33583 28.8305 4.27724 28.6898 4.35927L27.0726 5.2499C26.932 5.33193 26.8734 5.50771 26.9555 5.64834C27.0375 5.78896 27.2133 5.84756 27.3539 5.76552L28.9711 4.8749C29.1117 4.79287 29.1586 4.61708 29.0883 4.47646Z" fill="#231F20"/>
<path d="M22.6844 1.18342C22.6727 1.01936 22.5321 0.902174 22.368 0.913893C22.2039 0.925612 22.0867 1.06624 22.0985 1.2303L22.2625 3.07014C22.2742 3.22249 22.4032 3.33967 22.5555 3.33967C22.5672 3.33967 22.5789 3.33967 22.5789 3.33967C22.743 3.32796 22.8602 3.18733 22.8485 3.02327L22.6844 1.18342Z" fill="#231F20"/>
<path d="M25.2646 8.46106C22.7686 5.9884 18.9131 5.51965 15.9014 7.32434C12.8896 5.51965 9.03418 5.9884 6.53809 8.46106C3.5498 11.4493 3.5498 16.2892 6.53809 19.2657L13.1709 25.8986L13.1826 25.9103C14.6826 27.3986 17.1084 27.3986 18.6084 25.922L25.2646 19.2657C28.2412 16.2892 28.2412 11.4493 25.2646 8.46106ZM24.8545 18.8673L18.2217 25.5001L18.1982 25.5236C16.9209 26.7892 14.8701 26.7775 13.5928 25.5236L6.94824 18.8673C4.19434 16.1134 4.19434 11.6368 6.94824 8.88293C9.30371 6.5509 12.9482 6.15246 15.7373 7.922C15.8311 7.98059 15.96 7.98059 16.0537 7.922C19.335 5.82434 23.7061 6.78528 25.8037 10.0665C27.585 12.8673 27.1865 16.5236 24.8545 18.8673Z" fill="#231F20"/>
<path d="M23.8115 9.91406C21.6318 7.73438 18.0928 7.73438 15.9014 9.91406C13.71 7.72266 10.1709 7.72266 7.97949 9.91406C5.78809 12.1055 5.78809 15.6445 7.97949 17.8359L14.6123 24.4688L14.624 24.4805C14.9639 24.8203 15.4209 25.0078 15.8896 25.0078C16.3701 25.0078 16.8389 24.8203 17.1787 24.4805L23.8115 17.8477C26.0029 15.6445 26.0029 12.1055 23.8115 9.91406ZM23.4014 17.4141L16.7686 24.0469C16.2881 24.5273 15.5146 24.5273 15.0342 24.0586L14.8232 24.2695L15.0225 24.0469L8.40137 17.4141C6.44434 15.457 6.44434 12.2812 8.40137 10.3242C10.3584 8.36719 13.5342 8.36719 15.4912 10.3242C15.7256 10.5469 16.0889 10.5469 16.3232 10.3242C18.2803 8.36719 21.4561 8.36719 23.4131 10.3242C25.3701 12.2812 25.3584 15.457 23.4014 17.4141Z" fill="#231F20"/>
<defs>
<linearGradient id="paint0_linear" x1="5.87891" y1="-0.066328" x2="6.63999" y2="0.0491862" gradientUnits="userSpaceOnUse">
<stop stop-color="#B1CDFF"/>
<stop offset="0.473958" stop-color="#D0C3F8"/>
<stop offset="1" stop-color="#E09EFF"/>
</linearGradient>
<linearGradient id="paint1_linear" x1="24.1562" y1="26.1002" x2="24.9393" y2="26.2201" gradientUnits="userSpaceOnUse">
<stop stop-color="#B1CDFF"/>
<stop offset="0.473958" stop-color="#D0C3F8"/>
<stop offset="1" stop-color="#E09EFF"/>
</linearGradient>
</defs>
</svg>
