<svg width="21" height="20" viewBox="0 0 21 20" fill="none" xmlns="http://www.w3.org/2000/svg">
<path fill-rule="evenodd" clip-rule="evenodd" d="M10.7057 1.66675C15.4157 1.66675 19.2474 5.49841 19.2474 10.2084C19.2474 14.9184 15.4157 18.7501 10.7057 18.7501C5.99573 18.7501 2.16406 14.9184 2.16406 10.2084C2.16406 5.49841 5.99573 1.66675 10.7057 1.66675ZM10.7057 2.91675C6.6849 2.91675 3.41406 6.18758 3.41406 10.2084C3.41406 14.2292 6.6849 17.5001 10.7057 17.5001C14.7266 17.5001 17.9974 14.2292 17.9974 10.2084C17.9974 6.18758 14.7266 2.91675 10.7057 2.91675ZM10.3564 7.30125C10.7897 7.48208 13.8306 9.03958 13.8306 10.2046C13.8306 11.2962 11.0939 12.8229 10.3947 13.1146C10.1222 13.2279 9.8114 13.3346 9.52056 13.3346C9.29556 13.3346 9.08223 13.2704 8.90806 13.0971C8.7739 12.9646 8.41556 12.6104 8.41389 10.2779C8.41306 7.80125 8.78556 7.43291 8.90806 7.31041C9.3439 6.87875 10.0539 7.17458 10.3564 7.30125ZM9.77556 8.40542C9.62806 9.23958 9.62556 11.2321 9.77306 12.0237C10.5047 11.7654 12.0897 10.7237 12.5164 10.2079C12.0914 9.70708 10.5264 8.68708 9.77556 8.40542Z" fill="#151313"/>
</svg>
