<svg width="15" height="14" viewBox="0 0 15 14" fill="none" xmlns="http://www.w3.org/2000/svg">
<path fill-rule="evenodd" clip-rule="evenodd" d="M8.35887 0.557534L9.78019 3.56403C9.91948 3.85919 10.1884 4.06385 10.5002 4.11121L13.6797 4.5958C14.4653 4.71589 14.7779 5.72398 14.2094 6.3016L11.9101 8.64083C11.6842 8.87087 11.5813 9.20154 11.6348 9.52629L12.1774 12.8288C12.311 13.6457 11.4898 14.269 10.7877 13.8825L7.94583 12.3222C7.66724 12.1691 7.33357 12.1691 7.05417 12.3222L4.21234 13.8825C3.51018 14.269 2.68897 13.6457 2.82341 12.8288L3.36521 9.52629C3.41866 9.20154 3.31581 8.87087 3.08986 8.64083L0.79064 6.3016C0.222112 5.72398 0.534721 4.71589 1.32029 4.5958L4.49984 4.11121C4.81164 4.06385 5.08133 3.85919 5.22062 3.56403L6.64113 0.557534C6.99262 -0.185845 8.00738 -0.185845 8.35887 0.557534Z" fill="#FFD467"/>
</svg>
