<svg width="30" height="30" viewBox="0 0 30 30" fill="none" xmlns="http://www.w3.org/2000/svg">
<g clip-path="url(#clip0)">
<path d="M26.6484 3.76172H6.69141C5.87109 3.76172 5.21484 4.42969 5.21484 5.23828V6.79688H23.8125C24.6328 6.79688 25.2891 7.46484 25.2891 8.27344V26.6602H26.6484C27.4688 26.6602 28.125 25.9922 28.125 25.1836V5.23828C28.1133 4.42969 27.457 3.76172 26.6484 3.76172Z" fill="#E9E9EA"/>
<path d="M3.86719 6.80859H23.8125C24.6328 6.80859 25.2891 7.46484 25.2891 8.28516V28.2305C25.2891 29.0508 24.6328 29.707 23.8125 29.707H3.86719C3.04688 29.707 2.39062 29.0508 2.39062 28.2305V8.28516C2.39062 7.46484 3.04688 6.80859 3.86719 6.80859Z" fill="#E9E9EA"/>
<path d="M18.0703 24.9141H23.3672C23.6016 24.9141 23.7891 25.1016 23.7891 25.3359V27.7734C23.7891 28.0078 23.6016 28.1953 23.3672 28.1953H18.0703C17.8359 28.1953 17.6484 28.0078 17.6484 27.7734V25.3359C17.6602 25.1016 17.8477 24.9141 18.0703 24.9141Z" fill="#898989"/>
<path d="M18.0703 20.3556H23.3672C23.6016 20.3556 23.7891 20.5431 23.7891 20.7775V23.215C23.7891 23.4493 23.6016 23.6368 23.3672 23.6368H18.0703C17.8359 23.6368 17.6484 23.4493 17.6484 23.215V20.7775C17.6602 20.5431 17.8477 20.3556 18.0703 20.3556Z" fill="#898989"/>
<path d="M23.3672 11.2383H18.0703C18.0234 11.2383 17.9766 11.25 17.9414 11.2617C18.7383 12.1641 19.2305 13.3125 19.3359 14.5195H23.3672C23.6016 14.5195 23.7891 14.332 23.7891 14.0977V11.6484C23.7891 11.4258 23.6016 11.2383 23.3672 11.2383Z" fill="#898989"/>
<path d="M23.3672 15.7969H19.3008C19.1367 16.9805 18.6094 18.0938 17.7773 18.9609C17.8594 19.0312 17.9531 19.0781 18.0703 19.0781H23.3672C23.6016 19.0781 23.7891 18.8906 23.7891 18.6562V16.2187C23.7891 15.9844 23.6016 15.7969 23.3672 15.7969Z" fill="#898989"/>
<path d="M17.4968 10.8047C15.1765 8.69536 11.5671 8.85943 9.45774 11.1915C7.77024 13.0547 7.50071 15.7969 8.78977 17.9532C8.84837 18.0586 8.86008 18.1758 8.80149 18.2813L7.82883 20.3907C7.7468 20.5665 7.82883 20.7891 8.00462 20.8711C8.09837 20.918 8.21555 20.918 8.3093 20.8711L10.407 19.8985C10.5124 19.8516 10.6413 19.8516 10.7468 19.9219C13.4421 21.5391 16.946 20.6485 18.5515 17.9532C19.946 15.6094 19.5007 12.6329 17.4968 10.8047Z" fill="#C0A3FA"/>
<path d="M10.7461 19.9101C10.6406 19.8516 10.5117 19.8398 10.4063 19.8867L8.30859 20.8594C8.13281 20.9414 7.91016 20.8594 7.82813 20.6836C7.78125 20.5898 7.78125 20.4726 7.82813 20.3789L8.80078 18.2812C8.84766 18.1758 8.84766 18.0469 8.78906 17.9531C7.51172 15.8203 7.75781 13.1016 9.42188 11.2383H4.3125C4.07812 11.2383 3.89062 11.4258 3.89062 11.6602V23.2031C3.89062 23.4375 4.07812 23.625 4.3125 23.625H15.7383C15.9727 23.625 16.1602 23.4375 16.1602 23.2031V20.1562C14.4258 20.9766 12.3984 20.8828 10.7461 19.9101Z" fill="#FF6489"/>
<path d="M16.0796 14.5077C16.1382 14.4491 16.1382 14.3553 16.0796 14.2967C16.0562 14.2733 16.0327 14.2616 15.9976 14.2499L14.603 14.0507C14.5562 14.0389 14.5093 14.0155 14.4976 13.9686L13.8765 12.703C13.8413 12.6327 13.7476 12.5975 13.6773 12.6327C13.6538 12.6444 13.6304 12.6678 13.607 12.703L12.9859 13.9686C12.9624 14.0155 12.9273 14.0389 12.8804 14.0507L11.4859 14.2499C11.4038 14.2616 11.3452 14.3319 11.357 14.4139C11.357 14.4491 11.3804 14.4725 11.4038 14.496L12.4116 15.4803C12.4468 15.5155 12.4585 15.5624 12.4585 15.6092L12.2241 17.0038C12.2124 17.0858 12.2593 17.1561 12.3413 17.1796C12.3765 17.1796 12.4116 17.1796 12.4351 17.1678L13.689 16.5116C13.7359 16.4881 13.7827 16.4881 13.8296 16.5116L15.0835 17.1678C15.1538 17.203 15.2476 17.1796 15.2827 17.1092C15.2944 17.0858 15.3062 17.0506 15.2944 17.0155L15.0601 15.621C15.0484 15.5741 15.0718 15.5272 15.1069 15.4921L16.0796 14.5077Z" fill="#FFCD29"/>
<path d="M18.1992 14.6484C18.2344 14.6132 18.2344 14.5546 18.1992 14.5077C18.1875 14.496 18.1641 14.4843 18.1406 14.4843L17.2383 14.3554C17.2031 14.3554 17.1797 14.3319 17.168 14.3085L16.7578 13.4882C16.7344 13.4413 16.6758 13.4179 16.6289 13.4413C16.6055 13.453 16.5937 13.4648 16.582 13.4882L16.1719 14.3085C16.1602 14.3319 16.1367 14.3554 16.1016 14.3554C16.125 14.414 16.1133 14.4726 16.0664 14.5077L15.5273 15.0351L15.7852 15.2929C15.8086 15.3163 15.8203 15.3515 15.8086 15.3749L15.6563 16.2773C15.6445 16.3241 15.6797 16.3827 15.7383 16.3827C15.7617 16.3827 15.7852 16.3827 15.7969 16.371L16.6055 15.9491C16.6289 15.9374 16.6641 15.9374 16.6992 15.9491L17.5078 16.371C17.5547 16.3944 17.6133 16.3827 17.6367 16.3359C17.6484 16.3124 17.6484 16.3007 17.6484 16.2773L17.4961 15.3749C17.4961 15.3398 17.4961 15.3163 17.5195 15.2929L18.1992 14.6484Z" fill="#FFAE2C"/>
<path d="M11.6385 15.3749C11.6385 15.3398 11.6385 15.3163 11.662 15.2929L11.9198 15.0351L11.3807 14.5077C11.3339 14.4726 11.3221 14.4023 11.3456 14.3554C11.3221 14.3554 11.287 14.3319 11.2753 14.3085L10.8651 13.4882C10.8417 13.4413 10.7831 13.4179 10.7362 13.4413C10.7128 13.453 10.701 13.4648 10.6893 13.4882L10.2792 14.3085C10.2674 14.3319 10.244 14.3554 10.2089 14.3554L9.30651 14.4843C9.25963 14.496 9.21276 14.5429 9.22448 14.5898C9.22448 14.6132 9.2362 14.6249 9.24792 14.6484L9.90417 15.2929C9.9276 15.3163 9.93932 15.3515 9.9276 15.3749L9.77526 16.2773C9.76354 16.3241 9.7987 16.3827 9.85729 16.3827C9.88073 16.3827 9.90417 16.3827 9.91588 16.371L10.7245 15.9491C10.7479 15.9374 10.7831 15.9374 10.8182 15.9491L11.6268 16.371C11.6737 16.3944 11.7323 16.3827 11.7557 16.3359C11.7674 16.3124 11.7674 16.3007 11.7674 16.2773L11.6385 15.3749Z" fill="#FFAE2C"/>
<path d="M23.8125 6.80859H3.86719C3.04688 6.80859 2.39062 7.47656 2.39062 8.28516V9.84375H11.3086C12.8086 9.16406 14.543 9.16406 16.043 9.84375H25.2891V8.28516C25.2891 7.46484 24.6328 6.80859 23.8125 6.80859Z" fill="#6D6C6B"/>
<path d="M26.6484 3.76172H6.69141C5.87109 3.76172 5.21484 4.42969 5.21484 5.23828V6.79688H28.125V5.23828C28.1133 4.42969 27.457 3.76172 26.6484 3.76172Z" fill="#6D6C6B"/>
<path d="M4.82888 7.67578C4.47732 7.74609 4.24294 8.09766 4.31326 8.44922C4.38357 8.80078 4.73513 9.03516 5.08669 8.96484C5.39138 8.90625 5.61404 8.63672 5.61404 8.32031C5.61404 7.95703 5.32107 7.66406 4.95779 7.66406C4.91091 7.66406 4.87576 7.67578 4.82888 7.67578Z" fill="#FF6489"/>
<path d="M7.05545 7.67578C6.70388 7.74609 6.4695 8.09766 6.53982 8.44922C6.61013 8.80078 6.9617 9.03516 7.31326 8.96484C7.62967 8.90625 7.85232 8.63672 7.85232 8.32031C7.85232 7.95703 7.55935 7.66406 7.19607 7.66406C7.1492 7.66406 7.10232 7.67578 7.05545 7.67578Z" fill="#FFCD29"/>
<path d="M9.29372 7.67578C8.94216 7.74609 8.70779 8.09766 8.7781 8.44922C8.84841 8.80078 9.19997 9.03516 9.55154 8.96484C9.85622 8.90625 10.0789 8.63672 10.0789 8.32031C10.0789 7.95703 9.78591 7.66406 9.42263 7.66406C9.37576 7.66406 9.3406 7.67578 9.29372 7.67578Z" fill="#36CB95"/>
<path d="M7.6531 4.64062C7.30154 4.71094 7.06716 5.0625 7.13747 5.41406C7.20779 5.76563 7.55935 6 7.91091 5.92969C8.2156 5.87109 8.43826 5.60156 8.43826 5.28516C8.43826 4.92187 8.14529 4.62891 7.78201 4.62891C7.74685 4.62891 7.69997 4.62891 7.6531 4.64062Z" fill="#FF6489"/>
<path d="M9.88747 4.64062C9.53591 4.71094 9.30154 5.0625 9.37185 5.41406C9.44216 5.76563 9.79372 6 10.1453 5.92969C10.45 5.87109 10.6726 5.60156 10.6726 5.28516C10.6726 4.92187 10.3797 4.62891 10.0164 4.62891C9.96951 4.62891 9.93435 4.62891 9.88747 4.64062Z" fill="#FFCD29"/>
<path d="M12.114 4.64062C11.7625 4.71094 11.5281 5.0625 11.5984 5.41406C11.6687 5.76563 12.0203 6 12.3718 5.92969C12.6765 5.87109 12.8992 5.60156 12.8992 5.28516C12.8992 4.92187 12.6062 4.62891 12.2429 4.62891C12.2078 4.62891 12.1609 4.62891 12.114 4.64062Z" fill="#36CB95"/>
<path d="M23.8125 6.51562H3.86719C2.89453 6.51562 2.09766 7.3125 2.09766 8.28516V28.2305C2.09766 29.2031 2.89453 30 3.86719 30H23.8125C24.7852 30 25.582 29.2031 25.582 28.2305V8.28516C25.582 7.30078 24.7852 6.51562 23.8125 6.51562ZM24.9961 28.2305C24.9961 28.8867 24.4688 29.4141 23.8125 29.4141H3.86719C3.21094 29.4141 2.68359 28.8867 2.68359 28.2305V8.28516C2.68359 7.62891 3.21094 7.10156 3.86719 7.10156H23.8125C24.4688 7.10156 24.9961 7.62891 24.9961 8.28516V28.2305Z" fill="#231F20"/>
<path d="M5.55628 7.59364C5.14613 7.26551 4.54847 7.3241 4.22034 7.72254C3.89222 8.12098 3.95081 8.73035 4.34925 9.05848C4.75941 9.3866 5.35707 9.32801 5.68519 8.92957C5.82582 8.75379 5.89613 8.54285 5.89613 8.3202C5.90785 8.03895 5.77894 7.76942 5.55628 7.59364ZM4.95863 8.6952C4.75941 8.6952 4.59535 8.53113 4.59535 8.33192C4.59535 8.15613 4.72425 8.00379 4.88831 7.96863C4.91175 7.96863 4.93519 7.95692 4.95863 7.95692C5.04066 7.95692 5.12269 7.99207 5.193 8.03895C5.27503 8.10926 5.32191 8.21473 5.32191 8.3202C5.32191 8.53113 5.15785 8.6952 4.95863 8.6952Z" fill="#231F20"/>
<path d="M7.79065 7.59364C7.3805 7.26551 6.78284 7.3241 6.45472 7.72254C6.12659 8.1327 6.18519 8.73035 6.58362 9.05848C6.98206 9.3866 7.59143 9.32801 7.91956 8.92957C8.06018 8.75379 8.13049 8.54285 8.13049 8.3202C8.14221 8.03895 8.01331 7.76942 7.79065 7.59364ZM7.18128 8.6952C6.98206 8.6952 6.818 8.53113 6.818 8.33192C6.818 8.15613 6.9469 8.00379 7.11097 7.96863C7.1344 7.96863 7.15784 7.95692 7.18128 7.95692C7.26331 7.95692 7.34534 7.99207 7.41565 8.03895C7.49768 8.10926 7.54456 8.21473 7.54456 8.3202C7.54456 8.53113 7.39221 8.6952 7.18128 8.6952Z" fill="#231F20"/>
<path d="M10.0172 7.59364C9.60706 7.26551 9.00941 7.3241 8.68128 7.72254C8.35316 8.1327 8.41175 8.73035 8.81019 9.05848C9.22034 9.3866 9.818 9.32801 10.1461 8.92957C10.2867 8.75379 10.3571 8.54285 10.3571 8.3202C10.3688 8.03895 10.2399 7.76942 10.0172 7.59364ZM9.41956 8.6952C9.22034 8.6952 9.05628 8.53113 9.05628 8.33192C9.05628 8.15613 9.18519 8.00379 9.34925 7.96863C9.37269 7.96863 9.39612 7.95692 9.41956 7.95692C9.50159 7.95692 9.58362 7.99207 9.65394 8.03895C9.73597 8.10926 9.78284 8.21473 9.78284 8.3202C9.78284 8.53113 9.61878 8.6952 9.41956 8.6952Z" fill="#231F20"/>
<path d="M23.0977 8.02734H22.3125C22.1484 8.02734 22.0195 8.15625 22.0195 8.32031C22.0195 8.48438 22.1484 8.61328 22.3125 8.61328H23.0977C23.2617 8.61328 23.3906 8.48438 23.3906 8.32031C23.3906 8.15625 23.2617 8.02734 23.0977 8.02734Z" fill="#231F20"/>
<path d="M23.3672 24.6211H18.0703C17.6836 24.6211 17.3555 24.9375 17.3555 25.3359V27.7734C17.3555 28.1602 17.6719 28.4883 18.0703 28.4883H23.3672C23.7539 28.4883 24.082 28.1719 24.082 27.7734V25.3359C24.082 24.9375 23.7656 24.6211 23.3672 24.6211ZM23.4961 27.7734C23.4961 27.8437 23.4375 27.9023 23.3672 27.9023H18.0703C18 27.9023 17.9414 27.8437 17.9414 27.7734V25.3359C17.9414 25.2656 18 25.207 18.0703 25.207H23.3672C23.4375 25.207 23.4961 25.2656 23.4961 25.3359V27.7734Z" fill="#231F20"/>
<path d="M23.3672 20.0626H18.0703C17.6836 20.0626 17.3555 20.379 17.3555 20.7775V23.215C17.3555 23.6017 17.6719 23.9298 18.0703 23.9298H23.3672C23.7539 23.9298 24.082 23.6134 24.082 23.215V20.7775C24.082 20.379 23.7656 20.0626 23.3672 20.0626ZM23.4961 23.215C23.4961 23.2853 23.4375 23.3439 23.3672 23.3439H18.0703C18 23.3439 17.9414 23.2853 17.9414 23.215V20.7775C17.9414 20.7072 18 20.6486 18.0703 20.6486H23.3672C23.4375 20.6486 23.4961 20.7072 23.4961 20.7775V23.215Z" fill="#231F20"/>
<path d="M15.7266 25.4414H4.25391C4.08984 25.4414 3.96094 25.5703 3.96094 25.7344C3.96094 25.8984 4.08984 26.0273 4.25391 26.0273H15.7266C15.8906 26.0273 16.0195 25.8984 16.0195 25.7344C16.0195 25.5703 15.8906 25.4414 15.7266 25.4414Z" fill="#231F20"/>
<path d="M15.7266 26.9531H4.25391C4.08984 26.9531 3.96094 27.082 3.96094 27.2461C3.96094 27.4102 4.08984 27.5391 4.25391 27.5391H15.7266C15.8906 27.5391 16.0195 27.4102 16.0195 27.2461C16.0195 27.082 15.8906 26.9531 15.7266 26.9531Z" fill="#231F20"/>
<path d="M16.3125 19.8984C16.2305 19.8398 16.125 19.8398 16.0313 19.8867C14.3906 20.6836 12.4688 20.6016 10.9102 19.6641C10.7227 19.5469 10.4883 19.5352 10.2891 19.6289L8.19141 20.6016C8.15625 20.6133 8.12109 20.6016 8.09766 20.5664C8.08594 20.543 8.08594 20.5312 8.09766 20.5078L9.07031 18.4102C9.16406 18.2109 9.15234 17.9883 9.03516 17.8008C7.80469 15.7734 8.05078 13.1953 9.63281 11.4375C9.73828 11.3203 9.72656 11.1328 9.60938 11.0273C9.55078 10.9805 9.48047 10.957 9.41016 10.957H4.3125C3.92578 10.957 3.59766 11.2734 3.59766 11.6719V23.2148C3.59766 23.6016 3.91406 23.9297 4.3125 23.9297H15.7383C16.125 23.9297 16.4531 23.6133 16.4531 23.2148V20.168C16.4414 20.0391 16.3945 19.9453 16.3125 19.8984ZM15.8555 23.1914C15.8555 23.2617 15.7969 23.3203 15.7266 23.3203H4.3125C4.24219 23.3203 4.18359 23.2617 4.18359 23.1914V11.6484C4.18359 11.5781 4.24219 11.5195 4.3125 11.5195H8.8125C7.40625 13.4531 7.30078 16.043 8.54297 18.0937C8.55469 18.1172 8.55469 18.1289 8.54297 18.1523L7.57031 20.25C7.41797 20.5781 7.55859 20.9648 7.88672 21.1172C8.0625 21.1992 8.26172 21.1992 8.4375 21.1172L10.5352 20.1445C10.5586 20.1328 10.582 20.1328 10.6055 20.1562C12.1992 21.1172 14.1445 21.2695 15.8672 20.5898L15.8555 23.1914Z" fill="#231F20"/>
<path d="M23.8125 6.51562H3.86719C2.89453 6.51562 2.09766 7.3125 2.09766 8.28516V9.84375C2.09766 10.0078 2.22656 10.1367 2.39063 10.1367H11.3086C11.3555 10.1367 11.3906 10.125 11.4258 10.1133C12.8555 9.46875 14.4961 9.46875 15.9258 10.1133C15.9609 10.125 16.0078 10.1367 16.043 10.1367H25.2891C25.4531 10.1367 25.582 10.0078 25.582 9.84375V8.28516C25.582 7.30078 24.7852 6.51562 23.8125 6.51562ZM24.9961 9.55078H16.1016C14.5547 8.87109 12.7852 8.87109 11.2383 9.55078H2.68359V8.28516C2.68359 7.62891 3.21094 7.10156 3.86719 7.10156H23.8125C24.4688 7.10156 24.9961 7.62891 24.9961 8.28516V9.55078Z" fill="#231F20"/>
<path d="M8.38832 4.54678C7.97816 4.21865 7.3805 4.27725 7.05238 4.6874C6.72425 5.09756 6.78284 5.69522 7.18128 6.02334C7.57972 6.35147 8.1891 6.29287 8.51722 5.89444C8.65785 5.71865 8.72816 5.50772 8.72816 5.28506C8.73988 5.00381 8.61097 4.73428 8.38832 4.54678ZM7.77894 5.64834C7.57972 5.64834 7.41566 5.48428 7.41566 5.28506C7.41566 5.10928 7.54456 4.95693 7.70863 4.92178C7.73206 4.92178 7.7555 4.91006 7.77894 4.91006C7.86097 4.91006 7.943 4.94522 8.01332 4.99209C8.09535 5.0624 8.14222 5.16787 8.14222 5.27334C8.15394 5.48428 7.98988 5.64834 7.77894 5.64834Z" fill="#231F20"/>
<path d="M10.6149 4.54676C10.2047 4.21864 9.60706 4.27723 9.27894 4.67567C8.95081 5.08582 9.00941 5.68348 9.40785 6.0116C9.818 6.33973 10.4157 6.28114 10.7438 5.8827C10.8844 5.70692 10.9547 5.49598 10.9547 5.27332C10.9664 5.00379 10.8375 4.73426 10.6149 4.54676ZM10.0172 5.64832C9.818 5.64832 9.65394 5.48426 9.65394 5.28504C9.65394 5.10926 9.78285 4.95692 9.94691 4.92176C9.97035 4.92176 9.99378 4.91004 10.0172 4.91004C10.0993 4.91004 10.1813 4.9452 10.2516 4.99207C10.3336 5.06238 10.3805 5.16785 10.3805 5.27332C10.3805 5.48426 10.2164 5.64832 10.0172 5.64832Z" fill="#231F20"/>
<path d="M12.8571 4.54676C12.4469 4.21864 11.8492 4.27723 11.5211 4.67567C11.193 5.08582 11.2516 5.68348 11.65 6.0116C12.0602 6.33973 12.6578 6.28114 12.986 5.8827C13.1266 5.70692 13.1969 5.49598 13.1969 5.27332C13.2086 5.00379 13.0797 4.73426 12.8571 4.54676ZM12.2477 5.64832C12.0485 5.64832 11.8844 5.48426 11.8844 5.28504C11.8844 5.10926 12.0133 4.95692 12.1774 4.92176C12.2008 4.92176 12.2242 4.91004 12.2477 4.91004C12.3297 4.91004 12.4117 4.9452 12.4821 4.99207C12.5641 5.06238 12.611 5.16785 12.611 5.27332C12.6227 5.48426 12.4586 5.64832 12.2477 5.64832Z" fill="#231F20"/>
<path d="M26.6484 3.46875H6.69141C5.71875 3.46875 4.92188 4.26562 4.92188 5.23828V6.79687C4.92188 6.96093 5.05078 7.08984 5.21484 7.08984H28.125C28.2891 7.08984 28.418 6.96093 28.418 6.79687V5.23828C28.418 4.26562 27.6211 3.46875 26.6484 3.46875ZM27.832 6.51562H5.50781V5.23828C5.50781 4.58203 6.03516 4.05469 6.69141 4.05469H26.6367C27.293 4.05469 27.8203 4.58203 27.8203 5.23828L27.832 6.51562Z" fill="#231F20"/>
<path d="M23.3686 10.9453H18.0718C18.0014 10.9453 17.9194 10.957 17.8491 10.9805C17.6968 11.0273 17.6147 11.1914 17.6616 11.3555C17.6733 11.3906 17.6968 11.4258 17.7202 11.4609C18.4819 12.3164 18.9507 13.4062 19.0444 14.543C19.0561 14.6953 19.185 14.8125 19.3374 14.8125H23.3686C23.7554 14.8125 24.0835 14.4961 24.0835 14.0977V11.6484C24.0835 11.2617 23.7671 10.9453 23.3686 10.9453ZM23.4975 14.0977C23.4975 14.168 23.439 14.2266 23.3686 14.2266H19.5952C19.4663 13.2539 19.103 12.3281 18.5288 11.5312H23.3686C23.439 11.5312 23.4975 11.5898 23.4975 11.6602V14.0977Z" fill="#231F20"/>
<path d="M17.6942 10.5937C15.245 8.36712 11.4598 8.55462 9.23329 10.9921C7.45204 12.9492 7.17079 15.832 8.53016 18.1054C8.54188 18.1289 8.54188 18.1406 8.53016 18.164L7.55751 20.2617C7.40516 20.5898 7.54579 20.9765 7.87391 21.1289C7.95594 21.164 8.04969 21.1875 8.14344 21.1875C8.23719 21.1875 8.33094 21.164 8.42469 21.1289L10.5223 20.1562C10.5458 20.1445 10.5692 20.1445 10.5927 20.1679C13.4286 21.8671 17.1083 20.9414 18.7958 18.1054C20.2723 15.6445 19.8036 12.5038 17.6942 10.5937ZM17.4833 18.8437C15.7372 20.6015 13.0184 20.9296 10.8973 19.664C10.7098 19.5468 10.4755 19.5351 10.2763 19.6289L8.1786 20.6015C8.14344 20.6132 8.10829 20.6015 8.08485 20.5664C8.07313 20.5429 8.07313 20.5312 8.08485 20.5078L9.05751 18.4101C9.15126 18.2109 9.13954 17.9882 9.02235 17.8007C7.48719 15.2343 8.33094 11.9179 10.8856 10.3945C12.9247 9.17572 15.5145 9.43353 17.2841 11.0273C19.4872 13.0312 19.6513 16.4531 17.6474 18.6562C17.6122 18.7148 17.5536 18.7734 17.4833 18.8437Z" fill="#231F20"/>
<path d="M23.3674 15.5039H19.301C19.1487 15.5039 19.0315 15.6094 19.008 15.7617C18.8557 16.8867 18.3518 17.9414 17.5666 18.7617C17.4494 18.8789 17.4612 19.0664 17.5783 19.1719C17.7073 19.3008 17.883 19.3711 18.0705 19.3711H23.3674C23.7541 19.3711 24.0822 19.0547 24.0822 18.6562V16.2187C24.0822 15.8203 23.7658 15.5039 23.3674 15.5039ZM23.4963 18.6562C23.4963 18.7266 23.4377 18.7852 23.3674 18.7852H18.3283C18.9612 18.0117 19.383 17.0859 19.5588 16.0898H23.3674C23.4377 16.0898 23.4963 16.1484 23.4963 16.2187V18.6562Z" fill="#231F20"/>
<path d="M26.6484 3.46875H6.69141C5.71875 3.46875 4.92188 4.26562 4.92188 5.23828V6.79688C4.92188 6.96094 5.05078 7.08984 5.21484 7.08984H23.8125C24.4688 7.08984 24.9961 7.61719 24.9961 8.27344V26.6602C24.9961 26.8242 25.125 26.9531 25.2891 26.9531H26.6484C27.6211 26.9531 28.418 26.1562 28.418 25.1836V5.23828C28.418 4.26562 27.6211 3.46875 26.6484 3.46875ZM27.832 25.1836C27.832 25.8398 27.3047 26.3672 26.6484 26.3672H25.582V8.28516C25.582 7.3125 24.7852 6.51562 23.8125 6.51562H5.50781V5.23828C5.50781 4.58203 6.03516 4.05469 6.69141 4.05469H26.6367C27.293 4.05469 27.8203 4.58203 27.8203 5.23828L27.832 25.1836Z" fill="#231F20"/>
<path d="M16.3954 14.2734C16.3485 14.1093 16.2079 13.9921 16.0438 13.9687L14.7196 13.7812L14.1336 12.5859C14.0282 12.3632 13.7586 12.2812 13.5477 12.3867C13.4657 12.4335 13.3954 12.5038 13.3485 12.5859L12.7625 13.7812L11.4383 13.9687C11.1922 14.0038 11.0282 14.2265 11.0633 14.4726C11.075 14.5663 11.1219 14.6601 11.1922 14.7187L12.1532 15.6562L11.9305 16.9687C11.8836 17.2031 12.0477 17.4374 12.2938 17.4726C12.3875 17.4843 12.493 17.4726 12.575 17.4257L13.7586 16.8046L14.9422 17.4257C15.1532 17.5429 15.4227 17.4609 15.5399 17.2382C15.5868 17.1562 15.5985 17.0507 15.5868 16.957L15.3641 15.6445L16.3251 14.707C16.4071 14.6015 16.4422 14.4257 16.3954 14.2734ZM14.8602 15.2929C14.7547 15.3984 14.7079 15.539 14.7313 15.6796L14.9188 16.7812L13.9344 16.2656C13.8055 16.1952 13.6532 16.1952 13.5243 16.2656L12.5399 16.7812L12.7274 15.6796C12.7508 15.539 12.704 15.3867 12.5985 15.2929L11.8016 14.5077L12.9032 14.3437C13.0438 14.3203 13.1727 14.2382 13.2313 14.0976L13.7235 13.1015L14.2157 14.0976C14.2743 14.2265 14.4032 14.3203 14.5438 14.3437L15.6454 14.5077L14.8602 15.2929Z" fill="#231F20"/>
<path d="M18.4902 14.461C18.4434 14.3203 18.3262 14.2149 18.1738 14.1914L17.3652 14.0742L17.002 13.3477C16.9082 13.1602 16.6738 13.0781 16.4863 13.1719C16.4043 13.207 16.3457 13.2774 16.3105 13.3477L15.9355 14.1094C15.8535 14.168 15.8066 14.25 15.8066 14.3555L15.3262 14.8242C15.209 14.9414 15.209 15.1172 15.3262 15.2344L15.5137 15.4219L15.373 16.2188C15.3379 16.4297 15.4785 16.6289 15.6895 16.6641C15.7715 16.6758 15.8652 16.6641 15.9355 16.6289L16.6504 16.2539L17.3652 16.6289C17.5527 16.7344 17.7871 16.6524 17.8926 16.4649C17.9277 16.3946 17.9512 16.3008 17.9277 16.2188L17.7871 15.4219L18.3731 14.8594C18.502 14.7539 18.5371 14.6016 18.4902 14.461ZM17.3301 15.082C17.2363 15.1758 17.2012 15.3047 17.2129 15.4219L17.2949 15.9375L16.8379 15.6914C16.7207 15.6328 16.5918 15.6328 16.4746 15.6914L16.0176 15.9375L16.0996 15.4219C16.123 15.293 16.0762 15.1641 15.9824 15.082L15.9355 15.0352L16.2637 14.7188C16.3223 14.6602 16.3691 14.5781 16.3926 14.4844C16.4043 14.461 16.416 14.4492 16.4277 14.4258L16.6621 13.957L16.8965 14.4258C16.9551 14.543 17.0606 14.625 17.1895 14.6367L17.7051 14.707L17.3301 15.082Z" fill="#231F20"/>
<path d="M12.2082 15.0352C12.2082 14.9531 12.173 14.8828 12.1144 14.8242L11.634 14.3555C11.634 14.2617 11.5871 14.168 11.5051 14.1094L11.1301 13.3477C11.0363 13.1602 10.8019 13.0781 10.6144 13.1719C10.5324 13.207 10.4738 13.2774 10.4387 13.3477L10.0754 14.0742L9.26677 14.1914C9.05584 14.2266 8.90349 14.4141 8.93865 14.6367C8.95037 14.7188 8.98552 14.8008 9.05584 14.8594L9.64178 15.4219L9.50115 16.2188C9.46599 16.4297 9.60662 16.6289 9.81756 16.6641C9.89959 16.6758 9.99334 16.6641 10.0637 16.6289L10.7785 16.2539L11.4933 16.6289C11.6808 16.7344 11.9152 16.6524 12.0207 16.4649C12.0558 16.3946 12.0793 16.3008 12.0558 16.2188L11.9152 15.4219L12.1027 15.2344C12.1848 15.1875 12.2082 15.1172 12.2082 15.0352ZM11.4465 15.082C11.3527 15.1758 11.3176 15.3047 11.3293 15.4219L11.4113 15.9375L10.9543 15.6914C10.8371 15.6328 10.7082 15.6328 10.591 15.6914L10.134 15.9375L10.216 15.4219C10.2394 15.293 10.1926 15.1641 10.0988 15.082L9.72381 14.7188L10.2394 14.6485C10.3683 14.625 10.4738 14.5547 10.5324 14.4375L10.7668 13.9688L11.0012 14.4375C11.0129 14.461 11.0246 14.4727 11.0363 14.4961C11.048 14.5781 11.0949 14.6602 11.1652 14.7305L11.4933 15.0469L11.4465 15.082Z" fill="#231F20"/>
<path d="M2.89453 4.33606H2.68359V4.12512C2.68359 3.96106 2.55469 3.83215 2.39062 3.83215C2.22656 3.83215 2.09766 3.96106 2.09766 4.12512V4.33606H1.875C1.71094 4.33606 1.58203 4.46497 1.58203 4.62903C1.58203 4.79309 1.72266 4.922 1.875 4.922H2.08594V5.13293C2.08594 5.297 2.21484 5.4259 2.37891 5.4259C2.54297 5.4259 2.67187 5.297 2.67187 5.13293V4.922H2.88281C3.04688 4.922 3.17578 4.79309 3.17578 4.62903C3.17578 4.46497 3.05859 4.33606 2.89453 4.33606Z" fill="#FF6489"/>
<path d="M28.4072 28.125C28.4072 28.1016 28.3955 28.0898 28.3955 28.0664C28.3838 28.0547 28.3838 28.0312 28.3721 28.0195C28.3604 28.0078 28.3486 27.9844 28.3369 27.9727C28.2197 27.8672 28.0439 27.8672 27.9268 27.9727C27.915 27.9844 27.9033 27.9961 27.8916 28.0195C27.8682 28.0547 27.8564 28.0898 27.8447 28.125C27.833 28.1602 27.833 28.207 27.8447 28.2422C27.8447 28.2656 27.8564 28.2773 27.8564 28.3008C27.8682 28.3242 27.8682 28.3359 27.8799 28.3477C27.8916 28.3594 27.9033 28.3828 27.915 28.3945C28.0322 28.5117 28.208 28.5117 28.3252 28.3945C28.3369 28.3828 28.3486 28.3711 28.3604 28.3477C28.3721 28.3359 28.3838 28.3125 28.3838 28.3008C28.3955 28.2891 28.3955 28.2656 28.3955 28.2422C28.419 28.207 28.4189 28.1602 28.4072 28.125Z" fill="#C0A3FA"/>
<path d="M13.8603 2.19141C13.8603 2.16797 13.8486 2.15625 13.8486 2.13281C13.8369 2.12109 13.8369 2.09766 13.8252 2.08594C13.8135 2.07422 13.8018 2.05078 13.79 2.03906C13.6728 1.93359 13.4971 1.93359 13.3799 2.03906C13.3682 2.05078 13.3564 2.0625 13.3447 2.08594C13.3213 2.12109 13.3096 2.15625 13.2979 2.19141C13.2861 2.22656 13.2861 2.27344 13.2979 2.30859C13.2979 2.33203 13.3096 2.34375 13.3096 2.36719C13.3213 2.39062 13.3213 2.40234 13.333 2.41406C13.3447 2.42578 13.3564 2.44922 13.3682 2.46094C13.4853 2.57812 13.6611 2.57812 13.7783 2.46094C13.79 2.44922 13.8018 2.4375 13.8135 2.41406C13.8252 2.40234 13.8369 2.37891 13.8369 2.36719C13.8486 2.35547 13.8486 2.33203 13.8486 2.30859C13.8721 2.26172 13.8721 2.22656 13.8603 2.19141Z" fill="#36CB95"/>
<path d="M11.0391 0.960938C10.5586 0.867188 10.1953 0.492188 10.1016 0.0234375C10.1016 0.0117188 10.0898 0 10.0781 0C10.0664 0 10.0664 0.0117188 10.0547 0.0234375C9.96094 0.503906 9.58594 0.867188 9.11719 0.960938C9.10547 0.960938 9.09375 0.972656 9.09375 0.984375C9.09375 0.996094 9.10547 0.996094 9.11719 1.00781C9.59766 1.10156 9.96094 1.47656 10.0547 1.94531C10.0547 1.95703 10.0664 1.96875 10.0781 1.96875C10.0898 1.96875 10.0898 1.95703 10.1016 1.94531C10.1953 1.46484 10.5703 1.10156 11.0391 1.00781C11.0508 1.00781 11.0625 0.996094 11.0625 0.984375C11.0508 0.960937 11.0508 0.960938 11.0391 0.960938Z" fill="#FFCD29"/>
</g>
<defs>
<clipPath id="clip0">
<rect width="30" height="30" fill="white"/>
</clipPath>
</defs>
</svg>
