<svg width="30" height="31" viewBox="0 0 30 31" fill="none" xmlns="http://www.w3.org/2000/svg">
<g clip-path="url(#clip0)">
<path d="M26.46 20.9609C26.3311 20.832 26.1318 20.832 26.0147 20.9609L20.2021 26.7734C20.0732 26.9023 20.0732 27.1016 20.2021 27.2188L21.2334 28.25L27.4912 21.9922L26.46 20.9609Z" fill="#E9E9EA"/>
<path d="M29.3779 22.8008L28.4404 21.8633C28.2178 21.6406 27.8428 21.6406 27.6201 21.8633L21.1982 28.2734C20.9756 28.4961 20.9756 28.8711 21.1982 29.0938L22.1357 30.0313C22.3584 30.2539 22.7334 30.2539 22.9561 30.0313L29.3779 23.6094C29.6123 23.3867 29.6123 23.0234 29.3779 22.8008Z" fill="#8A63D8"/>
<path d="M23.8945 19.6602C23.1797 18.9453 22.9688 18.2891 22.6875 17.7969C22.4883 17.4102 22.2305 17.0469 21.9141 16.7422L18.375 13.2031C17.9883 12.8164 17.3672 12.8164 16.9922 13.2031C16.6172 13.5898 16.6055 14.2109 16.9922 14.5859C16.6055 14.1992 15.9844 14.1992 15.6094 14.5859C15.2344 14.9727 15.2227 15.5937 15.6094 15.9687C15.2227 15.582 14.6016 15.582 14.2266 15.9687C13.8516 16.3555 13.8398 16.9766 14.2266 17.3516L11.3789 14.5039C10.9922 14.1289 10.3828 14.1289 9.99609 14.5039C9.62109 14.8906 9.62109 15.5 9.99609 15.8867L14.5078 20.4102C14.0859 19.9883 13.3945 19.9883 12.9609 20.4102C12.5273 20.832 12.5391 21.5234 12.9609 21.957L13.9219 22.918C14.6484 23.6445 15.5742 24.125 16.5703 24.3125C17.3906 24.5352 18.375 24.3711 19.6523 25.5547L20.543 26.4219L25.5937 21.3711L23.8945 19.6602Z" fill="#F9D0B4"/>
<path d="M18.9033 8.9962C18.9971 8.90245 18.9971 8.7501 18.9033 8.64464C18.8682 8.60948 18.8213 8.58604 18.7627 8.57432L12.7861 7.70714C12.7041 7.69542 12.6338 7.64854 12.5986 7.57823L9.92677 2.16417C9.86818 2.04698 9.71583 1.98839 9.59865 2.0587C9.55177 2.08214 9.51661 2.11729 9.49318 2.16417L6.8213 7.57823C6.78615 7.64854 6.71583 7.69542 6.6338 7.70714L0.657239 8.57432C0.528333 8.59776 0.434583 8.71495 0.446301 8.85557C0.45802 8.91417 0.481458 8.96104 0.516614 8.9962L4.84083 13.2149C4.89943 13.2735 4.92286 13.3556 4.91115 13.4259L3.89161 19.379C3.86818 19.5079 3.96193 19.6368 4.09083 19.6603C4.14943 19.672 4.1963 19.6603 4.24318 19.6368L9.58693 16.8243C9.65724 16.7892 9.73927 16.7892 9.80958 16.8243L12.1299 18.0431L9.97365 15.8868C9.59865 15.5001 9.59865 14.879 9.98536 14.504C10.3604 14.129 10.9697 14.129 11.3565 14.504L14.2041 17.3517C13.8174 16.9649 13.8174 16.3556 14.2041 15.9689C14.3799 15.7931 14.6143 15.6876 14.8721 15.6759L14.4854 13.4142C14.4736 13.3321 14.4971 13.2501 14.5557 13.2032L18.9033 8.9962Z" fill="#FFCD29"/>
<path d="M9.26953 20.1055H9.05859V19.8945C9.05859 19.7305 8.92969 19.6016 8.76563 19.6016C8.60156 19.6016 8.47266 19.7305 8.47266 19.8945V20.1055H8.26172C8.09766 20.1055 7.96875 20.2344 7.96875 20.3984C7.96875 20.5625 8.09766 20.6914 8.26172 20.6914H8.47266V20.9023C8.47266 21.0664 8.60156 21.1953 8.76563 21.1953C8.92969 21.1953 9.05859 21.0664 9.05859 20.9023V20.6914H9.26953C9.43359 20.6914 9.5625 20.5625 9.5625 20.3984C9.5625 20.2344 9.43359 20.1055 9.26953 20.1055Z" fill="#FFCD29"/>
<path d="M15.9023 0.734375C15.9023 0.710938 15.8906 0.699219 15.8906 0.675781C15.8789 0.652344 15.8789 0.640625 15.8672 0.628906C15.8555 0.617188 15.8438 0.59375 15.832 0.582031C15.7148 0.476562 15.5391 0.476562 15.4219 0.582031C15.4102 0.59375 15.3984 0.605469 15.3867 0.628906C15.375 0.640625 15.3633 0.664062 15.3633 0.675781C15.3516 0.699219 15.3516 0.710938 15.3516 0.734375C15.3516 0.757812 15.3516 0.769531 15.3398 0.792969C15.3398 0.816406 15.3398 0.828125 15.3516 0.851562C15.3516 0.875 15.3633 0.886719 15.3633 0.910156C15.375 0.921875 15.375 0.945312 15.3867 0.957031C15.3984 0.96875 15.4102 0.992188 15.4219 1.00391C15.5391 1.12109 15.7148 1.12109 15.832 1.00391C15.8438 0.992188 15.8555 0.980469 15.8672 0.957031C15.8789 0.945312 15.8906 0.921875 15.8906 0.910156C15.9023 0.898438 15.9023 0.875 15.9023 0.851562C15.9023 0.828125 15.9141 0.816406 15.9141 0.792969C15.9141 0.769531 15.9023 0.746094 15.9023 0.734375Z" fill="#36CB95"/>
<path d="M9.85644 25.2969C9.84473 25.2617 9.83301 25.2266 9.80957 25.1914C9.79785 25.1797 9.78613 25.1562 9.77441 25.1445C9.65723 25.0391 9.48145 25.0391 9.36426 25.1445C9.35254 25.1562 9.34082 25.168 9.3291 25.1914C9.31738 25.2031 9.30566 25.2266 9.30566 25.2383C9.29395 25.2617 9.29395 25.2734 9.29395 25.2969C9.28223 25.332 9.28223 25.3789 9.29395 25.4141C9.29395 25.4375 9.30566 25.4492 9.30566 25.4727C9.31738 25.4844 9.31738 25.5078 9.3291 25.5195C9.34082 25.5312 9.35254 25.5547 9.36426 25.5664C9.48145 25.6836 9.65723 25.6836 9.77441 25.5664C9.78613 25.5547 9.79785 25.543 9.80957 25.5195C9.82129 25.5078 9.83301 25.4844 9.83301 25.4727C9.84473 25.4609 9.84473 25.4375 9.84473 25.4141C9.86816 25.3672 9.86816 25.332 9.85644 25.2969Z" fill="#FF6489"/>
<path d="M14.4697 2.43359C13.9892 2.33984 13.6259 1.96484 13.5322 1.49609C13.5322 1.48437 13.5205 1.47266 13.5088 1.47266C13.497 1.47266 13.497 1.48437 13.4853 1.49609C13.3916 1.97656 13.0166 2.33984 12.5478 2.43359C12.5361 2.43359 12.5244 2.44531 12.5361 2.45703C12.5361 2.46875 12.5478 2.46875 12.5478 2.46875C13.0283 2.5625 13.3916 2.9375 13.4853 3.40625C13.4853 3.41797 13.497 3.42969 13.5088 3.42969C13.5205 3.42969 13.5205 3.41797 13.5322 3.40625C13.6259 2.92578 14.0009 2.5625 14.4697 2.46875C14.4814 2.46875 14.4931 2.45703 14.4814 2.44531C14.4814 2.44531 14.4814 2.43359 14.4697 2.43359Z" fill="#FF6489"/>
<path d="M6.5625 22.3555C6.08203 22.2617 5.71875 21.8867 5.625 21.418C5.625 21.4062 5.61328 21.3945 5.60156 21.3945C5.58984 21.3945 5.58984 21.4062 5.57812 21.418C5.48437 21.8984 5.10937 22.2617 4.64062 22.3555C4.62891 22.3555 4.61719 22.3672 4.61719 22.3789C4.61719 22.3906 4.62891 22.3906 4.64062 22.4023C5.12109 22.4961 5.48437 22.8711 5.57812 23.3398C5.57812 23.3516 5.58984 23.3633 5.60156 23.3633C5.61328 23.3633 5.61328 23.3516 5.625 23.3398C5.71875 22.8594 6.09375 22.4961 6.5625 22.4023C6.57422 22.4023 6.58594 22.3906 6.58594 22.3789C6.58594 22.3672 6.57422 22.3555 6.5625 22.3555Z" fill="#8A63D8"/>
<path d="M27.6914 21.7813L26.6602 20.75C26.4258 20.5156 26.0391 20.5156 25.8047 20.75L19.9922 26.5625C19.7578 26.7969 19.7578 27.1836 19.9922 27.418L21.0234 28.4492C21.1406 28.5664 21.3281 28.5664 21.4336 28.4492L27.6914 22.1914C27.8086 22.0859 27.8086 21.8984 27.6914 21.7813C27.7031 21.7813 27.7031 21.7813 27.6914 21.7813ZM21.2227 27.8398L20.4023 27.0195C20.3906 27.0078 20.3906 26.9961 20.4023 26.9844L26.2148 21.1719C26.2266 21.1602 26.2383 21.1602 26.25 21.1719L27.0703 21.9922L21.2227 27.8398Z" fill="#231F20"/>
<path d="M15.4434 20.9375L14.6934 20.1875C14.5762 20.0703 14.3887 20.0703 14.2832 20.1875C14.166 20.3047 14.166 20.4805 14.2832 20.5977L15.0332 21.3477C15.1504 21.4648 15.3379 21.4648 15.4434 21.3477C15.5606 21.2422 15.5606 21.0547 15.4434 20.9375C15.4551 20.9375 15.4434 20.9375 15.4434 20.9375Z" fill="#231F20"/>
<path d="M15.2715 17.9844L14.4395 17.1523C14.3223 17.0352 14.1348 17.0352 14.0293 17.1523C13.9121 17.2695 13.9121 17.4453 14.0293 17.5625L14.8613 18.3945C14.9785 18.5117 15.166 18.5 15.2715 18.3828C15.3769 18.2773 15.3769 18.1016 15.2715 17.9844Z" fill="#231F20"/>
<path d="M16.6504 16.6016L15.8184 15.7695C15.7012 15.6523 15.5137 15.6523 15.4082 15.7695C15.291 15.8867 15.291 16.0625 15.4082 16.1797L16.2402 17.0117C16.3574 17.1289 16.5449 17.1289 16.6504 17.0117C16.7676 16.9062 16.7676 16.7187 16.6504 16.6016Z" fill="#231F20"/>
<path d="M18.0361 15.2187L17.2041 14.3867C17.0869 14.2695 16.8994 14.2812 16.7939 14.3984C16.6885 14.5156 16.6885 14.6914 16.7939 14.8086L17.626 15.6406C17.7432 15.7578 17.9307 15.7461 18.0361 15.6289C18.1533 15.5117 18.1533 15.3242 18.0361 15.2187Z" fill="#231F20"/>
<path d="M29.5869 22.5898L28.6494 21.6523C28.3096 21.3125 27.7588 21.3125 27.419 21.6523L20.9971 28.0742C20.6572 28.4141 20.6572 28.9649 20.9971 29.3047L21.9346 30.2422C22.2744 30.582 22.8252 30.582 23.165 30.2422L29.5869 23.8203C29.9268 23.4805 29.9268 22.9297 29.5869 22.5898ZM29.1768 23.4102L22.7549 29.832C22.6377 29.9492 22.4619 29.9492 22.3447 29.832L21.4072 28.8945C21.29 28.7774 21.29 28.6016 21.4072 28.4844L27.8291 22.0625C27.9463 21.9453 28.1221 21.9453 28.2393 22.0625L29.1768 23C29.2822 23.1172 29.2822 23.293 29.1768 23.4102Z" fill="#231F20"/>
<path d="M25.8174 21.1602L24.1064 19.4492C23.708 19.0391 23.3916 18.5703 23.1572 18.043C23.0869 17.9023 23.0283 17.7734 22.958 17.6563C22.7471 17.2461 22.4658 16.8594 22.1377 16.5313L18.5986 12.9922C18.1064 12.5 17.2979 12.5 16.7939 12.9922C16.5596 13.2266 16.4189 13.5547 16.4189 13.8945C16.4189 13.9297 16.4189 13.9766 16.4189 14.0117C15.7158 13.9414 15.0947 14.457 15.0361 15.1602C15.0361 15.1953 15.0361 15.2422 15.0361 15.2773C15.0361 15.3125 15.0361 15.3594 15.0361 15.3945C14.3916 15.3359 13.8057 15.7578 13.6768 16.3906L11.5791 14.293C11.0752 13.8008 10.2783 13.8125 9.78613 14.3047C9.30566 14.7969 9.30566 15.5938 9.78613 16.0859L13.501 19.8125C12.751 19.9414 12.2354 20.6563 12.3643 21.4063C12.4111 21.6875 12.5518 21.9453 12.751 22.1563L13.7119 23.1172C14.4736 23.8789 15.4463 24.3945 16.5127 24.582C16.7236 24.6289 16.9346 24.6758 17.1455 24.6992C17.8018 24.8047 18.5518 24.9102 19.4541 25.7422L20.3447 26.6094C20.4619 26.7266 20.6377 26.7149 20.7549 26.6094L25.8057 21.5586C25.9228 21.4649 25.9228 21.2774 25.8174 21.1602ZM20.5557 26L19.8643 25.332C18.8213 24.3711 17.9424 24.2422 17.2393 24.1367C17.04 24.1133 16.8525 24.0781 16.6533 24.0313C16.6416 24.0313 16.6416 24.0313 16.6299 24.0313C15.6807 23.8672 14.8135 23.4102 14.1338 22.7188L13.1729 21.7578C12.8564 21.4414 12.8564 20.9375 13.1729 20.6328C13.4893 20.3164 13.9932 20.3164 14.2979 20.6328C14.415 20.75 14.6025 20.75 14.708 20.6328C14.8252 20.5156 14.8252 20.3399 14.708 20.2227L10.1963 15.6992C9.92676 15.4297 9.92676 14.9961 10.1963 14.7266C10.4658 14.457 10.8994 14.457 11.1689 14.7266L14.0166 17.5742C14.1338 17.6914 14.3213 17.6914 14.4268 17.5742C14.5439 17.457 14.5439 17.2695 14.4268 17.1641C14.1572 16.8945 14.1572 16.4609 14.4268 16.1914C14.6963 15.9219 15.1299 15.9219 15.3994 16.1914C15.5166 16.3086 15.7041 16.3086 15.8096 16.1914C15.9268 16.0742 15.9268 15.8984 15.8096 15.7813C15.54 15.5117 15.54 15.0781 15.8096 14.8086C16.0791 14.5391 16.5127 14.5391 16.7822 14.8086C16.8994 14.9258 17.0752 14.9258 17.1924 14.8203C17.3096 14.7031 17.3096 14.5273 17.2041 14.4102C17.2041 14.4102 17.2041 14.4102 17.1924 14.3984C16.9229 14.1289 16.9229 13.6953 17.1924 13.4258C17.4619 13.1563 17.8955 13.1563 18.165 13.4258L21.7041 16.9648C21.9971 17.2578 22.2314 17.5859 22.4189 17.9492C22.4189 17.9492 22.4189 17.9609 22.4307 17.9609C22.4893 18.0664 22.5479 18.1953 22.6182 18.3242C22.876 18.8984 23.2393 19.4258 23.6846 19.8828L25.1846 21.3828L20.5557 26Z" fill="#231F20"/>
<path d="M19.2423 8.6563C19.1837 8.45708 19.0079 8.31645 18.8087 8.29302L12.8556 7.42583L10.1954 2.0352C10.0665 1.76567 9.73839 1.6602 9.48058 1.78911C9.37511 1.83598 9.29308 1.92973 9.23449 2.0352L6.56261 7.42583L0.621204 8.29302C0.328235 8.33989 0.129016 8.60942 0.164173 8.90239C0.175892 9.01958 0.234485 9.12505 0.316517 9.20708L4.6173 13.4024L3.59777 19.3321C3.55089 19.625 3.73839 19.9063 4.03136 19.9532C4.14855 19.9766 4.26574 19.9532 4.3712 19.8946L9.69152 17.0938L11.9884 18.3008C12.129 18.3711 12.3048 18.3243 12.3868 18.1836C12.4454 18.0665 12.422 17.9258 12.34 17.8438L11.1095 16.6016L10.1954 15.6875C9.92589 15.418 9.92589 14.9844 10.1954 14.7149C10.465 14.4454 10.8985 14.4454 11.1681 14.7149L14.0157 17.5625C14.1329 17.6797 14.3204 17.6797 14.4259 17.5625C14.5431 17.4454 14.5431 17.2696 14.4259 17.1524C14.1564 16.8829 14.1564 16.4493 14.4259 16.1797C14.5548 16.0508 14.7189 15.9805 14.8946 15.9805C15.0587 15.9805 15.1876 15.8399 15.1759 15.6758C15.1759 15.6641 15.1759 15.6524 15.1759 15.6407L14.7892 13.4024L19.1017 9.20708C19.254 9.06645 19.3009 8.8438 19.2423 8.6563ZM14.3673 13.004C14.2384 13.1329 14.1798 13.3086 14.215 13.4844L14.5548 15.4532C14.1095 15.5821 13.7814 15.9454 13.6759 16.4024L11.5782 14.3047C11.086 13.8125 10.2775 13.8008 9.78527 14.3047C9.29308 14.8086 9.28136 15.6055 9.78527 16.0977L10.5821 16.8946L9.96105 16.5665C9.80871 16.4844 9.6212 16.4844 9.45714 16.5665L4.19542 19.3321L5.20324 13.4727C5.23839 13.2969 5.1798 13.1211 5.05089 12.9922L0.796985 8.85552L6.6798 8.00005C6.85558 7.97661 7.00792 7.85942 7.08995 7.70708L9.71496 2.37505L12.34 7.70708C12.422 7.87114 12.5743 7.97661 12.7501 8.00005L18.6329 8.85552L14.3673 13.004Z" fill="#231F20"/>
</g>
<defs>
<clipPath id="clip0">
<rect width="30" height="30" fill="white" transform="translate(0 0.5)"/>
</clipPath>
</defs>
</svg>
