<svg width="30" height="30" viewBox="0 0 30 30" fill="none" xmlns="http://www.w3.org/2000/svg">
<path d="M23.2383 3.91406H19.5352C19.8633 4.28906 19.8398 4.85156 19.4648 5.19141C19.3008 5.34375 19.0898 5.42578 18.8672 5.42578H11.2031C10.7109 5.42578 10.3008 5.02734 10.3008 4.52344C10.3008 4.30078 10.3828 4.08984 10.5352 3.92578H6.76172C6.04688 3.92578 5.46094 4.51172 5.46094 5.22656V28.4062C5.46094 29.1211 6.04688 29.707 6.76172 29.707H23.2383C23.9531 29.707 24.5391 29.1211 24.5391 28.4062V5.22656C24.5391 4.5 23.9531 3.91406 23.2383 3.91406Z" fill="#B8B5BF"/>
<path d="M23.2383 5.12109H19.5352C19.3594 5.30859 19.125 5.42578 18.8672 5.42578H11.2031C10.9453 5.42578 10.6992 5.32031 10.5352 5.12109H6.76172C6.70313 5.12109 6.66797 5.16797 6.65625 5.22656V28.4062C6.65625 28.4648 6.70313 28.5 6.76172 28.5117H19.793L23.3438 24.9609V5.22656C23.332 5.16797 23.2969 5.12109 23.2383 5.12109Z" fill="#E9E9EA"/>
<path d="M15.0234 24.7852C17.9682 24.7852 20.3555 22.3979 20.3555 19.4531C20.3555 16.5083 17.9682 14.1211 15.0234 14.1211C12.0786 14.1211 9.69141 16.5083 9.69141 19.4531C9.69141 22.3979 12.0786 24.7852 15.0234 24.7852Z" fill="#FF6489"/>
<path d="M17.4492 17.8946C17.3789 16.6289 16.3711 15.6211 15.1172 15.5625C13.7578 15.5039 12.6094 16.5469 12.5508 17.8946C12.5508 17.9297 12.5508 17.9766 12.5508 18.0117C12.5508 18.3164 12.7969 18.5625 13.1016 18.5625C13.4062 18.5625 13.6523 18.3164 13.6523 18.0117C13.6523 17.2735 14.2617 16.6641 15 16.6641C15.7383 16.6641 16.3477 17.2735 16.3477 18.0117C16.3477 18.5742 15.9961 19.0899 15.457 19.2774C14.8477 19.5 14.4492 20.0742 14.4492 20.7188C14.4492 21.0235 14.6953 21.2696 15 21.2696C15.3047 21.2696 15.5508 21.0235 15.5508 20.7188C15.5508 20.543 15.6562 20.3789 15.832 20.3203C16.8516 19.9571 17.5078 18.9727 17.4492 17.8946Z" fill="#E9E9EA"/>
<path d="M15.1044 22.2539C14.7998 22.1953 14.5068 22.3828 14.4482 22.6875C14.3896 22.9921 14.5771 23.2851 14.8818 23.3437C15.1865 23.4023 15.4794 23.2148 15.538 22.9101C15.5498 22.875 15.5498 22.8398 15.5498 22.8046C15.5498 22.5351 15.3623 22.3124 15.1044 22.2539Z" fill="#E9E9EA"/>
<path d="M19.8867 24.9609C19.8281 24.9609 19.793 25.0078 19.7812 25.0664V28.5117L23.332 24.9609H19.8867Z" fill="#FFCD29"/>
<path d="M15.0351 0.925781C13.8398 0.925781 12.8789 1.89844 12.8789 3.08203V3.62109H14.0859V3.08203C14.0859 2.55469 14.5195 2.12109 15.0469 2.12109C15.5742 2.12109 16.0078 2.55469 16.0078 3.08203V3.62109H17.2148V3.08203C17.1914 1.88672 16.2187 0.925781 15.0351 0.925781Z" fill="#E9E9EA"/>
<path d="M18.8672 3.62109H11.2031C10.7109 3.62109 10.3008 4.01953 10.3008 4.52344C10.3008 5.02734 10.6992 5.42578 11.2031 5.42578H18.8672C19.3594 5.42578 19.7695 5.02734 19.7695 4.52344C19.7695 4.01953 19.3594 3.62109 18.8672 3.62109Z" fill="#898989"/>
<path d="M23.6133 24.8437C23.5664 24.7383 23.4609 24.668 23.3437 24.668H19.8984C19.6758 24.668 19.5 24.8437 19.5 25.0664V28.5117C19.5 28.6758 19.6289 28.8047 19.793 28.8047C19.875 28.8047 19.9453 28.7695 20.0039 28.7227L23.5547 25.1719C23.625 25.0781 23.6484 24.9492 23.6133 24.8437ZM20.0859 27.7969V25.2539H22.6289L20.0859 27.7969Z" fill="#231F20"/>
<path d="M23.2383 3.62109H19.5352C19.3711 3.62109 19.2422 3.75 19.2422 3.91406C19.2422 3.98438 19.2656 4.05469 19.3125 4.11328C19.5352 4.35937 19.5117 4.74609 19.2656 4.96875C19.1484 5.07422 19.0078 5.12109 18.8555 5.12109H11.2031C10.8633 5.12109 10.5938 4.85156 10.5938 4.51172C10.5938 4.35938 10.6523 4.21875 10.7461 4.10156C10.8516 3.98438 10.8398 3.79688 10.7227 3.69141C10.6641 3.64453 10.5938 3.62109 10.5234 3.62109H6.76172C5.88281 3.62109 5.16797 4.33594 5.16797 5.21484V28.3945C5.16797 29.2734 5.88281 29.9883 6.76172 29.9883H23.2383C24.1172 29.9883 24.832 29.2734 24.832 28.3945V5.22656C24.832 4.33594 24.1172 3.62109 23.2383 3.62109ZM24.2461 28.4062C24.2461 28.9688 23.7891 29.4141 23.2383 29.4141H6.76172C6.19922 29.4141 5.75391 28.957 5.75391 28.4062V5.22656C5.75391 4.66406 6.21094 4.21875 6.76172 4.21875H10.043C9.86719 4.85156 10.2539 5.50781 10.8867 5.68359C10.9922 5.70703 11.0977 5.71875 11.1914 5.71875H18.8672C19.5234 5.71875 20.0625 5.17969 20.0625 4.52344C20.0625 4.41797 20.0508 4.3125 20.0273 4.21875H23.25C23.8125 4.21875 24.2578 4.67578 24.2578 5.22656L24.2461 28.4062Z" fill="#231F20"/>
<path d="M18.8672 3.32812H11.2031C10.5469 3.32812 10.0078 3.86719 10.0078 4.52344C10.0078 5.17968 10.5469 5.71875 11.2031 5.71875H18.8672C19.5235 5.71875 20.0625 5.17968 20.0625 4.52344C20.0625 3.86719 19.5235 3.32812 18.8672 3.32812ZM18.8672 5.13281H11.2031C10.8633 5.13281 10.5938 4.86328 10.5938 4.52344C10.5938 4.18359 10.8633 3.91406 11.2031 3.91406H18.8672C19.207 3.91406 19.4766 4.18359 19.4766 4.52344C19.4766 4.86328 19.1953 5.13281 18.8672 5.13281Z" fill="#231F20"/>
<path d="M23.2383 4.82812H19.5352C19.4531 4.82812 19.3711 4.86328 19.3125 4.92187C19.1953 5.05078 19.0312 5.12109 18.8555 5.12109H11.2031C11.0273 5.12109 10.8633 5.05078 10.7461 4.92187C10.6875 4.86328 10.6055 4.82812 10.5234 4.82812H6.76172C6.53906 4.82812 6.36328 5.00391 6.36328 5.22656V28.4062C6.36328 28.6289 6.53906 28.8047 6.76172 28.8047H19.793C19.875 28.8047 19.9453 28.7695 20.0039 28.7227L23.5547 25.1719C23.6133 25.1133 23.6367 25.043 23.6367 24.9609V5.22656C23.625 5.00391 23.4492 4.82812 23.2383 4.82812ZM23.0508 24.832L19.6758 28.207H6.94922V5.41406H10.4063C10.6289 5.60156 10.9102 5.71875 11.1914 5.71875H18.8672C19.1602 5.71875 19.4414 5.61328 19.6523 5.41406H23.0508V24.832Z" fill="#231F20"/>
<path d="M15.0351 0.632812C13.6758 0.632812 12.5859 1.73438 12.5859 3.08203V3.6211C12.5859 3.78516 12.7148 3.91407 12.8789 3.91407H14.0859C14.25 3.91407 14.3789 3.78516 14.3789 3.6211V3.08203C14.3789 2.71875 14.6719 2.41406 15.0469 2.41406C15.4101 2.41406 15.7148 2.70703 15.7148 3.08203V3.6211C15.7148 3.78516 15.8437 3.91407 16.0078 3.91407H17.2148C17.3789 3.91407 17.5078 3.78516 17.5078 3.6211V3.08203C17.4844 1.72266 16.3828 0.632812 15.0351 0.632812ZM16.8984 3.32813H16.2773V3.08203C16.2773 2.39063 15.7148 1.82813 15.0234 1.82813C14.332 1.82813 13.7695 2.39063 13.7695 3.08203V3.32813H13.1484V3.08203C13.1484 2.05078 13.9805 1.21875 15.0117 1.21875C16.043 1.21875 16.875 2.05078 16.875 3.08203L16.8984 3.32813Z" fill="#231F20"/>
<path d="M18.457 5.13281C18.293 5.13281 18.1641 5.26172 18.1641 5.42578V6.23438C18.1641 6.48047 17.9648 6.67969 17.7187 6.67969H12.3398C12.0938 6.67969 11.8945 6.48047 11.8945 6.23438V5.42578C11.8945 5.26172 11.7656 5.13281 11.6016 5.13281C11.4375 5.13281 11.3086 5.26172 11.3086 5.42578V6.23438C11.3086 6.79688 11.7656 7.26562 12.3398 7.26562H17.7187C18.2812 7.26562 18.75 6.80859 18.75 6.23438V5.42578C18.75 5.26172 18.6211 5.13281 18.457 5.13281Z" fill="#231F20"/>
<path d="M16.8398 9H13.1953C13.0312 9 12.9023 9.12891 12.9023 9.29297C12.9023 9.45703 13.0312 9.58594 13.1953 9.58594H16.8398C17.0039 9.58594 17.1328 9.45703 17.1328 9.29297C17.1328 9.12891 17.0039 9 16.8398 9Z" fill="#231F20"/>
<path d="M19.3828 10.5586H10.6758C10.5117 10.5586 10.3828 10.6875 10.3828 10.8516C10.3828 11.0156 10.5117 11.1445 10.6758 11.1445H19.3828C19.5469 11.1445 19.6758 11.0156 19.6758 10.8516C19.6758 10.6875 19.5469 10.5586 19.3828 10.5586Z" fill="#231F20"/>
<path d="M19.3828 12.1055H10.6758C10.5117 12.1055 10.3828 12.2344 10.3828 12.3984C10.3828 12.5625 10.5117 12.6914 10.6758 12.6914H19.3828C19.5469 12.6914 19.6758 12.5625 19.6758 12.3984C19.6758 12.2344 19.5469 12.1055 19.3828 12.1055Z" fill="#231F20"/>
<path d="M15.0234 13.8164C11.918 13.8164 9.39844 16.3359 9.39844 19.4414C9.39844 22.5469 11.918 25.0664 15.0234 25.0664C18.1289 25.0664 20.6484 22.5469 20.6484 19.4414C20.6484 16.3359 18.1289 13.8281 15.0234 13.8164ZM15.0234 24.4922C12.2344 24.4922 9.98438 22.2305 9.98438 19.4531C9.98438 16.6758 12.2461 14.4141 15.0234 14.4141C17.8008 14.4141 20.0625 16.6758 20.0625 19.4531C20.0625 22.2305 17.8008 24.4805 15.0234 24.4922Z" fill="#231F20"/>
<path d="M17.7422 17.8828C17.6719 16.4648 16.5352 15.3398 15.1289 15.2695C13.6172 15.1992 12.3281 16.371 12.2578 17.8828C12.2578 17.9296 12.2578 17.9648 12.2578 18.0117C12.2578 18.4804 12.6328 18.8554 13.1016 18.8554C13.5703 18.8554 13.9453 18.4804 13.9453 18.0117C13.9453 17.4257 14.4141 16.957 15 16.957C15.0234 16.957 15.0352 16.957 15.0586 16.957C15.6445 16.9804 16.0898 17.4843 16.0547 18.0585C16.0313 18.4804 15.7617 18.8554 15.3633 18.996C14.6367 19.2539 14.1563 19.9453 14.1563 20.707C14.1563 21.1757 14.5313 21.5507 15 21.5507C15.4688 21.5507 15.8438 21.1757 15.8438 20.707C15.8438 20.6484 15.8789 20.6015 15.9258 20.5898C17.0742 20.1914 17.8008 19.0898 17.7422 17.8828ZM15.7383 20.0507C15.457 20.1562 15.2695 20.4257 15.2695 20.7187C15.2695 20.8593 15.1523 20.9765 15.0117 20.9765C14.8711 20.9765 14.7539 20.8593 14.7539 20.7187C14.7539 20.1914 15.082 19.7343 15.5742 19.5585C16.4297 19.2539 16.8633 18.3164 16.5586 17.4609C16.3359 16.8398 15.7617 16.4062 15.0938 16.3828C15.0703 16.3828 15.0469 16.3828 15.0117 16.3828C14.1094 16.3828 13.3711 17.121 13.3711 18.0234C13.3711 18.164 13.2539 18.2812 13.1133 18.2812C12.9727 18.2812 12.8555 18.164 12.8555 18.0234C12.8555 16.8281 13.8281 15.8554 15.0117 15.8554C15.0469 15.8554 15.082 15.8554 15.1172 15.8554C16.2305 15.914 17.1211 16.8046 17.1797 17.9179C17.2031 18.8554 16.6289 19.7343 15.7383 20.0507Z" fill="#231F20"/>
<path d="M15.1659 21.9726C14.7088 21.8789 14.2635 22.1719 14.1698 22.6406C14.076 23.0976 14.369 23.543 14.8378 23.6367C15.2948 23.7305 15.7401 23.4375 15.8339 22.9687C15.8456 22.9101 15.8456 22.8633 15.8456 22.8047C15.8456 22.3945 15.5643 22.0547 15.1659 21.9726ZM15.0018 23.0625C14.8612 23.0625 14.744 22.9453 14.744 22.8047C14.744 22.7226 14.7792 22.6523 14.8378 22.6055C14.8846 22.5703 14.9432 22.5469 15.0018 22.5469C15.0253 22.5469 15.037 22.5469 15.0604 22.5469C15.201 22.582 15.2948 22.7109 15.2596 22.8516C15.2245 22.9805 15.119 23.0625 15.0018 23.0625Z" fill="#231F20"/>
<path d="M11.0273 0C10.8633 0 10.7344 0.128906 10.7344 0.292969C10.7344 0.375 10.7695 0.445313 10.8164 0.503906C10.9336 0.621094 11.1211 0.609375 11.2383 0.492188C11.2852 0.433594 11.3203 0.363281 11.3203 0.292969C11.3203 0.128906 11.1914 0 11.0273 0Z" fill="#C0A3FA"/>
<path d="M25.8984 26.1445C25.7344 26.1445 25.6055 26.2734 25.6055 26.4375C25.6055 26.6016 25.7344 26.7305 25.8984 26.7305C26.0625 26.7305 26.1914 26.6016 26.1914 26.4375C26.1914 26.2734 26.0625 26.1445 25.8984 26.1445Z" fill="#FFCD29"/>
<path d="M9.5283 1.4531C9.08298 1.37106 8.73142 1.0195 8.64939 0.57419C8.64939 0.562471 8.63767 0.550753 8.62595 0.562471C8.61423 0.562471 8.61423 0.57419 8.61423 0.57419C8.5322 1.0195 8.18064 1.37106 7.73532 1.4531C7.7236 1.4531 7.71189 1.46481 7.7236 1.47653C7.7236 1.48825 7.73532 1.48825 7.73532 1.48825C8.18064 1.57028 8.5322 1.92185 8.61423 2.36716C8.61423 2.37888 8.62595 2.3906 8.63767 2.37888C8.64939 2.37888 8.64939 2.36716 8.64939 2.36716C8.73142 1.92185 9.08298 1.57028 9.5283 1.48825C9.54002 1.48825 9.55174 1.47653 9.54002 1.46481C9.55174 1.4531 9.54002 1.4531 9.5283 1.4531Z" fill="#36CB95"/>
<path d="M27.7969 23.2852H27.5859V23.0742C27.5859 22.9102 27.457 22.7812 27.293 22.7812C27.1289 22.7812 27 22.9102 27 23.0742V23.2852H26.7891C26.625 23.2852 26.4961 23.4141 26.4961 23.5781C26.4961 23.7422 26.625 23.8711 26.7891 23.8711H27V24.082C27 24.2461 27.1289 24.375 27.293 24.375C27.457 24.375 27.5859 24.2461 27.5859 24.082V23.8711H27.7969C27.9609 23.8711 28.0898 23.7422 28.0898 23.5781C28.0898 23.4141 27.9609 23.2852 27.7969 23.2852Z" fill="#FF6489"/>
</svg>
