<svg width="20" height="20" viewBox="0 0 20 20" fill="none" xmlns="http://www.w3.org/2000/svg">
<path fill-rule="evenodd" clip-rule="evenodd" d="M16.532 15.161C16.532 17.9077 12.7654 18.2252 9.93286 18.2252L9.73017 18.225C7.92554 18.2206 3.33203 18.1067 3.33203 15.1443C3.33203 12.4537 6.94732 12.0941 9.75827 12.0806L10.1356 12.0803C11.9401 12.0847 16.532 12.1987 16.532 15.161ZM9.93286 13.3302C6.38203 13.3302 4.58203 13.9402 4.58203 15.1443C4.58203 16.3593 6.38203 16.9752 9.93286 16.9752C13.4829 16.9752 15.282 16.3652 15.282 15.161C15.282 13.946 13.4829 13.3302 9.93286 13.3302ZM9.93286 1.6665C12.3729 1.6665 14.357 3.6515 14.357 6.0915C14.357 8.5315 12.3729 10.5157 9.93286 10.5157H9.9062C7.4712 10.5082 5.4987 8.52234 5.507 6.089C5.507 3.6515 7.49203 1.6665 9.93286 1.6665ZM9.93286 2.8565C8.1487 2.8565 6.69701 4.30734 6.69701 6.0915C6.6912 7.86984 8.13203 9.31984 9.9087 9.3265L9.93286 9.9215V9.3265C11.7162 9.3265 13.167 7.87484 13.167 6.0915C13.167 4.30734 11.7162 2.8565 9.93286 2.8565Z" fill="#151313"/>
</svg>
