<svg width="21" height="20" viewBox="0 0 21 20" fill="none" xmlns="http://www.w3.org/2000/svg">
<path fill-rule="evenodd" clip-rule="evenodd" d="M10.4997 3.33374C13.9464 3.33624 17.0414 5.75207 18.7797 9.79707C18.848 9.95457 18.848 10.1329 18.7797 10.2904C17.0422 14.3362 13.9464 16.7521 10.4997 16.7546H10.4947C7.04802 16.7521 3.95302 14.3362 2.21469 10.2904C2.14719 10.1329 2.14719 9.95457 2.21469 9.79707C3.95302 5.75207 7.04885 3.33624 10.4947 3.33374H10.4997ZM10.4972 4.58374C7.63385 4.58457 5.02219 6.62041 3.47219 10.0437C5.02219 13.4679 7.63302 15.5037 10.4972 15.5046C13.3614 15.5037 15.9722 13.4679 17.5222 10.0437C15.9722 6.62041 13.3614 4.58457 10.4972 4.58374ZM10.4969 6.78441C12.2944 6.78441 13.7569 8.24691 13.7569 10.0444C13.7569 11.8411 12.2944 13.3027 10.4969 13.3027C8.69944 13.3027 7.23777 11.8411 7.23777 10.0444C7.23777 8.24691 8.69944 6.78441 10.4969 6.78441ZM10.4969 8.03441C9.3886 8.03441 8.48777 8.93607 8.48777 10.0444C8.48777 11.1519 9.3886 12.0527 10.4969 12.0527C11.6053 12.0527 12.5069 11.1519 12.5069 10.0444C12.5069 8.93607 11.6053 8.03441 10.4969 8.03441Z" fill="black"/>
</svg>
