<svg width="192" height="30" viewBox="0 0 192 30" fill="none" xmlns="http://www.w3.org/2000/svg">
<path d="M1.08556 20.576C1.08556 19.792 1.23756 19.12 1.54156 18.56C2.24556 18.336 2.70156 18.224 2.90956 18.224C3.29356 18.224 3.87756 18.336 4.66156 18.56C4.74156 18.768 4.79756 19.072 4.82956 19.472C5.59756 19.984 6.46156 20.24 7.42156 20.24C8.30156 20.24 9.06956 19.984 9.72556 19.472C10.3976 18.944 10.7336 18.36 10.7336 17.72C10.7336 16.808 9.85356 16.32 8.09356 16.256C7.42156 16.224 6.83756 16.184 6.34156 16.136C5.84556 16.072 5.25356 15.952 4.56556 15.776C3.89356 15.584 3.34156 15.336 2.90956 15.032C2.47756 14.728 2.10156 14.304 1.78156 13.76C1.47756 13.2 1.32556 12.544 1.32556 11.792C1.32556 10.192 1.90956 8.824 3.07756 7.688C4.24556 6.536 5.64556 5.96 7.27756 5.96C8.41356 5.96 9.50156 6.248 10.5416 6.824C10.6376 6.344 10.8056 6.008 11.0456 5.816C11.3496 5.656 11.7336 5.576 12.1976 5.576C12.9336 5.576 13.4456 5.72 13.7336 6.008C13.8296 6.296 13.8776 7.016 13.8776 8.168C13.8776 8.936 13.8056 9.48 13.6616 9.8C13.5336 10.12 13.2776 10.32 12.8936 10.4C12.6216 10.48 12.3576 10.52 12.1016 10.52C11.5256 10.52 11.0536 10.4 10.6856 10.16C10.5896 9.92 10.5416 9.656 10.5416 9.368C9.99756 9.096 9.20556 8.96 8.16556 8.96C7.04556 8.96 6.18956 9.144 5.59756 9.512C5.00556 9.864 4.70956 10.464 4.70956 11.312C4.70956 11.936 4.88556 12.392 5.23756 12.68C5.60556 12.952 6.18956 13.104 6.98956 13.136C9.26156 13.248 10.8056 13.432 11.6216 13.688C13.3656 14.216 14.2376 15.368 14.2376 17.144C14.2376 18.824 13.6136 20.264 12.3656 21.464C11.1176 22.648 9.51756 23.24 7.56556 23.24C6.46156 23.24 5.50156 22.944 4.68556 22.352C4.68556 22.752 4.60556 23.048 4.44556 23.24C4.15756 23.4 3.68556 23.48 3.02956 23.48C2.32556 23.48 1.84556 23.36 1.58956 23.12C1.25356 22.48 1.08556 21.632 1.08556 20.576ZM15.9399 17.984C15.9399 16.176 16.5879 14.52 17.8839 13.016C19.1959 11.512 20.6599 10.76 22.2759 10.76C23.2679 10.76 24.1159 11.064 24.8199 11.672C25.5239 12.28 25.8759 13.072 25.8759 14.048C25.8759 15.184 25.4039 16.16 24.4599 16.976C23.5319 17.776 22.2999 18.176 20.7639 18.176C19.8839 18.176 19.2679 18.04 18.9159 17.768C18.9319 18.536 19.2039 19.152 19.7319 19.616C20.2599 20.064 20.8679 20.288 21.5559 20.288C22.4519 20.288 23.1799 19.936 23.7399 19.232C23.7399 19.104 23.7639 18.968 23.8119 18.824C24.5159 18.248 25.2759 17.96 26.0919 17.96C26.2519 17.96 26.3719 17.968 26.4519 17.984C27.5079 18.56 28.1559 19.504 28.3959 20.816C28.3799 20.944 28.3159 21.08 28.2039 21.224C28.1079 21.368 28.0039 21.496 27.8919 21.608C27.7799 21.704 27.6199 21.824 27.4119 21.968C27.2039 22.096 27.0359 22.192 26.9079 22.256C26.7959 22.32 26.6199 22.416 26.3799 22.544C26.1559 22.672 26.0279 22.744 25.9959 22.76C25.8999 22.76 25.8199 22.752 25.7559 22.736C25.6919 22.704 25.6279 22.664 25.5639 22.616C25.5159 22.552 25.4839 22.512 25.4679 22.496C25.4519 22.464 25.4199 22.4 25.3719 22.304C25.3239 22.192 25.2919 22.128 25.2759 22.112C24.0919 22.896 22.8199 23.288 21.4599 23.288C19.9399 23.288 18.6359 22.8 17.5479 21.824C16.4759 20.848 15.9399 19.568 15.9399 17.984ZM19.6839 15.176C19.6839 15.704 20.0679 15.968 20.8359 15.968C21.4119 15.968 21.9639 15.832 22.4919 15.56C23.0199 15.288 23.2839 14.952 23.2839 14.552C23.2839 14.28 23.1879 14 22.9959 13.712C22.8199 13.408 22.5319 13.256 22.1319 13.256C21.6359 13.256 21.0999 13.456 20.5239 13.856C19.9639 14.256 19.6839 14.696 19.6839 15.176ZM29.0581 22.592C29.0581 21.824 29.2901 21.136 29.7541 20.528C29.8341 20.512 29.9781 20.504 30.1861 20.504C30.4581 20.504 30.6661 20.528 30.8101 20.576C31.8821 18.912 32.9141 17.704 33.9061 16.952C33.2181 16.504 32.5701 15.968 31.9621 15.344C31.3541 14.704 30.9061 14.072 30.6181 13.448C30.4101 13.496 30.1221 13.52 29.7541 13.52C29.3381 12.992 29.1141 12.296 29.0821 11.432C29.8661 11.128 30.7781 10.976 31.8181 10.976C32.8581 10.976 33.7381 11.04 34.4581 11.168C34.6181 11.184 34.8101 11.464 35.0341 12.008C35.2741 12.536 35.3941 12.936 35.3941 13.208C35.1541 13.352 34.8981 13.424 34.6261 13.424C34.3541 13.424 34.1381 13.408 33.9781 13.376C34.0261 13.424 34.2261 13.64 34.5781 14.024C34.9301 14.408 35.2661 14.736 35.5861 15.008C35.9221 15.264 36.2981 15.496 36.7141 15.704C37.8501 15 38.7701 14.224 39.4741 13.376C39.3621 13.408 39.1141 13.424 38.7301 13.424C38.3621 13.424 38.1381 13.352 38.0581 13.208C38.0581 13 38.1701 12.648 38.3941 12.152C38.6181 11.656 38.8101 11.328 38.9701 11.168C39.6421 11.024 40.5061 10.952 41.5621 10.952C42.6341 10.952 43.5621 11.112 44.3461 11.432C44.3461 12.392 44.1301 13.088 43.6981 13.52C43.5861 13.6 43.4901 13.64 43.4101 13.64C43.3301 13.64 43.1381 13.576 42.8341 13.448C41.6181 15.144 40.5381 16.312 39.5941 16.952C41.1621 18.296 42.1621 19.48 42.5941 20.504C42.7221 20.44 42.8741 20.408 43.0501 20.408C43.1941 20.408 43.4101 20.448 43.6981 20.528C44.1461 20.864 44.3701 21.512 44.3701 22.472V22.592C43.5701 22.928 42.6661 23.096 41.6581 23.096C40.6981 23.096 39.8021 23.024 38.9701 22.88C38.7301 22.752 38.5141 22.464 38.3221 22.016C38.1461 21.552 38.0581 21.16 38.0581 20.84C38.2181 20.664 38.4581 20.576 38.7781 20.576C38.9541 20.576 39.1061 20.6 39.2341 20.648C38.9781 20.184 38.6181 19.736 38.1541 19.304C37.7061 18.872 37.2261 18.56 36.7141 18.368C36.5061 18.448 36.2981 18.552 36.0901 18.68C35.8981 18.808 35.7381 18.928 35.6101 19.04C35.4821 19.136 35.3301 19.28 35.1541 19.472C34.9941 19.648 34.8821 19.776 34.8181 19.856C34.7541 19.936 34.6421 20.08 34.4821 20.288C34.3221 20.496 34.2341 20.616 34.2181 20.648C34.2661 20.648 34.3941 20.64 34.6021 20.624C34.8101 20.608 34.9541 20.6 35.0341 20.6C35.3221 20.6 35.5221 20.664 35.6341 20.792C35.6181 21.016 35.4901 21.416 35.2501 21.992C35.0261 22.568 34.8421 22.864 34.6981 22.88C33.8341 23.024 32.8421 23.096 31.7221 23.096C30.7141 23.096 29.8261 22.928 29.0581 22.592Z" fill="#FD3E6C"/>
<path d="M63.3742 0.48541C62.3265 0.121606 57.8083 5.02868 58.6817 8.86645L60.7343 8.97277C63.6282 7.68536 64.0693 0.726746 63.3742 0.48541Z" fill="#EBE1DC"/>
<path d="M77.4341 13.8536C77.4387 12.9501 76.4982 12.5031 75.6698 12.3797C75.2325 12.3145 74.7883 12.2994 74.3475 12.332C74.1388 12.3475 74.0153 12.1054 74.1513 11.9464C74.6064 11.4145 74.9666 10.9354 75.1169 10.6751C75.6233 9.79796 75.3227 8.6763 74.4456 8.16984C73.5684 7.66339 72.4468 7.96397 71.9403 8.84112C71.79 9.1014 71.5552 9.65282 71.3221 10.3129C71.2524 10.5102 70.9811 10.5244 70.8901 10.3359C70.6979 9.93782 70.4627 9.56066 70.1876 9.21449C69.6666 8.5588 68.8092 7.96788 68.029 8.4236C67.7931 8.56135 67.6138 8.77896 67.503 9.02862C67.2341 9.63438 67.3358 10.2842 67.4879 10.8985C67.816 12.2235 68.3813 13.4895 69.1489 14.6183L71.5094 15.9811C72.8708 16.0815 74.2498 15.9381 75.5614 15.5597C76.1695 15.3843 76.783 15.1475 77.1732 14.6117C77.334 14.3909 77.4327 14.1267 77.4341 13.8536Z" fill="#36CB95"/>
<path d="M76.5672 12.6494C76.5674 12.66 76.5682 12.6703 76.5681 12.681C76.5668 12.9541 76.468 13.2182 76.3072 13.4391C75.9171 13.9748 75.3034 14.2116 74.6954 14.3871C73.3839 14.7655 72.0049 14.9089 70.6435 14.8085L68.5234 13.5845C68.7139 13.9397 68.9224 14.2852 69.149 14.6184L71.5096 15.9813C72.871 16.0816 74.2499 15.9382 75.5615 15.5598C76.1696 15.3844 76.7832 15.1476 77.1733 14.6118C77.3341 14.3911 77.4329 14.1269 77.4342 13.8538C77.4371 13.2788 77.0572 12.8889 76.5672 12.6494Z" fill="#6DC17D"/>
<path d="M72.5747 19.9508C72.9074 19.6475 73.2001 19.2891 73.4372 18.8784C74.6745 16.7354 73.9403 13.9951 71.7972 12.7578C69.6542 11.5205 66.9138 12.2547 65.6765 14.3978C65.4394 14.8085 65.2753 15.2413 65.1791 15.6811C63.1475 24.3065 63.1462 24.3134 62.6352 26.4815C62.5247 26.9503 62.7269 27.4552 63.1654 27.7084C63.6039 27.9616 64.1422 27.8841 64.4929 27.5541C66.115 26.0274 66.1206 26.023 72.5747 19.9508Z" fill="#FF6489"/>
<path d="M72.0107 12.8916C72.6393 14.1758 72.5801 15.8794 71.7168 17.3746C71.4715 17.7995 71.1788 18.1762 70.8532 18.5008C64.5237 24.985 64.5184 24.9899 62.9276 26.6201C62.8317 26.7183 62.7235 26.7972 62.6094 26.8563C62.646 27.2 62.84 27.5221 63.1623 27.7083C63.6008 27.9615 64.1391 27.884 64.4898 27.5539C66.1119 26.0273 66.1174 26.0228 72.5716 19.9506C72.9043 19.6474 73.197 19.289 73.4341 18.8783C74.6285 16.8092 73.9851 14.184 72.0107 12.8916Z" fill="#FD3E6C"/>
<path d="M48.5457 25.7893C49.5294 25.6915 50.2475 24.8147 50.1496 23.831C50.0518 22.8473 49.175 22.1292 48.1913 22.2271C47.2076 22.325 46.4895 23.2017 46.5874 24.1854C46.6852 25.1691 47.562 25.8872 48.5457 25.7893Z" fill="#EBE1DC"/>
<path d="M69.3486 3.1637C68.522 2.18687 61.7538 4.85845 60.2323 7.77304C57.6234 7.6738 55.3628 9.63206 55.1191 12.2632C54.8669 14.9855 56.8694 17.3969 59.5918 17.6491C62.4439 17.9133 65.7251 17.7559 66.6076 15.3034C67.1524 13.7895 66.3422 10.9259 64.1174 9.19454C67.8728 7.83887 69.9675 3.89516 69.3486 3.1637Z" fill="#F7F3F1"/>
<path d="M65.9575 13.5895C65.4215 16.1402 62.1933 16.7484 59.332 16.8799C58.2708 16.9286 57.273 16.6383 56.4414 16.1064C57.2399 16.9578 58.3401 17.5326 59.5939 17.6488C62.446 17.913 65.7272 17.7556 66.6097 15.3031C67.0984 13.9448 66.4956 11.5009 64.7602 9.76221C65.7462 11.0745 66.1713 12.572 65.9575 13.5895Z" fill="#EBE1DC"/>
<path d="M65.4248 20.6353C61.4821 20.0224 60.1893 16.8212 60.1893 16.8212L56.3469 15.1865C45.5953 19.0973 48.8988 29.5342 54.3773 29.5342H64.8793C65.1806 29.5342 65.4248 29.29 65.4248 28.9887V28.2681C65.4248 26.8156 64.2474 25.6381 62.7949 25.6381H61.0581C61.1964 25.2608 61.272 24.8532 61.272 24.4279C61.272 23.6928 61.046 23.0106 60.6604 22.4463C61.7284 22.7497 63.0184 23.0763 64.0578 23.2192C66.6934 23.5815 67.2021 20.9116 65.4248 20.6353Z" fill="#F7F3F1"/>
<path d="M66.1529 20.9756C65.767 21.3311 65.273 21.5805 64.7625 21.7174C63.9654 21.9309 63.125 21.9042 62.302 21.844C61.0419 21.752 59.7873 21.5853 58.5469 21.3452C58.9564 22.5118 60.0633 23.4415 61.2343 23.916C61.1555 23.3765 60.9546 22.8767 60.6601 22.4458C61.7281 22.7492 63.0182 23.0758 64.0575 23.2187C66.2277 23.517 66.9554 21.7599 66.1529 20.9756Z" fill="#EBE1DC"/>
<path d="M68.8586 5.21044C68.0291 6.63429 66.3734 8.37991 64.1193 9.19415C63.9798 9.08541 63.8349 8.98119 63.6842 8.88208C63.4286 8.71384 63.3394 8.38195 63.4817 8.11112C64.4188 6.32818 66.1602 5.06971 68.8586 5.21044Z" fill="#B8B5BF"/>
<path d="M62.7945 25.6376H61.0578C61.2168 25.2037 61.2928 24.7298 61.2665 24.235C61.1706 22.4345 59.6935 20.982 57.8917 20.9137C57.4545 20.8971 57.0344 20.9607 56.6445 21.0905C58.1871 21.7044 59.4002 23.7765 59.4002 25.4117C59.4002 25.5818 59.3881 25.7491 59.3647 25.9127C59.3111 26.2884 59.6115 26.6219 59.991 26.6219H60.9231C62.3755 26.6219 63.553 27.7994 63.553 29.2518V29.5337H64.8788C65.1801 29.5337 65.4244 29.2895 65.4244 28.9881V28.2676C65.4245 26.8151 64.247 25.6376 62.7945 25.6376Z" fill="#EBE1DC"/>
<path d="M77.1328 12.4445C76.7681 12.1854 76.2725 11.9987 75.7373 11.9188C75.441 11.8747 75.1398 11.8516 74.8367 11.8498C75.146 11.4673 75.3907 11.1307 75.5193 10.9081C76.1529 9.80961 75.7751 8.40041 74.6774 7.76677C74.1452 7.45941 73.5252 7.37775 72.932 7.5368C72.3386 7.69584 71.8427 8.07654 71.5359 8.60858C71.4072 8.83148 71.2379 9.2118 71.0615 9.67031C70.908 9.40823 70.7373 9.15889 70.5513 8.925C69.7223 7.88154 68.6395 7.52667 67.7929 8.02139C67.4801 8.2041 67.2322 8.48717 67.0761 8.83955C66.7487 9.57765 66.8715 10.3511 67.0348 11.0101C67.1329 11.4072 67.2529 11.8026 67.3925 12.1904C67.236 12.2663 67.0829 12.3505 66.9339 12.4434C66.9045 12.3523 66.8737 12.2611 66.8401 12.1697C66.449 11.1065 65.8047 10.1233 64.9926 9.33744C64.996 9.33582 64.9993 9.33408 65.0028 9.33247C66.179 8.78539 67.1018 8.04487 67.7902 7.34365C67.8024 7.33136 68.0089 7.11617 68.0589 7.06152C68.5152 6.56375 68.9128 6.02985 69.2231 5.50923C69.2365 5.48681 69.2493 5.4652 69.2608 5.44533C69.2611 5.44477 69.2613 5.44421 69.2616 5.44365C69.5299 4.98371 69.7288 4.53575 69.836 4.13456C69.9866 3.57085 69.9429 3.14301 69.7058 2.86286C69.4415 2.55067 68.9634 2.4377 68.2438 2.51763C67.1292 2.64134 65.4593 3.23493 63.9269 4.04563C64.0491 3.33361 64.12 2.6132 64.1273 1.97223C64.1409 0.788656 63.9555 0.194385 63.5266 0.0453975C63.1003 -0.102844 62.5458 0.111165 61.8312 0.699226C61.2347 1.19003 60.597 1.89237 60.0356 2.67667C59.8859 2.88584 59.9341 3.17686 60.1432 3.32653C60.3523 3.47639 60.6434 3.42813 60.7931 3.2189C61.755 1.87491 62.7239 1.10961 63.1263 0.959442C63.25 1.47304 63.2377 3.01061 62.8521 4.66586C61.8522 5.29466 60.6339 6.21759 59.965 7.30416C59.6556 7.30863 59.3522 7.34067 59.0563 7.39563C59.1221 6.65318 59.3502 5.85583 59.739 5.01662C59.8471 4.78317 59.7455 4.50632 59.5121 4.39819C59.2788 4.29013 59.0019 4.39161 58.8937 4.62506C58.3997 5.69169 58.1363 6.71193 58.1075 7.66374C56.2409 8.38203 54.8526 10.1085 54.6569 12.2202C54.5625 13.239 54.7513 14.2378 55.2042 15.1393C51.3241 16.8228 49.5019 19.377 48.9703 21.8424C48.7723 21.7866 48.5665 21.7572 48.3572 21.7572C47.1134 21.7573 46.1016 22.7691 46.1016 24.0128C46.1016 25.2566 47.1134 26.2684 48.3572 26.2684C48.6771 26.2684 48.9898 26.2004 49.2764 26.0725C49.6265 26.9965 50.157 27.828 50.8263 28.4839C51.8239 29.4616 53.0845 30 54.3756 30H64.8776C65.4352 30 65.8889 29.5463 65.8889 28.9886V28.268C65.8889 27.8533 65.8064 27.4576 65.6577 27.0958L71.9348 21.1909C72.1223 21.0147 72.1312 20.7199 71.955 20.5325C71.7787 20.345 71.484 20.3361 71.2965 20.5124L65.1645 26.2808C64.7216 25.7531 64.1065 25.3747 63.4063 25.2335C63.5104 24.7918 63.6212 24.321 63.7792 23.6491C63.8518 23.6603 63.9233 23.6709 63.9926 23.6804C65.7149 23.9176 66.7675 23.0082 66.917 21.9877C67.0302 21.2144 66.578 20.3433 65.4947 20.175C65.1845 20.1267 64.9049 20.063 64.6412 19.9887C64.729 19.6154 65.232 17.4795 65.232 17.4795C66.1197 17.0204 66.7298 16.3446 67.0477 15.461C67.2542 14.8872 67.2918 14.1743 67.1684 13.4093C68.4432 12.4676 70.1761 12.3605 71.5627 13.1609C73.4798 14.2684 74.1389 16.7288 73.0314 18.6464C72.9541 18.781 72.8674 18.9129 72.7737 19.0386C72.62 19.2449 72.6625 19.5367 72.8687 19.6905C72.9523 19.7527 73.05 19.7828 73.1468 19.7827C73.2888 19.7827 73.4292 19.718 73.5207 19.5953C73.6363 19.4401 73.7435 19.277 73.8387 19.1114C74.3516 18.2232 74.5566 17.2404 74.4873 16.287C74.8936 16.2139 75.2964 16.1204 75.6899 16.0071C76.3428 15.8183 77.0741 15.5374 77.5484 14.8857C77.7759 14.5739 77.897 14.2177 77.8988 13.8559C77.9015 13.2906 77.6366 12.8024 77.1328 12.4445ZM64.223 8.65553C64.213 8.65957 64.2032 8.66392 64.1932 8.66789C64.1099 8.60778 64.0254 8.54946 63.9402 8.49338C63.8838 8.45624 63.8639 8.3852 63.8939 8.32812C64.5024 7.17051 65.6963 5.83882 67.9897 5.68126C67.0531 6.94799 65.7065 8.05561 64.223 8.65553ZM48.3572 25.3369C47.6271 25.3369 47.0331 24.7429 47.0331 24.0128C47.0331 23.2827 47.6271 22.6888 48.3572 22.6888C48.5203 22.6888 48.6797 22.7186 48.829 22.7755C48.7649 23.4955 48.8054 24.197 48.9313 24.8549C48.9516 24.9606 48.9748 25.0654 48.9996 25.1697C48.805 25.278 48.5845 25.3369 48.3572 25.3369ZM62.4637 25.1724H61.6666C61.7977 24.4796 61.7377 23.7819 61.532 23.1664C62.0105 23.2901 62.4543 23.3948 62.8621 23.4802C62.6916 24.2046 62.5763 24.6946 62.4637 25.1724ZM63.7586 19.6729C63.0031 19.3396 62.3108 18.8641 61.6942 18.2092C61.6933 18.2082 61.6924 18.2072 61.6915 18.2063C62.6497 18.1914 63.4714 18.086 64.1789 17.8879C64.1789 17.888 63.8396 19.3288 63.7586 19.6729ZM66.1712 15.1458C65.92 15.844 65.4224 16.3676 64.6707 16.7214C64.6464 16.7302 64.6231 16.7411 64.6007 16.7537C63.7246 17.1456 62.5159 17.3156 60.9604 17.2688C60.726 16.9017 60.6208 16.6499 60.619 16.6456C60.5223 16.408 60.2514 16.2931 60.0132 16.3894C59.7747 16.4857 59.6594 16.7572 59.7557 16.9957C59.8101 17.1305 61.0812 20.1746 64.8393 20.9995C64.9357 21.0216 65.1607 21.0661 65.3515 21.0957C65.8955 21.1803 66.0407 21.5423 65.9952 21.853C65.8856 22.6012 64.9689 22.8744 64.1195 22.7578C63.3149 22.6472 62.2176 22.3998 60.9397 22.0416C60.2125 21.0734 59.0552 20.4459 57.754 20.4459C57.01 20.4459 56.2843 20.6526 55.6551 21.0435C55.4365 21.1793 55.3694 21.4664 55.5052 21.6849C55.6411 21.9035 55.9282 21.9705 56.1467 21.8347C56.6282 21.5356 57.1839 21.3775 57.754 21.3775C59.8744 21.3775 61.3454 23.4951 60.6191 25.478C60.5667 25.6208 60.5874 25.7802 60.6746 25.9049C60.7617 26.0297 60.9043 26.104 61.0564 26.104H62.7931C63.9865 26.104 64.9573 27.0748 64.9573 28.2682V28.9888C64.9573 29.0329 64.9216 29.0686 64.8776 29.0686H54.3756C51.5535 29.0686 49.4054 25.9699 49.7558 22.69C49.7897 22.6101 49.7997 22.5244 49.7877 22.4419C50.26 19.2328 53.1309 16.9567 56.0407 15.8008C56.1696 15.7496 56.269 15.6436 56.3118 15.5117C56.3546 15.3798 56.3364 15.2356 56.2621 15.1185C55.7267 14.2743 55.4925 13.3019 55.5847 12.3062C55.7991 9.99238 57.7409 8.23534 60.0438 8.23534C60.101 8.23534 60.1588 8.23646 60.2164 8.23863C60.3976 8.24584 60.5638 8.14815 60.647 7.98879C61.0985 7.12418 62.1537 6.16505 63.6184 5.28814C64.9026 4.51936 66.3867 3.88292 67.5886 3.58563C68.474 3.36671 68.8773 3.41795 68.9872 3.46595C69.0052 3.55973 68.9925 3.85857 68.7533 4.39968C68.7048 4.50942 68.6496 4.62208 68.5894 4.73647C66.1186 4.6976 64.1652 5.80994 63.0694 7.89489C62.8154 8.37805 62.9697 8.97003 63.4281 9.27167C63.5662 9.36259 63.7025 9.46034 63.833 9.56213C65.1096 10.5556 65.9117 11.9873 66.1959 13.255C66.1992 13.296 66.208 13.3365 66.2222 13.3759C66.3569 14.0493 66.3423 14.6703 66.1712 15.1458ZM76.7954 14.3375C76.4872 14.761 75.9576 14.9603 75.4316 15.1123C75.0724 15.2157 74.7043 15.301 74.333 15.3682C74.0068 14.141 73.2126 13.0383 72.0287 12.3544C70.8678 11.6842 69.5099 11.5309 68.2659 11.8651C68.1387 11.5106 68.0288 11.1494 67.9392 10.7864C67.8075 10.2549 67.715 9.69695 67.9278 9.21702C68.0032 9.04691 68.1222 8.90792 68.2629 8.8257C68.4839 8.69652 68.7284 8.69646 69.0104 8.8257C69.2865 8.95227 69.5748 9.19335 69.8221 9.50474C70.0721 9.81905 70.2899 10.1668 70.4692 10.5374C70.5922 10.7935 70.856 10.9494 71.1377 10.9342C71.4207 10.9192 71.6651 10.7364 71.7605 10.4678C72.019 9.73558 72.2356 9.25962 72.3427 9.0743C72.5253 8.7577 72.8202 8.53126 73.1731 8.43668C73.5262 8.34203 73.8948 8.39066 74.2117 8.57356C74.8648 8.95059 75.0894 9.78905 74.7124 10.4425C74.6057 10.6274 74.3017 11.0529 73.7961 11.644C73.6117 11.8597 73.5752 12.1623 73.7032 12.4149C73.8313 12.6681 74.0975 12.8173 74.381 12.7969C74.7914 12.7662 75.2014 12.7809 75.5998 12.8403C75.9929 12.8989 76.3457 13.0281 76.5933 13.204C76.8461 13.3836 76.9684 13.5955 76.9672 13.8518C76.9664 14.0143 76.9056 14.1866 76.7954 14.3375Z" fill="black"/>
<path d="M62.6611 11.0534C62.4228 10.956 62.1511 11.0699 62.0536 11.308L61.8669 11.764C61.7694 12.0021 61.8834 12.2741 62.1214 12.3715C62.1793 12.3952 62.239 12.4064 62.2977 12.4064C62.4812 12.4064 62.6552 12.2973 62.7289 12.117L62.9157 11.661C63.0131 11.4228 62.8992 11.1508 62.6611 11.0534Z" fill="black"/>
<path d="M79.8584 12.512C79.8584 11.856 79.9064 11.392 80.0024 11.12C80.9144 10.848 81.8024 10.712 82.6664 10.712C83.7064 10.712 84.5064 10.928 85.0664 11.36C85.0504 11.632 85.0424 12.04 85.0424 12.584L85.1384 12.392C85.1864 12.264 85.2744 12.112 85.4024 11.936C85.5464 11.744 85.7144 11.56 85.9064 11.384C86.0984 11.192 86.3704 11.032 86.7224 10.904C87.0744 10.776 87.4664 10.712 87.8984 10.712C89.1144 10.712 90.1464 11.232 90.9944 12.272C90.8824 12.976 90.6024 13.512 90.1544 13.88C89.7064 14.248 89.2584 14.448 88.8104 14.48C88.2184 14.064 87.6504 13.856 87.1064 13.856C85.5224 13.856 84.7304 14.864 84.7304 16.88C84.7304 17.568 84.8184 18.32 84.9944 19.136C85.0264 19.056 85.2504 19.016 85.6664 19.016C86.1464 19.016 86.4424 19.072 86.5544 19.184C86.7464 19.488 86.8424 19.984 86.8424 20.672C86.8424 21.712 86.6584 22.392 86.2904 22.712C85.4744 22.888 84.4904 22.976 83.3384 22.976C81.4504 22.976 80.3544 22.8 80.0504 22.448C80.0024 22.256 79.9784 21.768 79.9784 20.984C79.9784 19.864 80.0264 19.264 80.1224 19.184C80.2344 19.04 80.5464 18.968 81.0584 18.968C81.4264 18.968 81.6984 19.024 81.8744 19.136C81.7304 18.768 81.6584 17.528 81.6584 15.416C81.6584 14.712 81.6824 14.312 81.7304 14.216C81.5384 14.248 81.3624 14.264 81.2024 14.264C80.6264 14.264 80.2264 14.12 80.0024 13.832C79.9064 13.592 79.8584 13.152 79.8584 12.512ZM91.6916 18.032C91.6916 16.88 91.8596 15.768 92.1956 14.696C92.5476 13.608 93.0996 12.672 93.8516 11.888C94.6196 11.104 95.5156 10.712 96.5396 10.712C97.0036 10.712 97.4116 10.792 97.7636 10.952C98.1316 11.112 98.4116 11.312 98.6036 11.552C98.8116 11.776 98.9796 12.008 99.1076 12.248C99.2356 12.472 99.3236 12.664 99.3716 12.824C99.4196 12.984 99.4516 13.064 99.4676 13.064C99.4676 12.2 99.4596 11.632 99.4436 11.36C99.7636 11.088 100.092 10.912 100.428 10.832C100.78 10.736 101.26 10.688 101.868 10.688C102.348 10.688 102.772 10.704 103.14 10.736C103.524 10.768 103.812 10.808 104.004 10.856C104.196 10.904 104.348 10.952 104.46 11C104.588 11.048 104.668 11.08 104.7 11.096L104.748 11.12C104.812 11.264 104.844 11.712 104.844 12.464C104.844 13.232 104.812 13.688 104.748 13.832C104.7 13.944 104.444 14.048 103.98 14.144C103.516 14.224 103.116 14.264 102.78 14.264C102.62 14.264 102.444 14.248 102.252 14.216C102.3 14.312 102.324 14.72 102.324 15.44C102.324 17.536 102.252 18.696 102.108 18.92C102.22 18.872 102.356 18.848 102.516 18.848C103.22 18.848 103.908 18.92 104.58 19.064C104.708 19.16 104.772 19.84 104.772 21.104C104.772 21.808 104.748 22.256 104.7 22.448C104.588 22.624 104.236 22.792 103.644 22.952C103.052 23.112 102.38 23.192 101.628 23.192C100.268 23.192 99.4276 23.16 99.1076 23.096C98.9956 22.792 98.9396 22.536 98.9396 22.328C98.9396 22.2 98.9636 22.104 99.0116 22.04C98.8196 22.104 98.2756 22.344 97.3796 22.76C96.4836 23.176 95.8356 23.384 95.4356 23.384C94.2036 23.384 93.2676 22.864 92.6276 21.824C92.0036 20.784 91.6916 19.52 91.6916 18.032ZM94.6916 17.408C94.6916 18.304 94.9636 19.064 95.5076 19.688C96.0676 20.296 96.6516 20.6 97.2596 20.6C97.5956 20.6 97.9796 20.512 98.4116 20.336C98.8436 20.16 99.0756 20 99.1076 19.856C99.1556 19.12 99.1956 18.448 99.2276 17.84C99.2756 17.216 99.3076 16.744 99.3236 16.424C99.3556 16.088 99.3716 15.872 99.3716 15.776V15.488C99.3716 15.152 99.1476 14.824 98.6996 14.504C98.2676 14.168 97.7796 14 97.2356 14C96.4356 14 95.8116 14.368 95.3636 15.104C94.9156 15.824 94.6916 16.592 94.6916 17.408ZM106.597 21.32C106.597 20.328 106.813 19.712 107.245 19.472C107.645 19.328 108.189 19.256 108.877 19.256C108.973 19.256 109.101 19.272 109.261 19.304C109.261 18.84 109.245 18.096 109.213 17.072C109.181 16.032 109.165 15.248 109.165 14.72C109.101 14.72 108.837 14.744 108.373 14.792C107.909 14.824 107.637 14.84 107.557 14.84C107.493 14.84 107.397 14.824 107.269 14.792C107.141 14.76 107.045 14.744 106.981 14.744C106.917 14.68 106.885 14.512 106.885 14.24C106.885 13.808 106.949 13.272 107.077 12.632C107.205 11.976 107.325 11.576 107.437 11.432C107.901 11.144 108.749 11 109.981 11C110.957 11 111.589 11.056 111.877 11.168C112.181 11.264 112.333 11.512 112.333 11.912C112.333 12.392 112.293 12.872 112.213 13.352C113.717 11.624 115.341 10.76 117.085 10.76C119.837 10.76 121.213 12.696 121.213 16.568C121.213 17.352 121.165 18.112 121.069 18.848C121.069 18.816 121.141 18.8 121.285 18.8C121.525 18.8 121.901 18.84 122.413 18.92C122.557 19.08 122.629 19.6 122.629 20.48C122.629 21.584 122.549 22.264 122.389 22.52C121.189 22.84 120.149 23 119.269 23C118.645 23 117.925 22.856 117.109 22.568C116.997 22.488 116.877 22.208 116.749 21.728C116.621 21.232 116.557 20.808 116.557 20.456C116.557 19.928 116.701 19.472 116.989 19.088C117.165 18.976 117.397 18.92 117.685 18.92C117.909 18.92 118.125 18.96 118.333 19.04C118.333 18.992 118.333 18.784 118.333 18.416C118.349 18.048 118.357 17.816 118.357 17.72C118.357 16.712 118.077 15.832 117.517 15.08C116.973 14.312 116.285 13.928 115.453 13.928C114.733 13.928 114.069 14.224 113.461 14.816C112.869 15.392 112.573 16.304 112.573 17.552C112.573 18 112.597 18.584 112.645 19.304C112.837 19.192 113.085 19.136 113.389 19.136C113.677 19.136 113.853 19.176 113.917 19.256C114.077 19.256 114.157 19.576 114.157 20.216C114.157 20.36 114.077 21.016 113.917 22.184C112.765 22.744 111.301 23.024 109.525 23.024C108.069 23.024 107.165 22.8 106.813 22.352C106.669 22.176 106.597 21.832 106.597 21.32ZM123.364 7.016C123.364 6.216 123.564 5.688 123.964 5.432C124.78 5.208 125.74 5.096 126.844 5.096C127.868 5.096 128.684 5.208 129.292 5.432C129.5 5.64 129.604 6.088 129.604 6.776C129.604 7.528 129.5 8.024 129.292 8.264C128.908 8.328 128.596 8.36 128.356 8.36C128.372 9.128 128.452 10.776 128.596 13.304C128.772 13.176 129.028 12.992 129.364 12.752C129.716 12.512 130.004 12.312 130.228 12.152C130.452 11.976 130.684 11.784 130.924 11.576C131.164 11.368 131.348 11.176 131.476 11C131.604 10.824 131.668 10.656 131.668 10.496C131.668 10.352 131.588 10.208 131.428 10.064C131.316 10.176 131.116 10.232 130.828 10.232C130.716 10.152 130.612 9.992 130.516 9.752C130.42 9.512 130.372 9.288 130.372 9.08C130.372 8.888 130.42 8.768 130.516 8.72C131.476 8.4 132.372 8.24 133.204 8.24C134.116 8.24 134.996 8.416 135.844 8.768C135.924 8.96 135.964 9.184 135.964 9.44C135.964 10.112 135.772 10.504 135.388 10.616C135.34 10.632 135.236 10.64 135.076 10.64C134.676 10.64 134.412 10.576 134.284 10.448C134.268 10.544 134.116 10.768 133.828 11.12C133.556 11.472 133.14 11.92 132.58 12.464C132.036 12.992 131.452 13.504 130.828 14C132.364 14.64 133.66 15.592 134.716 16.856C135.788 18.12 136.324 19.016 136.324 19.544C136.452 19.48 136.604 19.448 136.78 19.448C136.924 19.448 137.124 19.496 137.38 19.592C137.652 19.72 137.788 20.184 137.788 20.984C137.788 21.688 137.668 22.224 137.428 22.592C136.804 22.88 136.06 23.024 135.196 23.024C134.476 23.024 133.508 22.896 132.292 22.64C132.1 22.352 132.004 21.896 132.004 21.272C132.004 20.504 132.116 19.96 132.34 19.64C132.468 19.56 132.62 19.52 132.796 19.52C132.924 19.52 133.06 19.544 133.204 19.592C132.916 18.072 131.38 16.8 128.596 15.776C128.58 16 128.564 16.368 128.548 16.88C128.532 17.376 128.508 17.832 128.476 18.248C128.46 18.664 128.42 19.032 128.356 19.352C128.596 19.208 128.98 19.136 129.508 19.136C129.78 19.136 129.948 19.176 130.012 19.256C130.124 19.32 130.22 19.568 130.3 20C130.38 20.416 130.42 20.864 130.42 21.344C130.42 22.08 130.34 22.52 130.18 22.664C129.332 22.888 128.14 23 126.604 23C125.404 23 124.588 22.904 124.156 22.712C123.884 22.296 123.748 21.624 123.748 20.696C123.748 20.024 123.868 19.624 124.108 19.496C124.332 19.336 124.684 19.256 125.164 19.256C125.292 19.256 125.404 19.272 125.5 19.304C125.484 18.056 125.46 16.816 125.428 15.584C125.412 14.336 125.396 13.376 125.38 12.704C125.364 12.032 125.356 11.464 125.356 11C125.356 10.536 125.372 9.648 125.404 8.336C125.116 8.464 124.836 8.528 124.564 8.528C124.244 8.528 123.972 8.44 123.748 8.264C123.492 7.912 123.364 7.496 123.364 7.016ZM138.656 21.008C138.656 20.192 138.704 19.728 138.8 19.616C138.992 19.504 139.232 19.432 139.52 19.4C139.712 19.368 140.128 19.352 140.768 19.352C140.672 18.344 140.624 17.248 140.624 16.064C140.624 14.768 140.704 13.944 140.864 13.592C140.08 13.592 139.56 13.56 139.304 13.496C139.32 13.064 139.376 12.608 139.472 12.128C139.504 11.92 139.6 11.512 139.76 10.904C140.352 10.792 141.344 10.736 142.736 10.736C143.296 10.736 143.808 10.768 144.272 10.832C144.752 10.896 145.112 10.976 145.352 11.072C145.608 11.152 145.736 11.232 145.736 11.312C145.768 11.312 145.784 11.6 145.784 12.176C145.784 13.088 145.704 13.664 145.544 13.904C145.48 14 145.288 14.048 144.968 14.048C144.376 14.048 144 14.008 143.84 13.928C143.664 15.048 143.576 16.504 143.576 18.296C143.576 19.032 143.6 19.416 143.648 19.448C143.744 19.432 143.88 19.424 144.056 19.424C144.632 19.424 145.096 19.512 145.448 19.688C145.496 19.752 145.52 19.896 145.52 20.12C145.52 20.52 145.464 21 145.352 21.56C145.24 22.12 145.08 22.504 144.872 22.712C144.68 22.904 144.056 23 143 23C140.488 23 139.096 22.768 138.824 22.304C138.712 22.096 138.656 21.664 138.656 21.008ZM140.576 6.056C140.576 5.608 140.816 5.384 141.296 5.384C141.696 5.384 142.128 5.504 142.592 5.744C142.928 5.408 143.376 5.24 143.936 5.24C144.288 5.24 144.6 5.36 144.872 5.6C145.144 5.84 145.28 6.168 145.28 6.584C145.28 6.792 145.232 6.992 145.136 7.184C145.056 7.376 144.968 7.536 144.872 7.664C144.776 7.792 144.616 7.944 144.392 8.12C144.168 8.28 143.992 8.4 143.864 8.48C143.752 8.544 143.544 8.664 143.24 8.84C142.936 9 142.744 9.104 142.664 9.152C142.04 8.688 141.536 8.168 141.152 7.592C140.768 7 140.576 6.488 140.576 6.056ZM147.378 21.32C147.378 20.328 147.594 19.712 148.026 19.472C148.426 19.328 148.97 19.256 149.658 19.256C149.754 19.256 149.882 19.272 150.042 19.304C150.042 18.84 150.026 18.096 149.994 17.072C149.962 16.032 149.946 15.248 149.946 14.72C149.882 14.72 149.618 14.744 149.154 14.792C148.69 14.824 148.418 14.84 148.338 14.84C148.274 14.84 148.178 14.824 148.05 14.792C147.922 14.76 147.826 14.744 147.762 14.744C147.698 14.68 147.666 14.512 147.666 14.24C147.666 13.808 147.73 13.272 147.858 12.632C147.986 11.976 148.106 11.576 148.218 11.432C148.682 11.144 149.53 11 150.762 11C151.738 11 152.37 11.056 152.658 11.168C152.962 11.264 153.114 11.512 153.114 11.912C153.114 12.392 153.074 12.872 152.994 13.352C154.498 11.624 156.122 10.76 157.866 10.76C160.618 10.76 161.994 12.696 161.994 16.568C161.994 17.352 161.946 18.112 161.85 18.848C161.85 18.816 161.922 18.8 162.066 18.8C162.306 18.8 162.682 18.84 163.194 18.92C163.338 19.08 163.41 19.6 163.41 20.48C163.41 21.584 163.33 22.264 163.17 22.52C161.97 22.84 160.93 23 160.05 23C159.426 23 158.706 22.856 157.89 22.568C157.778 22.488 157.658 22.208 157.53 21.728C157.402 21.232 157.338 20.808 157.338 20.456C157.338 19.928 157.482 19.472 157.77 19.088C157.946 18.976 158.178 18.92 158.466 18.92C158.69 18.92 158.906 18.96 159.114 19.04C159.114 18.992 159.114 18.784 159.114 18.416C159.13 18.048 159.138 17.816 159.138 17.72C159.138 16.712 158.858 15.832 158.298 15.08C157.754 14.312 157.066 13.928 156.234 13.928C155.514 13.928 154.85 14.224 154.242 14.816C153.65 15.392 153.354 16.304 153.354 17.552C153.354 18 153.378 18.584 153.426 19.304C153.618 19.192 153.866 19.136 154.17 19.136C154.458 19.136 154.634 19.176 154.698 19.256C154.858 19.256 154.938 19.576 154.938 20.216C154.938 20.36 154.858 21.016 154.698 22.184C153.546 22.744 152.082 23.024 150.306 23.024C148.85 23.024 147.946 22.8 147.594 22.352C147.45 22.176 147.378 21.832 147.378 21.32ZM164.697 18.296C164.697 17.112 164.993 15.952 165.585 14.816C166.177 13.664 167.041 12.704 168.177 11.936C169.313 11.152 170.577 10.76 171.969 10.76C172.433 10.76 172.889 10.816 173.337 10.928C173.641 10.448 173.889 10.096 174.081 9.872C174.289 9.648 174.481 9.536 174.657 9.536C175.009 9.536 175.561 9.808 176.313 10.352C177.081 10.896 177.465 11.392 177.465 11.84C177.449 12.016 176.841 12.512 175.641 13.328C176.297 14.304 176.625 15.432 176.625 16.712C176.625 18.328 176.137 19.776 175.161 21.056C174.201 22.336 173.025 22.976 171.633 22.976C171.425 22.976 171.273 22.968 171.177 22.952C171.161 22.984 171.153 23.024 171.153 23.072C171.153 23.312 171.361 23.52 171.777 23.696C172.209 23.872 172.681 24.008 173.193 24.104C173.721 24.216 174.193 24.416 174.609 24.704C175.041 24.992 175.257 25.368 175.257 25.832C175.257 26.36 174.985 26.84 174.441 27.272C173.897 27.704 173.233 28.032 172.449 28.256C171.681 28.496 170.929 28.68 170.193 28.808C169.457 28.936 168.833 29 168.321 29C167.569 29 167.121 28.312 166.977 26.936C170.209 26.792 171.825 26.448 171.825 25.904C171.825 25.728 171.577 25.576 171.081 25.448C170.585 25.336 170.041 25.24 169.449 25.16C168.857 25.08 168.313 24.872 167.817 24.536C167.321 24.216 167.073 23.784 167.073 23.24C167.073 23.016 167.105 22.8 167.169 22.592C166.337 22.176 165.713 21.592 165.297 20.84C164.897 20.072 164.697 19.224 164.697 18.296ZM167.697 18.08C167.697 18.8 167.913 19.408 168.345 19.904C168.777 20.4 169.345 20.648 170.049 20.648C170.977 20.648 171.833 20.248 172.617 19.448C173.417 18.648 173.817 17.712 173.817 16.64C173.817 15.856 173.593 15.216 173.145 14.72C172.713 14.208 172.113 13.952 171.345 13.952C170.305 13.952 169.433 14.4 168.729 15.296C168.041 16.176 167.697 17.104 167.697 18.08ZM178.594 22.28C178.69 20.616 179.258 19.472 180.298 18.848C180.41 18.832 180.578 18.824 180.802 18.824C181.65 18.824 182.298 19.104 182.746 19.664C182.746 19.68 182.746 19.712 182.746 19.76C182.762 19.792 182.77 19.816 182.77 19.832C182.77 19.88 182.754 19.968 182.722 20.096C182.866 20.336 183.122 20.536 183.49 20.696C183.874 20.84 184.282 20.912 184.714 20.912C185.322 20.912 185.802 20.768 186.154 20.48C186.522 20.192 186.706 19.848 186.706 19.448C186.706 18.664 186.058 18.24 184.762 18.176C184.266 18.16 183.866 18.136 183.562 18.104C183.258 18.072 182.842 18.016 182.314 17.936C181.802 17.856 181.378 17.736 181.042 17.576C180.706 17.416 180.362 17.216 180.01 16.976C179.674 16.736 179.418 16.416 179.242 16.016C179.066 15.616 178.978 15.152 178.978 14.624C178.978 13.376 179.466 12.432 180.442 11.792C181.434 11.152 182.658 10.832 184.114 10.832C185.394 10.832 186.482 10.976 187.378 11.264C187.474 11.104 187.602 10.944 187.762 10.784C187.938 10.624 188.074 10.528 188.17 10.496C189.354 10.608 190.138 11.008 190.522 11.696C190.426 13.36 189.858 14.504 188.818 15.128C188.706 15.144 188.538 15.152 188.314 15.152C187.466 15.152 186.818 14.872 186.37 14.312C186.37 14.296 186.362 14.272 186.346 14.24C186.346 14.192 186.346 14.16 186.346 14.144C186.346 14.096 186.362 14.008 186.394 13.88C186.218 13.672 185.898 13.496 185.434 13.352C184.986 13.208 184.522 13.136 184.042 13.136C182.81 13.136 182.194 13.544 182.194 14.36C182.194 15.32 183.066 15.832 184.81 15.896C185.306 15.912 185.698 15.936 185.986 15.968C186.274 15.984 186.658 16.032 187.138 16.112C187.634 16.176 188.034 16.288 188.338 16.448C188.642 16.592 188.946 16.784 189.25 17.024C189.57 17.264 189.802 17.584 189.946 17.984C190.106 18.368 190.186 18.824 190.186 19.352C190.186 21.88 188.33 23.144 184.618 23.144C183.37 23.144 182.33 23 181.498 22.712C181.242 23.192 181.058 23.448 180.946 23.48C179.762 23.368 178.978 22.968 178.594 22.28Z" fill="#151313"/>
</svg>
