<svg width="50" height="50" viewBox="0 0 50 50" fill="none" xmlns="http://www.w3.org/2000/svg">
<ellipse cx="24.1098" cy="24.5651" rx="17.6527" ry="17.6251" fill="white"/>
<path d="M24.7197 0.862305C38.1396 0.862305 49.0683 11.7686 49.0683 25.1869C49.0683 38.577 38.1396 49.4833 24.7197 49.4833C11.2998 49.4833 0.371094 38.577 0.371094 25.1869C0.371094 11.7686 11.2998 0.862305 24.7197 0.862305ZM21.9464 15.5213C21.4293 15.5213 20.9358 15.6386 20.4657 15.8731C19.8782 16.2015 19.4081 16.7175 19.1496 17.3273C18.9851 17.7495 18.7265 19.016 18.7265 19.0395C18.468 20.4233 18.327 22.6749 18.327 25.1611C18.327 27.5323 18.468 29.6878 18.6795 31.0951C18.703 31.1185 18.9616 32.69 19.2436 33.2294C19.7607 34.2145 20.7713 34.8243 21.8524 34.8243H21.9464C22.6515 34.8009 24.1321 34.191 24.1321 34.1676C26.6234 33.1356 31.5354 29.9223 33.5096 27.788L33.6506 27.6473C33.9092 27.3893 34.2382 26.9905 34.3087 26.8967C34.6847 26.4042 34.8728 25.7944 34.8728 25.1869C34.8728 24.5044 34.6612 23.8711 34.2617 23.3551C34.1677 23.2613 33.8151 22.8626 33.4861 22.5342C31.5589 20.4702 26.5294 17.0928 23.8971 16.0608C23.4975 15.8989 22.4869 15.5448 21.9464 15.5213Z" fill="#FD3E6C"/>
</svg>
