<svg width="17" height="16" viewBox="0 0 17 16" fill="none" xmlns="http://www.w3.org/2000/svg">
<g clip-path="url(#clip0)">
<path d="M8.89844 16C13.3167 16 16.8984 12.4183 16.8984 8C16.8984 3.58172 13.3167 0 8.89844 0C4.48016 0 0.898438 3.58172 0.898438 8C0.898438 12.4183 4.48016 16 8.89844 16Z" fill="#F0F0F0"/>
<path d="M16.4008 10.7825C16.7224 9.91582 16.8984 8.97844 16.8984 7.99988C16.8984 7.02132 16.7224 6.08394 16.4008 5.21729H1.39603C1.07447 6.08394 0.898438 7.02132 0.898438 7.99988C0.898438 8.97844 1.07447 9.91582 1.39603 10.7825L8.89844 11.4781L16.4008 10.7825Z" fill="#0052B4"/>
<path d="M8.90084 16.0001C12.3406 16.0001 15.2729 13.8291 16.4032 10.7827H1.39844C2.52878 13.8291 5.46112 16.0001 8.90084 16.0001Z" fill="#D80027"/>
</g>
<defs>
<clipPath id="clip0">
<rect width="16" height="16" fill="white" transform="translate(0.898438)"/>
</clipPath>
</defs>
</svg>
