<svg width="25" height="24" viewBox="0 0 25 24" fill="none" xmlns="http://www.w3.org/2000/svg">
<path fill-rule="evenodd" clip-rule="evenodd" d="M12.1374 2C17.5074 2 21.8754 6.368 21.8754 11.738C21.8754 14.2715 20.9032 16.5823 19.3121 18.3165L22.4428 21.4407C22.7358 21.7337 22.7368 22.2077 22.4438 22.5007C22.2978 22.6487 22.1048 22.7217 21.9128 22.7217C21.7218 22.7217 21.5298 22.6487 21.3828 22.5027L18.2143 19.343C16.5475 20.6778 14.4341 21.477 12.1374 21.477C6.76744 21.477 2.39844 17.108 2.39844 11.738C2.39844 6.368 6.76744 2 12.1374 2ZM12.1374 3.5C7.59444 3.5 3.89844 7.195 3.89844 11.738C3.89844 16.281 7.59444 19.977 12.1374 19.977C16.6794 19.977 20.3754 16.281 20.3754 11.738C20.3754 7.195 16.6794 3.5 12.1374 3.5Z" fill="#151313"/>
</svg>
