<svg width="16" height="10" viewBox="0 0 16 10" fill="none" xmlns="http://www.w3.org/2000/svg">
<path fill-rule="evenodd" clip-rule="evenodd" d="M7.85229 9.53066H8.82238C8.82238 9.53066 9.1134 9.48215 9.25892 9.33664C9.40443 9.19113 9.40443 8.9001 9.40443 8.9001C9.40443 8.9001 9.40443 7.63899 9.98648 7.44498C10.5685 7.25096 11.3446 8.70609 12.1207 9.23963C12.7027 9.67617 13.1393 9.57916 13.1393 9.57916L15.2734 9.53066C15.2734 9.53066 16.389 9.48215 15.8555 8.56057C15.807 8.51207 15.5645 7.93002 14.2548 6.71741C12.8967 5.4563 13.0907 5.69882 14.6914 3.51613C15.6615 2.20652 16.0495 1.43045 15.9525 1.04242C15.8555 0.70289 15.1279 0.799899 15.1279 0.799899H12.7027C12.7027 0.799899 12.5087 0.751395 12.4117 0.848403C12.2662 0.945411 12.2177 1.09092 12.2177 1.09092C12.2177 1.09092 11.8296 2.10951 11.3446 2.98259C10.2775 4.77724 9.84097 4.87425 9.69545 4.77724C9.30742 4.53472 9.40443 3.71015 9.40443 3.1766C9.40443 1.43045 9.69545 0.70289 8.87088 0.508873C8.62836 0.460369 8.43434 0.411865 7.75529 0.411865C6.88221 0.411865 6.15465 0.411865 5.76661 0.605882C5.47559 0.751395 5.28157 1.04242 5.42708 1.04242C5.5726 1.04242 5.96063 1.13943 6.15465 1.38195C6.34866 1.81849 6.34866 2.54605 6.34866 2.54605C6.34866 2.54605 6.49418 4.63173 6.00913 4.87425C5.6696 5.06827 5.23307 4.68024 4.26298 3.03109C3.77794 2.20652 3.38991 1.23644 3.38991 1.23644C3.38991 1.23644 3.3414 1.04242 3.19589 0.945412C3.05038 0.848403 2.80786 0.799899 2.80786 0.799899H0.528157C0.528157 0.799899 0.188628 0.799899 0.0431149 0.945412C-0.0538936 1.09092 0.0431149 1.33345 0.0431149 1.33345C0.0431149 1.33345 1.83777 5.50481 3.87495 7.63899C5.76661 9.67617 7.85229 9.53066 7.85229 9.53066Z" fill="#B8B5BF"/>
</svg>
