<svg width="18" height="18" viewBox="0 0 18 18" fill="none" xmlns="http://www.w3.org/2000/svg">
<path d="M8.98857 9.25575C6.86982 9.25575 5.10882 7.49625 5.10882 5.41425C5.10882 3.26025 6.86982 1.5 8.98932 1.5C11.1808 1.5 12.8691 3.2595 12.8691 5.41425C12.8653 6.43654 12.4558 7.4155 11.7305 8.13598C11.0053 8.85646 10.0236 9.25949 9.00132 9.2565L8.98857 9.25575ZM8.98857 3.76275C8.09157 3.76275 7.40907 4.5165 7.40907 5.415C7.40907 6.312 8.09157 6.9945 8.98932 6.9945C9.92307 6.9945 10.5696 6.312 10.5696 5.415C10.5703 4.51575 9.92307 3.76275 8.98857 3.76275ZM10.5336 12.4523L12.7258 14.571C13.1571 15.0367 13.1571 15.7193 12.7258 16.1505C12.2593 16.6163 11.5401 16.6163 11.1808 16.1505L8.98932 13.9957L6.86982 16.1505C6.65457 16.3658 6.36657 16.473 6.04257 16.473C5.79132 16.473 5.50407 16.365 5.25207 16.1505C4.82082 15.7193 4.82082 15.0367 5.25207 14.5702L7.47957 12.4515C6.67515 12.2133 5.90347 11.8759 5.18232 11.4472C4.64307 11.16 4.53582 10.4423 4.82307 9.903C5.18232 9.3645 5.82882 9.22125 6.40407 9.5805C7.18302 10.0559 8.07791 10.3074 8.99045 10.3074C9.90299 10.3074 10.7979 10.0559 11.5768 9.5805C12.1521 9.22125 12.8338 9.3645 13.1571 9.903C13.4811 10.4423 13.3363 11.1592 12.8331 11.4472C12.1513 11.8785 11.3608 12.2017 10.5343 12.453L10.5336 12.4523Z" fill="#B8B5BF"/>
</svg>
