<svg width="17" height="16" viewBox="0 0 17 16" fill="none" xmlns="http://www.w3.org/2000/svg">
<path d="M14.8443 3.69991C12.4443 -0.00012231 7.54427 -1.10013 3.74424 1.19989C0.0442134 3.4999 -1.1558 8.49994 1.24422 12.2L1.44422 12.5L0.644218 15.5L3.64424 14.7L3.94424 14.9C5.24425 15.6 6.64426 16 8.04427 16C9.54429 16 11.0443 15.6 12.3443 14.8C16.0443 12.4 17.1443 7.49993 14.8443 3.69991ZM12.7443 11.4C12.3443 12 11.8443 12.4 11.1443 12.5C10.7443 12.5 10.2443 12.7 8.24428 11.9C6.54426 11.1 5.14425 9.79995 4.14424 8.29994C3.54424 7.59994 3.24424 6.69993 3.14424 5.79992C3.14424 4.99992 3.44424 4.29991 3.94424 3.79991C4.14425 3.59991 4.34425 3.4999 4.54425 3.4999H5.04425C5.24425 3.4999 5.44425 3.4999 5.54426 3.89991C5.74426 4.39991 6.24426 5.59992 6.24426 5.69992C6.34426 5.79992 6.34426 5.99992 6.24426 6.09993C6.34426 6.29993 6.24426 6.49993 6.14426 6.59993C6.04426 6.69993 5.94426 6.89993 5.84426 6.99993C5.64426 7.09993 5.54426 7.29993 5.64426 7.49994C6.04426 8.09994 6.54426 8.69994 7.04427 9.19995C7.64427 9.69995 8.24428 10.1 8.94428 10.4C9.14428 10.5 9.34428 10.5 9.44429 10.3C9.54429 10.1 10.0443 9.59995 10.2443 9.39995C10.4443 9.19995 10.5443 9.19995 10.7443 9.29995L12.3443 10.1C12.5443 10.2 12.7443 10.3 12.8443 10.4C12.9443 10.7 12.9443 11.1 12.7443 11.4Z" fill="#B8B5BF"/>
</svg>
