<svg width="19" height="18" viewBox="0 0 19 18" fill="none" xmlns="http://www.w3.org/2000/svg">
<rect x="0.0429688" width="18" height="18" rx="9" fill="#B8B5BF"/>
<path fill-rule="evenodd" clip-rule="evenodd" d="M6.56933 3.036C7.20915 3.00655 7.41315 3 9.04297 3C10.6728 3 10.8768 3.00709 11.5161 3.036C12.1553 3.06491 12.5917 3.16691 12.9735 3.31473C13.3733 3.46582 13.7361 3.702 14.0361 4.00745C14.3415 4.30691 14.5772 4.66909 14.7277 5.06945C14.8761 5.45127 14.9775 5.88764 15.007 6.52582C15.0364 7.16673 15.043 7.37073 15.043 9C15.043 10.6298 15.0359 10.8338 15.007 11.4736C14.9781 12.1118 14.8761 12.5482 14.7277 12.93C14.5771 13.3304 14.3411 13.6932 14.0361 13.9931C13.7361 14.2985 13.3733 14.5342 12.9735 14.6847C12.5917 14.8331 12.1553 14.9345 11.5171 14.964C10.8768 14.9935 10.6728 15 9.04297 15C7.41315 15 7.20915 14.9929 6.56933 14.964C5.93115 14.9351 5.49479 14.8331 5.11297 14.6847C4.71256 14.5342 4.34978 14.2981 4.04988 13.9931C3.74463 13.6935 3.50841 13.3308 3.3577 12.9305C3.20988 12.5487 3.10842 12.1124 3.07897 11.4742C3.04951 10.8333 3.04297 10.6293 3.04297 9C3.04297 7.37018 3.05006 7.16618 3.07897 6.52691C3.10788 5.88764 3.20988 5.45127 3.3577 5.06945C3.50864 4.66914 3.74503 4.30653 4.05042 4.00691C4.3499 3.70173 4.71232 3.46551 5.11242 3.31473C5.49424 3.16691 5.9306 3.06545 6.56879 3.036H6.56933ZM11.4675 4.116C10.8348 4.08709 10.645 4.08109 9.04297 4.08109C7.44097 4.08109 7.25115 4.08709 6.61842 4.116C6.03315 4.14273 5.7157 4.24036 5.50406 4.32273C5.22424 4.43182 5.02406 4.56109 4.81406 4.77109C4.61499 4.96476 4.46179 5.20052 4.3657 5.46109C4.28333 5.67273 4.1857 5.99018 4.15897 6.57545C4.13006 7.20818 4.12406 7.398 4.12406 9C4.12406 10.602 4.13006 10.7918 4.15897 11.4245C4.1857 12.0098 4.28333 12.3273 4.3657 12.5389C4.4617 12.7991 4.61497 13.0353 4.81406 13.2289C5.0077 13.428 5.24388 13.5813 5.50406 13.6773C5.7157 13.7596 6.03315 13.8573 6.61842 13.884C7.25115 13.9129 7.44042 13.9189 9.04297 13.9189C10.6455 13.9189 10.8348 13.9129 11.4675 13.884C12.0528 13.8573 12.3702 13.7596 12.5819 13.6773C12.8617 13.5682 13.0619 13.4389 13.2719 13.2289C13.471 13.0353 13.6242 12.7991 13.7202 12.5389C13.8026 12.3273 13.9002 12.0098 13.927 11.4245C13.9559 10.7918 13.9619 10.602 13.9619 9C13.9619 7.398 13.9559 7.20818 13.927 6.57545C13.9002 5.99018 13.8026 5.67273 13.7202 5.46109C13.6111 5.18127 13.4819 4.98109 13.2719 4.77109C13.0782 4.57204 12.8424 4.41884 12.5819 4.32273C12.3702 4.24036 12.0528 4.14273 11.4675 4.116ZM8.2766 10.8496C8.7046 11.0278 9.18117 11.0518 9.62493 10.9177C10.0687 10.7835 10.4521 10.4994 10.7097 10.114C10.9672 9.72849 11.083 9.26557 11.0372 8.80424C10.9914 8.34291 10.7868 7.9118 10.4584 7.58455C10.2491 7.37535 9.99599 7.21517 9.71733 7.11553C9.43867 7.0159 9.14138 6.97929 8.84687 7.00834C8.55237 7.03738 8.26796 7.13137 8.01413 7.28353C7.76031 7.43568 7.54337 7.64222 7.37895 7.88828C7.21453 8.13434 7.10671 8.41379 7.06325 8.70652C7.01979 8.99925 7.04178 9.29798 7.12763 9.58119C7.21347 9.8644 7.36105 10.1251 7.55973 10.3444C7.7584 10.5637 8.00324 10.7363 8.2766 10.8496ZM6.86224 6.81927C7.14862 6.5329 7.4886 6.30573 7.86277 6.15074C8.23694 5.99576 8.63797 5.91599 9.04297 5.91599C9.44797 5.91599 9.849 5.99576 10.2232 6.15074C10.5973 6.30573 10.9373 6.5329 11.2237 6.81927C11.5101 7.10565 11.7372 7.44563 11.8922 7.8198C12.0472 8.19397 12.127 8.595 12.127 9C12.127 9.405 12.0472 9.80603 11.8922 10.1802C11.7372 10.5544 11.5101 10.8943 11.2237 11.1807C10.6453 11.7591 9.8609 12.084 9.04297 12.084C8.22504 12.084 7.44061 11.7591 6.86224 11.1807C6.28388 10.6024 5.95895 9.81793 5.95895 9C5.95895 8.18207 6.28388 7.39764 6.86224 6.81927ZM12.811 6.37527C12.8819 6.30833 12.9387 6.22783 12.978 6.13853C13.0173 6.04924 13.0383 5.95296 13.0397 5.85542C13.0412 5.75787 13.023 5.66103 12.9863 5.57062C12.9496 5.48022 12.8952 5.3981 12.8262 5.32911C12.7572 5.26013 12.6751 5.20569 12.5847 5.16901C12.4943 5.13233 12.3975 5.11417 12.2999 5.11559C12.2024 5.11701 12.1061 5.13799 12.0168 5.17729C11.9275 5.21658 11.847 5.2734 11.7801 5.34436C11.6499 5.48238 11.5786 5.6657 11.5814 5.85542C11.5841 6.04513 11.6607 6.2263 11.7949 6.36046C11.929 6.49462 12.1102 6.57122 12.2999 6.57398C12.4896 6.57675 12.673 6.50547 12.811 6.37527Z" fill="white"/>
</svg>
