<svg width="10" height="10" viewBox="0 0 10 10" fill="none" xmlns="http://www.w3.org/2000/svg">
<g clip-path="url(#clip0)">
<path d="M5 10C7.76142 10 10 7.76142 10 5C10 2.23858 7.76142 0 5 0C2.23858 0 0 2.23858 0 5C0 7.76142 2.23858 10 5 10Z" fill="#F0F0F0"/>
<path d="M4.78125 5.00016H9.99863C9.99863 4.54887 9.93848 4.11168 9.82639 3.6958H4.78125V5.00016Z" fill="#D80027"/>
<path d="M4.78125 2.39127H9.26477C8.95869 1.89182 8.56734 1.45035 8.11105 1.08691H4.78125V2.39127Z" fill="#D80027"/>
<path d="M4.99914 10C6.17588 10 7.25746 9.59332 8.11156 8.91309H1.88672C2.74082 9.59332 3.8224 10 4.99914 10Z" fill="#D80027"/>
<path d="M0.733496 7.60855H9.26576C9.51148 7.2076 9.70205 6.76932 9.82738 6.3042H0.171875C0.297207 6.76932 0.487773 7.2076 0.733496 7.60855Z" fill="#D80027"/>
<path d="M2.31609 0.78082H2.77174L2.34791 1.08873L2.5098 1.58695L2.086 1.27904L1.66219 1.58695L1.80203 1.15654C1.42887 1.46738 1.1018 1.83156 0.832266 2.23734H0.978262L0.708477 2.43334C0.666445 2.50346 0.626133 2.57469 0.5875 2.64697L0.716328 3.04348L0.475977 2.86885C0.41623 2.99543 0.361582 3.12486 0.312461 3.25699L0.454395 3.69387H0.978262L0.554434 4.00178L0.716328 4.5L0.29252 4.19209L0.0386523 4.37654C0.0132422 4.5808 0 4.78885 0 5H5C5 2.23859 5 1.91305 5 0C4.01227 0 3.0915 0.286523 2.31609 0.78082ZM2.5098 4.5L2.086 4.19209L1.66219 4.5L1.82408 4.00178L1.40025 3.69387H1.92412L2.086 3.19564L2.24787 3.69387H2.77174L2.34791 4.00178L2.5098 4.5ZM2.34791 2.54525L2.5098 3.04348L2.086 2.73557L1.66219 3.04348L1.82408 2.54525L1.40025 2.23734H1.92412L2.086 1.73912L2.24787 2.23734H2.77174L2.34791 2.54525ZM4.30328 4.5L3.87947 4.19209L3.45566 4.5L3.61756 4.00178L3.19373 3.69387H3.7176L3.87947 3.19564L4.04135 3.69387H4.56521L4.14139 4.00178L4.30328 4.5ZM4.14139 2.54525L4.30328 3.04348L3.87947 2.73557L3.45566 3.04348L3.61756 2.54525L3.19373 2.23734H3.7176L3.87947 1.73912L4.04135 2.23734H4.56521L4.14139 2.54525ZM4.14139 1.08873L4.30328 1.58695L3.87947 1.27904L3.45566 1.58695L3.61756 1.08873L3.19373 0.78082H3.7176L3.87947 0.282598L4.04135 0.78082H4.56521L4.14139 1.08873Z" fill="#0052B4"/>
</g>
<defs>
<clipPath id="clip0">
<rect width="10" height="10" fill="white"/>
</clipPath>
</defs>
</svg>
